<?xml version="1.0" encoding="UTF-8"?>
<svg id="Layer_2" data-name="Layer 2" xmlns="http://www.w3.org/2000/svg" viewBox="0 0 223.69 223.69">
  <defs>
    <style>
      .cls-1 {
        fill: #0b7550;
      }

      .cls-2 {
        fill: #e5a3b0;
        stroke: #231f20;
        stroke-miterlimit: 10;
      }
    </style>
  </defs>
  <g id="Layer_1-2" data-name="Layer 1">
    <g>
      <circle class="cls-2" cx="111.85" cy="111.85" r="111.35"/>
      <g>
        <path class="cls-1" d="m150.26,55.97c-.22-.26-.43-.46-.63-.63-.87.1-1.32-.1-1.57-.31-.24-.2-.48-.56-.94-.63-.13-.02-.24,0-.31,0-.67,1.65-1.32,3.54-1.88,5.65-.41,1.56-.72,3.03-.94,4.39-.65-1.46-1.47-3.05-2.51-4.71-2.16-3.42-4.55-6-6.59-7.85.05.08.96,1.58.31,2.51-.07.1-.17.21-.31.31-.23-.34-.46-.52-.63-.63-.02-.01-.04-.03-.06-.04-.16-.1-.25-.28-.25-.46v-.13c0-.35-.14-.78-.31-1.26-.19-.52-.42-.94-.63-1.26-.39-.14-.92-.28-1.57-.31-.95-.05-1.72.15-2.2.31.34.24.83.63,1.26,1.26.32.47.51.92.63,1.26-.09.08-.21.18-.31.31-.18.24-.27.47-.31.63-.2-.36-.5-.81-.94-1.26-.69-.69-1.41-1.06-1.88-1.26-.23.52-.45,1.16-.63,1.88-.26,1.09-.32,2.07-.31,2.83.03-.07.32-.67.63-.63.12.02.2.12.31.31.5.82.36,1.05.63,1.26.33.25.63.31,1.26.31,0,0,.31,0,.31.31l.24,1.43.13.66c.05.27,0,.37-.05.42-.2.17-.64-.34-1.57-.63-.11-.03-.36-.11-.63-.31-.15-.12-.25-.23-.31-.31-.06-.02-.19-.05-.31,0-.21.08-.34.34-.31.63.15,1.09.36,2.25.63,3.45.52,2.35,1.19,4.45,1.88,6.28.16-.05.39-.14.63-.31.56-.41.56-.85.94-.94.22-.05.32.07.94.31.4.16.73.26.94.31.2.59.4,1.18.59,1.78,0,.07-.02.13-.03.2-.09.11-.18.18-.25.22-.08.04-.31.15-1.26,0-.35-.06-.54-.11-.63,0-.06.08-.03.2,0,.31.1.39.35.46.31.63-.05.24-.58.31-.63.31-.13.02-.24,0-.31,0,0,0,.62,1.56.63,1.57.21.52.42,1.05.63,1.57.84,2.11,1.07,2.73,1.57,3.77.13.27.24.49.31.63.53.18.8.12.94,0,.15-.12.18-.31.31-.31.04,0,.12.02.31.31.16.25.24.46.31.63.07.15.17.37.31.63.09.09.27.31.31.63.02.12.01.23,0,.31.32-.3,1.25-1.14,2.51-1.26.21-.02,1.31-.12,1.57.31.03.06.12.25.31.31.12.04.24.02.31,0-.01-.07-.02-.19,0-.31.07-.46.41-.51.63-.94.25-.5,0-.79.31-1.26.08-.1.15-.19.23-.24.05-.04.12-.06.18-.05.2.03.54.05.54.29,0,.63.63.63.63.63,0,0,.22.02.31,0,.62-.13,1.63-.53,1.88-.63.06.28.03.49,0,.63-.08.36-.27.51-.31.94-.02.14-.02.21,0,.31.06.28.25.35.31.63.02.1.02.2,0,.31.04.25.13.58.31.94.39.73.97,1.1,1.26,1.26h0c-.1-.08-.21-.17-.31-.31-.1-.13-.25-.33-.31-.63-.03-.12,0-.31,0-.94,0-.52.03-.55,0-.63-.09-.24-.25-.31-.31-.63-.03-.13-.04-.22,0-.31.07-.16.24-.16.31-.31.04-.08.04-.19,0-.31-.02-.36-.03-.9,0-1.57.05-1.36.23-2.36.31-2.83.25-1.43.55-3.47.94-6.28-.21-.19-.52-.44-.94-.63-.33-.15-.28-.07-1.26-.31-.09-.02-.2-.05-.31,0-.16.07-.16.24-.31.31-.08.04-.22.09-.31,0-.31-.31-.19-.36-.31-.63-.24-.51-.23-.52-.31-.63-.27-.33-.54-.34-.63-.63-.04-.13-.02-.24,0-.31h-.31c-.16.12-.26.24-.31.31-.13.18-.19.35-.31,1.57-.02.14-.02.21,0,.31.06.28.25.35.31.63.02.1.02.2,0,.31-.05,1.29-.19,2.35-.31,3.14,0,0-.38,2.4-1.26,5.02-.17.5-.23.56-.31.94-.1.46-.09.71-.31.94-.11.11-.21.15-.31.31-.11.17-.14.35-.16.47-.09.09-.31.27-.63.31-.12.02-.23.01-.31,0-1.72-2.88-3.54-6.39-5.18-10.52-1.55-3.91-2.6-7.54-3.32-10.7-.11-.48-.18-.98-.19-1.47-.11-2.75.68-3.35,1-3.52,1.85-.98,5.78,3.24,7.27,4.97.35.41.68.84.98,1.29l3.36,5.04.18-.72c.07-.26.36-.39.6-.27.23.13.49.24.79.35.47.17.91.26,1.26.31l.31.63c.19.02.56.07.94.31.34.21.53.47.63.63.33-1.68.74-3.47,1.26-5.34.49-1.79,1.02-3.47,1.57-5.02-.14-.27-.34-.6-.63-.94Z"/>
        <path class="cls-1" d="m181.34,135.07c-.46-1.17-1.22-2.76-2.51-4.39-1.66-2.09-3.48-3.37-4.71-4.08-2.31-1.29-4.73-2.75-7.22-4.39-3.65-2.41-6.88-4.86-9.73-7.22,0,0,.01-.01.02-.02-.3-.32-.46-.75-.48-1.19-.42-.39-.83-.79-1.24-1.21-.92-.96-2.13-2.65-3.37-3.46-.53-.14-1.01-.38-1.42-.69-.03,0-.07,0-.1-.01-.05-.02-.07-.08-.09-.14-.7-.61-1.15-1.48-1.15-2.56,0-1.6,1.3-3.31,2.94-3.54.22-.87.4-1.82.5-2.85.4-4.35-.83-7.76-1.57-9.42-.47-1.01-.44-1.72-.31-2.2.24-.92,1.14-2.05,1.26-2.2.2-.25.54-.65.63-1.26,0-.06,0-.04,0-.63,0-.98-.02-1.47,0-1.57.02-.13.07-.35,0-.63-.05-.19-.13-.33-.31-.63-.21-.35-.31-.43-.31-.63,0-.14.04-.19,0-.31-.07-.19-.26-.29-.31-.31-.03-.02-.33-.15-.63,0-.19.09-.28.25-.31.31-1.51,2.02-1.88,2.97-1.88,3.45v1.88c.02.2.04.29,0,.31,0,.78,0,.86,0,1.57,0,0-.02,1.47-.14,3.18.05.27.11.57.14.9.09.88.03,1.56,0,1.88-.19,1.91-1.32,4.37-1.57,5.02-.16.42-1.45,3.7-2.83,5.65-.16.23-.55.76-.94,1.57-.38.79-.34.98-.63,1.57-.62,1.26-1.58,1.98-1.88,2.2-.81.57-1.62.82-2.2.94-.18.07-.79.29-1.26,0-.63-.4-.67-1.53-.31-2.2.18-.34.46-.48.63-.94.17-.48.09-.95,0-1.26-.1-.33-.28-1.07,0-1.88.09-.25.2-.46.31-.63h-.31c-.46.52-.59,1.01-.63,1.26-.08.49-.02,1.06,0,1.26.02.2.05.38,0,.63-.06.26-.17.4-.31.63-.34.53-.54.84-.63,1.26-.05.22-.12.56,0,.94.1.32.31.61.31.94,0,.24,0,.31,0,.31,0,.21-.02.25,0,.31.05.17.22.26.31.31.49.26,1.47.03,1.57,0-.51.4-1.39,1.21-1.88,2.51-.18.46-.27.89-.31,1.26-.3-.13-.74-.34-1.26-.63-.4-.22-.45-.27-.63-.31-.33-.08-.59,0-1.57.31-.38.13-.7.23-.94.31-1.06-.73-1.92-1.24-2.51-1.57-.24-.13-.53-.29-.94-.31-.83-.04-1.45.52-1.57.63-.49.44-.54.85-.94,1.88-.23.61-.74,1.89-1.57,3.14-.38.57-.7.93-1.26,1.57-.63.72-1.46,1.59-2.51,2.51-.43.5-.58.94-.63,1.26-.07.44.06.54,0,1.26-.04.47-.07.86-.31,1.26-.2.32-.45.51-.63.63-.41.15-1.19.49-1.88,1.26-.53.59-.8,1.19-.94,1.57-.21.52-.42,1.05-.63,1.57-.25.73-.14,1.47.31,1.88.2.18.43.27.63.31.06-.17.15-.39.31-.63.21-.31.46-.51.63-.63.02.17.03.38,0,.63-.05.42-.2.74-.31.94.28.09,2,.65,3.45-.31.44-.29.74-.64.94-.94.06-.24.21-.72.63-.94.22-.12.46-.13,1.26,0,1.25.21,1.19.34,1.57.31.98-.07,1.67-.97,1.88-1.26.4-.53.57-1.06.63-1.26.23-.81.03-1.17.31-1.88.15-.38.28-.44.63-.94.44-.64,1.14-1.64,1.26-2.83.09-.87-.21-1.06,0-1.88.14-.56.42-.99.63-1.26,2.5,1.64,4.06,3.06,5.02,4.08.33.35,1.07,1.16,2.2,2.2.9.83,1.67,1.47,2.2,1.88,2.78,1.98,4.53,2.15,5.65,1.88.52-.12,1.96-.59,3.45,0,.27.11.49.23.63.31,3.39,2.4,6.02,3.67,7.85,4.39.64.25,2.07.79,3.77,1.88,1.42.91,2.46,1.85,3.14,2.51.07.76.22,1.99.63,3.45.64,2.29,1.17,2.54,1.88,5.02.4,1.41.81,3.19.94,4.08.08.58.26,1.47.63,2.51.31.87.62,1.23.94,2.2,0,0,.51,1.24.94,2.83.63,2.34.49,4.51.31,7.22,0,0-.14,2.14-1.26,5.96-.05.16-.13.4-.31.63-.11.15-.23.25-.31.31-.57.43-2.35,1.89-2.83,4.39-.19,1.01-.12,1.88,0,2.51.33.21.99.56,1.88.63,1.26.09,2.19-.42,2.51-.63.85,0,.94,0,.94,0,.04,0,.74-.1,1.26-.63.37-.38.23-.57.63-1.26.44-.78.67-.65.94-1.26.25-.56.42-1.45,0-1.88-.08-.08-.19-.15-.31-.31-.24-.32-.3-.68-.31-.94.09-.47.62-3.17,1.57-4.71.27-.45.63-.94.63-.94.49-.69.75-.95,1.26-1.57,1.69-2.07,1.86-2.92,1.88-3.45,0-.13,0-.25,0-.31l-.94-2.83c-.13-.44-.28-1.09-.31-1.88-.05-1.07.24-2.2.94-4.39.38-1.2.82-2.24,1.26-3.14.14-.27.34-.6.63-.94.22-.26.43-.46.63-.63.25-.16,4.03-2.59,4.08-7.22.05-4.52-3.49-7.03-3.77-7.22Zm-53.99-13.18c-.19.58-.41,1.1-.63,1.57-.15.06-.38.15-.63.31-.82.53-.89,1.11-1.57,1.88-.59.66-.77.49-1.57,1.26-.62.59-1.01,1.17-1.26,1.57-.22.03-.55.06-.94,0-.22-.03-.42-.09-.58-.15-.16-.06-.32.09-.27.25.05.16.12.34.23.53.3.53.73.82.94.94,0,.09.07.97-.63,1.57-.51.44-1.24.56-1.88.31.07-.28.17-.6.31-.94.1-.24.21-.44.31-.63-.2-.01-.73-.02-1.26.31-.33.21-.52.46-.63.63-.11-.14-.25-.35-.31-.63-.22-.97.62-2.17,1.57-2.83,1.44-1,1.51-.88,1.88-1.57.65-1.2-.16-2.18.63-3.45.08-.13.11-.15.94-.94,2.26-2.14,2.56-2.49,2.83-2.83.36-.46.84-1.18,1.26-2.2.18.43.47,1,.94,1.57.32.4.65.71.94.94-.12.74-.32,1.59-.63,2.51Zm26.05-9.1c.24.99.62,1.39.94,1.57.15.09.52.25.94.63.14.13.24.24.31.31-.56.27-1.08.58-1.57.94-1.38,1.01-1.75,1.81-3.14,2.83-.49.36-1.01.67-1.57.94-.27.13-.84.37-1.57.31-.24-.02-1.51-.15-2.2-1.26-.27-.44-.4-.94-.39-1.45.02-.72.36-1.38.89-1.86.83-.76,2.12-1.72,3.9-2.34,1.36-.47,2.57-.61,3.45-.63Zm-12.86-2.63s.24-.18.5-.31c.16-.08.3-.15.43-.2.03,0,.24.09.31.31.05.14.02.27,0,.31-.05-.02-.17-.05-.31,0-.22.08-.31.31-.31.31.11.2.3.48.63.63.4.18.66,0,1.26,0,.82,0,.82.33,1.57.31.17,0,1.14-.02,1.57-.63.19-.27.09-.4.31-.63.41-.42,1.13-.33,1.26-.31.38.05.32.15.94.31.56.14.81.11.94.31.06.09.08.19.07.31,0,.05-.02.1-.03.14-.04.1-.11.15-.13.17-.05.04-.1.06-.12.06-.01,0-.02,0-.02,0-.03,0-1.94.56-3.84,1.51-2.28,1.14-2,1.32-3.14,1.88-.63.31-2.51,1.26-3.77-.63-.63-.94.31-2.83,1.9-3.88Zm-6.29,4.51c.26,0,.46.08.94.31.34.16.77.37,1.26.63-.13.11-.34.27-.63.31,0,0-.15.02-.31,0-.6-.08-2.11-.89-2.2-.94.19-.13.52-.32.94-.31Zm10.88,11.64c-.19.13-.38.2-.56.24-.35.08-.73.04-1.06-.08-2.43-.88-4.15-1.96-5.3-2.83-1.52-1.14-2.3-2.08-4.53-3.73-1.3-.96-2.43-1.67-3.2-2.13.55.04,1.18.12,1.86.27.71.15,1.33.34,1.86.53-.37-.22-.85-.56-1.33-1.07-.55-.59-.88-1.18-1.07-1.6.98.62,2.13,1.27,3.46,1.86,1.66.75,3.2,1.25,4.53,1.6,1.1.5,2.56,1.32,4,2.66.78.73,1.39,1.47,1.86,2.13.09.13.26.42.27.8,0,.79-.75,1.3-.8,1.33Zm27.73,44.23c-.18.42-.26.74-.31.94-.41,1.55-.58,1.51-.63,2.2-.04.64.11.73,0,1.26-.05.26-.15.32-.63,1.26-.18.35-.27.53-.31.63-.14.34-.3.85-.31,1.57-.39.24-.82.55-1.26.94-.24.21-.45.42-.63.63-.05-.05-.1-.1-.15-.15-.09-.09-.13-.23-.1-.36.1-.37.08-.67-.06-.74-.15-.08-.46.08-.63.31-.26.37-.08.81-.31.94-.1.06-.23.03-.31,0-.18-.34-.27-.66-.31-.94-.39-2.65,3.24-4.9,3.45-5.02.4-.56.86-1.29,1.26-2.2.3-.69.5-1.33.63-1.88.05-.15.14-.38.31-.63.13-.19.22-.32.31-.31.1,0,.22.18.31.94-.08.14-.2.36-.31.63Zm.94-7.53c-.06.81-.21,1.47-.31,1.88-.08.26-.37.4-.63.31-.26-.08-.4-.37-.31-.63.08-1,.05-1.86,0-2.51-.17-2.23-.75-3.89-.94-4.39-.12-.33-.04-.07-.94-2.2-.56-1.32-.76-1.82-.94-2.51-.19-.74-.21-1.14-.31-1.88-.08-.58-.4-2.77-1.26-5.02-.51-1.34-.68-1.3-1.26-2.83-.49-1.29-.77-2.39-.94-3.14-.08-.74-.13-2,.31-3.45.35-1.12.86-1.97,1.26-2.51.17-.29.44-.89.31-1.57-.04-.21-.09-.47-.31-.63-.12-.09-.26-.12-.4-.12-.3,0-.57.15-.75.4-.13.18-.27.38-.41.61-2-1.34-3.65-1.74-4.87-1.84-.79-.06-2.12-.05-4.11-.4-.94-.17-1.71-.36-2.23-.51,1.48,1.7,2.9,2.66,3.95,3.24,1.41.77,2.56,1.06,4.21,2.28.64.47,1.16.94,1.55,1.33-.07.5-.09.93-.09,1.29-.52-.45-1.38-1.14-2.51-1.88-2.21-1.45-2.9-1.41-5.02-2.83-.77-.51-2.07-1.38-3.45-2.83-1-1.04-1.08-1.36-1.88-2.2-.8-.83-2.07-1.91-4.08-2.83.02-.18.03-.4,0-.63-.08-.73-.41-1.28-.63-1.57-1.07-1.32-2.08-2.23-2.83-2.83-.88-.7-2.65-2.12-4.08-2.83-.14-.07-.53-.25-.94-.63,0,0,0,0-.02-.01-.31-.28.02-.62.33-.62.51,0,1.46.1,2.2,0,1.61-.23,2.44-.98,3.02-1.43-.25.24-1.04,1.08-1.14,2.37-.13,1.6.9,2.76,1.1,2.97.07.07.13.13.16.17,1.31,1.34,3.28,1.59,4.71,1.26,1.52-.35,2.61-1.4,3.77-2.51.53-.51,1.24-1.29,2.51-2.2.39-.28.72-.49.94-.63.89.53,2.46,1.89,4.14,3.3.49.41.92.88,1.28,1.4.31.45.64,1.01.85,1.59.21.58.4,1.11.31,1.57,0,.05-.03.17,0,.31.08.31.38.51.63.63,3.75,2.32,6.2,4.41,6.59,5.02.4.62.63,1.26.63,1.26.26.71.42,1.44.31,3.77-.06,1.24-.26,1.97,0,3.14.21.97.51,1.21.94,2.2,1.35,3.12.81,6.41.63,7.53-.13.82-.19.73-.31,1.57-.11.76-.32,2.52,0,5.02.01.09.22,1.11.63,3.14.52,2.6.73,3.61.63,5.02Zm3.14,0c-.02.23-.1.94-.63,1.57-.03.04-.66.78-.94.63-.24-.12-.15-.81,0-1.26.1-.31.22-.44.31-.63.34-.67.12-1.43,0-1.88,0,0-.59-2.23-.94-5.65-.08-.72-.13-1.8,0-3.14.15-.19.35-.41.63-.63.47-.37.94-.54,1.26-.63-.46,2.06-.81,4.89-.31,8.16.16,1.03.38,1.97.63,2.83.02.15.03.37,0,.63Zm3.14-21.66c-.18,3.89-2.48,6.9-3.37,8.05-.05.07-.08.11-.08.11-.09-.27-.17-.64,0-.94.09-.17.23-.25.31-.31.61-.43.85-1.26.94-1.57.2-.67-.03-.84,0-1.88.03-.87.2-1.15.31-1.88.23-1.52-.24-2.14-.31-3.45-.05-.89.08-2.17.94-3.77,1.24,2.5,1.31,4.6,1.26,5.65Zm1.57,4.71c.41-1.11.86-2.72.94-4.71.06-1.5-.11-2.78-.31-3.77.27.23,1.79,1.57,1.88,3.77.13,2.94-2.39,4.63-2.51,4.71Z"/>
        <path class="cls-1" d="m216.5,103.37c-.15-.53-.66-.92-1.26-.94-3.12.03-7.19-.35-11.61-1.88-1.37-.48-2.63-1.01-3.77-1.57,1.2.15,3.05.18,5.02-.63.46-.19.88-.4,1.26-.63-.16-.38-.36-.81-.63-1.26-.21-.35-.42-.67-.63-.94.78.02,2.98-.05,5.02-1.57,1.16-.86,1.83-1.86,2.2-2.51-4.02.16-9.93-.09-16.64-2.2-4.56-1.43-8.24-3.33-10.99-5.02-.63-.61-1.36-1.24-2.2-1.88-1-.76-1.95-1.38-2.83-1.88-1.7-.89-2.7-.75-3.14-.63-.17.05-.57.18-.94.31-.83.3-1.06.46-1.57.63-.35.12-.88.26-1.57.31-1.74-.14-4.28-.13-7.22.63-3.88,1-6.63,2.86-8.16,4.08-.13.29-.27.72-.31,1.26-.07.86.16,1.53.31,1.88.72,1.48,1.95,4.5,1.88,8.48-.07,4.02-1.42,7.02-2.2,8.48-.25.27-.67.64-1.26.94-.38.19-.47.17-2.2.63-1.49.4-1.67.48-1.88.63-.26.17-.45.35-.59.32-.32.72-.72,1.4-1.19,2.04.09.03.16.07.21.15.03.04.04.09.06.13,2.39.68,4.4,2.15,5.85,4.08.57.03,1.13.1,1.67.21-.01-.01-.03-.02-.04-.03.08-.1.24-.31.31-.63.06-.27.03-.5,0-.63.6.35,1.56.8,2.83.94.6.07,1.13.05,1.57,0,0-.4-.07-.96-.31-1.57-.1-.24-.2-.45-.31-.63.53.05,1.33.04,2.2-.31.24-.09.44-.2.63-.31-.11-.2-.26-.52-.31-.94-.03-.24-.02-.46,0-.63.21.11.53.25.94.31.39.06.72.03.94,0,.25-.05.58-.14.94-.31.42-.2.73-.44.94-.63.77.03,1.75-.02,2.83-.31.34-.09.65-.2.94-.31,3.46-2.59,6.04-4.41,6.59-4.71.47-.25.94-.31.94-.31.26-.03.48-.02.63,0,3.38,1.66,9.52,4.12,17.58,4.39,8.83.3,15.63-2.19,19.15-3.77.03-.03.51-.57.31-1.26Zm-36.73-19.46c.12-.12.37-.11.63,0,.52.21,1.05.42,1.57.63,0,0,.3.3.31.31.58.58.62.62.63.63.23.23.78.49,2.2.63l4.71,1.88c2.85,1.49,6.88,3.18,11.93,4.08,2.94.52,5.6.66,7.85.63-.44.27-1.08.62-1.88.94-.85.34-2.47.89-5.02.94-4.81.1-9-1.62-10.36-2.2-2.36-1-4.57-2.31-5.96-3.14-1.05-.62-1.91-1.18-2.51-1.57-.13-.09-.35-.22-.63-.31-.62-.2-.96-.05-1.26-.31-.23-.2-.09-.34-.31-.63-.35-.44-.76-.22-1.26-.63-.39-.32-.5-.76-.63-1.26-.12-.48-.04-.59,0-.63Zm0,3.45c.19.28.23.45.31.63.27.54.85.77,1.26.94.86.37,2.5,1.16,4.71,2.2,2.35,1.22,5.52,2.57,9.42,3.45,2.71.61,5.15.87,7.22.94.15.01.81.08,1.26.63.19.23.27.46.31.63-.73.13-1.82.28-3.14.31-3.98.09-6.99-.99-9.42-1.88-1.79-.66-4.22-1.73-6.91-3.45-.81-.52-1.75-1.06-2.83-1.57-1.04-.5-2.02-.88-2.91-1.18-.14-.04-.28-.06-.42-.07-.04,0-.08,0-.13,0-.73-.09-1.15-.77-1.26-.94.47.07.84-.07.94-.31.05-.13.01-.28,0-.31-.13-.4-.63-.46-.63-.63,0-.08.13-.19.63-.31.21.02.57.08.94.31.35.22.53.49.63.63Zm-2.2-2.83c.14-.11.24-.22.31-.31.11.02.39.08.63.31.37.37.32.87.31.94-.56.35-1.2.34-1.57,0-.23-.2-.29-.48-.31-.63.16-.04.39-.13.63-.31Zm-4.71,17.26c-.03.22-.14.43-.31.63-.26.12-.69.29-1.26.31-.73.03-1.29-.18-1.57-.31-.26-.26-.31-.47-.31-.63s.05-.24,0-.31c-.09-.13-.38-.07-.63,0-.25.08-.87.24-1.57,0-.19-.06-.62-.22-.94-.63-.24-.31-.13-.41-.31-.63-.4-.47-.99-.13-1.88-.63-.47-.26-.59-.51-.63-.63-.09-.25-.04-.49,0-.63.08-.03.2-.05.31,0,.2.08.21.31.31.31.13,0,.29-.31.31-.63.03-.3-.08-.42,0-.63.07-.16.21-.26.31-.31.77.4.94.72.94.94,0,.08-.02.16,0,.31,0,.08.07.47.31.63.28.18.49-.12.94,0,.37.1.51.38.63.31.05-.03.09-.12.04-.4-.02-.14.02-.29.12-.39l.08-.08s.1-.05.16-.03c.14.07.33.16.54.27.51.28.77.42.94.63.11.13.3.42.31.94.02.11.08.39.31.63.1.1.31.31.63.31.23,0,.49-.1.63-.31.23-.37.03-1-.31-1.26-.1-.07-.25-.14-.31-.31-.04-.12-.02-.24,0-.31.94-.1,1.58.16,1.88.31.42.22,1.02.65.94.94-.03.11-.13.1-.31.31-.07.08-.27.31-.31.63-.04.25.04.38,0,.63Zm-11.62-4.09c-.03-.83-.13-1.58-.26-2.2.11,0,.21,0,.31,0,.21,0,.42,0,.63.02.08.07.2.17.31.32.43.57.59,1.44.26,2.2-.36.85-1.13,1.16-1.28,1.23.04-.47.06-1,.04-1.57Zm.95-3.13c-.26.06-.62.15-.94,0-.4-.19-.64-.69-.63-1.26.21-.1.42-.21.63-.31.07-.19.12-.44,0-.63-.1-.17-.26-.16-.31-.31-.07-.2.08-.5.31-.63.24-.13.51-.04.63,0,.53.19.87.76.94,1.26.03.21-.02.16,0,.63.03.6.12.75,0,.94-.12.19-.34.24-.63.31Zm-.63-5.02c.58-.16.83-.42.94-.63.2-.35.09-.65.31-1.26.1-.28.23-.5.31-.63.23.14.64.43.94.94.07.11.62,1.05.31,1.57-.31.52-1.48.62-2.83,0Zm6.91,5.02c1.16.8,1.8,1.91,1.57,2.83-.04.18-.13.4-.31.63-.35.03-1.08.05-1.88-.31-.63-.29-1.04-.69-1.26-.94.06-.34.19-.52.31-.63.04-.04.09-.07.18-.11.09-.04.22-.1.45-.2.11-.02.39-.08.63-.31.37-.37.32-.87.31-.94Zm1.26-1.26s-.71.81-1.57.63c-.29-.06-.5-.21-.63-.31-.03-.08-.05-.2,0-.31.07-.17.22-.17.31-.31.11-.17.06-.4,0-.63-.03-.14-.12-.38-.31-.63.17-.11.38-.23.63-.31.82-.28,1.55-.1,1.88,0,.02.06.35,1.1-.31,1.88Zm-.63-2.83c-.31.1-.63.21-.94.31-.31.1-.63.21-.94.31l-.63-.63c.27-.27.32-.48.31-.63,0-.19-.12-.3-.31-.63-.15-.26-.25-.48-.31-.63v-.94c.3.02,1.33.12,2.2.94.62.58.85,1.25.94,1.57-.1.1-.21.21-.31.31Zm-2.83,5.65c-.1.1-.21.21-.31.31-.41.09-.98.15-1.57,0-.35-.09-.51-.19-.63-.31-.22-.22-.29-.49-.31-.63.09-.08.21-.18.31-.31.18-.24.27-.47.31-.63.46.09.84-.06.94-.31.02-.05.05-.15,0-.31.1.03,1,.36,1.26,1.26.11.4.05.75,0,.94Zm-.31-3.77c-.03.3-.2.51-.31.63-.21.1-.42.21-.63.31-.21-.1-.42-.21-.63-.31.11-.43.06-.74,0-.94-.08-.27-.25-.55-.31-.64.02-.1.07-.38.31-.62.07-.07.28-.26.63-.31.19.21.43.52.63.94.3.62.33.83.31.94Zm5.65-3.45c.06-.1.16-.22.31-.31.47-.29,1.27-.21,1.57.31.17.29.15.67,0,.94-.24.44-.76.53-1.26.63-.29.05-.73.1-1.26,0-.03,0-.24-.09-.31-.31-.05-.14-.02-.27,0-.31.48-.05.85-.3.94-.63.02-.07.03-.18,0-.31Zm.63,2.83c.1-.1.21-.21.31-.31.08,0,.19-.02.31,0,0,0,.34.05.63.31.33.3.29,1.35-.31,2.51-.13.1-.47.31-.94.31-.09,0-.88,0-1.26-.63-.26-.43-.4-1.45,0-1.26q.63.31.94,0c.15-.15.55-.09.63-.31.06-.19-.07-.44-.31-.63Zm-.94,6.28c-.19-.25-.27-.48-.31-.63-.05-.16-.14-.51,0-.63.08-.06.19-.02.31,0,.21.03.52,0,.94-.31v-.63c.08-.08.29-.27.63-.31.52-.07.89.27.94.31.11.21.25.53.31.94.06.39.03.72,0,.94-.1.13-.21.24-.31.31-.92.69-2.32.08-2.51,0Zm1.57-10.99c.19-.03.45-.11.63-.31.2-.23.13-.41.31-.63.28-.32.76-.31.94-.31.16,0,.57.03.94.31.59.45.62,1.16.63,1.26-.14.13-.71.62-1.57.63-1.13,0-1.8-.84-1.88-.94Zm-1.26-3.45c.04-.07.24-.04.63,0,.16.02.22.03.31,0,.03,0,.31-.1.31-.31,0-.14-.13-.28-.31-.31-.19-.07-.23-.23-.31-.31-.31-.31.21-.32.31-.31.46.02,1.13.08,1.88.31.73.23,1.5.46,1.57.94.07.44-.5.85-.63.94-.62.45-1.34.37-1.88.31-.41-.04-1.09-.13-1.57-.63-.03-.03-.43-.45-.31-.63Zm0,3.14c.05.17.11.4,0,.63-.08.17-.23.27-.31.31-1.35-.04-1.77-.34-1.88-.63-.09-.22-.04-.57-.31-.94-.11-.15-.23-.25-.31-.31.14-.1.35-.23.63-.31.56-.17,1.04-.06,1.26,0,.23.18.76.63.94,1.26Zm-4.39-2.83c.1-.18.35-.13.63-.31.17-.11.3-.19.31-.31.03-.2-.24-.3-.31-.63-.03-.13-.02-.24,0-.31.28-.05.73-.1,1.26,0,.49.09,1.1.21,1.26.63.18.48-.31,1.25-.31,1.26-.28.13-.84.35-1.57.31-.56-.03-1-.19-1.26-.31-.05-.16-.03-.26,0-.31Zm0,1.88c.44.09.75.39.94.63-.18.11-.39.22-.63.31-.48.19-.91.28-1.26.31-.09-.13-.19-.23-.31-.31-.23-.16-.4-.15-.63-.31-.12-.08-.22-.19-.31-.31.1-.17.22-.26.31-.31.3-.16.54-.02,1.26,0,.43.01.43-.04.63,0Zm-3.45-2.51c.61-.24,1.17-.31,1.57-.31.15.1.41.29.63.63.19.29.26.57.29.77.02.09-.06.18-.15.19-.2,0-.46-.02-.77-.02s-.63,0-.94-.31c-.08-.16-.19-.27-.31-.31-.23-.08-.4.08-.63,0-.13-.04-.23-.15-.31-.31.18-.11.39-.22.63-.31Zm-2.83,1.26s.08-.04.11-.06c.3-.15.65-.16.96-.02.06.03.12.05.19.08.54.21.83.16,1.26.31.24.09.58.26.94.63-.25.17-.48.26-.63.31-.4.14-.65.11-.94.31-.16.11-.26.23-.31.31-1.05.12-1.43-.09-1.57-.31-.12-.18-.1-.4-.31-.63-.19-.21-.45-.28-.63-.31.1-.15.59-.45.94-.63Zm-2.51,5.02c-.22-.43-.42-.83-.31-1.26.07-.28.21-.3.31-.63.13-.4-.14-.64,0-.94.08-.16.21-.26.31-.31.06.1.15.24.31.31.21.09.34,0,.63,0,.2,0,.45.11.94.31.36.15.54.23.63.31.1.09.33.36.31.94-.2.17-.41.27-.63.31-.36.07-.52-.07-.94,0-.19.03-.55.09-.63.31-.08.23.2.52.31.63.36.36.65.31.94.63.15.16.26.37.31.63-.07.1-.18.21-.31.31-.37.27-.76.31-.94.31-.14-.22-.35-.55-.63-.94-.36-.52-.47-.63-.63-.94Zm-2.01,18.12c.37-.17.6-.38.75-.55.13-.14.17-.23.31-.31.35-.19.78-.05.94,0,.24.08.16.1.63.31.21.09.39.16.63.31.3.19.32.27.31.31,0,.09-.11.13-.31.31-.16.13-.19.19-.31.31-.29.28-.59.58-.94.63-.27.04-.26-.11-.94-.31-.54-.16-.73-.12-.94-.31-.13-.12-.21-.26-.25-.4-.04-.12.01-.26.13-.31Zm.75,2.91c-.12.55-.51.86-.63.94-.39-.15-.71-.25-.94-.31-.51-.14-.68-.16-.94-.31-.33-.2-.26-.31-.63-.63-.61-.53-1.14-.52-1.26-.94-.03-.13-.02-.24,0-.31.29.07.87.18,1.57,0,.61-.15,1.03-.45,1.26-.63.12.18.31.43.63.63.31.19.44.14.63.31.34.3.4.86.31,1.26Zm2.83,2.51c-.33.06-.64.06-.94,0-.4-.08-.55-.23-.94-.31-.13-.03-.26-.04-.4-.05-.23,0-.37-.24-.28-.46.02-.04.04-.09.05-.13.12-.33.14-.55.31-.63.1-.04.14.01.31,0,.3-.03.42-.24.63-.31.42-.16.92.3.94.31.39.36.51.98.31,1.57Zm-1.26-7.22c.21-.27.42-.59.63-.94.26-.45.47-.87.63-1.26.16.08.27.19.31.31.08.23-.09.38,0,.63.05.14.18.27.31.31.09.03.15.02.31,0,.36-.04.54-.06.63,0,.19.13.14.61,0,.94-.19.43-.64.88-1.26.94-.64.06-1.27-.31-1.57-.94Zm3.77,5.02c-.62-.02-1.03-.19-1.26-.31-.13-.07-.33-.19-.31-.31.02-.12.24-.13.31-.31.05-.13-.03-.21,0-.31.03-.13.24-.27.94-.31.1.13.24.34.31.63.11.42.04.78,0,.94Zm1.88-3.14c-.79.4-1.89.13-2.83-.63.15-.1.41-.29.63-.63.24-.39.3-.76.31-.94.08.09.18.21.31.31.24.18.47.27.63.31.16-.04.39-.13.63-.31.14-.11.24-.22.31-.31.09.01.38.07.63.31.03.03.28.29.31.63.05.58-.59,1.08-.94,1.26Zm3.45.94c-1.09.02-1.89-.43-2.2-.63.15-.1.41-.29.63-.63.24-.39.3-.76.31-.94.41.3,1.05.67,1.88.94.74.24,1.4.3,1.88.31-.26.22-1.17.92-2.51.94Zm2.2-1.88c-.59-.1-.89-.6-1.88-.94-.66-.23-.98-.07-1.57-.31-.61-.25-1.01-.65-1.26-.94-.06-.08-.16-.2-.31-.31-.44-.32-.92-.28-1.26-.31-.39-.04-.94-.24-1.57-.94-.06-.1-.15-.24-.31-.31-.21-.09-.37-.01-.63,0-.31.02-.83-.07-.94-.31-.11-.25.28-.52.63-1.26.13-.28.21-.53.26-.73.04-.14.11-.27.21-.37l.15-.15c.09.06.22.16.31.31.18.28.14.53.31.63.06.03.15.05.31,0,0-.03.09-.24.31-.31.14-.05.27-.02.31,0,.03.14.05.37,0,.63-.1.54-.42.77-.31.94.1.17.53.16.63,0,.07-.1-.05-.21,0-.31.31-.63.76-.28,1.26,0,.6.34.46.92,1.26,1.57.35.28.54.31.63.31.42.03.54-.32.94-.31.51,0,.94.31.94.63,0,.35.12.43.31.63.31.31.57.26.94.31.78.11.72.3,1.88.63.35.1.89.23,1.57.31-.19.16-1.45,1.23-3.14.94Zm3.77-1.88c-1.27.17-2.23-.45-2.63-.77-.1-.08-.08-.24.03-.3.13-.07.26-.13.4-.19.37-.15.57-.16.94-.31.1-.04.2-.08.3-.13.22-.11.48-.14.72-.08.28.07.57.14.86.21.54.12,1.07.23,1.57.31-.16.2-.9,1.08-2.2,1.26Zm1.57-2.51c-.94-.65-.94-1.79-.94-1.88.33.3.75.63,1.26.94.82.5,1.6.78,2.2.94-.78.51-1.78.51-2.51,0Zm4.39-1.26c-.13.04-.51.16-1.1.13-.44-.03-.87-.16-1.27-.36-.81-.4-2.34-1.27-2.34-1.96,0-.24.04-.56.31-.94.73.42,1.46.84,2.2,1.26.95.54,1.89,1.06,2.83,1.57-.14.09-.35.22-.63.31Zm6.28.31c-1.05-.08-1.9-.36-2.51-.63-1.43-.68-2.9-1.41-4.39-2.2-1.19-.62-2.34-1.26-3.45-1.88.19-.02.56-.07.94-.31.34-.21.53-.47.63-.63,1.33.25,3.13.77,5.02,1.88.79.46,1.46.96,2.03,1.43.1.08.19.19.25.31.13.24.3.51.54.78.78.87,1.75,1.16,2.2,1.26-.37.03-.79.04-1.26,0Zm3.77-.94c-.28-.04-.53-.09-.76-.15-.29-.08-.56-.19-.82-.33-3.06-1.68-5.4-2.95-6.59-3.59-.84-.46-.63-.31-1.26-.63-.96-.48-1.45-.35-2.21-.76-.18-.1-.35-.23-.49-.37l-.04-.04c-.07-.07-.15-.11-.24-.13-.14-.02-.29,0-.47.05-.64.15-.62.28-.94.31-.23.03-.35-.02-1.26-.31-.2-.38-.3-.57-.31-.63-.07-.2-.12-.59.31-1.26.39.17.7.27.94.31h.63s-.05-.17,0-.31c.08-.22.29-.3.31-.31.11.02.39.08.63.31.3.3.07.75.31.94.2.16.54.03.63,0,1.04-.35,3.34.74,4.39,1.26,2.11,1.03,2.28,1.43,4.39,2.51,1.18.6,2.18,1.01,2.83,1.26.08.19.18.41.31.63.4.64.9,1.03,1.26,1.26-.4.05-.94.08-1.57,0Zm5.65-.94c-1.88-.23-3.37-.78-4.39-1.26-1.88-1-3.37-1.88-4.39-2.51-2.76-1.7-4.08-2.51-6.59-3.77-1.13-.57-2.17-.77-2.83-.94-.23-.06-.44-.06-.63,0-.28.08-.34.23-.63.31-.21.06-.38.03-.63,0-.22-.03-.56-.11-.94-.31v-.31c.07-.08.18-.19.31-.31.21-.19.28-.22.31-.31.04-.11,0-.3-.31-.63v-.31c.1-.16.21-.25.31-.31.58-.34,1.59.04,2.51.94v.31c.6.17,1.23.37,1.88.63,1.35.53,2.59,1.31,5.02,2.83.47.3,2.16,1.35,2.51,1.57.29.22.83.55,1.57.63.41.04.57.02.63,0,.24-.09.34-.26.63-.31.13-.03.24-.01.31,0,1.04.53,2.19,1.06,3.45,1.57,1.68.67,3.26,1.18,4.71,1.57.09.08.21.18.31.31.18.24.27.47.31.63-.92.11-2.1.16-3.45,0Z"/>
        <path class="cls-1" d="m148.06,51.26c.6-1.07,1.33-2.24,2.2-3.45.96-1.33,1.92-2.48,2.83-3.45.05-.18.27-.85.94-1.26,1.03-.62,2.14-.03,2.2,0,.63-.14,1.37-.26,2.2-.31.57-.03,1.1-.03,1.57,0,.21-.13.67-.37,1.26-.31.82.07,1.55.69,1.88,1.57.67.87,1.33,1.91,1.88,3.14,2.43,5.43,1,10.79.31,12.87-.19.37-.44.66-.63.63-.22-.04-.38-.54-.31-1.26.36-1.46.9-4.59-.31-8.16-.61-1.79-1.48-3.15-2.2-4.08.2-.23.5-.66.63-1.26.28-1.31-.5-2.34-.63-2.51-.12.14-.27.35-.31.63-.02.14,0,.25,0,.31.02.19.09.76,0,1.26-.04.22-.16.72-.63,1.26-.31-.13-.74-.27-1.26-.31-1.21-.1-2.14.4-2.51.63.29-.41.32-.75.31-.94-.01-.25-.1-.4-.63-1.26-.51-.83-.54-.87-.63-.94-.37-.31-1.02-.56-1.57-.31-.3.14-.47.38-.63.63-.16.25-.36.55-.31.94.04.31.19.57.31.63,1.26.63,1.34.97,1.57,1.57.08.19.13.5,0,.94-.6.69-1.25,1.52-1.88,2.51-.87,1.37-1.47,2.67-1.88,3.77-.11-.52-.35-1.2-.94-1.57-.33-.21-.59-.21-.94-.31-.51-.16-1.2-.54-1.88-1.57Z"/>
        <path class="cls-1" d="m136.76,97.09c-.01-.18.03-.32.13-.54.11-.26.27-.62.5-1.02.44-1.41.86-2.88,1.26-4.39,0,0,.16-.5.31-1.26.23-1.12.52-2.5,0-2.83-.1-.06-.29-.12-.62,0l-.32-.29c.07-.29.17-.61.32-.96.13-.31.27-.4.31-.63.04-.23,0-.54-.31-.94.06-.08.16-.2.31-.31.3-.23.44-.14.63-.31,0,0,.12-.11.31-.94.07-.01.19-.03.31,0,.37.07.51.36.63.31.11-.05.11-.37,0-.63-.16-.37-.57-.59-.94-.63-.04,0-.57-.05-.94.31-.21.2-.24.42-.31.63-.24.67-.7.66-1.57,1.57-.56.58-.95,1-.94,1.57,0,.23.01.71.31.94.1.07.25.14.31.31.03.1.03.2,0,.31-.14.54-.68.73-.63.94.04.16.35.07.63.31.37.32.32.9.31.94-.05.47-.49.43-.63.94-.04.17,0,.19,0,.94,0,.26,0,.48,0,.63-.35-.21-.53-.45-.63-.63-.16-.29-.13-.47-.31-.94-.13-.32-.25-.51-.31-.63-.19-.36-.32-1,0-2.2.03-.13.06-.35,0-.63-.07-.3-.21-.34-.31-.63-.03-.08-.2-.56,0-.94.18-.34.48-.29.63-.63.09-.22.04-.43,0-.63-.13-.59-.51-.72-.63-1.26-.04-.2-.04-.41,0-.63.07,0,.18-.02.31,0,.46.05.63.3.94.31.14,0,.36-.05.63-.31.32-.3,1.25-1.14,2.51-1.26.21-.02,1.31-.12,1.57.31.03.06.12.25.31.31.12.04.24.02.31,0,.22-.03.57-.13.94,0,.94.31,1.14.48,1.57.31.38-.15.45-.55.94-.63.14-.02.26,0,.31,0,.03,0,.07,0,.1.02.03,0,.06.02.09.03h0s.06.02.08.03c.03,0,.06.02.08.03.16.08.29.18.38.28,0,0,0,0,0,0,.1.1.17.19.2.24.04.25.13.58.31.94.39.73.97,1.1,1.26,1.26h0s.02.01.03.02c.05.03.09.06.14.09.02.01.05.03.07.04.03.01.05.03.08.04.08.04.18.1.28.16.02.01.04.03.06.04.09.06.18.13.28.23.35.33.55.67.63.63,0,.78,0,.86,0,1.57,0,0-.02,1.47-.14,3.18-.06-.25-.12-.48-.17-.67,0,0-.13-.57-.31-.94-.2-.41-.45-1-.94-1.57-.58-.66-.77-.83-.94-.94-.17-.11-.41-.22-.63-.31-.66-.28-1.43-.14-1.88,0-.49.16-.83.89-.94,1.26-.06.2-.34.91-.31.94.09.12.34.12.63,0,.06-.09.47-.53.63-.63.56-.36,1.4-.1,1.88.31.3.26.45.57.63.94.18.37.27.71.31.94-.99.87-1.78.96-2.2.94-.57-.03-1.47-.29-2.2-.63-.29-.13-.54-.28-.94-.31-.18-.02-.75-.06-1.26.31-.15.11-.25.23-.31.31-.26.67-.64,1.69-.94,2.83-.38,1.43-.07.88-.31,1.88-.03.13-.09.36,0,.63.12.35.44.54.63.63.31,0,.91.02,1.57.31.65.29,1.05.7,1.26.94.19-.15.41-.35.63-.63.37-.47.54-.94.63-1.26,0-.03.09-.24.31-.31.14-.05.27-.02.31,0,.04.27.02.48,0,.63-.08.51-.3.72-.31,1.26,0,.09,0,.12,0,.31,0,.46-.05.51,0,.63.1.24.44.4.63.31.14-.06.14-.24.31-.31.12-.05.24-.03.31,0-.2.48-.57,1.2-1.26,1.88-1.19,1.18-2.58,1.48-3.14,1.57-.73-.22-.92-.45-.94-.63-.02-.13.06-.22,0-.31-.11-.18-.56-.04-.94,0-.78.09-1.64-.15-2.2-.63-.46-.39-.6-.85-.63-.94-.13-.44-.09-.93,0-.94.08-.02.16.39.31.63.28.43,1.08.77,3.45.31.24-.06.46-.17.63-.31.17-.15.15-.2.31-.31.2-.14.52-.15.63-.31.03-.05.06-.14,0-.31-.19-.11-.39-.21-.63-.31-.12-.05-.24-.1-.35-.14-.34-.12-.71-.1-1.04.05-.07.03-.13.06-.18.08-.55.24-.53.28-.63.31-.24.09-.85.32-1.26,0-.28-.22-.31-.58-.31-.63Z"/>
        <path class="cls-1" d="m72.8,56.91c.55,1.55,1.08,3.23,1.57,5.02.51,1.87.93,3.66,1.26,5.34.1-.15.29-.41.63-.63.39-.24.76-.3.94-.31l.31-.63c.35-.05.78-.14,1.26-.31.3-.11.56-.23.79-.35.24-.13.53,0,.6.27l.18.72,3.36-5.04c.3-.45.62-.88.98-1.29,1.49-1.73,5.42-5.95,7.27-4.97.32.17,1.11.77,1,3.52-.02.5-.08.99-.19,1.47-.72,3.16-1.77,6.79-3.32,10.7-1.64,4.12-3.46,7.63-5.18,10.52-.08.01-.19.02-.31,0-.32-.05-.54-.23-.63-.31-.01-.13-.05-.3-.16-.47-.11-.17-.21-.2-.31-.31-.23-.23-.21-.48-.31-.94-.08-.38-.15-.44-.31-.94-.87-2.62-1.26-5.02-1.26-5.02-.13-.78-.26-1.85-.31-3.14-.02-.11-.02-.21,0-.31.06-.27.25-.35.31-.63.02-.1.02-.17,0-.31-.13-1.22-.18-1.39-.31-1.57-.06-.08-.15-.19-.31-.31h-.31c.02.08.04.19,0,.31-.08.29-.36.3-.63.63-.08.1-.07.12-.31.63-.13.27,0,.31-.31.63-.09.09-.23.04-.31,0-.15-.08-.16-.24-.31-.31-.11-.05-.22-.02-.31,0-.97.24-.93.16-1.26.31-.42.19-.73.43-.94.63.39,2.81.69,4.85.94,6.28.08.46.26,1.47.31,2.83.03.67.02,1.21,0,1.57-.04.13-.04.23,0,.31.08.15.24.16.31.31.04.09.03.19,0,.31-.07.31-.23.38-.31.63-.03.08,0,.11,0,.63,0,.63.03.82,0,.94-.07.3-.22.5-.31.63-.11.14-.21.24-.31.31h0c.28-.15.87-.53,1.26-1.25.19-.36.27-.69.31-.94-.02-.11-.02-.21,0-.31.06-.27.25-.35.31-.63.02-.1.02-.18,0-.31-.05-.43-.23-.58-.31-.94-.03-.14-.06-.35,0-.63.25.1,1.26.5,1.88.63.09.02.31,0,.31,0,0,0,.63,0,.63-.63,0-.24.34-.26.54-.29.06-.01.13,0,.18.05.07.06.15.14.23.24.32.46.07.76.31,1.26.22.43.56.48.63.94.02.13.01.24,0,.31.08.02.19.04.31,0,.19-.07.28-.25.31-.31.26-.43,1.36-.33,1.57-.31,1.26.11,2.19.95,2.51,1.26-.01-.08-.02-.19,0-.31.05-.32.23-.54.31-.63.14-.25.25-.47.31-.63.08-.17.15-.38.31-.63.19-.3.27-.31.31-.31.13,0,.17.19.31.31.14.12.41.18.94,0,.07-.13.18-.35.31-.63.5-1.04.73-1.66,1.57-3.77.21-.52.42-1.05.63-1.57,0,0,.62-1.56.63-1.57-.08,0-.19.02-.31,0-.05,0-.58-.08-.63-.31-.03-.17.21-.24.31-.63.03-.11.06-.24,0-.31-.08-.11-.28-.06-.63,0-.94.15-1.18.04-1.26,0-.08-.04-.16-.11-.25-.22,0-.07-.02-.13-.03-.2.2-.59.4-1.18.59-1.78.21-.06.54-.16.94-.31.62-.24.73-.36.94-.31.38.09.38.53.94.94.24.18.47.26.63.31.7-1.83,1.36-3.93,1.88-6.28.27-1.21.47-2.36.63-3.45.03-.29-.11-.55-.31-.63-.13-.05-.25-.02-.31,0-.06.08-.17.2-.31.31-.26.2-.52.28-.63.31-.93.29-1.37.79-1.57.63-.06-.05-.11-.15-.05-.42l.13-.66.24-1.43c0-.31.31-.31.31-.31.63,0,.93-.07,1.26-.31.27-.2.13-.44.63-1.26.12-.19.19-.3.31-.31.31-.04.6.56.63.63,0-.76-.05-1.73-.31-2.83-.18-.73-.4-1.36-.63-1.88-.47.19-1.2.57-1.88,1.26-.45.45-.74.9-.94,1.26-.04-.16-.13-.39-.31-.63-.11-.14-.22-.24-.31-.31.11-.34.3-.79.63-1.26.43-.62.92-1.02,1.26-1.26-.47-.17-1.24-.37-2.2-.31-.65.03-1.18.18-1.57.31-.2.31-.44.73-.63,1.26-.17.47-.31.9-.31,1.26v.13c0,.19-.09.36-.25.46-.02.01-.04.03-.06.04-.17.1-.4.29-.63.63-.14-.1-.24-.21-.31-.31-.64-.93.26-2.43.31-2.51-2.04,1.85-4.44,4.42-6.59,7.85-1.04,1.65-1.86,3.25-2.51,4.71-.23-1.37-.53-2.84-.94-4.39-.56-2.11-1.21-4-1.88-5.65-.07,0-.18-.02-.31,0-.46.07-.71.43-.94.63-.25.21-.7.42-1.57.31-.19.16-.41.37-.63.63-.29.34-.49.67-.63.94Z"/>
        <path class="cls-1" d="m38.59,142.29c.05,4.63,3.83,7.06,4.08,7.22.19.16.41.37.63.63.29.34.49.67.63.94.44.89.88,1.94,1.26,3.14.7,2.19.99,3.32.94,4.39-.03.8-.19,1.45-.31,1.88l-.94,2.83c0,.07,0,.18,0,.31.03.54.2,1.39,1.88,3.45.5.62.76.88,1.26,1.57,0,0,.35.5.63.94.94,1.53,1.48,4.24,1.57,4.71-.01.26-.07.62-.31.94-.13.17-.23.23-.31.31-.42.43-.25,1.32,0,1.88.27.61.5.48.94,1.26.4.69.26.88.63,1.26.51.53,1.21.62,1.26.63,0,0,.09,0,.94,0,.32.2,1.26.72,2.51.63.9-.07,1.55-.42,1.88-.63.12-.63.19-1.5,0-2.51-.48-2.5-2.25-3.96-2.83-4.39-.08-.07-.2-.17-.31-.31-.18-.23-.27-.46-.31-.63-1.12-3.82-1.26-5.96-1.26-5.96-.18-2.71-.32-4.88.31-7.22.43-1.58.94-2.83.94-2.83.32-.96.63-1.33.94-2.2.37-1.04.54-1.93.63-2.51.13-.89.54-2.67.94-4.08.71-2.48,1.25-2.73,1.88-5.02.41-1.47.56-2.7.63-3.45.67-.67,1.72-1.6,3.14-2.51,1.7-1.1,3.12-1.63,3.77-1.88,1.83-.73,4.46-2,7.85-4.39.14-.08.35-.2.63-.31,1.49-.59,2.93-.12,3.45,0,1.12.26,2.87.09,5.65-1.88.52-.41,1.3-1.05,2.2-1.88,1.13-1.04,1.87-1.85,2.2-2.2.97-1.02,2.52-2.44,5.02-4.08.21.27.48.69.63,1.26.21.82-.09,1.02,0,1.88.12,1.19.81,2.19,1.26,2.83.35.51.47.57.63.94.29.71.08,1.07.31,1.88.05.19.22.73.63,1.26.21.28.9,1.18,1.88,1.26.38.03.32-.1,1.57-.31.8-.13,1.04-.12,1.26,0,.42.22.57.7.63.94.2.3.5.65.94.94,1.46.96,3.17.41,3.45.31-.11-.2-.26-.52-.31-.94-.03-.24-.02-.46,0-.63.17.12.41.32.63.63.16.24.26.46.31.63.2-.04.43-.13.63-.31.45-.41.57-1.16.31-1.88-.21-.52-.42-1.05-.63-1.57-.14-.38-.41-.98-.94-1.57-.69-.76-1.47-1.11-1.88-1.26-.18-.11-.43-.31-.63-.63-.24-.4-.28-.78-.31-1.26-.06-.71.07-.81,0-1.26-.05-.31-.19-.76-.63-1.26-1.05-.93-1.88-1.8-2.51-2.51-.56-.64-.87-1-1.26-1.57-.83-1.25-1.34-2.53-1.57-3.14-.4-1.04-.46-1.44-.94-1.88-.12-.1-.74-.67-1.57-.63-.41.02-.7.18-.94.31-.59.33-1.45.84-2.51,1.57-.24-.08-.56-.19-.94-.31-.98-.32-1.24-.39-1.57-.31-.18.04-.23.09-.63.31-.52.29-.96.5-1.26.63-.05-.37-.14-.8-.31-1.26-.5-1.3-1.37-2.11-1.88-2.51.1.03,1.08.26,1.57,0,.09-.05.27-.14.31-.31.02-.07,0-.1,0-.31,0,0,0-.08,0-.31,0-.34.21-.62.31-.94.12-.38.05-.72,0-.94-.09-.42-.29-.73-.63-1.26-.15-.23-.26-.37-.31-.63-.05-.24-.02-.42,0-.63.02-.19.08-.77,0-1.26-.04-.24-.17-.73-.63-1.26h-.31c.11.17.23.38.31.63.28.82.1,1.55,0,1.88-.09.3-.17.77,0,1.26.17.46.45.61.63.94.35.67.32,1.8-.31,2.2-.46.29-1.07.07-1.26,0-.58-.12-1.39-.37-2.2-.94-.3-.21-1.27-.94-1.88-2.2-.29-.59-.24-.78-.63-1.57-.39-.81-.78-1.34-.94-1.57-1.38-1.95-2.66-5.23-2.83-5.65-.25-.65-1.38-3.11-1.57-5.02-.03-.33-.09-1,0-1.88.03-.33.09-.63.14-.9-.12-1.71-.14-3.18-.14-3.18,0-.71,0-.79,0-1.57-.04-.02-.02-.11,0-.31v-.63s0-1.26,0-1.26c0-.48-.37-1.43-1.88-3.45-.03-.06-.12-.22-.31-.31-.3-.15-.59-.02-.63,0-.06.03-.25.12-.31.31-.04.12,0,.18,0,.31,0,.2-.1.28-.31.63-.18.3-.27.44-.31.63-.07.27-.02.5,0,.63.02.1,0,.59,0,1.57,0,.59,0,.57,0,.63.08.6.43,1,.63,1.26.12.15,1.01,1.27,1.26,2.2.13.47.16,1.19-.31,2.2-.74,1.66-1.97,5.07-1.57,9.42.1,1.04.28,1.99.5,2.85,1.64.23,2.94,1.95,2.94,3.54,0,1.08-.45,1.95-1.15,2.56-.02.07-.05.12-.09.14-.03.02-.06.02-.1.01-.41.31-.9.55-1.42.69-1.24.81-2.44,2.51-3.37,3.46-.41.43-.82.83-1.24,1.21-.02.44-.18.87-.48,1.19,0,0,.01.02.02.02-2.85,2.36-6.08,4.81-9.73,7.22-2.49,1.64-4.91,3.1-7.22,4.39-1.23.72-3.05,1.99-4.71,4.08-1.29,1.63-2.06,3.22-2.51,4.39-.28.19-3.82,2.7-3.77,7.22Zm57.13-22.91c.29-.23.62-.54.94-.94.47-.57.76-1.14.94-1.57.41,1.02.9,1.74,1.26,2.2.26.34.57.68,2.83,2.83.83.79.86.81.94.94.79,1.27-.03,2.26.63,3.45.37.69.44.57,1.88,1.57.95.66,1.79,1.86,1.57,2.83-.06.28-.2.49-.31.63-.1-.16-.3-.42-.63-.63-.53-.33-1.06-.33-1.26-.31.11.19.21.39.31.63.15.34.24.66.31.94-.65.25-1.37.13-1.88-.31-.7-.6-.63-1.48-.63-1.57.21-.12.64-.41.94-.94.11-.19.18-.37.23-.53.05-.16-.11-.31-.27-.25-.17.06-.36.12-.58.15-.39.06-.72.03-.94,0-.24-.4-.64-.98-1.26-1.57-.8-.77-.98-.59-1.57-1.26-.68-.77-.75-1.36-1.57-1.88-.25-.16-.47-.26-.63-.31-.22-.47-.43-.99-.63-1.57-.31-.92-.51-1.77-.63-2.51Zm-21.97-5.96c1.78.62,3.07,1.59,3.9,2.34.53.48.87,1.15.89,1.86,0,.51-.12,1.01-.39,1.45-.69,1.11-1.96,1.24-2.2,1.26-.73.06-1.3-.18-1.57-.31-.56-.27-1.08-.58-1.57-.94-1.39-1.01-1.75-1.82-3.14-2.83-.49-.36-1.01-.67-1.57-.94.07-.08.18-.19.31-.31.42-.37.79-.54.94-.63.32-.18.7-.58.94-1.57.88.02,2.1.15,3.45.63Zm11.3.63c-1.26,1.88-3.14.94-3.77.63-1.14-.57-.86-.74-3.14-1.88-1.9-.95-3.8-1.5-3.84-1.51,0,0,0,0-.02,0-.02,0-.07-.03-.12-.06-.03-.02-.09-.08-.13-.17-.02-.04-.03-.09-.03-.14,0-.11.01-.22.07-.31.13-.2.39-.17.94-.31.62-.16.57-.27.94-.31.13-.02.84-.11,1.26.31.22.22.12.35.31.63.43.61,1.4.62,1.57.63.75.01.75-.32,1.57-.31.6,0,.86.18,1.26,0,.33-.14.52-.42.63-.63,0,0-.09-.24-.31-.31-.14-.05-.27-.02-.31,0-.02-.05-.05-.17,0-.31.08-.22.29-.3.31-.31.13.05.27.12.43.2.26.13.5.31.5.31,1.58,1.06,2.52,2.94,1.9,3.88Zm5.34.94c-.08.05-1.6.86-2.2.94-.17.02-.31,0-.31,0-.29-.04-.5-.2-.63-.31.49-.26.92-.47,1.26-.63.49-.23.68-.31.94-.31.42,0,.75.18.94.31Zm-12.63,10c0-.38.18-.67.27-.8.47-.66,1.08-1.39,1.86-2.13,1.44-1.35,2.9-2.17,4-2.66,1.33-.35,2.87-.85,4.53-1.6,1.33-.6,2.48-1.25,3.46-1.86-.19.42-.51,1.01-1.07,1.6-.48.51-.96.85-1.33,1.07.53-.19,1.16-.38,1.86-.53.68-.14,1.31-.23,1.86-.27-.77.46-1.9,1.17-3.2,2.13-2.23,1.65-3.01,2.59-4.53,3.73-1.15.86-2.87,1.95-5.3,2.83-.34.12-.71.16-1.06.08-.18-.04-.37-.12-.56-.24-.05-.03-.81-.54-.8-1.33Zm-27.24,44.93c.09-.76.22-.93.31-.94.09,0,.18.12.31.31.17.24.26.47.31.63.13.55.33,1.19.63,1.88.39.91.85,1.64,1.26,2.2.21.13,3.84,2.37,3.45,5.02-.04.29-.13.6-.31.94-.08.03-.21.06-.31,0-.24-.13-.05-.57-.31-.94-.16-.23-.48-.4-.63-.31-.14.08-.16.37-.06.74.03.13,0,.27-.1.36-.05.05-.1.1-.15.15-.18-.2-.39-.41-.63-.63-.44-.4-.87-.7-1.26-.94-.01-.72-.17-1.23-.31-1.57-.04-.09-.13-.27-.31-.63-.48-.93-.57-1-.63-1.26-.11-.52.04-.61,0-1.26-.04-.68-.22-.65-.63-2.2-.05-.2-.13-.52-.31-.94-.12-.27-.23-.49-.31-.63Zm0-11.93c.41-2.03.62-3.05.63-3.14.32-2.5.11-4.26,0-5.02-.13-.84-.18-.75-.31-1.57-.19-1.13-.73-4.42.63-7.53.43-.99.73-1.22.94-2.2.26-1.17.06-1.9,0-3.14-.11-2.32.06-3.06.31-3.77,0,0,.23-.63.63-1.26.39-.61,2.84-2.71,6.59-5.02.24-.12.55-.31.63-.63.03-.14,0-.26,0-.31-.08-.46.1-.99.31-1.57.21-.57.54-1.14.85-1.59.36-.52.8-.99,1.28-1.4,1.68-1.41,3.26-2.76,4.14-3.3.23.14.56.35.94.63,1.27.91,1.98,1.69,2.51,2.2,1.16,1.11,2.24,2.16,3.77,2.51,1.43.33,3.4.08,4.71-1.26.03-.04.09-.09.16-.17.19-.21,1.22-1.37,1.1-2.97-.1-1.29-.89-2.13-1.14-2.37.58.45,1.41,1.2,3.02,1.43.73.1,1.69,0,2.2,0,.31,0,.64.33.33.62,0,0,0,0-.02.01-.41.37-.8.56-.94.63-1.43.71-3.2,2.12-4.08,2.83-.75.6-1.76,1.51-2.83,2.83-.22.29-.55.83-.63,1.57-.03.23-.02.45,0,.63-2.01.92-3.28,2-4.08,2.83-.81.83-.89,1.16-1.88,2.2-1.39,1.44-2.68,2.31-3.45,2.83-2.12,1.41-2.81,1.37-5.02,2.83-1.13.74-1.99,1.44-2.51,1.88,0-.35-.03-.79-.09-1.29.4-.39.91-.86,1.55-1.33,1.65-1.22,2.81-1.51,4.21-2.28,1.05-.57,2.48-1.54,3.95-3.24-.52.14-1.28.34-2.23.51-1.99.35-3.32.34-4.11.4-1.22.09-2.87.5-4.87,1.84-.14-.23-.28-.43-.41-.61-.18-.24-.45-.4-.75-.4-.13,0-.28.03-.4.12-.22.16-.27.41-.31.63-.13.68.15,1.28.31,1.57.4.54.91,1.39,1.26,2.51.45,1.45.4,2.71.31,3.45-.17.75-.46,1.85-.94,3.14-.58,1.52-.75,1.49-1.26,2.83-.86,2.25-1.17,4.44-1.26,5.02-.1.74-.12,1.14-.31,1.88-.18.69-.38,1.19-.94,2.51-.9,2.13-.82,1.87-.94,2.2-.19.51-.77,2.16-.94,4.39-.05.65-.08,1.51,0,2.51.08.26-.06.54-.31.63-.26.08-.54-.06-.63-.31-.11-.41-.25-1.07-.31-1.88-.11-1.41.1-2.43.63-5.02Zm-3.77,4.39c.25-.85.47-1.8.63-2.83.5-3.27.15-6.11-.31-8.16.31.09.78.26,1.26.63.28.21.48.44.63.63.13,1.34.08,2.42,0,3.14-.35,3.42-.94,5.65-.94,5.65-.12.45-.34,1.21,0,1.88.1.19.21.32.31.63.15.45.24,1.13,0,1.26-.29.15-.91-.59-.94-.63-.52-.63-.61-1.34-.63-1.57-.03-.26-.02-.48,0-.63Zm-1.88-26.68c.86,1.6.99,2.88.94,3.77-.07,1.32-.55,1.94-.31,3.45.11.73.29,1.01.31,1.88.03,1.04-.2,1.21,0,1.88.09.31.33,1.14.94,1.57.08.06.22.14.31.31.17.3.09.67,0,.94,0,0-.03-.04-.08-.11-.89-1.15-3.19-4.17-3.37-8.05-.05-1.05.01-3.15,1.26-5.65Zm-5.34,5.65c.1-2.2,1.61-3.53,1.88-3.77-.2.98-.37,2.27-.31,3.77.08,1.98.53,3.6.94,4.71-.12-.08-2.64-1.77-2.51-4.71Z"/>
        <path class="cls-1" d="m7.51,104.62c3.52,1.58,10.32,4.07,19.15,3.77,8.05-.27,14.2-2.74,17.58-4.39.14-.02.36-.03.63,0,0,0,.47.06.94.31.55.3,3.14,2.12,6.59,4.71.29.11.6.22.94.31,1.08.3,2.05.35,2.83.31.21.19.52.43.94.63.36.17.69.26.94.31.22.03.55.06.94,0,.41-.07.73-.2.94-.31.02.17.03.38,0,.63-.05.42-.2.74-.31.94.19.11.39.22.63.31.86.35,1.67.36,2.2.31-.11.18-.22.39-.31.63-.24.61-.31,1.17-.31,1.57.44.05.97.07,1.57,0,1.26-.14,2.23-.6,2.83-.94-.03.13-.06.35,0,.63.07.31.23.53.31.63-.01.01-.03.02-.04.03.54-.11,1.1-.18,1.67-.21,1.45-1.93,3.46-3.4,5.85-4.08.01-.05.03-.09.06-.13.05-.08.12-.12.21-.15-.47-.64-.87-1.32-1.19-2.04-.14.03-.33-.15-.59-.32-.21-.14-.4-.23-1.88-.63-1.73-.46-1.81-.43-2.2-.63-.59-.3-1-.67-1.26-.94-.78-1.46-2.13-4.45-2.2-8.48-.07-3.98,1.16-6.99,1.88-8.48.15-.35.38-1.03.31-1.88-.04-.53-.19-.96-.31-1.26-1.53-1.22-4.28-3.08-8.16-4.08-2.93-.76-5.48-.77-7.22-.63-.69-.05-1.21-.19-1.57-.31-.51-.17-.74-.33-1.57-.63-.38-.14-.77-.27-.94-.31-.44-.12-1.44-.26-3.14.63-.87.5-1.83,1.12-2.83,1.88-.83.64-1.57,1.28-2.2,1.88-2.75,1.7-6.43,3.59-10.99,5.02-6.71,2.11-12.62,2.36-16.64,2.2.37.66,1.04,1.65,2.2,2.51,2.05,1.52,4.24,1.59,5.02,1.57-.21.27-.42.59-.63.94-.26.45-.47.87-.63,1.26.37.22.79.44,1.26.63,1.97.81,3.82.78,5.02.63-1.14.56-2.39,1.09-3.77,1.57-4.43,1.54-8.49,1.91-11.61,1.88-.59.02-1.1.41-1.26.94-.2.68.29,1.23.31,1.26Zm36.41-20.09c-.13.5-.24.94-.63,1.26-.5.41-.91.19-1.26.63-.23.29-.09.43-.31.63-.3.27-.64.11-1.26.31-.28.09-.5.22-.63.31-.6.39-1.46.94-2.51,1.57-1.39.83-3.6,2.14-5.96,3.14-1.36.57-5.55,2.3-10.36,2.2-2.55-.06-4.17-.6-5.02-.94-.8-.32-1.44-.67-1.88-.94,2.24.03,4.9-.1,7.85-.63,5.05-.9,9.08-2.59,11.93-4.08l4.71-1.88c1.41-.13,1.96-.4,2.2-.63.01-.01.05-.05.63-.63,0,0,.3-.3.31-.31.52-.21,1.05-.42,1.57-.63.26-.11.51-.12.63,0,.04.04.12.15,0,.63Zm.63,2.2c.37-.24.73-.3.94-.31.5.12.62.23.63.31,0,.17-.5.23-.63.63-.01.04-.05.18,0,.31.1.24.47.38.94.31-.1.18-.53.85-1.26.94-.04,0-.08,0-.13,0-.14,0-.28.02-.42.07-.89.3-1.87.68-2.91,1.18-1.07.51-2.02,1.05-2.83,1.57-2.69,1.73-5.12,2.79-6.91,3.45-2.42.89-5.44,1.98-9.42,1.88-1.32-.03-2.4-.18-3.14-.31.04-.16.13-.4.31-.63.45-.55,1.1-.62,1.26-.63,2.07-.08,4.51-.33,7.22-.94,3.9-.88,7.06-2.23,9.42-3.45,2.2-1.04,3.85-1.83,4.71-2.2.4-.17.99-.4,1.26-.94.09-.18.13-.35.31-.63.09-.14.28-.41.63-.63Zm2.2-1.88c-.02.15-.09.42-.31.63-.37.34-1.01.35-1.57,0,0-.07-.06-.57.31-.94.24-.24.52-.3.63-.31.08.09.18.21.31.31.24.18.47.27.63.31Zm4.08,16.32c-.05-.32-.24-.55-.31-.63-.19-.22-.29-.2-.31-.31-.08-.29.52-.73.94-.94.31-.16.94-.41,1.88-.31.02.08.04.19,0,.31-.06.17-.21.24-.31.31-.35.25-.55.89-.31,1.26.13.21.4.31.63.31.32,0,.53-.21.63-.31.24-.24.3-.51.31-.63.02-.52.21-.81.31-.94.17-.21.43-.35.94-.63.21-.11.4-.21.54-.27.05-.03.12-.01.16.03l.08.08c.1.1.14.25.12.39-.05.28,0,.38.04.4.12.06.26-.21.63-.31.45-.12.67.18.94,0,.25-.16.3-.55.31-.63.02-.15,0-.23,0-.31,0-.22.17-.54.94-.94.11.06.25.15.31.31.08.2-.03.33,0,.63.03.32.19.63.31.63.11,0,.12-.23.31-.31.11-.05.23-.03.31,0,.04.13.09.37,0,.63-.04.11-.15.36-.63.63-.89.5-1.48.16-1.88.63-.19.22-.07.31-.31.63-.32.41-.76.57-.94.63-.7.24-1.32.08-1.57,0-.25-.07-.54-.13-.63,0-.05.08,0,.17,0,.31,0,.15-.06.37-.31.63-.28.13-.84.35-1.57.31-.56-.03-1-.19-1.26-.31-.18-.2-.28-.41-.31-.63-.04-.25.04-.38,0-.63Zm11.66-1.9c-.16-.06-.93-.38-1.28-1.23-.33-.77-.17-1.64.26-2.2.11-.15.22-.25.31-.32.21,0,.42,0,.63-.02.1,0,.21,0,.31,0-.13.63-.23,1.37-.26,2.2-.02.57,0,1.1.04,1.57Zm-1.61-5.01c-.12-.19-.03-.35,0-.94.02-.47-.03-.41,0-.63.08-.49.41-1.07.94-1.26.12-.04.38-.13.63,0,.23.13.39.42.31.63-.06.16-.21.15-.31.31-.12.19-.07.44,0,.63.21.1.42.21.63.31.02.57-.23,1.07-.63,1.26-.32.15-.68.06-.94,0-.29-.07-.51-.13-.63-.31Zm-1.57-4.71c-.31-.52.25-1.46.31-1.57.3-.51.71-.8.94-.94.08.13.21.35.31.63.22.6.12.91.31,1.26.12.2.36.46.94.63-1.34.62-2.52.52-2.83,0Zm-3.77,5.96c.24.24.52.3.63.31.22.1.36.16.45.2.09.04.14.08.18.11.12.1.25.29.31.63-.22.25-.62.65-1.26.94-.81.37-1.54.35-1.88.31-.18-.23-.27-.45-.31-.63-.23-.92.41-2.02,1.57-2.83,0,.07-.06.57.31.94Zm-1.88-4.08c.33-.1,1.07-.28,1.88,0,.25.09.46.2.63.31-.2.25-.28.49-.31.63-.06.23-.11.46,0,.63.1.15.24.15.31.31.05.12.03.24,0,.31-.13.11-.34.25-.63.31-.86.18-1.54-.59-1.57-.63-.67-.78-.34-1.82-.31-1.88Zm.63-1.26c.09-.32.33-.99.94-1.57.87-.82,1.9-.92,2.2-.94v.94c-.06.15-.16.37-.31.63-.19.32-.3.43-.31.63,0,.14.04.36.31.63l-.63.63c-.31-.1-.63-.21-.94-.31-.31-.1-.63-.21-.94-.31-.1-.1-.21-.21-.31-.31Zm3.14,5.02c.25-.89,1.15-1.22,1.26-1.26-.05.16-.02.26,0,.31.1.25.48.4.94.31.04.16.13.39.31.63.11.14.22.24.31.31-.02.13-.09.4-.31.63-.12.12-.28.23-.63.31-.59.15-1.16.09-1.57,0-.1-.1-.21-.21-.31-.31-.05-.19-.11-.54,0-.94Zm.63-3.77c.2-.42.44-.73.63-.94.35.05.56.25.63.31.24.24.3.52.31.62-.06.09-.23.37-.31.64-.06.2-.11.51,0,.94-.21.1-.42.21-.63.31-.21-.1-.42-.21-.63-.31-.11-.12-.28-.33-.31-.63-.01-.11.02-.32.31-.94Zm-5.96-2.2c.09.33.46.58.94.63.02.05.05.17,0,.31-.08.22-.29.3-.31.31-.53.1-.97.05-1.26,0-.5-.09-1.02-.19-1.26-.63-.15-.28-.17-.65,0-.94.3-.52,1.1-.6,1.57-.31.15.09.25.22.31.31-.03.14-.02.24,0,.31Zm-.94,3.14c.08.22.48.16.63.31q.31.31.94,0c.4-.2.26.83,0,1.26-.37.62-1.16.63-1.26.63-.47,0-.81-.22-.94-.31-.61-1.16-.65-2.21-.31-2.51.29-.26.63-.31.63-.31.13-.02.24,0,.31,0,.1.1.21.21.31.31-.24.19-.38.44-.31.63Zm-1.26,5.65c-.1-.08-.21-.18-.31-.31-.03-.22-.06-.55,0-.94.07-.41.2-.73.31-.94.05-.05.42-.39.94-.31.34.05.55.24.63.31v.63c.42.31.73.35.94.31.12-.02.23-.06.31,0,.14.11.05.46,0,.63-.04.15-.13.38-.31.63-.19.08-1.59.69-2.51,0Zm-.94-10.04c-.86,0-1.43-.5-1.57-.63,0-.1.04-.81.63-1.26.38-.29.78-.31.94-.31.18,0,.67,0,.94.31.19.22.11.4.31.63.18.21.44.28.63.31-.08.1-.75.95-1.88.94Zm2.83-3.77c-.48.5-1.16.58-1.57.63-.54.06-1.26.13-1.88-.31-.13-.09-.69-.5-.63-.94.07-.48.83-.72,1.57-.94.76-.24,1.42-.3,1.88-.31.1,0,.63,0,.31.31-.09.09-.13.24-.31.31-.19.03-.31.17-.31.31,0,.21.29.31.31.31.09.03.16.02.31,0,.39-.04.59-.07.63,0,.12.18-.28.6-.31.63Zm1.26,1.26c.22-.06.7-.17,1.26,0,.27.08.48.21.63.31-.08.06-.2.16-.31.31-.27.38-.23.72-.31.94-.11.29-.54.59-1.88.63-.08-.04-.23-.14-.31-.31-.11-.23-.05-.46,0-.63.18-.63.71-1.08.94-1.26Zm3.45-1.26c-.26.12-.69.29-1.26.31-.73.03-1.29-.18-1.57-.31,0,0-.5-.78-.31-1.26.16-.42.77-.54,1.26-.63.53-.1.98-.05,1.26,0,.02.08.03.19,0,.31-.07.33-.34.43-.31.63.02.13.15.21.31.31.28.18.53.14.63.31.03.06.05.15,0,.31Zm.63,1.57c.72-.02.95-.16,1.26,0,.09.05.21.14.31.31-.09.13-.19.23-.31.31-.23.16-.4.15-.63.31-.12.08-.22.19-.31.31-.34-.03-.78-.12-1.26-.31-.24-.1-.45-.21-.63-.31.19-.24.5-.54.94-.63.2-.04.2.01.63,0Zm3.45-2.2c-.08.16-.19.27-.31.31-.23.08-.4-.08-.63,0-.13.04-.23.15-.31.31-.31.31-.63.31-.94.31s-.56.02-.77.02c-.1,0-.17-.09-.15-.19.03-.2.11-.48.29-.77.21-.34.47-.53.63-.63.4,0,.96.07,1.57.31.24.1.45.2.63.31Zm3.14,1.57c-.18.03-.43.11-.63.31-.21.23-.19.45-.31.63-.14.23-.52.43-1.57.31-.06-.08-.16-.21-.31-.31-.3-.2-.54-.18-.94-.31-.15-.05-.37-.14-.63-.31.36-.37.7-.54.94-.63.43-.15.71-.11,1.26-.31.07-.03.13-.05.19-.08.31-.14.66-.13.96.02.03.02.07.04.11.06.35.18.84.47.94.63Zm.94,5.34c-.28.4-.49.72-.63.94-.18,0-.57-.04-.94-.31-.14-.1-.24-.22-.31-.31.06-.25.16-.46.31-.63.3-.32.58-.27.94-.63.11-.11.39-.4.31-.63-.08-.22-.44-.28-.63-.31-.42-.07-.58.07-.94,0-.22-.04-.43-.15-.63-.31-.01-.58.22-.85.31-.94.09-.09.27-.16.63-.31.5-.21.74-.31.94-.31.29,0,.42.09.63,0,.16-.07.26-.21.31-.31.1.06.24.15.31.31.14.3-.13.55,0,.94.1.32.24.35.31.63.11.43-.09.83-.31,1.26-.16.31-.27.42-.63.94Zm2.77,17.5c-.05.13-.13.28-.25.4-.22.19-.4.15-.94.31-.68.2-.67.35-.94.31-.35-.05-.65-.35-.94-.63-.13-.12-.16-.18-.31-.31-.21-.18-.31-.22-.31-.31,0-.04.01-.12.31-.31.24-.15.42-.22.63-.31.47-.21.39-.24.63-.31.17-.05.59-.19.94,0,.15.08.19.17.31.31.15.17.38.37.75.55.12.06.18.19.13.31Zm-.57,1.34c.19-.17.31-.12.63-.31.31-.19.51-.45.63-.63.22.18.65.48,1.26.63.7.18,1.28.07,1.57,0,.02.07.03.19,0,.31-.11.42-.64.41-1.26.94-.36.32-.3.43-.63.63-.26.16-.44.17-.94.31-.23.07-.55.17-.94.31-.11-.08-.51-.39-.63-.94-.08-.4-.03-.95.31-1.26Zm-2.83,2.2s.52-.47.94-.31c.21.08.32.29.63.31.17.01.21-.04.31,0,.18.08.19.3.31.63.01.04.03.08.05.13.09.21-.06.45-.28.46-.13,0-.27.02-.4.05-.39.08-.55.23-.94.31-.3.06-.62.06-.94,0-.2-.59-.08-1.21.31-1.57Zm-.63-4.71c-.62-.06-1.07-.51-1.26-.94-.14-.33-.19-.81,0-.94.08-.06.27-.04.63,0,.16.02.22.03.31,0,.14-.05.26-.17.31-.31.09-.25-.08-.4,0-.63.04-.13.15-.23.31-.31.16.38.36.81.63,1.26.21.35.42.67.63.94-.3.63-.93,1-1.57.94Zm-2.2,3.14c.08-.29.22-.5.31-.63.71.05.91.18.94.31.03.1-.05.18,0,.31.08.19.3.19.31.31.02.12-.19.24-.31.31-.23.13-.63.29-1.26.31-.04-.17-.11-.52,0-.94Zm-2.83-3.45c.03-.34.29-.6.31-.63.25-.25.53-.3.63-.31.08.09.18.21.31.31.24.18.47.27.63.31.16-.04.39-.13.63-.31.14-.11.24-.22.31-.31.02.19.07.56.31.94.21.34.47.53.63.63-.94.76-2.03,1.03-2.83.63-.35-.18-1-.67-.94-1.26Zm-5.02,1.26c.48-.01,1.14-.08,1.88-.31.84-.27,1.47-.65,1.88-.94.02.19.07.56.31.94.21.34.47.53.63.63-.31.2-1.1.64-2.2.63-1.34-.02-2.25-.72-2.51-.94Zm-2.83-1.88c.68-.09,1.22-.22,1.57-.31,1.16-.32,1.1-.52,1.88-.63.37-.05.63,0,.94-.31.19-.19.31-.27.31-.63,0-.31.43-.62.94-.63.4,0,.52.34.94.31.09,0,.28-.03.63-.31.8-.65.66-1.23,1.26-1.57.5-.28.94-.63,1.26,0,.05.1-.07.21,0,.31.1.16.52.17.63,0,.11-.17-.21-.4-.31-.94-.05-.26-.03-.48,0-.63.05-.02.17-.05.31,0,.22.08.3.29.31.31.16.05.26.03.31,0,.18-.1.13-.35.31-.63.1-.15.22-.25.31-.31l.15.15c.1.1.17.23.21.37.05.2.13.45.26.73.35.73.74,1,.63,1.26-.11.25-.63.33-.94.31-.25-.01-.42-.09-.63,0-.16.07-.26.21-.31.31-.63.7-1.18.9-1.57.94-.34.04-.82,0-1.26.31-.15.11-.25.23-.31.31-.24.29-.65.69-1.26.94-.59.24-.91.08-1.57.31-.99.34-1.29.84-1.88.94-1.69.29-2.95-.78-3.14-.94Zm-2.83-2.2c.5-.09,1.03-.19,1.57-.31.3-.07.58-.14.86-.21.24-.06.5-.03.72.08.1.05.2.09.3.13.38.15.57.16.94.31.13.05.27.12.4.19.12.06.13.22.03.3-.4.32-1.36.94-2.63.77-1.29-.18-2.04-1.05-2.2-1.26Zm-1.88-1.26c.6-.16,1.37-.44,2.2-.94.51-.31.93-.64,1.26-.94,0,.09,0,1.23-.94,1.88-.73.51-1.73.51-2.51,0Zm-2.51-1.57c.94-.51,1.88-1.03,2.83-1.57.74-.42,1.47-.84,2.2-1.26.27.39.31.71.31.94,0,.69-1.53,1.56-2.34,1.96-.4.2-.83.33-1.27.36-.59.03-.97-.08-1.1-.13-.27-.09-.49-.22-.63-.31Zm-6.91.63c.45-.1,1.42-.39,2.2-1.26.24-.27.41-.53.54-.78.07-.12.15-.22.25-.31.57-.47,1.24-.96,2.03-1.43,1.89-1.11,3.69-1.63,5.02-1.88.1.15.29.41.63.63.39.24.76.3.94.31-1.11.63-2.26,1.26-3.45,1.88-1.5.78-2.96,1.52-4.39,2.2-.61.26-1.47.54-2.51.63-.46.04-.89.03-1.26,0Zm-4.08-.94c.35-.22.86-.62,1.26-1.26.14-.22.24-.43.31-.63.64-.24,1.64-.66,2.83-1.26,2.11-1.08,2.29-1.48,4.39-2.51,1.05-.51,3.35-1.61,4.39-1.26.08.03.43.16.63,0,.24-.19.02-.64.31-.94.24-.24.52-.3.63-.31.03,0,.24.09.31.31.05.14.02.27,0,.31h.63c.24-.04.55-.14.94-.31.43.67.38,1.06.31,1.26-.02.06-.12.24-.31.63-.91.29-1.03.34-1.26.31-.32-.04-.3-.16-.94-.31-.18-.04-.33-.07-.47-.05-.09.01-.17.06-.24.13l-.04.04c-.14.14-.31.28-.49.37-.76.4-1.25.28-2.21.76-.63.31-.41.17-1.26.63-1.19.64-3.53,1.92-6.59,3.59-.26.14-.53.25-.82.33-.23.06-.48.12-.76.15-.63.08-1.17.05-1.57,0Zm-7.53-.94c.04-.16.13-.39.31-.63.11-.14.22-.24.31-.31,1.44-.39,3.03-.9,4.71-1.57,1.26-.51,2.41-1.04,3.45-1.57.07-.01.18-.03.31,0,.29.05.39.23.63.31.06.02.22.04.63,0,.73-.08,1.28-.41,1.57-.63.35-.22,2.04-1.27,2.51-1.57,2.43-1.52,3.67-2.3,5.02-2.83.65-.25,1.28-.46,1.88-.63v-.31c.92-.9,1.93-1.28,2.51-.94.1.06.21.16.31.31v.31c-.32.33-.35.51-.31.63.03.09.11.13.31.31.14.13.24.24.31.31v.31c-.39.21-.73.28-.94.31-.25.03-.42.06-.63,0-.29-.08-.35-.23-.63-.31-.19-.06-.4-.06-.63,0-.66.17-1.7.38-2.83.94-2.51,1.26-3.84,2.07-6.59,3.77-1.02.63-2.52,1.52-4.39,2.51-1.02.47-2.52,1.03-4.39,1.26-1.35.16-2.53.11-3.45,0Z"/>
        <path class="cls-1" d="m75.63,51.26c-.6-1.07-1.33-2.24-2.2-3.45-.96-1.33-1.92-2.48-2.83-3.45-.05-.18-.27-.85-.94-1.26-1.03-.62-2.14-.03-2.2,0-.63-.14-1.37-.26-2.2-.31-.57-.03-1.1-.03-1.57,0-.21-.13-.67-.37-1.26-.31-.82.07-1.55.69-1.88,1.57-.67.87-1.33,1.91-1.88,3.14-2.43,5.43-1,10.79-.31,12.87.19.37.44.66.63.63.22-.04.38-.54.31-1.26-.36-1.46-.9-4.59.31-8.16.61-1.79,1.48-3.15,2.2-4.08-.2-.23-.5-.66-.63-1.26-.28-1.31.5-2.34.63-2.51.12.14.27.35.31.63.02.14,0,.25,0,.31-.02.19-.09.76,0,1.26.04.22.16.72.63,1.26.31-.13.74-.27,1.26-.31,1.21-.1,2.14.4,2.51.63-.29-.41-.32-.75-.31-.94.01-.25.1-.4.63-1.26.51-.83.54-.87.63-.94.37-.31,1.02-.56,1.57-.31.3.14.47.38.63.63.16.25.36.55.31.94-.04.31-.19.57-.31.63-1.26.63-1.34.97-1.57,1.57-.08.19-.13.5,0,.94.6.69,1.25,1.52,1.88,2.51.87,1.37,1.47,2.67,1.88,3.77.11-.52.35-1.2.94-1.57.33-.21.59-.21.94-.31.51-.16,1.2-.54,1.88-1.57Z"/>
        <path class="cls-1" d="m86.93,97.09c.01-.18-.03-.32-.13-.54-.11-.26-.27-.62-.5-1.02-.44-1.41-.86-2.88-1.26-4.39,0,0-.16-.5-.31-1.26-.23-1.12-.52-2.5,0-2.83.1-.06.29-.12.62,0l.32-.29c-.07-.29-.17-.61-.32-.96-.13-.31-.27-.4-.31-.63-.04-.23,0-.54.31-.94-.06-.08-.16-.2-.31-.31-.3-.23-.44-.14-.63-.31,0,0-.12-.11-.31-.94-.07-.01-.19-.03-.31,0-.37.07-.51.36-.63.31-.11-.05-.11-.37,0-.63.16-.37.57-.59.94-.63.04,0,.57-.05.94.31.21.2.24.42.31.63.24.67.7.66,1.57,1.57.56.58.95,1,.94,1.57,0,.23-.01.71-.31.94-.1.07-.25.14-.31.31-.03.1-.03.2,0,.31.14.54.68.73.63.94-.04.16-.35.07-.63.31-.37.32-.32.9-.31.94.05.47.49.43.63.94.04.17,0,.19,0,.94,0,.26,0,.48,0,.63.35-.21.53-.45.63-.63.16-.29.13-.47.31-.94.13-.32.25-.51.31-.63.19-.36.32-1,0-2.2-.03-.13-.06-.35,0-.63.07-.3.21-.34.31-.63.03-.08.2-.56,0-.94-.18-.34-.48-.29-.63-.63-.09-.22-.04-.43,0-.63.13-.59.51-.72.63-1.26.04-.2.04-.41,0-.63-.07,0-.18-.02-.31,0-.46.05-.63.3-.94.31-.14,0-.36-.05-.63-.31-.32-.3-1.25-1.14-2.51-1.26-.21-.02-1.31-.12-1.57.31-.03.06-.12.25-.31.31-.12.04-.24.02-.31,0-.22-.03-.57-.13-.94,0-.94.31-1.14.48-1.57.31-.38-.15-.45-.55-.94-.63-.14-.02-.26,0-.31,0-.03,0-.07,0-.1.02-.03,0-.06.02-.09.03h0s-.06.02-.08.03c-.03,0-.06.02-.08.03-.16.08-.29.18-.38.28,0,0,0,0,0,0-.1.1-.17.19-.2.24-.04.25-.13.58-.31.94-.39.73-.97,1.1-1.26,1.26h0s-.02.01-.03.02c-.05.03-.09.06-.14.09-.02.01-.05.03-.07.04-.03.01-.05.03-.08.04-.08.04-.18.1-.28.16-.02.01-.04.03-.06.04-.09.06-.18.13-.28.23-.35.33-.55.67-.63.63,0,.78,0,.86,0,1.57,0,0,.02,1.47.14,3.18.06-.25.12-.48.17-.67,0,0,.13-.57.31-.94.2-.41.45-1,.94-1.57.58-.66.77-.83.94-.94.17-.11.41-.22.63-.31.66-.28,1.43-.14,1.88,0,.49.16.83.89.94,1.26.06.2.34.91.31.94-.09.12-.34.12-.63,0-.06-.09-.47-.53-.63-.63-.56-.36-1.4-.1-1.88.31-.3.26-.45.57-.63.94-.18.37-.27.71-.31.94.99.87,1.78.96,2.2.94.57-.03,1.47-.29,2.2-.63.29-.13.54-.28.94-.31.18-.02.75-.06,1.26.31.15.11.25.23.31.31.26.67.64,1.69.94,2.83.38,1.43.07.88.31,1.88.03.13.09.36,0,.63-.12.35-.44.54-.63.63-.31,0-.91.02-1.57.31-.65.29-1.05.7-1.26.94-.19-.15-.41-.35-.63-.63-.37-.47-.54-.94-.63-1.26,0-.03-.09-.24-.31-.31-.14-.05-.27-.02-.31,0-.04.27-.02.48,0,.63.08.51.3.72.31,1.26,0,.09,0,.12,0,.31,0,.46.05.51,0,.63-.1.24-.44.4-.63.31-.14-.06-.14-.24-.31-.31-.12-.05-.24-.03-.31,0,.2.48.57,1.2,1.26,1.88,1.19,1.18,2.58,1.48,3.14,1.57.73-.22.92-.45.94-.63.02-.13-.06-.22,0-.31.11-.18.56-.04.94,0,.78.09,1.64-.15,2.2-.63.46-.39.6-.85.63-.94.13-.44.09-.93,0-.94-.08-.02-.16.39-.31.63-.28.43-1.08.77-3.45.31-.24-.06-.46-.17-.63-.31-.17-.15-.15-.2-.31-.31-.2-.14-.52-.15-.63-.31-.03-.05-.06-.14,0-.31.19-.11.39-.21.63-.31.12-.05.24-.1.35-.14.34-.12.71-.1,1.04.05.07.03.13.06.18.08.55.24.53.28.63.31.24.09.85.32,1.26,0,.28-.22.31-.58.31-.63Z"/>
      </g>
    </g>
  </g>
</svg>