<?xml version="1.0" encoding="UTF-8"?>
<svg id="Layer_2" data-name="Layer 2" xmlns="http://www.w3.org/2000/svg" viewBox="0 0 223.69 223.69">
  <defs>
    <style>
      .cls-1 {
        fill: #f5eceb;
        stroke: #231f20;
        stroke-miterlimit: 10;
      }

      .cls-2 {
        fill: #254675;
      }
    </style>
  </defs>
  <g id="Layer_1-2" data-name="Layer 1">
    <g>
      <circle class="cls-1" cx="111.85" cy="111.85" r="111.35"/>
      <g>
        <path class="cls-2" d="m100.33,35.79c-.29-.35-.59-.63-.85-.85-1.18.14-1.79-.14-2.14-.43-.32-.27-.65-.76-1.28-.85-.18-.03-.33-.01-.43,0-.91,2.25-1.8,4.82-2.56,7.69-.56,2.12-.97,4.12-1.28,5.98-.88-1.99-2-4.16-3.42-6.41-2.94-4.66-6.2-8.17-8.97-10.68.07.12,1.3,2.15.43,3.42-.1.14-.23.29-.43.43-.31-.47-.62-.71-.85-.85-.03-.02-.06-.03-.09-.05-.21-.14-.34-.38-.34-.63v-.18c0-.48-.19-1.06-.43-1.71-.26-.71-.58-1.28-.85-1.71-.53-.19-1.26-.38-2.14-.43-1.3-.07-2.35.2-2.99.43.46.32,1.12.86,1.71,1.71.44.64.7,1.25.85,1.71-.13.1-.28.24-.43.43-.25.32-.37.64-.43.85-.27-.49-.68-1.1-1.28-1.71-.94-.94-1.92-1.44-2.56-1.71-.31.71-.62,1.57-.85,2.56-.35,1.49-.44,2.81-.43,3.85.04-.09.44-.91.85-.85.16.02.27.17.43.43.68,1.12.49,1.43.85,1.71.44.34.85.43,1.71.43,0,0,.43,0,.43.43l.32,1.94.18.9c.07.37,0,.51-.07.57-.28.23-.87-.46-2.14-.85-.15-.05-.5-.15-.85-.43-.2-.16-.34-.32-.43-.43-.09-.03-.26-.07-.43,0-.28.11-.47.46-.43.85.21,1.49.49,3.06.85,4.7.71,3.2,1.62,6.05,2.56,8.55.21-.07.53-.19.85-.43.76-.56.76-1.16,1.28-1.28.29-.07.43.09,1.28.43.54.21,1,.35,1.28.43.27.81.54,1.61.81,2.42-.01.1-.03.18-.04.27-.12.15-.24.24-.34.3-.11.06-.42.21-1.71,0-.47-.08-.74-.15-.85,0-.09.11-.04.27,0,.43.14.53.47.63.43.85-.06.32-.79.42-.85.43-.18.02-.32.01-.43,0,0,0,.85,2.13.85,2.14.29.71.57,1.42.85,2.14,1.15,2.87,1.45,3.72,2.14,5.13.18.37.33.67.43.85.72.25,1.09.16,1.28,0,.2-.16.25-.42.43-.43.06,0,.17.02.43.43.22.34.32.62.43.85.09.21.23.51.43.85.12.12.36.42.43.85.03.17.02.31,0,.43.43-.41,1.7-1.56,3.42-1.71.29-.03,1.79-.16,2.14.43.05.08.17.34.43.43.16.06.32.03.43,0-.02-.1-.03-.25,0-.43.1-.62.56-.69.85-1.28.34-.68-.01-1.08.43-1.71.1-.14.21-.25.31-.33.07-.06.16-.08.24-.06.27.05.73.06.73.4,0,.85.85.85.85.85,0,0,.3.03.43,0,.85-.17,2.22-.72,2.56-.85.08.38.04.67,0,.85-.11.49-.36.7-.43,1.28-.02.19-.03.29,0,.43.08.38.35.48.43.85.03.14.03.28,0,.43.06.34.17.79.43,1.28.53.99,1.32,1.5,1.71,1.71h0c-.14-.11-.28-.23-.43-.43-.13-.18-.34-.45-.43-.85-.04-.16,0-.43,0-1.28,0-.71.04-.74,0-.85-.12-.33-.34-.43-.43-.85-.04-.18-.06-.3,0-.43.1-.21.32-.22.43-.43.06-.12.06-.26,0-.43-.02-.49-.03-1.23,0-2.14.07-1.85.32-3.21.43-3.85.34-1.94.75-4.72,1.28-8.55-.29-.26-.71-.59-1.28-.85-.45-.21-.38-.09-1.71-.43-.12-.03-.28-.07-.43,0-.21.1-.22.32-.43.43-.12.06-.3.12-.43,0-.43-.43-.25-.49-.43-.85-.33-.7-.31-.71-.43-.85-.36-.44-.74-.46-.85-.85-.05-.17-.03-.32,0-.43h-.43c-.22.16-.35.32-.43.43-.18.25-.25.48-.43,2.14-.02.19-.03.29,0,.43.08.38.35.48.43.85.03.14.03.28,0,.43-.07,1.75-.26,3.2-.43,4.27,0,0-.52,3.26-1.71,6.84-.23.68-.31.76-.43,1.28-.14.62-.12.97-.43,1.28-.15.15-.28.2-.43.43-.15.23-.2.47-.21.64-.12.12-.42.36-.85.43-.17.03-.31.02-.43,0-2.34-3.92-4.82-8.7-7.05-14.31-2.11-5.32-3.54-10.27-4.52-14.57-.15-.65-.24-1.33-.26-2-.15-3.74.93-4.56,1.36-4.79,2.52-1.33,7.87,4.41,9.9,6.76.48.56.92,1.14,1.33,1.75l4.58,6.87.24-.97c.09-.36.49-.53.82-.36.31.17.67.33,1.08.48.65.23,1.23.36,1.71.43l.43.85c.25.02.76.09,1.28.43.46.29.72.65.85.85.45-2.29,1.01-4.72,1.71-7.26.67-2.44,1.39-4.72,2.14-6.84-.19-.37-.47-.82-.85-1.28Z"/>
        <path class="cls-2" d="m142.63,143.46c-.62-1.6-1.66-3.76-3.42-5.98-2.26-2.85-4.74-4.58-6.41-5.55-3.15-1.76-6.44-3.74-9.83-5.98-4.96-3.29-9.37-6.61-13.25-9.83,0,0,.01-.02.02-.03-.4-.44-.62-1.02-.65-1.62-.57-.53-1.13-1.07-1.69-1.65-1.26-1.31-2.9-3.61-4.58-4.72-.72-.2-1.37-.52-1.94-.94-.05,0-.09,0-.13-.02-.06-.03-.1-.1-.13-.19-.95-.83-1.56-2.01-1.56-3.49,0-2.17,1.77-4.51,4-4.82.3-1.18.54-2.47.68-3.88.55-5.92-1.13-10.56-2.14-12.82-.65-1.37-.6-2.35-.43-2.99.33-1.26,1.55-2.79,1.71-2.99.27-.34.74-.89.85-1.71.01-.08,0-.06,0-.85,0-1.33-.03-2,0-2.14.03-.18.09-.48,0-.85-.06-.25-.18-.45-.43-.85-.29-.48-.42-.59-.43-.85,0-.19.06-.26,0-.43-.09-.26-.35-.39-.43-.43-.05-.02-.44-.21-.85,0-.26.13-.38.35-.43.43-2.06,2.75-2.56,4.04-2.56,4.7v2.56c.02.28.05.4,0,.43,0,1.06.01,1.17,0,2.14,0,0-.03,2-.19,4.33.07.36.15.77.19,1.22.13,1.2.04,2.12,0,2.56-.26,2.61-1.79,5.95-2.14,6.84-.22.57-1.97,5.03-3.85,7.69-.22.31-.75,1.04-1.28,2.14-.52,1.08-.47,1.34-.85,2.14-.84,1.71-2.15,2.7-2.56,2.99-1.1.78-2.2,1.12-2.99,1.28-.25.1-1.08.4-1.71,0-.86-.54-.91-2.09-.43-2.99.24-.46.63-.65.85-1.28.23-.66.12-1.29,0-1.71-.14-.45-.38-1.45,0-2.56.12-.34.27-.63.43-.85h-.43c-.62.71-.8,1.38-.85,1.71-.12.66-.03,1.44,0,1.71.03.28.07.52,0,.85-.08.35-.23.54-.43.85-.46.72-.73,1.14-.85,1.71-.06.3-.16.76,0,1.28.14.43.42.82.43,1.28,0,.32,0,.43,0,.43,0,.29-.03.34,0,.43.06.23.3.36.43.43.67.35,2,.03,2.14,0-.7.54-1.89,1.64-2.56,3.42-.24.62-.36,1.21-.43,1.71-.41-.18-1-.46-1.71-.85-.54-.3-.61-.37-.85-.43-.45-.11-.8-.01-2.14.43-.52.17-.96.32-1.28.43-1.45-1-2.61-1.69-3.42-2.14-.32-.18-.73-.4-1.28-.43-1.13-.06-1.98.71-2.14.85-.66.6-.74,1.15-1.28,2.56-.32.82-1,2.57-2.14,4.27-.52.78-.95,1.26-1.71,2.14-.85.97-1.98,2.16-3.42,3.42-.59.68-.79,1.28-.85,1.71-.1.6.08.74,0,1.71-.05.65-.1,1.17-.43,1.71-.27.44-.62.7-.85.85-.56.2-1.62.67-2.56,1.71-.73.8-1.09,1.62-1.28,2.14-.29.71-.57,1.42-.85,2.14-.35.99-.19,2,.43,2.56.27.25.59.37.85.43.08-.23.21-.53.43-.85.29-.42.62-.69.85-.85.03.23.04.52,0,.85-.07.57-.27,1.01-.43,1.28.38.13,2.72.88,4.7-.43.6-.4,1.01-.88,1.28-1.28.08-.32.29-.98.85-1.28.29-.16.62-.18,1.71,0,1.7.29,1.62.47,2.14.43,1.33-.1,2.27-1.32,2.56-1.71.55-.72.78-1.44.85-1.71.31-1.1.03-1.6.43-2.56.21-.51.38-.59.85-1.28.6-.87,1.55-2.23,1.71-3.85.12-1.18-.29-1.45,0-2.56.2-.76.57-1.34.85-1.71,3.41,2.23,5.52,4.16,6.84,5.55.44.47,1.46,1.57,2.99,2.99,1.22,1.13,2.28,2,2.99,2.56,3.78,2.69,6.17,2.92,7.69,2.56.71-.17,2.67-.8,4.7,0,.37.15.66.31.85.43,4.61,3.26,8.19,4.99,10.68,5.98.88.35,2.81,1.07,5.13,2.56,1.93,1.24,3.35,2.51,4.27,3.42.09,1.03.3,2.7.85,4.7.87,3.11,1.6,3.46,2.56,6.84.55,1.92,1.1,4.34,1.28,5.55.12.79.35,2,.85,3.42.42,1.18.85,1.68,1.28,2.99,0,0,.7,1.69,1.28,3.85.86,3.18.67,6.14.43,9.83,0,0-.19,2.91-1.71,8.12-.06.22-.18.54-.43.85-.15.2-.31.34-.43.43-.78.59-3.2,2.58-3.85,5.98-.26,1.37-.16,2.56,0,3.42.45.28,1.34.76,2.56.85,1.71.13,2.98-.58,3.42-.85,1.16.01,1.28,0,1.28,0,.06,0,1.01-.14,1.71-.85.5-.51.32-.77.85-1.71.6-1.06.91-.88,1.28-1.71.34-.76.58-1.97,0-2.56-.11-.11-.26-.2-.43-.43-.33-.44-.41-.93-.43-1.28.12-.64.85-4.32,2.14-6.41.37-.61.85-1.28.85-1.28.67-.94,1.03-1.29,1.71-2.14,2.29-2.81,2.53-3.97,2.56-4.7,0-.18,0-.34,0-.43l-1.28-3.85c-.18-.59-.38-1.48-.43-2.56-.06-1.46.33-3,1.28-5.98.52-1.63,1.12-3.05,1.71-4.27.19-.37.47-.82.85-1.28.29-.35.59-.63.85-.85.35-.21,5.48-3.53,5.55-9.83.07-6.15-4.75-9.57-5.13-9.83Zm-73.49-17.95c-.26.79-.56,1.5-.85,2.14-.21.08-.52.21-.85.43-1.11.72-1.21,1.52-2.14,2.56-.8.9-1.04.67-2.14,1.71-.84.8-1.38,1.59-1.71,2.14-.3.05-.75.09-1.28,0-.3-.05-.57-.12-.79-.21-.22-.08-.44.12-.37.34.06.22.16.47.31.72.41.73.99,1.12,1.28,1.28,0,.12.09,1.32-.85,2.14-.7.6-1.68.76-2.56.43.09-.38.23-.82.43-1.28.14-.32.28-.6.43-.85-.27-.02-.99-.03-1.71.43-.44.28-.71.63-.85.85-.15-.19-.34-.47-.43-.85-.3-1.32.84-2.95,2.14-3.85,1.96-1.36,2.06-1.2,2.56-2.14.89-1.63-.22-2.97.85-4.7.11-.18.15-.21,1.28-1.28,3.07-2.92,3.49-3.39,3.85-3.85.49-.63,1.15-1.6,1.71-2.99.25.59.65,1.35,1.28,2.14.44.54.89.97,1.28,1.28-.17,1.01-.43,2.17-.85,3.42Zm35.46-12.39c.33,1.34.85,1.89,1.28,2.14.21.12.71.35,1.28.85.19.17.33.32.43.43-.76.37-1.47.79-2.14,1.28-1.88,1.37-2.38,2.47-4.27,3.85-.67.49-1.38.91-2.14,1.28-.37.18-1.15.5-2.14.43-.33-.03-2.06-.2-2.99-1.71-.37-.59-.54-1.28-.53-1.97.03-.97.49-1.88,1.21-2.53,1.12-1.03,2.88-2.34,5.3-3.19,1.85-.65,3.5-.82,4.7-.85Zm-17.5-3.58s.33-.25.68-.43c.21-.11.41-.2.58-.27.04.01.32.12.43.43.06.2.02.36,0,.43-.06-.02-.23-.06-.43,0-.3.1-.43.43-.43.43.15.28.41.66.85.85.54.24.9,0,1.71,0,1.12,0,1.11.44,2.14.43.23,0,1.55-.02,2.14-.85.26-.37.13-.55.43-.85.56-.57,1.54-.45,1.71-.43.51.06.44.21,1.28.43.76.2,1.1.15,1.28.43.08.12.11.26.1.42,0,.07-.02.13-.05.19-.06.13-.15.21-.18.23-.07.05-.14.08-.17.09-.02,0-.03,0-.03,0-.05.01-2.64.76-5.23,2.05-3.11,1.56-2.73,1.79-4.27,2.56-.85.43-3.42,1.71-5.13-.85-.85-1.28.43-3.85,2.58-5.29Zm-8.56,6.14c.36,0,.62.11,1.28.43.46.22,1.04.5,1.71.85-.17.15-.46.37-.85.43,0,0-.2.03-.43,0-.81-.11-2.88-1.22-2.99-1.28.26-.18.71-.44,1.28-.43Zm14.81,15.85c-.26.17-.52.27-.76.33-.48.11-.99.06-1.45-.11-3.3-1.2-5.64-2.67-7.21-3.85-2.07-1.55-3.13-2.83-6.17-5.08-1.77-1.31-3.31-2.28-4.35-2.9.75.06,1.61.17,2.54.36.96.21,1.81.46,2.54.73-.5-.29-1.16-.76-1.81-1.45-.75-.8-1.19-1.61-1.45-2.17,1.34.84,2.91,1.72,4.71,2.54,2.26,1.02,4.35,1.7,6.17,2.17,1.49.68,3.48,1.79,5.44,3.63,1.06,1,1.9,2,2.54,2.9.12.18.35.57.36,1.09.01,1.08-1.03,1.77-1.09,1.81Zm37.74,60.21c-.24.57-.35,1.01-.43,1.28-.56,2.11-.79,2.06-.85,2.99-.06.88.15,1,0,1.71-.07.35-.2.44-.85,1.71-.25.48-.37.73-.43.85-.19.46-.41,1.16-.43,2.14-.53.32-1.11.74-1.71,1.28-.32.29-.61.58-.85.85-.07-.07-.14-.14-.21-.21-.13-.13-.18-.32-.13-.49.14-.51.1-.91-.09-1.01-.21-.12-.63.11-.85.43-.35.5-.11,1.1-.43,1.28-.14.08-.32.04-.43,0-.24-.46-.37-.89-.43-1.28-.53-3.61,4.41-6.67,4.7-6.84.55-.76,1.18-1.76,1.71-2.99.41-.94.68-1.81.85-2.56.07-.21.2-.52.43-.85.18-.26.3-.44.43-.43.13.01.3.24.43,1.28-.11.19-.27.49-.43.85Zm1.28-10.25c-.09,1.11-.28,2-.43,2.56-.12.35-.5.54-.85.43-.35-.12-.54-.5-.43-.85.1-1.37.07-2.53,0-3.42-.23-3.04-1.03-5.29-1.28-5.98-.17-.45-.06-.1-1.28-2.99-.76-1.8-1.04-2.48-1.28-3.42-.26-1.01-.29-1.56-.43-2.56-.11-.79-.54-3.77-1.71-6.84-.69-1.82-.92-1.77-1.71-3.85-.66-1.75-1.05-3.25-1.28-4.27-.12-1.01-.18-2.72.43-4.7.47-1.53,1.17-2.68,1.71-3.42.23-.4.6-1.21.43-2.14-.06-.29-.12-.64-.43-.85-.17-.12-.36-.17-.54-.17-.41,0-.78.21-1.02.54-.18.25-.37.52-.56.83-2.72-1.82-4.96-2.37-6.62-2.5-1.08-.09-2.88-.06-5.59-.55-1.29-.23-2.33-.5-3.03-.69,2.01,2.31,3.95,3.63,5.38,4.41,1.91,1.05,3.49,1.45,5.73,3.11.87.65,1.58,1.28,2.11,1.81-.09.68-.12,1.27-.13,1.75-.71-.61-1.88-1.55-3.42-2.56-3.01-1.98-3.95-1.92-6.84-3.85-1.05-.7-2.81-1.88-4.7-3.85-1.36-1.41-1.47-1.85-2.56-2.99-1.09-1.12-2.82-2.6-5.55-3.85.03-.25.03-.54,0-.85-.11-1-.56-1.74-.85-2.14-1.45-1.79-2.83-3.03-3.85-3.85-1.2-.96-3.61-2.88-5.55-3.85-.19-.09-.72-.35-1.28-.85,0,0-.01-.01-.02-.02-.42-.38.02-.84.45-.84.69,0,1.99.14,2.99,0,2.19-.31,3.32-1.33,4.11-1.94-.34.33-1.41,1.47-1.55,3.23-.17,2.18,1.23,3.76,1.49,4.05.09.1.17.18.22.23,1.79,1.82,4.47,2.16,6.41,1.71,2.07-.48,3.55-1.91,5.13-3.42.72-.69,1.69-1.75,3.42-2.99.53-.38.97-.67,1.28-.85,1.2.73,3.35,2.57,5.64,4.49.66.56,1.26,1.19,1.75,1.9.42.61.88,1.38,1.16,2.16.29.79.54,1.51.43,2.14-.01.07-.05.23,0,.43.1.43.52.7.85.85,5.1,3.15,8.44,6.01,8.97,6.84.54.85.85,1.71.85,1.71.35.96.57,1.97.43,5.13-.08,1.69-.35,2.68,0,4.27.29,1.32.7,1.64,1.28,2.99,1.84,4.24,1.11,8.72.85,10.25-.18,1.12-.26.99-.43,2.14-.15,1.04-.44,3.43,0,6.84.02.12.29,1.51.85,4.27.71,3.53,1,4.92.85,6.84Zm4.27,0c-.03.31-.14,1.28-.85,2.14-.04.05-.89,1.06-1.28.85-.32-.17-.21-1.1,0-1.71.14-.42.29-.6.43-.85.46-.91.16-1.95,0-2.56,0,0-.8-3.04-1.28-7.69-.1-.98-.18-2.44,0-4.27.2-.26.48-.56.85-.85.65-.5,1.28-.73,1.71-.85-.63,2.8-1.1,6.66-.43,11.11.21,1.4.51,2.68.85,3.85.02.2.03.5,0,.85Zm4.27-29.48c-.24,5.29-3.38,9.39-4.58,10.96-.07.09-.12.15-.12.15-.13-.36-.23-.87,0-1.28.13-.23.32-.35.43-.43.83-.59,1.16-1.71,1.28-2.14.27-.92-.04-1.15,0-2.56.03-1.19.27-1.56.43-2.56.32-2.06-.33-2.91-.43-4.7-.06-1.21.12-2.95,1.28-5.13,1.69,3.41,1.78,6.26,1.71,7.69Zm2.14,6.41c.56-1.51,1.17-3.71,1.28-6.41.08-2.04-.15-3.79-.43-5.13.37.32,2.43,2.14,2.56,5.13.18,4-3.26,6.3-3.42,6.41Z"/>
        <path class="cls-2" d="m190.48,100.31c-.21-.73-.9-1.25-1.71-1.28-4.25.03-9.78-.47-15.81-2.56-1.87-.65-3.58-1.38-5.13-2.14,1.63.2,4.15.24,6.84-.85.63-.26,1.2-.55,1.71-.85-.22-.52-.5-1.1-.85-1.71-.28-.48-.57-.91-.85-1.28,1.07.02,4.05-.07,6.84-2.14,1.57-1.17,2.49-2.53,2.99-3.42-5.47.22-13.51-.12-22.65-2.99-6.21-1.95-11.22-4.53-14.95-6.84-.86-.82-1.85-1.69-2.99-2.56-1.35-1.03-2.66-1.88-3.85-2.56-2.31-1.21-3.67-1.02-4.27-.85-.23.06-.77.24-1.28.43-1.12.41-1.44.62-2.14.85-.48.16-1.2.35-2.14.43-2.37-.19-5.83-.18-9.83.85-5.28,1.37-9.02,3.9-11.11,5.55-.18.4-.37.98-.43,1.71-.09,1.17.22,2.08.43,2.56.98,2.02,2.65,6.12,2.56,11.54-.09,5.47-1.93,9.55-2.99,11.54-.34.36-.91.88-1.71,1.28-.52.26-.64.23-2.99.85-2.03.54-2.27.66-2.56.85-.35.24-.61.48-.8.44-.44.98-.98,1.91-1.62,2.77.13.04.22.1.29.2.04.06.06.12.08.18,3.25.93,5.99,2.92,7.96,5.55.78.04,1.54.14,2.27.29-.02-.01-.04-.03-.05-.04.12-.14.33-.43.43-.85.08-.37.04-.68,0-.85.81.47,2.13,1.09,3.85,1.28.81.09,1.54.07,2.14,0,0-.55-.09-1.31-.43-2.14-.13-.32-.28-.61-.43-.85.72.06,1.82.05,2.99-.43.32-.13.6-.28.85-.43-.15-.27-.35-.71-.43-1.28-.04-.33-.03-.62,0-.85.28.15.72.34,1.28.43.53.09.98.05,1.28,0,.35-.07.79-.19,1.28-.43.57-.27.99-.59,1.28-.85,1.05.04,2.38-.03,3.85-.43.46-.13.89-.27,1.28-.43,4.7-3.52,8.22-6,8.97-6.41.64-.35,1.28-.43,1.28-.43.36-.05.66-.03.85,0,4.6,2.26,12.96,5.61,23.93,5.98,12.02.41,21.28-2.98,26.06-5.13.04-.04.7-.78.43-1.71Zm-49.99-26.49c.17-.17.5-.15.85,0,.71.29,1.42.57,2.14.85.01.01.41.41.43.43.79.79.84.84.85.85.32.31,1.07.67,2.99.85l6.41,2.56c3.88,2.03,9.37,4.33,16.24,5.55,4.01.71,7.63.9,10.68.85-.6.36-1.47.84-2.56,1.28-1.16.47-3.37,1.2-6.84,1.28-6.55.14-12.25-2.21-14.1-2.99-3.21-1.36-6.23-3.15-8.12-4.27-1.44-.85-2.61-1.6-3.42-2.14-.18-.12-.47-.3-.85-.43-.84-.28-1.3-.06-1.71-.43-.31-.27-.12-.47-.43-.85-.47-.6-1.03-.3-1.71-.85-.53-.44-.68-1.03-.85-1.71-.17-.65-.05-.8,0-.85Zm0,4.7c.26.38.31.61.43.85.37.74,1.16,1.05,1.71,1.28,1.17.5,3.41,1.58,6.41,2.99,3.2,1.67,7.52,3.5,12.82,4.7,3.68.83,7.02,1.18,9.83,1.28.21.02,1.1.11,1.71.85.25.31.37.63.43.85-1,.18-2.48.38-4.27.43-5.42.13-9.52-1.35-12.82-2.56-2.44-.9-5.74-2.35-9.4-4.7-1.1-.71-2.38-1.44-3.85-2.14-1.41-.68-2.75-1.2-3.96-1.61-.19-.06-.38-.09-.57-.09-.06,0-.12,0-.17-.01-.99-.12-1.57-1.04-1.71-1.28.64.09,1.15-.09,1.28-.43.07-.18.02-.38,0-.43-.17-.54-.86-.62-.85-.85,0-.12.18-.26.85-.43.29.03.78.11,1.28.43.47.3.73.67.85.85Zm-2.99-3.85c.19-.15.32-.3.43-.43.15.02.53.1.85.43.5.51.44,1.19.43,1.28-.76.48-1.64.46-2.14,0-.31-.28-.4-.65-.43-.85.21-.06.53-.18.85-.43Zm-6.41,23.5c-.05.3-.19.59-.43.85-.35.17-.94.39-1.71.43-.99.05-1.76-.25-2.14-.43-.35-.35-.43-.65-.43-.85s.07-.32,0-.43c-.12-.17-.52-.1-.85,0-.34.11-1.19.33-2.14,0-.25-.09-.85-.29-1.28-.85-.33-.43-.17-.56-.43-.85-.54-.64-1.35-.18-2.56-.85-.65-.36-.8-.7-.85-.85-.12-.35-.06-.67,0-.85.12-.04.28-.06.43,0,.27.12.28.42.43.43.17,0,.39-.42.43-.85.03-.41-.12-.58,0-.85.09-.22.28-.35.43-.43,1.05.55,1.28.98,1.28,1.28,0,.11-.03.22,0,.43.01.11.09.64.43.85.38.24.67-.17,1.28,0,.5.14.7.51.85.43.07-.04.12-.17.06-.55-.03-.19.03-.39.17-.53l.11-.11c.06-.06.14-.07.21-.04.19.09.44.22.73.37.7.38,1.05.57,1.28.85.15.18.4.58.43,1.28.03.15.11.53.43.85.14.14.42.43.85.43.31,0,.67-.14.85-.43.32-.5.04-1.37-.43-1.71-.14-.1-.35-.19-.43-.43-.06-.16-.03-.32,0-.43,1.29-.13,2.14.21,2.56.43.58.29,1.39.88,1.28,1.28-.04.15-.18.13-.43.43-.09.11-.36.42-.43.85-.05.34.05.51,0,.85Zm-15.82-5.57c-.04-1.14-.18-2.14-.36-3,.15,0,.29,0,.43,0,.29,0,.57.01.85.02.12.09.27.23.42.44.58.77.8,1.96.35,3-.49,1.15-1.53,1.59-1.75,1.67.05-.65.08-1.36.05-2.14Zm1.29-4.26c-.35.09-.84.21-1.28,0-.55-.26-.88-.94-.85-1.71.29-.14.57-.29.85-.43.09-.26.16-.6,0-.85-.14-.23-.35-.21-.43-.43-.1-.28.12-.68.43-.85.33-.18.7-.06.85,0,.73.25,1.18,1.04,1.28,1.71.04.29-.03.21,0,.85.04.81.16,1.03,0,1.28-.16.26-.46.33-.85.43Zm-.85-6.84c.79-.22,1.12-.58,1.28-.85.27-.47.13-.89.43-1.71.14-.38.31-.68.43-.85.32.19.87.59,1.28,1.28.09.15.85,1.43.43,2.14-.42.71-2.02.85-3.85,0Zm9.4,6.84c1.57,1.09,2.44,2.59,2.14,3.85-.06.24-.18.54-.43.85-.47.04-1.47.07-2.56-.43-.86-.39-1.41-.94-1.71-1.28.08-.47.26-.71.43-.85.06-.05.12-.09.25-.15.12-.06.3-.14.61-.27.15-.02.53-.1.85-.43.5-.51.44-1.19.43-1.28Zm1.71-1.71c-.04.05-.96,1.1-2.14.85-.4-.08-.68-.28-.85-.43-.03-.11-.06-.27,0-.43.09-.23.29-.23.43-.43.15-.23.08-.54,0-.85-.05-.19-.16-.52-.43-.85.23-.15.51-.31.85-.43,1.11-.38,2.11-.14,2.56,0,.03.09.48,1.5-.43,2.56Zm-.85-3.85c-.43.14-.85.29-1.28.43-.43.14-.85.29-1.28.43l-.85-.85c.37-.37.44-.66.43-.85-.01-.26-.17-.41-.43-.85-.21-.35-.34-.65-.43-.85v-1.28c.41.03,1.81.16,2.99,1.28.84.79,1.16,1.7,1.28,2.14-.14.14-.29.29-.43.43Zm-3.85,7.69c-.14.14-.29.29-.43.43-.56.12-1.33.21-2.14,0-.47-.12-.69-.26-.85-.43-.3-.3-.4-.67-.43-.85.13-.1.28-.24.43-.43.25-.32.37-.64.43-.85.62.12,1.15-.09,1.28-.43.03-.07.07-.21,0-.43.14.05,1.36.5,1.71,1.71.15.54.07,1.02,0,1.28Zm-.43-5.13c-.05.4-.28.7-.43.85-.29.14-.57.29-.85.43-.29-.14-.57-.29-.85-.43.15-.59.09-1.01,0-1.28-.11-.36-.34-.74-.43-.87.02-.14.1-.51.43-.84.09-.09.38-.36.85-.43.26.29.58.71.85,1.28.41.85.44,1.13.43,1.28Zm7.69-4.7c.09-.13.22-.3.43-.43.64-.39,1.73-.28,2.14.43.23.39.21.91,0,1.28-.32.59-1.03.73-1.71.85-.39.07-.99.13-1.71,0-.04-.01-.32-.12-.43-.43-.06-.2-.02-.36,0-.43.65-.07,1.16-.4,1.28-.85.03-.1.04-.24,0-.43Zm.85,3.85c.14-.14.29-.29.43-.43.1-.01.25-.03.43,0,0,0,.46.07.85.43.45.41.4,1.83-.43,3.42-.18.13-.65.42-1.28.43-.12,0-1.2-.01-1.71-.85-.35-.59-.54-1.98,0-1.71q.85.43,1.28,0c.21-.21.75-.12.85-.43.09-.25-.09-.59-.43-.85Zm-1.28,8.55c-.25-.34-.37-.65-.43-.85-.06-.22-.2-.7,0-.85.11-.09.26-.03.43,0,.29.05.71,0,1.28-.43v-.85c.11-.1.4-.36.85-.43.71-.1,1.21.36,1.28.43.15.28.34.72.43,1.28.09.53.05.98,0,1.28-.14.18-.29.32-.43.43-1.26.94-3.16.12-3.42,0Zm2.14-14.95c.26-.04.61-.15.85-.43.27-.31.17-.56.43-.85.38-.43,1.04-.43,1.28-.43.22,0,.77.04,1.28.43.8.61.85,1.57.85,1.71-.19.18-.97.85-2.14.85-1.54,0-2.46-1.14-2.56-1.28Zm-1.71-4.7c.06-.09.33-.06.85,0,.21.02.3.04.43,0,.03,0,.43-.14.43-.43,0-.19-.18-.38-.43-.43-.25-.09-.31-.31-.43-.43-.43-.43.29-.43.43-.43.63.02,1.53.11,2.56.43,1,.31,2.04.63,2.14,1.28.09.6-.68,1.16-.85,1.28-.85.61-1.83.5-2.56.43-.56-.06-1.48-.17-2.14-.85-.04-.04-.59-.62-.43-.85Zm0,4.27c.06.23.15.54,0,.85-.12.23-.31.37-.43.43-1.83-.06-2.41-.46-2.56-.85-.12-.3-.06-.77-.43-1.28-.15-.21-.31-.34-.43-.43.2-.14.48-.31.85-.43.76-.23,1.41-.09,1.71,0,.31.24,1.03.85,1.28,1.71Zm-5.98-3.85c.13-.24.47-.18.85-.43.23-.15.41-.25.43-.43.03-.27-.33-.4-.43-.85-.04-.17-.02-.32,0-.43.38-.07.99-.14,1.71,0,.66.12,1.49.29,1.71.85.25.65-.42,1.7-.43,1.71-.38.18-1.15.47-2.14.43-.76-.03-1.35-.26-1.71-.43-.07-.22-.04-.35,0-.43Zm0,2.56c.6.12,1.02.53,1.28.85-.24.15-.53.29-.85.43-.65.26-1.24.38-1.71.43-.12-.17-.26-.32-.43-.43-.32-.22-.54-.21-.85-.43-.16-.11-.3-.26-.43-.43.14-.23.3-.35.43-.43.41-.22.73-.03,1.71,0,.59.02.58-.06.85,0Zm-4.7-3.42c.83-.33,1.59-.42,2.14-.43.21.13.56.4.85.85.25.39.35.78.4,1.05.02.13-.08.25-.21.25-.28,0-.63-.02-1.04-.02s-.85,0-1.28-.43c-.12-.22-.26-.37-.43-.43-.31-.11-.54.11-.85,0-.17-.06-.31-.21-.43-.43.24-.15.53-.29.85-.43Zm-3.85,1.71c.05-.03.1-.05.15-.08.41-.21.88-.22,1.3-.03.08.03.17.07.26.11.74.28,1.13.22,1.71.43.33.12.79.35,1.28.85-.35.23-.65.36-.85.43-.55.19-.88.15-1.28.43-.21.15-.35.32-.43.43-1.42.16-1.94-.12-2.14-.43-.16-.25-.14-.55-.43-.85-.26-.28-.61-.38-.85-.43.13-.21.8-.61,1.28-.85Zm-3.42,6.84c-.3-.58-.58-1.13-.43-1.71.1-.38.29-.41.43-.85.18-.54-.2-.87,0-1.28.1-.22.29-.35.43-.43.08.14.21.33.43.43.28.13.46,0,.85,0,.27,0,.61.15,1.28.43.49.21.73.31.85.43.13.13.44.49.43,1.28-.27.23-.56.37-.85.43-.49.09-.7-.09-1.28,0-.25.04-.75.12-.85.43-.11.32.28.7.43.85.49.49.88.42,1.28.85.21.22.35.51.43.85-.1.13-.24.29-.43.43-.5.37-1.04.42-1.28.43-.19-.3-.48-.74-.85-1.28-.49-.7-.64-.86-.85-1.28Zm-2.73,24.67c.5-.23.82-.51,1.02-.74.18-.2.23-.32.43-.43.47-.26,1.06-.07,1.28,0,.32.1.22.14.85.43.29.13.53.22.85.43.41.26.43.37.43.43,0,.13-.15.18-.43.43-.21.18-.26.26-.43.43-.39.38-.8.79-1.28.85-.37.05-.35-.15-1.28-.43-.73-.22-.99-.16-1.28-.43-.18-.16-.28-.35-.35-.54-.06-.17.02-.35.18-.43Zm1.02,3.96c-.16.75-.7,1.17-.85,1.28-.53-.2-.97-.34-1.28-.43-.69-.2-.93-.21-1.28-.43-.45-.27-.36-.42-.85-.85-.83-.72-1.56-.7-1.71-1.28-.05-.18-.02-.33,0-.43.39.1,1.18.24,2.14,0,.83-.21,1.41-.61,1.71-.85.16.25.43.59.85.85.43.26.59.2.85.43.47.41.54,1.17.43,1.71Zm3.85,3.42c-.44.09-.87.09-1.28,0-.54-.12-.75-.31-1.28-.43-.18-.04-.35-.06-.54-.06-.31,0-.5-.33-.38-.62.03-.06.05-.12.07-.17.16-.44.19-.75.43-.85.14-.06.2.02.43,0,.41-.03.57-.32.85-.43.57-.21,1.25.4,1.28.43.53.49.7,1.33.43,2.14Zm-1.71-9.83c.28-.37.57-.8.85-1.28.36-.61.64-1.19.85-1.71.22.12.37.26.43.43.11.31-.13.51,0,.85.07.2.24.36.43.43.12.04.21.02.43,0,.49-.05.74-.08.85,0,.26.18.19.83,0,1.28-.25.59-.87,1.2-1.71,1.28-.87.08-1.73-.43-2.14-1.28Zm5.13,6.84c-.85-.03-1.4-.26-1.71-.43-.18-.09-.45-.26-.43-.43.02-.16.32-.17.43-.43.07-.18-.03-.29,0-.43.05-.18.32-.36,1.28-.43.13.17.32.46.43.85.15.57.06,1.06,0,1.28Zm2.56-4.27c-1.08.55-2.57.18-3.85-.85.21-.13.56-.4.85-.85.33-.53.41-1.03.43-1.28.1.13.24.28.43.43.32.25.64.37.85.43.21-.06.53-.18.85-.43.19-.15.32-.3.43-.43.13.02.52.09.85.43.04.04.38.39.43.85.07.79-.81,1.47-1.28,1.71Zm4.7,1.28c-1.49.02-2.57-.59-2.99-.85.21-.13.56-.4.85-.85.33-.53.41-1.03.43-1.28.56.4,1.42.92,2.56,1.28,1.01.32,1.91.41,2.56.43-.35.3-1.59,1.26-3.42,1.28Zm2.99-2.56c-.8-.14-1.22-.82-2.56-1.28-.9-.31-1.33-.09-2.14-.43-.82-.34-1.38-.89-1.71-1.28-.08-.11-.22-.28-.43-.43-.6-.44-1.25-.38-1.71-.43-.53-.06-1.27-.32-2.14-1.28-.08-.14-.21-.33-.43-.43-.28-.13-.51-.02-.85,0-.43.02-1.13-.09-1.28-.43-.15-.35.38-.71.85-1.71.18-.38.29-.72.36-.99.05-.19.15-.37.29-.51l.21-.21c.12.08.29.22.43.43.24.38.19.72.43.85.08.04.21.07.43,0,.01-.04.12-.32.43-.43.2-.06.36-.02.43,0,.03.2.06.5,0,.85-.14.73-.57,1.05-.43,1.28.14.23.72.22.85,0,.09-.14-.07-.29,0-.43.43-.85,1.03-.38,1.71,0,.82.46.62,1.25,1.71,2.14.47.38.73.42.85.43.57.03.73-.44,1.28-.43.7,0,1.28.43,1.28.85,0,.48.16.59.43.85.43.43.78.35,1.28.43,1.06.15.98.41,2.56.85.48.13,1.21.31,2.14.43-.25.22-1.97,1.67-4.27,1.28Zm5.13-2.56c-1.73.23-3.03-.61-3.58-1.05-.14-.11-.11-.32.05-.41.18-.09.36-.18.54-.25.51-.21.77-.22,1.28-.43.14-.06.28-.12.41-.18.3-.15.65-.19.98-.1.38.1.77.2,1.17.29.74.17,1.45.31,2.14.43-.22.27-1.23,1.47-2.99,1.71Zm2.14-3.42c-1.28-.88-1.28-2.44-1.28-2.56.45.41,1.02.86,1.71,1.28,1.12.68,2.18,1.06,2.99,1.28-1.06.69-2.42.69-3.42,0Zm5.98-1.71c-.18.06-.69.22-1.5.18-.6-.04-1.18-.22-1.73-.49-1.1-.55-3.19-1.73-3.19-2.67,0-.32.06-.76.43-1.28.99.57,1.98,1.14,2.99,1.71,1.29.73,2.57,1.44,3.85,2.14-.19.13-.48.3-.85.43Zm8.55.43c-1.42-.12-2.58-.5-3.42-.85-1.95-.93-3.94-1.92-5.98-2.99-1.62-.85-3.19-1.71-4.7-2.56.25-.02.76-.09,1.28-.43.46-.29.72-.65.85-.85,1.81.35,4.26,1.05,6.84,2.56,1.07.63,1.99,1.3,2.76,1.94.14.12.25.26.34.42.18.33.41.69.74,1.06,1.06,1.18,2.38,1.57,2.99,1.71-.5.04-1.08.05-1.71,0Zm5.13-1.28c-.38-.05-.72-.12-1.03-.21-.39-.11-.76-.26-1.11-.45-4.17-2.28-7.35-4.02-8.97-4.89-1.15-.62-.85-.43-1.71-.85-1.3-.65-1.98-.48-3.01-1.03-.25-.13-.47-.31-.67-.51l-.06-.06c-.09-.09-.2-.15-.32-.17-.19-.03-.39,0-.64.06-.87.21-.85.38-1.28.43-.31.03-.47-.03-1.71-.43-.27-.52-.4-.78-.43-.85-.09-.27-.16-.8.43-1.71.53.23.95.37,1.28.43h.85c-.02-.06-.06-.23,0-.43.1-.3.39-.41.43-.43.15.02.53.1.85.43.4.41.1,1.03.43,1.28.27.21.74.04.85,0,1.42-.48,4.55,1.01,5.98,1.71,2.87,1.4,3.11,1.95,5.98,3.42,1.61.82,2.97,1.38,3.85,1.71.1.26.24.56.43.85.54.87,1.23,1.41,1.71,1.71-.55.07-1.28.12-2.14,0Zm7.69-1.28c-2.56-.31-4.59-1.06-5.98-1.71-2.56-1.35-4.59-2.56-5.98-3.42-3.75-2.31-5.55-3.42-8.97-5.13-1.54-.77-2.95-1.05-3.85-1.28-.31-.08-.59-.08-.85,0-.38.11-.47.32-.85.43-.29.08-.52.05-.85,0-.29-.04-.76-.15-1.28-.43v-.43c.09-.1.24-.26.43-.43.28-.26.38-.3.43-.43.05-.15.01-.41-.43-.85v-.43c.14-.21.29-.35.43-.43.79-.46,2.16.06,3.42,1.28v.43c.82.23,1.67.51,2.56.85,1.84.72,3.53,1.78,6.84,3.85.65.4,2.94,1.84,3.42,2.14.4.29,1.14.75,2.14.85.56.06.78.03.85,0,.32-.12.47-.35.85-.43.18-.03.33-.02.43,0,1.42.73,2.99,1.45,4.7,2.14,2.29.91,4.44,1.61,6.41,2.14.13.1.28.24.43.43.25.32.37.64.43.85-1.25.15-2.86.22-4.7,0Z"/>
        <path class="cls-2" d="m97.34,29.38c.82-1.46,1.8-3.05,2.99-4.7,1.3-1.81,2.62-3.37,3.85-4.7.07-.24.36-1.16,1.28-1.71,1.4-.84,2.92-.04,2.99,0,.85-.19,1.86-.36,2.99-.43.78-.05,1.49-.04,2.14,0,.28-.17.91-.5,1.71-.43,1.12.1,2.11.94,2.56,2.14.91,1.18,1.82,2.6,2.56,4.27,3.31,7.39,1.36,14.68.43,17.52-.26.51-.6.9-.85.85-.3-.06-.52-.74-.43-1.71.48-1.98,1.23-6.25-.43-11.11-.83-2.43-2.01-4.28-2.99-5.55.27-.32.68-.89.85-1.71.38-1.78-.68-3.19-.85-3.42-.17.19-.37.47-.43.85-.03.2,0,.34,0,.43.03.26.12,1.03,0,1.71-.05.29-.22.99-.85,1.71-.42-.18-1-.37-1.71-.43-1.65-.13-2.91.54-3.42.85.4-.56.44-1.01.43-1.28-.02-.34-.13-.54-.85-1.71-.7-1.13-.74-1.18-.85-1.28-.51-.42-1.39-.77-2.14-.43-.41.19-.64.52-.85.85-.22.33-.49.75-.43,1.28.05.43.26.77.43.85,1.71.85,1.82,1.32,2.14,2.14.1.27.18.68,0,1.28-.82.94-1.71,2.07-2.56,3.42-1.19,1.87-2,3.64-2.56,5.13-.15-.71-.48-1.63-1.28-2.14-.45-.29-.81-.28-1.28-.43-.7-.21-1.63-.73-2.56-2.14Z"/>
        <path class="cls-2" d="m81.95,91.76c-.02-.25.05-.44.17-.74.15-.36.37-.84.68-1.4.6-1.92,1.17-3.91,1.71-5.98,0,0,.21-.68.43-1.71.32-1.53.71-3.41,0-3.85-.14-.09-.39-.16-.84,0l-.44-.4c.09-.39.23-.83.43-1.31.18-.42.37-.55.43-.85.06-.31-.01-.73-.43-1.28.08-.11.22-.27.43-.43.41-.31.6-.2.85-.43,0,0,.17-.15.43-1.28.1-.02.25-.03.43,0,.5.09.7.5.85.43.15-.06.15-.5,0-.85-.22-.51-.78-.8-1.28-.85-.05,0-.78-.07-1.28.43-.28.28-.32.57-.43.85-.33.91-.95.9-2.14,2.14-.76.79-1.29,1.37-1.28,2.14,0,.31.02.97.43,1.28.13.1.34.19.43.43.05.14.04.28,0,.43-.19.73-.93,1-.85,1.28.06.21.47.1.85.43.5.44.43,1.23.43,1.28-.07.64-.67.59-.85,1.28-.06.23-.01.26,0,1.28,0,.36,0,.65,0,.85-.48-.29-.72-.61-.85-.85-.21-.39-.18-.65-.43-1.28-.18-.44-.34-.7-.43-.85-.26-.49-.44-1.35,0-2.99.04-.17.08-.48,0-.85-.09-.41-.28-.46-.43-.85-.04-.11-.28-.76,0-1.28.24-.46.66-.4.85-.85.13-.3.06-.59,0-.85-.18-.8-.69-.97-.85-1.71-.06-.27-.06-.56,0-.85.09,0,.25-.02.43,0,.63.07.86.41,1.28.43.2,0,.49-.06.85-.43.43-.41,1.7-1.56,3.42-1.71.29-.03,1.79-.16,2.14.43.05.08.17.34.43.43.16.06.32.03.43,0,.29-.04.77-.17,1.28,0,1.28.43,1.56.66,2.14.43.52-.21.61-.75,1.28-.85.2-.03.35,0,.43,0,.05,0,.09.01.13.03.04,0,.08.02.12.03h0s.08.03.12.04c.04.01.08.03.11.05.21.1.39.24.52.38,0,0,0,0,0,0,.13.13.23.26.27.32.06.34.17.79.43,1.28.53.99,1.32,1.5,1.71,1.71h0s.03.02.05.03c.06.04.13.08.19.12.03.02.06.03.1.06.03.02.07.03.1.06.12.06.24.13.38.22.03.02.06.04.09.06.12.08.24.18.38.31.48.45.74.91.85.85,0,1.06.01,1.17,0,2.14,0,0-.03,2-.19,4.33-.08-.35-.16-.65-.23-.91,0,0-.18-.78-.43-1.28-.27-.56-.61-1.37-1.28-2.14-.79-.9-1.05-1.13-1.28-1.28-.23-.15-.56-.3-.85-.43-.89-.38-1.94-.19-2.56,0-.66.22-1.12,1.22-1.28,1.71-.09.27-.46,1.23-.43,1.28.12.16.46.16.85,0,.08-.12.65-.72.85-.85.76-.49,1.9-.14,2.56.43.41.35.62.77.85,1.28.24.5.36.96.43,1.28-1.35,1.19-2.42,1.31-2.99,1.28-.78-.03-2-.39-2.99-.85-.39-.18-.74-.38-1.28-.43-.24-.02-1.03-.09-1.71.43-.21.15-.34.32-.43.43-.36.91-.87,2.29-1.28,3.85-.52,1.95-.09,1.2-.43,2.56-.04.17-.12.5,0,.85.17.47.59.73.85.85.43-.01,1.23.02,2.14.43.88.4,1.43.96,1.71,1.28.26-.2.56-.48.85-.85.5-.65.73-1.28.85-1.71.01-.04.12-.32.43-.43.2-.06.36-.02.43,0,.05.37.03.66,0,.85-.1.7-.41.98-.43,1.71,0,.13,0,.17,0,.43-.01.63-.07.7,0,.85.14.32.59.54.85.43.2-.09.19-.32.43-.43.16-.07.32-.03.43,0-.27.65-.77,1.64-1.71,2.56-1.62,1.6-3.51,2.01-4.27,2.14-1-.29-1.25-.61-1.28-.85-.03-.18.08-.3,0-.43-.15-.24-.76-.06-1.28,0-1.06.12-2.23-.21-2.99-.85-.62-.53-.82-1.16-.85-1.28-.18-.6-.12-1.26,0-1.28.12-.02.21.53.43.85.38.58,1.47,1.05,4.7.43.33-.09.62-.23.85-.43.23-.2.21-.27.43-.43.27-.19.71-.21.85-.43.04-.07.08-.19,0-.43-.25-.15-.53-.29-.85-.43-.16-.07-.32-.13-.48-.19-.46-.16-.97-.13-1.41.07-.09.04-.18.08-.25.11-.76.32-.73.38-.85.43-.32.12-1.16.43-1.71,0-.38-.3-.42-.79-.43-.85Z"/>
      </g>
    </g>
  </g>
</svg>