<?xml version="1.0" encoding="UTF-8"?>
<svg id="Layer_2" data-name="Layer 2" xmlns="http://www.w3.org/2000/svg" viewBox="0 0 223.69 223.69">
  <defs>
    <style>
      .cls-1 {
        fill: #0b7550;
      }

      .cls-2 {
        fill: #e5a3b0;
        stroke: #231f20;
        stroke-miterlimit: 10;
      }
    </style>
  </defs>
  <g id="Layer_1-2" data-name="Layer 1">
    <g>
      <circle class="cls-2" cx="111.85" cy="111.85" r="111.35"/>
      <path class="cls-1" d="m40.66,142.96c-.47.47-1.19,1.31-1.71,2.56.29-.27.71-.59,1.28-.85,1.07-.49,2.05-.47,2.56-.43-.3.14-1.51.72-2.14,2.14-.73,1.66-.11,3.17,0,3.42.12-.32.36-.83.85-1.28,1.01-.93,2.29-.87,2.56-.85-.27.42-.67,1.14-.85,2.14-.17.91-.09,1.66,0,2.14.14-1.08.52-1.52.85-1.71.42-.24.73-.08,1.28-.43.19-.12.2-.18.85-.85.49-.51.73-.76.85-.85.29-.21.81-.47,1.71-.43-.21.13-.56.4-.85.85-.33.53-.41,1.03-.43,1.28.29-.15.73-.33,1.28-.43,1.08-.18,1.95.08,2.99.43,2.02.68,2.14.86,3.42,1.28,1.26.42,2.58.85,4.27.85,1.45,0,2.54-.3,2.99-.43,3.52-1.01,5.65-3.66,6.83-5.12.99-1.23,2.44-3.35,3.42-6.41v1.71c-.32,1.19-.67,2.79-.85,4.7-.13,1.3-.3,3.2,0,5.55.2,1.61.72,4.06,2.14,6.83.38.71,1.08,2.29.85,4.27-.06.53-.19,1.51-.85,2.56-.57.9-1.28,1.43-1.71,1.71-.14-.06-.89-.35-1.71,0-1.07.47-1.27,1.63-1.28,1.71.07.41.13,1.01,0,1.71-.11.56-.27.88-.43,1.28-.21.56-.44,1.4-.43,2.56,0,1.9-.12,4.05-.43,6.41-.32,2.4-.78,4.55-1.28,6.41-.29.29-.57.57-.85.85l-1.28,1.28c.35.04.79.05,1.28,0,.71-.07,1.29-.26,1.71-.43.14.29.29.57.43.85.14.29.29.57.43.85-.44.28-1.17.66-2.14.85-1.1.22-2.02.11-2.56,0-.1-.19-.75-1.38-2.14-1.71-1.24-.29-2.58.21-3.42,1.28-.06.04-1.39.98-1.28,2.56.08,1.19.94,2.22,2.14,2.56-.04-.17-.08-.48,0-.85.09-.43.31-.72.43-.85.15.19.57.66,1.28.85,1.11.3,2.01-.34,2.14-.43.2-.2.5-.43.85-.43.32,0,.52.19.85.43.28.2.94.63,1.71.85.48.14,1.18.34,1.71,0,.11-.07.13-.12.43-.43.35-.38.65-.67.85-.85.17.23,1.19,1.53,2.99,1.71,2.3.23,3.75-1.59,3.84-1.71.3.22.74.53,1.28.85.84.5,1.26.76,1.71.85.98.21,1.38-.3,2.56-.43,1.37-.14,1.39.51,2.56.43,1.6-.12,2-1.27,3.42-1.28.86,0,1.59.42,2.14.85.2-.2.5-.43.85-.43s.58.23.85.43c.73.51,1.8.7,2.56.43.2-.07.83-.34,1.28-1.28.23.16.56.43.85.85.22.32.35.62.43.85.11-.32.35-1.19,0-2.14-.44-1.17-1.6-2-2.99-2.14-1.32-1.83-2.31-2.18-2.99-2.14-.27.02-.75.15-1.71.43-1,.29-1.23.41-1.71.43-.42.02-1-.06-1.71-.43-.25-.15-.54-.3-.85-.43-1.34-.55-2.6-.53-3.42-.43-1.47.5-2.69.49-3.42.43-.98-.09-1.86-.16-2.56-.85-.75-.74-.84-1.75-.85-2.14.15-2.19.49-4.06.85-5.55.56-2.31.97-3.93,2.14-5.55,1.13-1.56,2.4-2.32,4.27-3.42,4.48-2.62,6.37-2.05,9.39-4.27,1.03-.76,2.49-2.05,3.84-4.27.14.12.28.26.43.43.4.45.67.9.85,1.28,1.77-.21,3.09.15,3.84.43,3.33,1.25,5.24,4.66,5.55,7.69.17,1.67-.17,3.04-.43,3.84-.01.1-.03.25,0,.43.06.41.28.69.43.85.59.67,1.73,1.41,2.14,1.71.77.57.53.74,1.71,2.14,1.42,1.67,2.9,2.75,3.84,3.42.52.37.97.66,1.28.85-.43.99-.85,1.99-1.28,2.99.33-.37.89-.89,1.71-1.28.48-.23.92-.35,1.28-.43.12.14.33.43.43.85.08.37.04.68,0,.85-.1.09-.25.24-.43.43-.69.7-.71.76-.85.85-.48.3-.92.04-1.71,0-.49-.03-1.22.03-2.14.43-.14-.14-.29-.29-.43-.43-.02-.07-.41-1.35-1.71-1.71-1.14-.31-2.03.35-2.14.43-1.72.05-2.97,1.29-2.99,2.56-.02,1.26,1.18,2.07,1.28,2.14-.03-.06-.2-.45,0-.85.13-.26.35-.38.43-.43.07.25.37,1.18,1.28,1.71,1.02.58,2.38.42,3.42-.43h.85c.16.19,1.06,1.2,2.56,1.28,1.76.1,2.86-1.13,2.99-1.28.65.82,1.34,1.15,1.71,1.28,1.38.5,2.73,0,3.84-.43.76-.29,1.34-.62,1.71-.85.08.28.29.86.85,1.28.8.59,1.98.59,2.99,0,.29-.2.74-.43,1.28-.43.89,0,1.1.61,2.14.85.12.03,1.65.38,2.56-.43.43-.38.43-.75.85-.85.4-.1.94.1,1.28.43.23.22.24.38.43.43.31.07.48-.32.85-.43.59-.17,1.05.58,1.71.85.53.22,1.42.24,2.99-.85.08-.09.38-.4.85-.43.53-.03,1.04.31,1.28.85.04-.38.09-1.26-.43-2.14-.66-1.12-1.98-1.77-3.42-1.71-.45-.3-1.18-.71-2.14-.85-1.49-.23-1.91.44-3.42.43-1.83-.01-1.94-1-4.27-1.28-1.56-.19-1.81.22-2.99,0-1.06-.2-2.42-.81-3.84-2.56-2.2-3.45-3.95-6.14-5.55-8.54-.81-1.22-1.76-2.62-2.14-4.7-.26-1.43-.15-2.62,0-4.27.24-2.63.6-2.72.85-5.12.26-2.43.12-4.41,0-5.98-.11-1.47-.21-1.84-.43-3.84-.26-2.4-.37-4.33-.43-5.55,3.97-3.37,8.38-7.6,12.81-12.81,3.83-4.51,6.92-8.87,9.39-12.81,0,.41.07,1.05.43,1.71.56,1.02,1.36,1.19,1.71,2.14.08.2.32.98,0,1.71-.17.39-.37.48-.43.85-.04.27.03.5.43,1.28.58,1.12.73,1.2.85,1.71.09.35.2.8,0,1.28-.22.52-.67.77-.85.85-.1.56-.05,1.01,0,1.28.16.82.58,1.37.85,1.71.35.44.59.59.85.85.7.68.86,1.38,1.28,2.56,1,2.78,1.5,4.18,2.56,4.7.37.18.89.32,1.28.85.36.5.39,1.02.43,1.28.24,1.79,2.13,2.98,2.14,2.99,2.54.52,4.57.53,5.98.43,1.54-.11,1.84-.3,3.84-.43,1.66-.11,2.42-.03,5.12,0,1.08.01,2.7.03,4.7,0h1.71c.13-.07.34-.2.43-.43.2-.51-.4-.93-.43-1.71-.02-.51.23-.62.43-1.28.14-.46.23-1.16,0-2.14-.68-.54-1.28-.76-1.71-.85-.53-.12-.94-.09-1.28-.43-.2-.2-.16-.29-.43-.85-.26-.54-.47-.98-.85-1.28-.33-.26-.64-.31-1.28-.43-1.84-.33-2.78-.5-3.42-.85-.66-.36-.61-.54-1.28-.85-.82-.38-1.59-.44-2.14-.43h-3.42c-.12-.27-.26-.56-.43-.85-.41-.72-.87-1.28-1.28-1.71v-6.83c.06-.4.12-1,0-1.71-.21-1.32-.84-1.94-1.28-2.99-.47-1.11-.82-2.3-.43-3.42.1-.29.36-.86.43-1.71.03-.29.02-.57,0-.85-.07-.97-.56-4.56-1.28-9.39.11-.05.61-.28.85-.85.27-.62.04-1.18,0-1.28.07,0,.76.1,1.28-.43.53-.53.44-1.21.43-1.28.13-.02.52-.09.85-.43.09-.09.36-.38.43-.85.21-.07.53-.2.85-.43.8-.56,1.13-1.35,1.28-1.71.18-.41,1.17-2.69,2.56-4.27,1.09-1.23,1.55-1.04,2.14-2.14.38-.7.34-1.07.85-2.56,0,0,.27-.77.85-2.14.7-1.62,2.78-5.43,5.98-10.25.18-.22.46-.53.85-.85.73-.6,1.15-.69,2.14-1.28.86-.53,1.31-.79,1.71-1.28.59-.71.73-1.49.85-2.14.32-1.65-.15-2.26.43-2.99.08-.11.08-.08,1.28-.85,1.46-.95,1.59-1.07,1.71-1.28.38-.69-.03-1.04.43-1.71.07-.1.56-.79,1.28-.85.39-.03.59.15.85,0,.34-.18.4-.66.43-.85.14-1.02-.62-1.89-.85-2.14.16-.06.88-.33,1.71,0,.89.36,1.23,1.14,1.28,1.28.13.04.28.06.43,0,.65-.26.73-1.89.43-2.99-.47-1.73-2-2.66-2.56-2.99-2.11-1.27-4.33-1-5.12-.85-.54-.31-1.42-.71-2.56-.85-.67-.09-1.25-.06-1.71,0-.79.45-2.58,1.6-3.84,3.84-1.35,2.39-1.33,4.65-1.28,5.55,0,.4-.06.93-.43,1.28-.35.34-.73.27-1.28.43-1.17.33-1.86,1.32-2.14,1.71-.72,1.03-.83,2.08-.85,2.56-.08.32-.12.55-.43.85-.85.85-1.62,1.95-2.56,2.99-.41.46-.99,1.05-1.71,1.71-.02-.02-.04-.04-.04-.04-.13-.13-.26-.26-.38-.38.09-.05.76-.47.85-1.28.08-.67-.25-1.34-.85-1.71.07-.08.5-.57.43-1.28-.09-.84-.79-1.24-.85-1.28.12-.15.46-.62.43-1.28-.04-.73-.54-1.39-1.28-1.71.06-.16.33-.88,0-1.71-.36-.89-1.14-1.23-1.28-1.28.06-.22.16-.7,0-1.28-.2-.73-.68-1.14-.85-1.28.06-.16.33-.88,0-1.71-.36-.89-1.14-1.23-1.28-1.28.04-.12.13-.47,0-.85-.2-.61-.77-.82-.85-.85.04-.09.29-.67,0-1.28-.23-.49-.73-.82-1.28-.85.04-.09.29-.67,0-1.28-.23-.49-.73-.82-1.28-.85.04-.09.29-.67,0-1.28-.23-.49-.73-.82-1.28-.85,0-.2-.04-.75-.43-1.28-.46-.63-1.1-.81-1.28-.85,0-.2-.04-.75-.43-1.28-.46-.63-1.1-.81-1.28-.85,0-.07.1-.76-.43-1.28-.53-.53-1.21-.44-1.28-.43,0-.07.1-.76-.43-1.28-.53-.53-1.21-.44-1.28-.43,0-.11.06-.77-.43-1.28-.42-.45-1.08-.61-1.71-.43,0-.07.1-.76-.43-1.28-.53-.53-1.21-.44-1.28-.43-.05-.19-.23-.82-.85-1.28-.74-.55-1.55-.45-1.71-.43-.03-.18-.12-.55-.43-.85-.65-.67-1.64-.44-1.71-.43-.04-.56-.37-1.05-.85-1.28-.61-.29-1.2-.04-1.28,0-.01-.09-.13-.87-.85-1.28-.82-.47-1.66-.03-1.71,0-.09-.17-.33-.6-.85-.85-.81-.4-1.6-.05-1.71,0-.04-.07-.44-.77-1.28-.85-.71-.07-1.2.35-1.28.43-.29.85-.57,1.71-.85,2.56-.14.43-.29.85-.43,1.28-.01.04-.12.32-.43.43-.06.02-.28.1-.43,0-.26-.18-.12-.79,0-1.28.16-.68.38-1.15.43-1.28.23-.58.15-1.58-1.28-3.42-.37.19-.82.47-1.28.85-.35.29-.63.59-.85.85.04-.23.06-.52,0-.85-.2-1.04-1.09-1.59-1.28-1.71-.05-.9-.06-1.9,0-2.99.07-1.27.23-2.42.43-3.42.01-.09.08-.77-.43-1.28-.32-.32-.71-.41-.85-.43-.6.31-3.62,1.94-4.7,5.55-.69,2.29-.25,4.26,0,5.12.31.7.4,1.31.43,1.71.03.38.05,1.29-.43,2.14-.18.32-.31.41-.43.43-.12.01-.35-.04-.85-.85-.44-.71-.54-1.11-.85-1.71-.17-.32-.44-.77-.85-1.28-.12-.03-.26-.03-.43,0-.59.13-.83.79-.85.85-.02-.01-.44-.23-.85,0-.29.17-.47.5-.43.85-.14-.05-.48-.14-.85,0-.49.18-.82.69-.85,1.28-.58-.38-1.27-.36-1.71,0-.35.29-.41.72-.43.85-.58-.38-1.27-.36-1.71,0-.35.29-.41.72-.43.85-.09-.01-.77-.08-1.28.43-.32.32-.41.71-.43.85-.09-.01-.77-.08-1.28.43-.32.32-.41.71-.43.85-.08.03-.65.25-.85.85-.13.39-.04.73,0,.85-.08.03-.65.25-.85.85-.13.39-.04.73,0,.85-.11.05-.61.28-.85.85-.27.62-.04,1.18,0,1.28,1,.29,1.99.57,2.99.85-.18.38-.47,1.14-.43,2.14.03.76.26,1.35.43,1.71.02.1.03.25,0,.43-.09.44-.37.5-.43.85s.16.76.43.85c.18.06.25-.07.43,0,.28.11.42.54.43.85,0,.22-.05.27,0,.43.06.19.23.35.43.43.39.14.7-.15.85,0,.12.12.01.39,0,.43-.12.32-.44.46-1.28.85-.53.25-.8.37-.85.43-.39.37-.29.82-.43,1.71-.04.29-.23,1.46-.85,2.56-.43.76-.57.63-.85,1.28-.38.87-.43,1.81-.43,2.14v1.28c.05.51.36,1.14.85,1.28.12.03.17.02.43,0,.25-.02.88-.04,1.28,0,.52.05.89.23,1.28.43.69.34.75.54,1.28.85.19.11,1.7.98,2.56.43,0,0,.14-.09.85-1.28,0,0-.02-1.52.43-2.99.19-.64.36-1.18.85-1.71.25-.26.83-1.02,1.28-.85.33.12.43.43.43.43.43.85-.12,2.14-.43,2.56-.29.39-.78,1.33-.85,2.14-.02.18.43.43.43.43.25.02.54.03.85,0,.71-.06.86-.25,1.28-.43.35-.59.46-1.8,1.28-2.56.94-.88,1.89-1.4,2.56-1.71.25.02.76.09,1.28.43.46.29.72.64.85.85-.21.98-.58,1.7-.85,2.14-.52.84-.96,1.54-1.71,1.71-.68.15-1.07-.26-1.71,0-.44.18-.71.57-.85.85-.06.38-.35,2.71,1.28,4.7.19.23,1.57,1.87,3.84,2.14.53.06.97.03,1.28,0,.36-.02.69.15.85.43.2.35.05.73,0,.85-.18.43-.55.6-.64.64-1.81-.37-4.48-.73-7.69-.43-1.65.15-3.01.45-4.22.77-.17-.1-.33-.2-.5-.31-2.66-1.64-5.07-3.16-7.77-5.7-2.17-2.05-3.72-4.02-4.76-5.49-.18-.12-.48-.29-.88-.36-.23-.05-.44-.06-.6-.04.27-3.81.54-7.64.82-11.45-.12-.19-.96-1.45-2.6-1.7-1.49-.22-2.57.56-2.78.71-.16-.17-1.12-1.11-2.64-1.1-1.41.01-2.31.85-2.5,1.03-.14-.14-1.75-1.64-3.85-1.18-1.21.26-1.94,1.04-2.21,1.35-.3-.14-1.53-.67-3.01-.21-1.73.53-2.46,1.99-2.58,2.24-.5.06-1.53.24-2.5,1.03-1.7,1.38-1.78,3.48-1.79,3.81-.45.22-1.28.72-1.93,1.68-1.04,1.52-.91,3.11-.86,3.57-.43.38-1.28,1.23-1.7,2.6-.7,2.29.37,4.22.58,4.58-.76.83-.98,1.6-1.05,2.04-.35,2.05,1.17,4.39,3.83,5.72-.09.67-.14,1.82.39,3.06,1.24,2.93,4.54,3.61,4.88,3.68.02.17.06.39.12.64-.39-.03-.75-.06-1.08-.09-.21.06-.53.18-.85.43-.19.15-.33.3-.43.43-2.7-2.7-5.41-5.41-8.11-8.11-.22-.03-1.73-.23-2.99.85-1.14.98-1.26,2.31-1.28,2.56-.23.01-1.58.12-2.56,1.28-.91,1.07-.87,2.3-.85,2.56-.2.02-2.39.25-3.42,2.14-.59,1.09-.49,2.15-.43,2.56-.3.14-1.51.72-2.14,2.14-.73,1.66-.11,3.17,0,3.42-.28.41-.82,1.32-.85,2.56-.07,2.2,1.46,3.62,1.71,3.84-.12.49-.29,1.44,0,2.56.47,1.78,1.76,2.73,2.14,2.99,0,.57.09,1.77.85,2.99,1.28,2.02,3.43,2.49,3.84,2.56.13,1.12.57,1.79.85,2.14,1.32,1.61,4.08,1.99,6.83.85.44.5,1.29,1.29,2.56,1.71,3.03.99,5.71-1.07,5.98-1.28.44.3,1.35.81,2.56.85,2.5.09,4.09-1.9,4.27-2.14.23.15.68.39,1.28.43,1.19.07,1.99-.71,2.14-.85.21.15.67.42,1.28.43,1.32.02,2.09-1.2,2.14-1.28.14.12.43.33.85.43.37.08.68.04.85,0-2.25,1.93-3.75,3.78-4.7,5.12-1.61,2.28-2.83,4.75-4.27,7.69-1.01,2.06-1.08,2.37-1.71,3.42-.99,1.64-2.15,3.58-4.27,5.12-.72.52-2.66,1.93-5.12,2.14-5.27.43-8.95-4.91-9.39-5.55-.44-.63-1.6-2.29-2.14-4.7-.32-1.43-.06-1.54-.43-2.56-1.08-3.04-4.14-4.22-4.27-4.27-1-.37-1.91-.44-2.56-.43.03.33.12.82.43,1.28.31.47.56.47.85.85.42.55.32,1.07.43,2.14.05.52.17,1.25.43,2.14-.32.06-.76.1-1.28,0-1.18-.22-1.9-1-2.14-1.28-.06.46-.09,1.04,0,1.71.2,1.44.88,2.47,1.28,2.99-.28-.11-1.37-.49-2.56,0-1.18.49-1.99,1.64-2.14,2.99.25-.2.73-.51,1.28-.43.09.01.24.05.85.43.73.45.87.63,1.28.85.28.15.7.33,1.28.43-.61.25-1.61.75-2.56,1.71Zm124.27-55.09c.19-1.46.47-3.03.85-4.7.6-2.58,1.36-4.87,2.14-6.83-1.85,1.32-3.91,3-5.98,5.12-1.14,1.17-2.13,2.32-2.99,3.42v-1.71c1.96-2.37,3.3-3.8,4.27-4.7.43-.4.99-.88,1.28-1.71.15-.42.14-.67.28-1.41.09-.48.24-.96.47-1.4.04-.09.08-.15.1-.18.39-.49.78-.83,1.71-1.28.55-.27,1.27-.62,1.71-1.28.41-.62.3-1.11.43-2.14.16-1.31.55-2.25.85-2.99.4-.97,1.18-2.87,2.99-3.84.66-.35,1.13-.41,1.28-.43,1.26-.12,2.24.59,2.56.85.48-.09,1.24-.18,2.14,0,.52.1.95.27,1.28.43-.14.2-.31.48-.43.85-.23.76-.09,1.41,0,1.71-.15-.19-.57-.66-1.28-.85-1.11-.3-2.01.34-2.14.43-.06.22-.16.7,0,1.28.2.73.68,1.14.85,1.28v.85c-.17-.04-.48-.08-.85,0-.43.09-.72.31-.85.43l-1.28,1.28c.08.12.21.29.43.43.53.34,1.34.38,1.71,0,.28-.29.11-.62.43-.85.27-.19.71-.2.85,0,.08.11.05.26,0,.43-.23.75-.81,1.24-.85,1.28-.41.35-1.17.97-2.14.85-.99-.12-1.84-.98-2.14-2.14-.66.32-.84.62-.85.85-.01.22.12.31.43.85.36.63.55.97.43,1.28-.06.16-.18.25-.43.43-.35.26-.58.29-.85.43-.37.19-.49.41-.85.85-.27.33-.69.78-1.28,1.28-.02.04-.11.27,0,.43.13.19.51.24.85,0,.64-.63,1.07-1.07,1.28-1.28.73-.73,1.09-1.1,1.71-1.28.26-.08.61-.18.85,0,.36.27.34,1.12,0,1.71-.48.83-1.32.69-2.56,1.71-.41.34-.73.49-.85.85-.17.48.11.72,0,1.28-.04.21-.14.48-.85,1.28-.63.7-.93.91-1.28,1.28-.67.7-.89,1.32-1.28,2.14-.41.85-1.07,2.03-2.14,3.42Zm-7.26,10.25c.11-.05.64-.28.85-.85.22-.57.05-1.24-.43-1.71.07-.04.77-.44.85-1.28.07-.71-.35-1.2-.43-1.28.06-.07.53-.57.43-1.28-.06-.46-.32-.75-.43-.85.09-.12.62-.82.43-1.71-.09-.41-.29-.7-.43-.85.12-.12.36-.42.43-.85.03-.17.02-.31,0-.43.6-.82,1.31-1.68,2.14-2.56,1.33-1.42,2.66-2.54,3.84-3.42-.49,1.46-.95,3.18-1.28,5.12-.23,1.38-.36,2.67-.43,3.84-.35.41-1,1.28-1.28,2.56-.24,1.1.3,1.47,0,2.56-.26.94-.85,1.62-1.28,2.14-.49.58-.7.64-1.28,1.28-.62.67-1.03,1.3-1.28,1.71.06-.23.15-.71,0-1.28-.11-.4-.29-.68-.43-.85Zm-75.59,20.93c.38-.82.8-1.68,1.28-2.56.97-1.78,1.99-3.34,2.99-4.7.17.04.48.08.85,0,.43-.09.72-.31.85-.43-1,1.99-1.99,3.98-2.99,5.98-.15.26-.53.86-1.28,1.28-.73.41-1.41.43-1.71.43Zm43.99-66.19c-.1-.3-.39-.41-.43-.43.19-.15.48-.33.85-.43,1.06-.28,1.96.31,2.14.43,0,.12-.04,1.08-.85,1.71-.74.57-1.57.45-1.71.43-.04-.01-.32-.12-.43-.43-.02-.06-.08-.24,0-.43.1-.23.32-.2.43-.43.08-.18.02-.37,0-.43Zm3.42,2.14c.25.02.76.09,1.28.43.46.29.72.64.85.85-.04.25-.15.59-.43.85-.47.44-1.1.29-2.14.43-.35.05-.84.13-1.41.32-.26.09-.54.07-.78-.05-.5-.24-.81-.68-.8-1.13,0-.45.33-.77.43-.85.4-.15.83-.29,1.28-.43.6-.18,1.17-.32,1.71-.43Zm-34.18,52.55h0c-.06.15-.3.6-.84.83-.38.16-.73.15-.97.09-.1-.02-.18-.1-.21-.19-.02-.06-.02-.12,0-.19.2-.56.41-1.14.63-1.72.18-.47.36-.94.55-1.41,0-.02.01-.03.02-.05.1-.26.21-.52.32-.77.28-.67.56-1.31.84-1.93h0c.04-.08.07-.16.11-.23.17.04.48.08.85,0,.43-.09.72-.31.85-.43v.43c-.1.32-.21.64-.32.97-.03.1-.07.21-.11.31-.29.83-.59,1.64-.91,2.42-.26.64-.52,1.26-.79,1.85,0,0,0,.01-.01.02Zm-2.39-2.11h0c-.05.13-.11.26-.16.38-.15.36-.29.71-.43,1.07-.15.35-.29.71-.42,1.07-.03.05-.06.11-.11.18-.2.3-.56.76-1.17,1.1-.1.06-.21.11-.31.15-.45.2-.85.26-1.14.27-.13,0-.23-.11-.19-.23.1-.35.21-.71.34-1.08.13-.4.28-.82.45-1.24.11-.27.22-.53.33-.79.41-.93.85-1.75,1.27-2.46.03-.06.07-.12.1-.17.71-.23,1.42-.47,2.13-.71.11.12.13.14.23.25,0,0,.01.02.02.03-.32.71-.63,1.44-.94,2.19Zm-3.97.73s-.02.05-.03.08c-.18.41-.35.8-.5,1.18-.13.33-.25.65-.36.96-.15.26-.53.86-1.28,1.28-.53.3-1.05.39-1.4.42-.14.01-.24-.14-.18-.27.33-.73.71-1.49,1.16-2.28.15-.26.29-.5.44-.75.29-.49.59-.96.89-1.4.16-.24.33-.48.5-.71.29-.4.58-.78.86-1.14.37.13.37.12.74.25v.49c0,.17-.04.33-.12.48-.23.44-.47.91-.7,1.41Zm-3.88.93c-.59,1.01-1.16,2.01-1.71,2.99-.17.2-.59.63-1.28.85-.6.19-1.14.14-1.46.06-.12-.03-.17-.17-.1-.27.31-.44.55-.82.71-1.08.85-1.33,2.32-3.83,3.42-4.7.05-.04.1-.08.15-.11.25-.18.49-.27.71-.32.37-.08.68-.04.85,0v.43c-.13.21-.26.41-.38.63-.3.5-.6,1-.9,1.51Zm.82-12.25c.47-.21.77-.26.88-.14.07.08.07.22,0,.43-.03.06-.06.12-.09.18-.11.22-.22.44-.33.67-.22.2-.44.41-.67.61l-2,1.84c-.52.48-1.04.96-1.55,1.43-.43.4-.86.79-1.29,1.19-.02.01-.03.03-.05.04-.43.43-2.4.37-2.56,0-.05-.11-.03-.27,0-.43.07-.44.31-.73.43-.85.29-.23.58-.44.85-.65,1.14-.87,2.14-1.61,3.01-2.22,1.53-1.08,2.65-1.79,3.37-2.11Zm-2.49.13c-.29.2-.6.39-.9.59-.15.09-.29.19-.44.28-.8.51-1.59.99-2.36,1.43-.5.3-.99.58-1.47.85-.45.07-.85-.01-1.15-.17-.32-.17-.53-.43-.56-.69-.05-.42.35-.79.43-.85,0,0,0,0,.01,0,1.71-.7,3.42-1.41,5.12-2.11.71-.29,1.41-.59,2.12-.88h.43c.14.14.29.29.43.43-.54.37-1.09.75-1.66,1.12Zm4.54,1.12c.09-.08.21-.12.33-.1.26.03.51.19.64.42.08.14.11.28.11.41,0,.04,0,.08,0,.12-.02.18-.09.32-.1.32-.42.56-.85,1.12-1.26,1.69-.44.58-.87,1.15-1.3,1.73-.03.04-.07.08-.11.13,0,0,0,0,0,0-.35.42-1.01,1.18-1.68,1.75-.18.15-.35.29-.52.39-.43.29-.82.43-1.11.29-.19-.09-.39-.34-.44-1,.02-.06.04-.12.06-.19.11-.15.22-.29.33-.44.56-.73,1.18-1.49,1.87-2.27.11-.12.22-.25.33-.37.31-.34.61-.67.92-.99.2-.22.41-.43.62-.63.45-.45.9-.87,1.33-1.27Zm-8,13.13c-.21.28-.6.79-1.28,1.28-.65.47-1.28.7-1.71.85-.66.24-1.25.36-1.71.43-.23.07-.38.07-.43,0-.09-.11.06-.39.43-.85.71-.71,1.42-1.42,2.14-2.14l3.84-3.84c.23.03.52.04.85,0,.51-.06.91-.23,1.18-.37.04-.02.07-.04.1-.06v.43c-1.46,1.8-2.61,3.22-3.42,4.27Zm-5.55.85c-.21.25-.63.67-1.28.85-.75.22-1.85.15-2.14-.43-.14-.27-.06-.6,0-.85.09-.41.3-.7.43-.85,3.19-2.6,5.79-4.52,7.07-5.25.26-.15.47-.25.61-.3.24-.08.8-.26,1.28,0,.22.12.35.31.43.43v.43c-.06.05-.13.1-.2.16-.91.73-1.84,1.53-2.79,2.4-1.27,1.17-2.4,2.31-3.42,3.42Zm-4.27-2.14c-.17.13-.64.45-1.28.43-.72-.03-1.67-.5-1.71-1.28-.03-.53.47-.98.85-1.28,1.57-1.23,4.72-2.85,6.84-3.88.29-.15.57-.28.82-.4.36-.17.66-.31.88-.42.03.2.09.36.16.49.1.19.21.31.26.36.34.34.73.41.85.43-.25.17-.49.33-.71.49-1.15.81-2.05,1.52-2.7,2.07-.5.41-1.84,1.14-4.27,2.99Zm-2.99-3.42c-1.31.71-2.67.26-2.99-.43-.32-.7.25-2.07,1.71-2.56,3.07-.84,6.14-1.67,9.2-2.51.06-.02.13-.03.19-.05.05.19.15.47.35.75.02.03.05.07.08.11.15.19.3.32.43.43-2.99,1.42-5.98,2.85-8.97,4.27Zm8.11-10.25c0-.26.11-.47.21-.62.09-.13.18-.21.21-.23.29-.14.57-.29.85-.43,1.29-.35,2.46-.66,3.45-.93,1.01-.27,1.84-.49,2.45-.64.2-.06.37-.1.51-.14.23-.06.73-.19.85,0,.07.11,0,.29-.12.47-.05.08-.11.15-.17.21-.12.14-.27.25-.44.33-.18.09-.36.18-.55.27-.32.14-.64.26-.95.39-.39.16-.77.32-1.13.46-1.47.61-2.66,1.08-3.44,1.38-.44.17-.74.28-.89.32-.07.02-.25.07-.43,0-.09-.04-.17-.1-.22-.17-.17-.2-.21-.5-.2-.68Zm4.05-7.84c.12-.29.42-.44.64-.56.38-.2.73-.23.93-.24,3.95.68,7.03,1.38,8.49,1.86-1.14.47-2.38.97-3.76,1.47-1.31-.13-2.56-.2-3.73-.23-.32,0-.91-.04-1.49-.41-.65-.42-1.32-1.3-1.08-1.89Zm.06-5.14c.38-.37,1.05-.29,1.53-.2,2.62.51,7.64,2.71,9.14,3.38-.31.36-.35.76-.37.88-.03.48.17.82.24.93-1.74-.47-3.17-.74-4.17-.9-.64-.11-2.08-.64-5.06-1.27-.21-.04-.76-.18-1.16-.69-.45-.56-.71-1.59-.15-2.13Zm.3-4.22c.32-.7,1.73-1.17,3.05-.39,2.69,1.81,5.39,3.62,8.09,5.42-.12.18-.29.48-.36.88-.05.23-.05.44-.04.6-3.03-1.33-6.07-2.65-9.1-3.98-1.4-.53-1.95-1.85-1.64-2.54Zm11.81,20.19c.18,0,.33,0,.43,0-.11.22-.25.47-.41.74-.44.75-.99,1.62-1.3,2.25-.11.21-.27.51-.48.83-.64.96-1.76,2.16-3.36,2.16-.23,0-.85,0-.43-.43.29-.32.56-.64.82-.94.49-.56.93-1.08,1.32-1.53.29-.34.55-.64.78-.92.69-.83,1.14-1.4,1.32-1.68.02-.02.03-.04.04-.06.05-.09.17-.33.43-.43.2-.08.35-.02.85,0Zm-.32-11.5c.05-.11.19-.2.32-.28.38-.23.75-.25.92-.24.5.1.98.2,1.43.3-.68.31-1.44.65-2.34,1.04-.25-.35-.41-.67-.34-.82Zm3.03,10.18c.26-.03.33-.03.6-.06l.36.36c.11.11.14.27.08.41-.05.11-.09.21-.14.32-.2.43-.42.88-.67,1.35-.12.22-.24.44-.37.66-.31.52-.62,1-.94,1.45-.31.44-.63.85-.93,1.22-.1.12-.21.22-.34.3-.18.12-.38.2-.61.22-.29.03-.52-.05-.61-.2-.03-.04-.09-.17,0-.43.09-.14.17-.27.26-.41.32-.51.65-1.02.97-1.53.08-.12.15-.24.23-.36.36-.56.72-1.13,1.08-1.7.34-.53.68-1.07,1.02-1.61Zm1.81,1.91c.34-.62.69-1.24,1.03-1.86.43-.14.85-.29,1.28-.43-.2.61-.46,1.26-.77,1.94-.03.06-.06.13-.09.19-.44.93-.9,1.75-1.36,2.46-.12.18-.23.36-.35.53-.29.34-.66.53-.85.43-.12-.06-.21-.25-.21-.5,0-.22.06-.49.21-.78.37-.66.73-1.32,1.1-1.98Zm2.64.04c.03-.06.06-.13.1-.2l.57-1.15.65-1.29.06-.12c.29-.14.57-.29.85-.43v.43c-.14.43-.29.85-.43,1.28-.02.07-.05.14-.07.21-.21.64-.43,1.28-.64,1.92-.05.15-.1.29-.15.44,0,.01-.01.03-.03.05-.11.23-.36.62-.83.81-.04.02-.67.26-.85,0-.06-.07-.06-.17-.05-.26.01-.07.03-.13.05-.17.25-.5.5-1.01.76-1.51Zm3.16,2.49c.15.14.11.1.26.24-.07.25-.15.5-.23.75-.19.6-.4,1.22-.64,1.85-.22.57-.47,1.14-.73,1.73-.06.12-.11.24-.17.35-.17.35-.33.69-.5,1.01-.18.34-.47.61-.83.72-.18.06-.4.09-.63.05-.35-.05-.6-.21-.75-.33,0,0-.02-.02-.03-.03-.05-.06-.06-.13-.04-.2.09-.31.19-.62.29-.94.16-.49.33-.99.53-1.49.22-.59.46-1.16.69-1.7.2-.45.39-.88.59-1.29.73-.24,1.47-.49,2.2-.73Zm.36,3.72c.19-.49.38-.97.56-1.45.25-.66.5-1.32.73-1.96.3-.67.43-.43,1.28-.85,0,0,.15-.07.29-.1.19-.03.37.02.18.43-.01.03-.03.06-.04.09-.26.57-.51,1.19-.75,1.85-.03.09-.07.19-.1.28-.3.85-.54,1.67-.72,2.43-.05.19-.09.38-.13.56-.03.2-.13.55-.43.85-.06.06-.12.11-.19.16-.15.12-.32.21-.51.26-.2.06-.41.08-.59,0s-.47-.29-.43-.43c0,0,0-.02,0-.02.12-.28.23-.56.35-.85.17-.42.33-.84.5-1.26Zm3.24.07c.06-.16.12-.33.18-.5.15-.44.29-.86.41-1.28.13-.43.24-.84.33-1.24.06-.23.17-.45.33-.63.07-.07.14-.14.22-.2.2-.15.49-.32.84-.5,0,0,.85-.43.43.43-.79,1.87-1.12,2.88-1.42,3.83-.09.29-.19.57-.29.87,0,.03-.03.09-.05.18-.06.18-.16.44-.38.68-.44.46-1.15.6-1.28.43,0,0,0-.01,0-.14,0-.06,0-.15,0-.29.01-.03.03-.06.04-.09.22-.48.43-1,.64-1.55Zm3.17-.93c.41-1.19.85-2.33,1.28-3.42.36.03.66.02.85,0,.41-.03.61-.1.85,0,.22.1.35.29.43.43-.29.55-.57,1.11-.85,1.71-.49,1.03-.91,2.03-1.28,2.99-.12.16-.54.7-1.28.85-.35.08-.66.04-.85,0,.26-.84.55-1.69.85-2.56Zm3.42-.43c.41-.94.85-1.79,1.28-2.56.14-.14.29-.29.43-.43.4-.04.74.15.85.43.07.17.03.34,0,.43-.27.7-.56,1.41-.85,2.14-.42,1.02-.85,2.02-1.28,2.99-.16.14-.44.34-.85.43-.19.04-.32.06-.43,0-.23-.14-.22-.66,0-1.28.24-.68.53-1.39.85-2.14Zm3.84-1.28c.08-.17.17-.34.25-.5.1-.21.32-.33.55-.32.19,0,.35,0,.48-.03.16-.02.28-.05.43,0,.22.07.35.27.43.43-.14.28-.28.57-.43.85-.81,1.56-1.67,2.99-2.56,4.27-.29.34-.66.53-.85.43-.14-.07-.11-.52-.06-.87.03-.24.09-.48.18-.71.47-1.16,1-2.34,1.59-3.55Zm13.67,5.12c-.56.62-1.14,1.33-1.71,2.14-.31.44-.59.87-.85,1.28-.04.07-.44.77-1.28.85-.45.05-.81-.11-1.03-.24-.15-.09-.2-.28-.11-.43.57-1.01,1.23-2.08,2-3.17.43-.61.85-1.17,1.28-1.71.23.08.53.2.85.43.42.29.69.62.85.85Zm-.85-3.42c-.04.08-.17.3-.43.43-.3.15-.63.08-.85,0-.04-.17-.08-.48,0-.85.09-.43.31-.72.43-.85,1.17-1.47,2.15-2.45,2.56-2.56.24-.06.43,0,.43,0,.25.09.38.32.43.43-.14.29-.29.57-.43.85-1.26,1.35-1.89,2.14-2.14,2.56Zm-5.12,5.98c-.06.06-.35.4-.82.42,0,0-.02,0-.03,0-.23,0-.64-.06-.81-.35-.02-.03-.03-.05-.04-.08-.06-.17-.03-.33,0-.43.43-.56.85-1.13,1.28-1.71.76-1.02,1.48-2.04,2.17-3.04.36.02.46.03.82.06.07.14.14.27.2.41.14.27.1.6-.09.84-.32.42-.65.86-.97,1.32-.63.88-1.2,1.73-1.71,2.56Zm3.84-10.68c.48-.3.96-.4,1.28-.43.14.29.29.57.43.85-.41.35-.84.78-1.28,1.28-.53.6-.95,1.19-1.28,1.71-.54.51-1.23.68-1.71.43-.11-.06-.28-.18-.43-.43,1.09-1.18,1.73-1.99,2.14-2.56.13-.18.38-.56.85-.85Zm-.85-.85l-2.77,2.77c-.18.18-.41.3-.66.34-.24.03-.56.03-.84-.12-.12-.06-.34-.18-.43-.43-.06-.18-.03-.35,0-.43,1.15-1.52,1.92-2.58,2.14-2.99.04-.08.17-.33.43-.43.16-.06.32-.03.43,0,.43.14.85.29,1.28.43.38.12.4.35.43.43.06.17.03.34,0,.43Zm.85-14.09c.13-.1.29-.24.43-.43.37-.5.42-1.04.43-1.28.12.14.26.28.43.43.45.4.9.67,1.28.85.34.38.42.66.43.85,0,.09,0,.19,0,.43.01.31.04.36,0,.43-.15.21-.74.03-.85,0-.38-.12-.64-.29-.85-.43-.23-.15-.76-.51-1.28-.85Zm1.28-2.99c.23-.16.56-.43.85-.85.22-.32.35-.62.43-.85.27.08.84.3,1.28.85.86,1.07.47,2.43.43,2.56-.36-.07-.8-.2-1.28-.43-.82-.39-1.38-.91-1.71-1.28Zm2.99-2.14c-.44-.28-.71-.63-.85-.85.14-.29.29-.57.43-.85.14-.29.29-.57.43-.85.23.12,1.48.81,1.71,2.14.06.32.04.61,0,.85-.27.02-.99.03-1.71-.43Zm-5.12-3.84c.14-.43.29-.85.43-1.28.72.38,1.31.66,1.71.85.77.37,1.08.49,1.28.85.25.45.27,1.11,0,1.28-.14.09-.32.04-.43,0-.92-.3-2.56-1.41-2.99-1.71Zm1.28-2.56c.15-.25.29-.53.43-.85.2-.47.33-.9.43-1.28.67.23,1.59.61,2.56,1.28,1.67,1.14,3.29,2.98,2.99,3.42-.22.32-1.56.03-6.41-2.56Zm6.83,4.27c.57-.07,1.01-.27,1.28-.43.43.13,1.06.37,1.71.85.57.42,1.4,1.04,1.28,1.71-.07.38-.44.76-.85.85-.18.04-.34.02-.43,0-.87-.18-2.28-1.09-2.56-1.28-.08-.23-.2-.53-.43-.85-.29-.42-.62-.69-.85-.85.23.03.52.04.85,0Zm3.42,5.98c0,.05-.04.54-.43.85-.42.34-1.1.35-1.71,0l-2.56-1.28c.04-.17.08-.48,0-.85-.09-.43-.31-.72-.43-.85.12.04.47.13.85,0,.61-.2.82-.77.85-.85.77.26,1.34.6,1.71.85.7.48,1.76,1.22,1.71,2.14Zm-2.14,5.12c-.06.04-.3.2-.85,0-.57-.29-1.14-.57-1.71-.85-.57-.29-1.14-.57-1.71-.85v-1.71c.14-.14.29-.29.43-.43.14-.14.29-.29.43-.43l2.56,1.28c.25.23.63.66.85,1.28.07.18.49,1.35,0,1.71Zm-1.71,13.67l-1.28,1.28c-.71.71-1.42,1.42-2.14,2.14-.6.29-1.13.24-1.28,0-.03-.04-.09-.17,0-.43.31-.58.63-1,.85-1.28.5-.61.87-.88,2.14-2.14l.43-.43c.29-.14.57-.29.85-.43.14.29.29.57.43.85v.43Zm-2.99,6.41c.25.19.5.31.7.38.06.2.09.29.16.48-1.23,1.93-1.82,2.67-2.14,2.99l-.85.85c-.14.14-.3.27-.43.43-.2.23-.25.36-.43.43-.14.06-.32.06-.43,0-.23-.12-.27-.6-.13-1.24.06-.29.18-.56.34-.81.45-.72.95-1.46,1.49-2.22.43-.6.86-1.17,1.28-1.71.1.13.24.28.43.43Zm-2.42,8.76c-.69.55-1.14,1.08-1.43,1.49-.25.35-1.05,1.52-1.71,1.71-.06.02-.23.06-.43,0-.27-.09-.39-.35-.43-.43-.18-.38-.03-.77,0-.85.43-.57.85-1.14,1.28-1.71.43-.57.85-1.14,1.28-1.71.1,0,.25,0,.43,0,.52-.02.65-.08.85,0,.27.11.4.36.43.43,0,0,0,0,0,.01.18.37.03.8-.29,1.06Zm-5.27,1.06c-.4.46-.95.61-1.28.43-.34-.19-.41-.73-.43-.85-.03-.18,0-.43,0-.43,0-.32.97-1.61,1.44-2.22.16-.21.31-.42.46-.64.3-.44.75-.98,1.09-.98.19,0,.54-.18.85,0,.09.05.15.12.21.18.22.29.2.69,0,.99l-2.35,3.52Zm-2.99-1.71s-.17.26-.43.43c-.59.38-1.5.38-1.71,0-.03-.07-.08-.2,0-.43.29-.42.57-.85.85-1.28.76-1.15,1.46-2.29,2.14-3.42.1.13.24.29.43.43.5.37,1.04.42,1.28.43-1.19,1.79-2.11,3.15-2.56,3.84Zm-.85-7.69c-.09-.04-.28-.15-.43-.43.24-.54.52-1.11.85-1.71.56-1,1.15-1.85,1.71-2.56.02-.04.12-.14.21-.23.22-.21.52-.33.82-.28.08.01.16.04.25.08.26.13.38.34.43.43.13.23.16.47.15.69-.02.33-.19.62-.42.85-.19.18-.38.38-.58.6-.54.6-.96,1.18-1.28,1.71-.5.74-1.23,1.06-1.71.85Zm-1.71-1.28c-.07.09-.21.26-.43.43-.21.17-.43.27-.62.35-.12.04-.24-.04-.25-.17,0-.19,0-.39.01-.61.06-.71.25-1.29.43-1.71.66-1.18,1.32-2.37,1.97-3.55.08-.15.28-.18.4-.06l.78.78c.17.17.23.42.17.65-.11.38-.23.68-.32.9-.3.69-.92,1.47-2.14,2.99Zm-2.14-8.11c.28-.74.69-1.63,1.28-2.56.43-.67.87-1.24,1.28-1.71h1.28c.14.14.29.29.43.43-.41.34-.85.76-1.28,1.28-.91,1.09-1.41,2.18-1.71,2.99-.29.14-.57.29-.85.43-.14-.29-.29-.57-.43-.85Zm4.7-2.99c.34-.3.64-.4.85-.43.28-.03.37.05.85,0,.2-.02.29-.05.43,0,.18.06.35.2.43.43.06.2.02.36,0,.43-.53.46-1.12,1.02-1.71,1.71-.52.6-.94,1.18-1.28,1.71-.06.12-.19.32-.43.43-.46.2-1.08-.05-1.28-.43-.23-.44.14-1.04.85-2.14.49-.75.96-1.33,1.28-1.71Zm.85-12.38c.18-.38.45-.83.85-1.28.15-.16.29-.3.43-.43.75.28,1.32.6,1.71.85.54.35.75.56.85.85.12.34.06.67,0,.85-.1,0-.25.01-.43,0-.65-.05-1.11-.33-1.28-.43-.39-.22-1.04-.44-2.14-.43Zm1.71-3.42c.13-.02.52-.09.85-.43.09-.09.36-.38.43-.85.49.41.94.68,1.28.85.42.21.56.21.85.43.09.07,1.02.72.85,1.28-.07.26-.34.38-.43.43-.41.2-.79.03-.85,0-.52-.22-1.1-.5-1.71-.85-.48-.28-.91-.57-1.28-.85Zm2.14-2.56c.13-.1.28-.24.43-.43.25-.32.37-.64.43-.85.58.26,1.14.55,1.71.85h0c.65.35.97.9.85,1.28-.09.28-.38.41-.43.43-.48.21-1.02-.06-1.71-.43-.34-.18-.79-.45-1.28-.85Zm6.83-17.94c.54.19.76.21.85.43.07.15.04.31,0,.43-.26.15-.55.29-.85.43-1.26.56-2.45.78-3.42.85-.13-.17-.32-.46-.43-.85-.15-.57-.06-1.05,0-1.28.71-.14,1.42-.29,2.14-.43.09,0,.25-.02.43,0,.46.04.58.18,1.28.43Zm1.71,3.42c.41.25.43.38.43.43.02.59-2.18,1.09-2.99,1.28-.77.18-1.78.35-2.99.43.08-.04.3-.17.43-.43.21-.42.02-.82,0-.85-.13-.26-.35-.38-.43-.43.14-.14.29-.29.43-.43.69-.24,1.29-.36,1.71-.43.77-.12,2.2-.31,3.42.43Zm2.14,4.7c-.04.51-1.36.78-1.71.85-.92.19-2.71.34-5.12-.85.15-.24.42-.59.85-.85.21-.13.59-.32,1.71-.43.99-.09,1.49-.14,2.14,0,.92.2,2.18.76,2.14,1.28Zm0,2.99c1.08.44,3.07,1.26,2.99,2.14-.04.45-.63.74-.85.85-1.37.67-2.87-.34-2.99-.43-.72-.7-1.57-1.43-2.56-2.14-.44-.31-.86-.6-1.28-.85-.14-.29-.29-.57-.43-.85,2.26.24,3.98.81,5.12,1.28Zm3.42,3.84c.41-.27.68-.6.85-.85.13.17,1.81,2.37,1.28,2.99-.46.54-2.48-.34-3.42-.85-.57-.31-1-.63-1.28-.85.29.06,1.49.29,2.56-.43Zm2.99,3.42c.34.29.89.85,1.28,1.71.31.68.4,1.3.43,1.71-.33-.37-.89-.89-1.71-1.28-.48-.23-.92-.35-1.28-.43-.14-.43-.29-.85-.43-1.28.17.04.48.08.85,0,.43-.09.72-.31.85-.43Zm2.14,6.83c-.22.14-.67.38-1.28.43-.53.04-.91-.11-1.71-.43-.92-.36-1.66-.66-2.14-.85.06-.3.1-.75,0-1.28-.16-.87-.62-1.45-.85-1.71.17.04.48.08.85,0,.43-.09.72-.31.85-.43.51.08,1.32.28,2.14.85,1.66,1.16,2.05,2.96,2.14,3.42Zm0,5.98c1.14.58,2.74,1.17,4.7,1.28.45.03.88.02,1.28,0,.14.29.29.57.43.85-.91.65-1.68.81-2.14.85-1.29.13-2.45-.42-4.27-1.28-.37-.18-.67-.33-.85-.43.06-.21.18-.53.43-.85.15-.19.3-.32.43-.43Zm6.41,4.7c.06.29-.43.67-.85.85-.58.24-1.13.13-1.71,0-1.6-.37-2.83-.8-2.99-.85-.89-.28-1.74-.56-2.56-.85.13-.1.28-.24.43-.43.25-.32.37-.64.43-.85,3.22.95,5.3,1.5,6.41,1.71.22.04.79.14.85.43Zm-1.28,3.42c-.06.06-.33.32-.85.43-.63.13-1.15-.05-2.14-.43-.85-.33-1.57-.62-2.14-.85-.18-.34-.45-.8-.85-1.28-.71-.85-1.33-1.19-1.28-1.28.09-.15,1.85.79,4.27,1.71.84.32,1.1.38,1.28.43,1.24.28,1.99.08,2.14.43.13.32-.37.8-.43.85Zm-8.11-8.97c-.25-.05-.33-.13-.85-.43l-2.56-1.28c-.13-.61-.21-.98-.28-1.23-.06-.25-.11-.37-.15-.48-.08-.21-.21-.51-.43-.85.4.04.74-.15.85-.43.07-.17.03-.34,0-.43,1.16.18,2.03.57,2.56.85.79.42,1.33.9,1.71,1.28.68.7.82,1.16.85,1.28.15.54.07,1.01,0,1.28-.43.27-1.05.56-1.71.43Zm.43,3.42c-.12.12-.42.36-.85.43-.17.03-.31.02-.43,0-.58-.67-1.28-1.4-2.14-2.14-1.06-.91-2.09-1.61-2.99-2.14h1.71c.39.11.82.24,1.28.43.67.26,1.23.57,1.71.85.29.17.87.56,1.28,1.28.29.5.39.98.43,1.28Zm-5.55,8.97c-.29.43-.57.85-.85,1.28l-2.56,2.56c-.6.29-1.13.24-1.28,0-.03-.04-.09-.17,0-.43,1.32-1.76,2.44-2.99,2.99-3.42.41-.32.78-.41.85-.43.35-.08.65-.04.85,0v.43Zm-2.68,8.77c-.37.7-.88,1.51-1.59,2.33-.37.43-.74.79-1.09,1.11-.1.09-.27.07-.34-.05-.18-.29-.33-.65-.28-1.06.08-.61.58-.94,1.28-1.71.34-.38.81-.94,1.28-1.71.14.14.29.29.43.43l.24.24c.11.11.14.28.06.41Zm-1.16,5.32c-.42.54-.85,1.11-1.28,1.71-.63.88-1.2,1.73-1.71,2.56-.49.45-1.03.61-1.28.43-.35-.26-.06-1.12,0-1.28.14-.4.28-.52.85-1.28.82-1.09,1.23-1.64,1.28-1.71.2-.33.43-.85.85-.85.07,0,.16,0,.43,0,.29,0,.34-.03.43,0,.12.03.43,0,.43.43Zm-3.08,7.16c-.78,1.13-1.6,2.28-2.48,3.45-2.39,3.17-4.71,5.81-6.79,7.98-1.64,1.06-3.97,2.3-6.81,2.94-2.06.47-3.85.5-5.25.38-.06-.83-.06-2.07.2-3.56.33-1.84.93-3.23,1.34-4.04,2.19-2.49,4.53-5.37,6.93-8.67.91-1.26,1.79-2.49,2.61-3.72.7.08,1.25-.16,1.37-.21.01.09.13.87.85,1.28.82.47,1.66.03,1.71,0,.06.22.35,1.12,1.28,1.71.95.61,1.91.47,2.14.43.14.22.41.57.85.85.72.45,1.44.44,1.71.43.06.16.16.44.34.75h0Zm-12.72-8.44c-.79.26-1.47.08-1.71,0,.43-.7.85-1.41,1.28-2.14.59-1.01,1.16-2.01,1.71-2.99.28.17.72.39,1.28.43.51.03.74-.1.85,0,.19.18-.07.98-2.14,3.84-.17.2-.59.63-1.28.85Zm-2.56-1.28c-.41.62-1.21.77-1.71.43-.37-.26-.55-.77-.43-1.28.12-.41.26-.84.43-1.28.5-1.34,1.11-2.48,1.71-3.42.29.26.71.58,1.28.85.49.23.94.36,1.28.43-.85,1.42-1.71,2.85-2.56,4.27Zm-2.46-3.62c-.21.47-.53,1.22-.96,2.34,0,0-.77.6-1.28.43-.13-.04-.29-.15-.43-.43.13-.42.27-.85.43-1.28.4-1.1.83-2.09,1.28-2.99h.43q.43,0,.85-.43s.46-.41.85,0c0,0-.53,1.14-.85,1.71,0,0-.11.19-.32.65Zm-4.38,2.76c-.2.25-.43.43-.43.43-.32.25-.64.37-.85.43-.14-.29-.29-.57-.43-.85.43-1,.85-1.99,1.28-2.99.43-1,.85-1.99,1.28-2.99.14.12.43.33.85.43.37.08.68.04.85,0-1.2,2.96-2.2,5.09-2.56,5.55Zm-1.72-3.99c-.13.33-.26.67-.39,1-.4,1.05-.81,2.11-1.21,3.16-.03.09-.06.17-.1.26-.05.11-.28.61-.85.85-.62.27-1.18.04-1.28,0,.06-.15.13-.3.19-.46.23-.54.44-1.1.66-1.68.02-.06.05-.12.07-.18.19-.51.37-1.01.53-1.5.25-.74.48-1.46.68-2.16.23.03.52.04.85,0,.57-.07,1.01-.27,1.28-.43-.15.38-.29.76-.44,1.14Zm-4.1,1.52l-.64,2.09c-.13.41-.25.82-.38,1.23-.05.11-.28.61-.85.85-.62.27-1.18.04-1.28,0,.16-.46.32-.91.49-1.37.24-.67.48-1.35.72-2.02.24-.68.48-1.35.73-2.03.07-.19.13-.37.2-.56.32-.08.64-.16.95-.24.25-.06.5-.12.76-.19-.23.74-.46,1.49-.69,2.23Zm-3.82,1.47c-.12.31-.24.63-.36.94-.19.5-.38,1.01-.58,1.51-.03.09-.06.17-.1.26-.05.11-.28.61-.85.85-.62.27-1.18.04-1.28,0,.35-.82.7-1.63,1.05-2.45.3-.71.61-1.43.92-2.14.2-.46.4-.93.59-1.39.57-.14,1.14-.29,1.71-.43-.12.32-.25.64-.37.96-.24.63-.48,1.26-.72,1.88Zm-4.46,3.56c-.15.23-.42.58-.85.85-.88.57-2.07.62-2.14.43,0-.03,0-.07.08-.15.54-1.08,1.09-2.17,1.63-3.26l.94-1.87.34-.69c.18.03.49.06.85,0,.24-.04.5-.12.71-.2.32-.12.56-.24.57-.23,0,.01-.02.04-.01.03,0,0-.07.17-.19.45-.15.36-.38.91-.63,1.51-.6,1.43-1.3,3.13-1.31,3.13Zm-3.84.43c-.11.3-.35.82-.85,1.28-.84.77-1.84.85-2.14.85.38-.96.81-1.96,1.28-2.99.56-1.22,1.14-2.36,1.71-3.42.23.03.52.04.85,0,.57-.07,1.01-.27,1.28-.43-.71,1.57-1.42,3.13-2.14,4.7Zm-11.1,3.42c1.57-2.28,3.13-4.56,4.7-6.83.2.04.5.09.85,0,.54-.13.79-.47.85-.43.11.07-.54,1.4-3.84,6.83-.14.22-.41.57-.85.85-.72.45-1.44.44-1.71.43v-.85Zm-4.27,1.28c1.71-2.42,3.42-4.84,5.12-7.26.14,0,.28,0,.43,0,.7-.03,1.28-.23,1.71-.43-1.57,2.28-3.13,4.56-4.7,6.83-.25.24-.84.73-1.71.85-.33.05-.62.03-.85,0Zm-5.83,1.11c3.57-4.22,6.38-7.09,7.11-7.51.15-.08.29-.16.41-.22.23-.11.45-.21.69-.3.13-.05.29-.11.46-.17.42-.16.51-.2.57-.16.09.06.06.32-.32,1.07-.09.13-.18.27-.26.4-1.66,2.08-3.31,4.15-4.97,6.22-.1.15-.82,1.17-2.14,1.28-.66.05-1.2-.15-1.5-.31-.11-.06-.14-.2-.06-.29Zm-7.64.06c.11-.18.26-.33.42-.45,3.92-2.94,7.84-5.88,11.77-8.83.13-.05.62-.21.85,0,.27.25.18.97-.43,1.71-1.99,2.14-3.98,4.27-5.98,6.41-1.28,1.28-1.96,1.84-2.56,2.14-1.43.7-3.01.88-3.84.43-.29-.16-.39-.34-.43-.43-.14-.34.03-.71.19-.97Zm-7.3-2.02c.14-.26.36-.47.63-.59,5.13-2.29,10.25-4.59,15.38-6.88.26-.12.56.09.53.38,0,.08-.02.17-.04.26-.09.43-.31.72-.43.85-3.48,2.41-6.97,4.83-10.45,7.23-.71.5-1.51.87-2.35,1.06-.81.19-1.77.24-2.57-.18-.23-.12-.67-.36-.85-.85-.17-.47-.02-.95.15-1.28Zm-4.85-4.7c.1-.21.28-.35.43-.43,2.76-.49,5.61-1.05,8.54-1.71,3.58-.8,7-1.66,10.25-2.56.29.14.57.29.85.43-.14.29-.29.57-.43.85-4.84,1.99-9.68,3.98-14.52,5.98-.35.18-1.13.5-2.14.43-.39-.03-1.35-.12-2.14-.85-.5-.47-1.2-1.45-.85-2.14Zm-2.56-5.55c.45-.4,1.05-.42,1.28-.43,1.48-.02,8.6-.03,18.36,0h.43c.23-.07.38-.07.43,0,.09.11-.06.39-.43.85-5.27.99-10.54,1.99-15.8,2.99-2.35.5-4.26-.15-4.7-1.28-.2-.53-.23-1.55.43-2.14Zm-1.71-5.12c.47-.5,1.18-.44,1.28-.43,6.26.85,12.53,1.71,18.79,2.56.08.04.3.17.43.43.12.25.1.5.06.66-.03.12-.13.2-.25.2h-15.19s-2.14,0-3.42-.43c-.44-.15-.83-.34-1.17-.53-.53-.29-.92-.84-.92-1.45,0-.39.13-.75.38-1.01Zm2.46-5.46c5.3,1.53,10.6,3.07,15.91,4.6,0,.43,0,.85.43,1.28-3.04-.3-6.91-.73-10.25-1.28-2.24-.37-4.39-.77-6.47-1.2-.35-.07-.69-.2-.97-.43-.76-.6-1-1.56-.67-2.21.22-.44.7-.73,1.27-.82.25-.04.51,0,.76.06Zm16.33,2.47c.24.35.19.73,0,.85-.16.11-.39.02-.43,0-4.7-1.42-9.39-2.85-14.09-4.27-1.21-.4-1.71-1.7-1.28-2.56.33-.67,1.23-1.07,2.14-.85,4.56,2.28,9.11,4.56,13.67,6.83Zm-9.39-11.1c3.13,2.56,6.26,5.12,9.39,7.69v1.71h-.43c-3.7-1.99-7.4-3.98-11.1-5.98-.12-.09-.28-.23-.43-.43-.44-.6-.7-1.73,0-2.56.61-.73,1.7-.92,2.56-.43Zm10.68,4.27c-.13.17-.32.46-.43.85-.15.57-.06,1.05,0,1.28h-.85c-2.85-2.56-5.69-5.12-8.54-7.69-.42-.78-.2-1.7.43-2.14.48-.33,1.16-.33,1.71,0l7.69,7.69Zm.85,2.99c.51-.38,1.07-.41,1.28-.43,1.09-.07,3.31-.09,6.26-.04.59,0,1.21.02,1.85.04-.02.12-.03.26,0,.43.06.44.31.73.43.85-.11.02-.23.03-.34.05-1.55.23-3.15.5-4.78.8-1.46.27-2.89.56-4.27.85-.6-.06-1.12-.39-1.28-.85-.29-.85.76-1.64.85-1.71Zm6.48-1.47c-.37.02-.75.01-1.12,0-1.47-.08-2.93-.15-4.39-.23-.29-.01-.53-.27-.54-.56,0-.15,0-.24,0-.3.06-.31.28-.63.58-.87.4-.32.93-.42,1.43-.35.03,0,.05,0,.07,0,1.14.2,2.37.28,3.59.24.5-.01.98-.05,1.46-.1.2-.02.38.02.54.12.29.16.48.47.44.82,0,.05,0,.09,0,.13,0,.47.11.79.22.99l-2.28.1Zm-8.21-9.6c.17-.32.55-.45.86-.49.2-.03.41-.02.62.02,4.8,1.04,9.58,2.08,14.38,3.11.12.06.57.33.56.64-.01.37-.62.77-1.57.79-2.92-.11-5.83-.21-8.75-.32-1.81-.13-2.67-.28-3.29-.54-1.46-.61-2.63-1.7-2.84-2.62-.07-.33,0-.52.04-.6Zm-2.4-7.33c.29-.07.59-.03.85.09,5.09,2.37,10.18,4.74,15.28,7.12.26.12.3.48.06.65-.06.05-.14.09-.22.14-.38.21-.75.23-.93.24-4.1-1.05-8.21-2.11-12.31-3.16-.84-.21-1.64-.57-2.34-1.08-.67-.49-1.34-1.18-1.54-2.06-.06-.26-.17-.74.09-1.2.24-.44.71-.64,1.06-.73Zm.98-6.7c2.18,1.76,4.47,3.54,6.88,5.33,2.95,2.19,5.85,4.21,8.65,6.07.08.31.15.61.23.92-.31.08-.61.16-.92.24-4.68-2.35-9.35-4.71-14.03-7.05-.36-.15-1.12-.53-1.72-1.34-.23-.32-.79-1.1-.76-2.17.03-.68.31-1.85,1.05-2.04.23-.06.44-.01.6.04Zm3.07-4.93c.98,1.11,5.66,6.47,12.03,13.87l.28.32c.2.13.3.24.28.32-.03.14-.34.21-.93.24-4.2-3.33-8.4-6.65-12.61-9.98-1.91-1.45-2.67-3.32-2.11-4.39.27-.5,1.02-1.19,1.89-1.08.6.08,1.01.52,1.16.69Zm13.13,11.23c.02.09.07.33-.04.6-.11.26-.31.4-.46.48-.1.06-.23.03-.31-.06l-9.95-11.47s-1.4-1.61-1.92-2.86c-.18-.43-.29-.85-.37-1.23-.12-.59.03-1.24.5-1.64.29-.26.65-.39,1.01-.38.68.03,1.1.6,1.16.69,3.46,5.29,6.91,10.58,10.37,15.88Zm1.14-3.25c-.32.28-.64.56-.69,1.16-1.77-2.5-3.98-5.71-5.75-8.58-1.19-1.93-2.29-3.83-3.33-5.68-.18-.31-.3-.65-.31-1.01-.04-.97.52-1.78,1.23-1.96.47-.12,1.02.05,1.46.42.2.17.34.38.44.61,2.32,5.01,4.62,10.02,6.94,15.04Zm1.89-1.08c-.1.41-.43.61-.64.56-.18-.05-.27-.28-.28-.32-2-4.48-4-8.96-6-13.44-.49-1.17.17-2.4,1.1-2.65.73-.19,1.61.23,2.05,1.05,1.26,4.93,2.52,9.87,3.79,14.8Zm2.58-2.24l-1.29,1.12-.28-.32c-.92-4.1-1.84-8.2-2.75-12.3-.02-.15-.02-.36.04-.6.17-.73.85-1.66,1.93-1.68.95-.02,1.81.68,2,1.65.11,4.04.23,8.09.35,12.14Zm1.72,1.33c.62.14,1.01.54,1.16.69.92.93,2.86,3.15,5.31,6.13-.1.06-.21.15-.32.28-.29.33-.35.71-.37.88-1.28-1.09-2.61-2.2-4-3.31-1.16-.93-2.31-1.81-3.44-2.66-.35-.5-.44-1.1-.2-1.53.45-.78,1.75-.5,1.85-.47Zm2.47-13.45l-.77,10.85c-.22,0-.56.06-.93.23-.53.26-.84.64-.97.84l-.56-.64c.07-3.83.15-7.66.21-11.49.31-.83,1.16-1.27,1.9-1.08.56.15,1,.66,1.12,1.29Zm5.16,18.15s-.07.05-.11.08c-.36.31-.53.61-.61.82-.06.13-.23.16-.31.05-1.56-2.01-3.13-4.02-4.69-6.03-.18-.23-.15-.58.07-.78.11-.09.18-.17.23-.19.28-.15.66-.2,1.04-.13.53.09.97.46,1.24.91.84,1.39,1.98,2.78,3.2,3.92.41.38.39,1.04-.06,1.36Zm.84,3.78c1.32.67,2.63,1.33,3.95,1.99-.66.28-1.29.58-2.02.92-.82-.27-1.61-.54-2.39-.82-.72-.62-.81-1.47-.47-1.85.29-.32.83-.25.93-.23Zm7.27.8s-.03,0-.05.01c-.54.16-1.02.32-1.46.47-2.87-1.45-4.92-2.51-5.36-2.78-.06-.04-.21-.14-.28-.32-.13-.35.18-.73.37-.88.37-.31.84-.25.92-.23.29.12.59.24.88.36,2.19,1.48,3.93,2.66,4.97,3.37Zm3.16,11.76c-.04.12-.09.23-.13.35-.14.38-.29.77-.46,1.17-.09.23-.11.26-.18.43-.02.05-.05.11-.09.19-.17.38-.32.76-.48,1.11-.18.43-.36.82-.54,1.11-.09.14-.18.26-.26.34-.09.03-.26.07-.43,0-.28-.11-.47-.46-.43-.85.29-.72.5-1.25.64-1.61,0-.01,0-.03.01-.03.08-.2.13-.33.17-.41,0,.01,0,.02,0,.03.05-.09.33-.73.6-1.26.11-.23.21-.43.29-.56.06-.1.18-.3.43-.43.26-.14.7-.22.85,0,.1.15.02.37,0,.43Zm2.99-.85c-.2.77-.47,1.64-.85,2.56-.13.31-.26.61-.39.89-.25.52-.5,1-.75,1.43-.05.08-.09.16-.14.24-.01.04-.12.32-.43.43-.05.02-.22.05-.43,0-.12-.03-.27-.12-.41-.39,0-.01-.01-.03-.02-.04.2-.44.39-.89.59-1.34.19-.44.38-.89.57-1.35.04-.1.08-.2.12-.3.15-.36.29-.71.43-1.07.15-.35.29-.71.42-1.07.29-.14.57-.29.85-.43.14.14.29.29.43.43Zm2.94-.29c-.23.64-.5,1.3-.8,1.99-.41.94-.85,1.79-1.28,2.56,0,.01-.02.03-.03.04-.15.24-.52.47-.83.39-.15-.04-.26-.15-.34-.26-.04-.06-.07-.12-.09-.16.18-.32.37-.67.55-1.05.11-.21.2-.43.3-.66.35-.82.61-1.6.79-2.3.06-.2.16-.39.31-.53.06-.06.12-.11.19-.16.2-.15.4-.26.57-.33.08-.03.15-.06.21-.08.05-.01.09,0,.13.03l.26.26c.06.06.09.16.06.25Zm2.99.6c-.09.43-.2.9-.37,1.4-.37,1.08-.85,1.93-1.28,2.56-.3.5-.89.65-1.28.43-.25-.14-.4-.42-.42-.73,0-.08.02-.16.06-.23.26-.5.53-1.03.79-1.6.33-.73.61-1.43.84-2.08.01-.04.03-.07.06-.1.36-.41.87-.55,1.24-.38,0,0,.02,0,.03.01.26.13.4.44.35.73Zm2.71-.36c.33.21.43.27.76.47v.43c-.43.64-.86,1.35-1.28,2.14-.26.49-.5.97-.72,1.43-.1.2-.25.37-.44.47-.16.09-.35.18-.54.23-.21.06-.51.09-.92-.02-.03-.06-.04-.08-.06-.15l2.17-4.34c.06-.13.17-.23.29-.29.25-.12.5-.25.75-.38Zm-6.92-46.07c.34,1.37,1.33,2.23,1.71,2.56.44.38.82.6,1.28.85,2.99,1.65,3.72,1.89,4.7,2.56.19.13,1.57,1.1,2.56,2.56,1.61,2.37,1.45,5.04,1.28,7.26-.36,4.89-2.66,9.73-4.27,12.38-2.56,3.84-4.38,2.02-5.55.85-.85-.85-.89-2.68-.85-2.99.38.12,1.22.32,2.14,0,.65-.23,1.05-.62,1.28-.85,1.55-1.56,2.05-4.56,2.14-5.12-.17-.43-.62-1.43-1.71-2.14-.12-.08-1.93-1.2-3.84-.43-.61.25-1.03.6-1.28.85.03-.05.47-.88,0-1.71-.41-.72-1.19-.84-1.28-.85.21-.52.59-1.2,1.28-1.71.85-.62,1.33-.36,2.14-.85,1.28-.79,1.79-2.54,1.71-3.84-.03-.56-.09-1.52-.85-2.14-.07-.06-.8-.62-1.71-.43-.9.19-1.61,1.05-1.71,2.14-.09.3-.32.85-.85,1.28-.51.41-1.52.89-2.14.43-.3-.23-.39-.6-.43-.85.22-.14.98-.67,1.28-1.71.23-.77.08-1.43,0-1.71-.25-.73-.15-1.09,0-1.28.15-.2.36-.23.43-.43.09-.28-.18-.61-.43-.85-.29.29-.57.57-.85.85-.47-.04-1.46-.07-2.56.43-.86.39-1.41.94-1.71,1.28-.08.28-.23.94,0,1.71.3,1.03,1.06,1.57,1.28,1.71.08.04.3.17.43.43.2.41.03.8,0,.85.02-.01.44-.23.85,0,.29.17.47.5.43.85-.16.28-.45.89-.43,1.71.03,1.15.66,1.92.85,2.14-.47.4-1.15,1.1-1.71,2.14-.65,1.22-.81,2.34-.85,2.99v1.28c0,.07.1.76-.43,1.28-.04.04-.56.54-1.28.43-.63-.1-1.14-.61-1.28-1.28.22-.05.56-.15.85-.43.74-.7.56-1.98.43-2.99-.06-.42-.18-1.02-.43-1.71-.15.76-.47,1.89-1.28,2.99-.67.91-1.78,2.36-2.14,2.14-.06-.04-.59-.15-.43-1.28.15-1.12.66-2.1.85-2.56.61-1.44,1.6-1.45,1.71-2.56.05-.53-.16-.7,0-1.28.2-.76.77-1.22.85-1.28.77-.61,1.37-.32,1.71-.85.33-.52.03-1.22,0-1.28-.22-.49-.64-.72-.85-.85-1.1-.73-1.57-2.73-1.28-4.27.41-2.2,2.29-3.27,2.56-3.42-.06-.07-.53-.57-.43-1.28.06-.46.32-.75.43-.85.81-.85,2.07-2,3.84-2.99,1.83-1.02,3.52-1.48,4.7-1.71-.2.27-1.34,1.91-.85,3.84Zm9.82.85c1.01.09,1.32-.28,1.71,0,.32.23.4.69.43.85.09.48-.14.59,0,.85.26.5.96.38,1.28.85.14.2.25.58,0,1.28.04.26.15.61.43.85.32.29.63.21.85.43.21.2.35.64,0,1.71.56.03,1.06.36,1.28.85.25.58.09,1.28-.43,1.71.21.14.98.67,1.28,1.71.38,1.33-.32,2.41-.43,2.56.84.63.85,1.6.85,1.71,0,1.05-.77,1.64-.85,1.71.16.32.51,1.1.43,2.14-.09,1.11-.64,1.86-.85,2.14.1.34.29,1.17,0,2.14-.41,1.34-1.45,1.99-1.71,2.14.07.26.38,1.63-.43,2.99-.71,1.2-1.84,1.61-2.14,1.71.7,1.54.35,3-.43,3.42-.82.44-1.99-.33-2.14-.43-.87-.57-1.18-1.41-1.28-1.71,1.15-1.14,1.99-2.2,2.56-2.99,0,0,1.34-1.85,2.56-5.55.09-.28.26-.82,0-1.28-.12-.22-.31-.35-.43-.43-.29.73-1.15,2.81-1.71,3.84-.09.15-.25.44-.43.43-.09,0-.16-.09-.22-.19-.19-.33-.17-.74,0-1.08.68-1.36,1.39-3.08,1.92-5.13.7-2.68.86-5.05.85-6.83,0,0,0-.02,0-.03,0,0-.1-1.49-.42-2.53-1.04-3.32-3.66-5.22-4.27-5.55-1.29-.7-2.56-1.43-3.84-2.14-.65-.36-1.46-.8-2.14-1.71-.48-.64-.72-1.27-.85-1.71.22.19.99.82,2.14.85.82.02,1.43-.27,1.71-.43.22.14.85.49,1.71.43.61-.05,1.06-.29,1.28-.43.09.12.22.28.43.43.12.09.51.35,1.28.43Zm2.99-2.99c-.12.32-.33.35-.85.85-.22.21-.33.31-.43.43-.2.23-.25.36-.43.43-.2.08-.43,0-.43,0,0,0-.75-.12-.85-.43-.02-.06-.07-.23,0-.43.09-.23.26-.25.43-.43.41-.43.51-1.08.85-1.28.13-.08.31-.05.43,0,.23.11.2.34.43.43.09.03.11,0,.43,0,.29,0,.37-.05.43,0,.12.1.01.39,0,.43Zm2.56,1.28c.03.27-.35.4-.43.85-.04.23.04.29,0,.43-.07.22-.44.44-1.71.43-.14-.14-.29-.29-.43-.43.06-.22.18-.54.43-.85.61-.75,1.5-.84,1.71-.85.33.16.41.31.43.43Zm.43,2.99c.53-.32,1.22-.28,1.71,0,.17.1.37.21.43.43.1.38-.32.76-.43.85-.6.55-1.46.46-1.71.43-.08-.04-.3-.17-.43-.43,0-.02-.21-.44,0-.85.12-.23.3-.35.43-.43Zm3.42-3.42c-.06.4-.18,1.17-.85,1.71-.15.12-.43.32-.85.43-.4.04-.74-.15-.85-.43-.07-.17-.03-.34,0-.43,1.05-.93,2.3-1.93,2.56-1.71.06.05.04.18,0,.43Zm4.27,2.14c0,.05,0,.54-.43.85-.43.29-.85.57-1.28.85-.43.29-.85.57-1.28.85h-.85c0-.24-.06-.78-.43-1.28-.14-.19-.29-.33-.43-.43.42-.38,1.14-.91,2.14-1.28.85-.32,1.61-.41,2.14-.43.04.03.43.33.43.85Zm3.42,1.28c-.04.56-.26,1-.43,1.28-.3.56-1.22,2.16-2.56,2.99-.62.38-1.04.43-1.28.43-.61,0-1.07-.28-1.28-.43.32-.54.41-.97.43-1.28,0-.04,0-.12,0-.26s0-.33,0-.59c1.71-1.2,2.07-1.45,2.56-1.71.58-.3,1.43-.65,2.56-.85,0,.13.01.27,0,.43Zm2.14,2.13c-.12.25-.82,1.61-1.72,2.57-.48.52-1.27,1.19-2.56,1.71h-.85v-.85c1.11-.56,1.75-1.2,2.14-1.71,1.19-1.57,1.28-1.71,1.28-1.71.2-.32.42-.7.85-.85.33-.12.64-.06.85,0v.85s0,0,0,0Zm1.27,2.14c-.05.29-.26,1.34-2.56,2.99-.65.47-1.57,1.05-2.76,1.61-.13.06-.28-.01-.32-.15-.07-.25-.12-.65.09-1.03.13-.22.31-.35.43-.43.67-.4,2.14-1.3,2.99-2.14.54-.53.81-.8.85-.85.3-.39.47-.75.85-.85.17-.04.32-.03.43,0,.03.2.06.5,0,.85Zm1.71,2.56c-.21,1.05-1.53,2.01-1.71,2.14-.8.57-2.13,1.39-4.06,2.06-.12.04-.24-.02-.29-.14-.09-.29-.19-.58-.29-.88-.03-.11.02-.22.12-.26.69-.25,1.51-.63,2.37-1.21,1.73-1.17,2.73-2.56,3.22-3.34.12,0,.13,0,.24-.02.13.16.3.43.38.8,0,0,.09.4,0,.85Zm1.71,2.99c-.45.48-1.38,1.15-1.71,1.28-.76.44-2.18.93-3.42,1.28-.79.23-1.51.35-2.14.43l-.43-.85c1.16-.29,2.66-.8,4.27-1.71,1.06-.6,1.94-1.24,2.64-1.84.21-.18.44-.33.67-.47s.49-.3.53-.26c.28.26.27,1.4-.43,2.14Zm1.28,1.71c-.56.65-1.66,1.77-3.42,2.56-1.8.81-3.41.88-4.27.85.02-.12.03-.26,0-.43-.06-.44-.31-.73-.43-.85,1-.08,2.34-.3,3.84-.85,1.71-.63,2.99-1.47,3.84-2.14.04.01.32.12.43.43.06.2.02.36,0,.43Zm1.71,2.14c-.33,1.2-2.14,2.14-2.14,2.14-1.95,1.02-4.08,1.48-5.53,1.7,0,0-.01,0-.02,0-.47.06-.96-.67-1.28-1.28,1.05-.04,2.57-.22,4.27-.85,2-.75,3.42-1.81,4.27-2.56.1.04.34.17.43.43,0,0,.07.19,0,.43Zm.43,3.84c-1.63,1.68-6.99,2.42-8.11,2.56-.08-.04-.3-.17-.43-.43-.2-.41-.03-.8,0-.85,1.33-.14,3.13-.47,5.12-1.28,1.61-.66,2.9-1.45,3.84-2.14.15.08.34.2.43.43.23.59-.52,1.37-.85,1.71Zm2.56,1.71c-.08.41-.41.74-.85.85-.67.29-1.38.58-2.14.85-1.69.6-3.27,1.01-4.7,1.28-.14-.14-.29-.29-.43-.43-.29-.29-.57-.57-.85-.85.56-.13,1.13-.27,1.71-.43,1.5-.4,2.92-.83,4.27-1.28.27-.12.56-.26.85-.43.5-.28.92-.57,1.28-.85.6.18.95.75.85,1.28Zm1.28,2.56c-.2.52-.67.77-.85.85-.78.3-1.64.59-2.56.85-1.55.44-3,.7-4.27.85-.29-.43-.57-.85-.85-1.28,1.23-.14,2.68-.39,4.27-.85,1.31-.38,2.45-.83,3.42-1.28.32-.19.67-.18.85,0,.24.24.07.68,0,.85Zm1.28,2.56c-.18.23-.46.55-.85.85-.67.52-1.31.73-1.71.85-1.76.56-3.75,1.05-4.48,1.23-.1.02-.18-.06-.17-.16.03-.17.03-.39-.05-.64-.1-.3-.29-.51-.47-.64-.11-.08-.06-.25.07-.27.99-.14,2.14-.38,3.39-.79,1.32-.44,2.42-.96,3.3-1.45.22.07.33.1.55.17l.43.85Zm.43,2.56c0,.43-.26.83-.85,1.28-1.22.93-2.87,1.19-3.42,1.28-.82.13-1.55.09-2.14,0-.06-.21-.18-.53-.43-.85-.15-.19-.3-.32-.43-.43,1.29-.06,2.92-.27,4.7-.85.79-.26,1.5-.55,2.14-.85.14.14.29.29.43.43Zm.43,9.39c-.09.38-.25.65-.43.85-1.07,1.24-3.81,1.02-6.83-.43.14-.14.29-.29.43-.43.14-.14.29-.29.43-.43.62.2,1.5.4,2.56.43,1.27.03,2.3-.21,2.99-.43.29.14.57.29.85.43Zm-.43-2.99c-.15.44-.76.96-1.71,1.28-1.47.5-2.93.25-3.84,0-.14-.14-.29-.29-.43-.43.14-.29.29-.57.43-.85.73.06,1.59.08,2.56,0,.98-.08,1.84-.24,2.56-.43.18-.08.35-.08.43,0,.11.11.03.32,0,.43Zm0-2.56c-.43.85-.48.8-2.56,1.28-.66.15-1.88.32-3.02.4-.19.01-.36-.14-.35-.33,0-.15,0-.32-.05-.5-.05-.21-.12-.38-.2-.53-.09-.16.03-.35.2-.36.86-.07,1.99-.17,2.83-.3.38-.06.75-.16,1.11-.29.61-.22,1.58-.56,2.03-.66.11-.04.3-.09.43,0,.21.16-.43,1.28-.43,1.28Zm0,9.39c-.43.43-2.53.46-2.99.43-1.82-.12-3.28-.73-4.27-1.28-.02-.06-.06-.23,0-.43.1-.3.39-.84.43-.85.69.33,1.28.71,2.56.85.83.09,2.84.06,3.42,0,.29.14,1,.29,1.28.43,0,.43-.14.57-.43.85Zm-9.39,40.14c.21.06.53.18.85.43.19.15.32.3.43.43.14-.29.29-.57.43-.85.2-1.86.35-3.86.43-5.98.07-1.96.06-3.81,0-5.55.59,2.43,1.4,5.17,2.56,8.11,1.08,2.76,2.27,5.18,3.42,7.26-.02-.54-.03-1.11,0-1.71.05-1.28.22-2.42.43-3.42.22.04.58.14.85.43.41.42.44,1,.43,1.28-.03,1.07-.08,3.94,0,6.83.02.61.05,1.33.43,2.14.24.5.73,1.05,1.71,2.14.71.79,1.08,1.19,1.28,1.28.5.22,1.33.15,2.99,0,.48-.04.81-.09,1.28,0,.5.09.94.28,1.28.43.54.23.51.31.85.43,1.17.41,1.7-.06,2.56.43.31.18.47.36.85.43.41.07.53-.1.85,0,.39.12.61.47.85.85.25.4.22.52.43.85.21.33.49.62.85.85-.25.02-.76.09-1.28.43-.46.29-.72.64-.85.85-.45-.3-.7-.62-.85-.85-.12-.19-.23-.41-.43-.85-.29-.62-.27-.7-.43-.85-.2-.2-.35-.21-.85-.43-.36-.16-.65-.31-.85-.43-1.39-.08-2.55-.05-3.42,0-.88.05-1.47.13-2.14.43-.59.26-1.01.6-1.28.85-.15.02-.3.02-.43,0-1.47-.23-2.08-2.76-2.14-2.99-.29.29-.57.57-.85.85.16,1.07.59,1.78.85,2.14.19.26.43.59.85.85.68.43,1.38.44,1.71.43.28-.25.71-.58,1.28-.85.58-.27,1.06-.38,1.28-.43.76-.15,1.2-.05,2.14,0,.51.03,1.24.05,2.14,0,.87.44,1.17.92,1.28,1.28.12.38.09.81.43,1.28.15.21.32.35.43.43-.63.26-1.05.62-1.28.85-.48.48-.73.98-.85,1.28-3.58.15-6.27.12-7.26,0-.41-.05-.85-.15-1.28-.43-.49-.31-.76-.71-.85-.85-.47-.73-.32-1.24-.85-2.14-.07-.12-.2-.31-.43-.43-.24-.12-.62-.18-.85,0-.39.3-.25,1.18,0,1.71.15.33.3.43.43.85.08.27.19.66,0,.85-.18.19-.59.14-.85,0-.29-.15-.41-.39-.85-1.28-.14-.29-.29-.57-.43-.85-.07-.15-.61-1.26-1.28-2.14-.82-1.07-1.07-.77-1.71-1.71-.15-.22-.66-1-.85-2.14-.09-.53-.18-1.07,0-1.71.28-.96.99-1.51,1.28-1.71-.24-.33-1.08-1.39-2.56-1.71-.71-.15-1.32-.08-1.71,0,.03-1.05.56-1.91,1.28-2.14.1-.03.47-.14.85,0,.57.21.62.78,1.28,1.28.32.24.63.36.85.43.33-.5.66-1.16.43-1.71-.15-.36-.43-.39-.85-.85-.13-.14-.72-.82-.85-1.71-.15-.98.38-1.49,0-2.14-.13-.21-.3-.35-.43-.43-.27.35-.38.66-.43.85-.1.41-.06.8,0,1.28.05.47.12.64,0,.85-.07.12-.14.16-.43.43-.19.18-.33.32-.43.43-.09-.2-.23-.5-.43-.85-.38-.67-.65-.96-.85-1.28-.26-.41-.5-1.07-.43-2.14Zm-6.41-20.5c-.13-4.29,2.08-7.62,4.7-8.11,3.08-.58,6.03,2.91,5.98,2.99-.03.05-1.33-1.06-2.99-.85-.57.07-1.02.28-1.28.43.61.17,2.14.67,3.42,2.14,1.51,1.73,1.68,3.67,1.71,4.27.14,1.42.29,2.85.43,4.27.43,4.56.85,9.11,1.28,13.67-.32-.77-.8-1.95-1.28-3.42-.77-2.34-.88-3.31-1.71-5.98-.82-2.63-1.49-4.75-2.14-4.7-.39.03-.71.83-.85,1.71-.43,2.56-.43,3.84-.43,4.27,0,1.73.22,4.15,0,7.69-2.63-7.58-4.24-13.56-4.7-16.65-.17-1.15-.3-2.68.43-4.27.59-1.29,1.52-2.11,2.14-2.56-.48.04-1.81.23-2.99,1.28-1.65,1.47-1.7,3.5-1.71,3.84Zm-26.9,64.06c-.09.56-.28,1-.43,1.28-.19.15-.66.57-.85,1.28-.3,1.11.34,2.01.43,2.14.41.39.46.67.43.85-.05.29-.35.42-.43.85-.03.18-.02.32,0,.43-.11-.04-1.33-.53-1.71-1.71-.28-.87,0-1.71,0-1.71,0,0,.26-.95,0-2.99-.08-.58-.91-6.24-5.55-8.54-1.04-.51-2.07-.76-2.99-.85-.21-.07-.53-.19-.85-.43-.74-.54-.87-1.17-1.28-1.71-.53-.7-1.16-.75-2.56-1.28-.85-.32-2.03-.85-3.42-1.71-1.68-1.08-9.89-6.56-12.38-14.95-.37-1.23-1.14-3.83-.85-7.26.29-3.45,1.49-5.95,2.14-7.26,1.17-2.38,2.45-3.91,3.84-5.55,1.49-1.76,3.72-4.08,6.83-6.41.23.15.86.5,1.71.43,1.31-.11,2.04-1.14,2.14-1.28.23.15.86.5,1.71.43,1.31-.11,2.04-1.14,2.14-1.28.23.15.86.5,1.71.43.3-.03.58-.1.82-.2.77-.32,1.21-.93,1.31-1.07,0,0,0,0,0-.01.01,0,.03.02.04.02.26.16.87.47,1.67.41.41-.03.75-.15,1.04-.31.66-.35,1.02-.87,1.09-.97.72.38,1.38.43,1.71.43.82,0,1.42-.27,1.71-.43.11.1.4.36.85.43.71.1,1.21-.36,1.28-.43.61.88,1.44,1.19,1.71,1.28,1.01.34,1.87.09,2.14,0,.17.2.59.63,1.28.85.79.26,1.47.08,1.71,0,.02.04.05.11.09.18-.31.45-.63.91-.95,1.37-2.91,4.14-5.75,7.64-8.34,10.54-.61,1.34-1.55,3.72-1.9,6.81-.24,2.09-.14,3.83.01,5.04,1.65.46,4.36.9,7.73.13,3.28-.76,5.85-2.35,7.44-3.53,1.99-1.85,4.28-4.24,6.65-7.29,1.26-1.61,2.37-3.19,3.36-4.71.47.25.91.36,1.27.42.24-.15.58-.42.85-.85.58-.9.47-1.85.43-2.14.05.03.88.47,1.71,0,.59-.34.93-1.01.85-1.71.09.38.23.82.43,1.28.14.32.28.6.43.85-2.46,4.16-5.79,9.04-10.25,14.09-4.49,5.08-8.97,9-12.81,11.96-.43,4.47-.26,7.45,0,9.39.05.38.23,1.64.43,3.42.27,2.41.41,3.61.43,4.7.03,1.4-.1,3.45-.85,5.98-.09.94-.11,2.49.43,4.27.47,1.55,1.18,2.7,1.71,3.42,1.85,2.7,3.7,5.41,5.55,8.11-.06-.03-.45-.2-.85,0-.26.13-.38.35-.43.43-.98-.78-1.98-1.64-2.99-2.56-2.37-2.17-4.34-4.36-5.98-6.41.86-1.54.86-3.23,0-4.27-.19-.23-.58-.61-1.28-.85h0c-.31-.35-.47-.8-.48-1.25,0-.51,0-1.09.05-1.73.11-1.5.3-1.95.43-2.99.35-2.98-.52-5.47-.85-6.41-.64-1.79-1.05-1.79-1.71-3.42-.94-2.33-.97-4.51-.85-5.98-.97.68-2.25,1.46-3.84,2.14-1.62.68-3.09,1.06-4.27,1.28.43.35,1.05.92,1.71,1.71.94,1.14,1.24,1.9,1.71,2.56,1.27,1.79,3.16,1.96,4.27,2.56,1.42.77,2.75,2.89,2.71,8.6,0,.55-.05,1.11-.15,1.65h0Z"/>
    </g>
  </g>
</svg>