<?xml version="1.0" encoding="UTF-8"?>
<svg id="Layer_2" data-name="Layer 2" xmlns="http://www.w3.org/2000/svg" viewBox="0 0 223.69 223.69">
  <defs>
    <style>
      .cls-1 {
        fill: #f5eceb;
        stroke: #231f20;
        stroke-miterlimit: 10;
      }

      .cls-2 {
        fill: #c3262a;
      }
    </style>
  </defs>
  <g id="Layer_1-2" data-name="Layer 1">
    <g>
      <circle class="cls-1" cx="111.85" cy="111.85" r="111.35"/>
      <g id="persius_hoodie" data-name="persius hoodie">
        <rect class="cls-2" x="26.19" y="166.95" width="171.45" height="1.26"/>
        <path class="cls-2" d="m109.94,131.42l-.28-.35-.28-.28-.48-.42-.42-.28-.76-.42.48-.14.35-.14.83-.55.55-.28h.28l.21.07.35.21-.07-.35-.07-.28-.28-.55-.42-.42-.28-.21-.28-.14-.55-.14h-.48l-.42.07-.21.07.21-.35.28-.42.21-.55.14-.62.07-.62-.07-.48-.21.21-.28.21-.42.28-.48.14-.48.07-.35-.07.21-.76.07-.62.07-.83.07-.28.14-.28.28-.28.14-.07.28-.42.07-.21.07-.42-.76.07-.42.07-.48.14-.35.14-.42.21-.42.28-.9.9-.35.55-.35.69-.14.42v.35l-.07.35-.07.55-.14.55-.21.55-.35.83-.42.69-.28.42-.62.76-.55.62-.69.69-.9.62-.48.28-.48.21-.55.21-.55.14-.62.07h-.62l-.55-.07-.55-.14-.55-.21-.42-.21-.76-.42-.48-.35-.48-.42-.42-.35-.76-.9-.62-.83-.97-1.66-.62-1.38-1.32-2.63-.69-1.25-.76-1.11-.55-.69-.62-.83-.83-.9-1.04-.9h.55l.35-.14.21-.14.55.55.55.28h.55l.21-.14.35-.14.14.14.28.21.42.14.28.07h.28l.28-.07.21-.07.35-.14.28.28.55.48.42.28.42.21,1.11.14.55-.07.48-.14.35-.21.28-.14.42.28.35.21.48.21.55.21.69.07h.69l.69-.14.55-.21.48-.35.35-.28.28-.28.69.21.62.14.62.07h.62l.55-.14.48-.21.48-.28.35-.35.14-.21.21-.28.14-.42.07-.48.42-.07.62-.28.35-.21.42-.28.69-.83.28-.55.21-.55.07-.48v-.35l.28-.21.42-.42.42-.55.14-.35.14-.42.07-.55v-.83l-.07-.28.28-.28.35-.48.21-.35.14-.42.14-.48v-.48l-.07-.55-.14-.48-.21-.35-.14-.28.07-.28.14-.48v-.69l-.07-.35-.14-.42-.14-.35-.21-.28-.42-.35-.62-.42v-.69l-.07-.42-.21-.55-.28-.42-.35-.35-.69-.42-.62-.14-.28-.07v-.21l-.07-.42-.14-.48-.14-.28-.21-.28-.28-.28-.21-.14-.55-.28-.42-.14h-.21v-.21l-.14-.42-.28-.55-.14-.21-.28-.28-.35-.21-.28-.21-.35-.07-.28-.07h-.69l-5.26,5.26-.28-.28-.28-.21-.28-.07-.69.07.07-.42.48-.14.42-.14.48-.21.48-.35.48-.42.48-.48.35-.69.28-1.11v-.48l-.07-.35.62-.35.55-.42.42-.48.42-.42.28-.55.28-.97-.07-.55-.07-.21-.07-.35-.21-.35-.35-.42.21-.35.21-.69.07-.42.07-.48-.07-.48-.07-.55-.28-.62-.28-.48-.55-.55v-.9l-.21-.69-.14-.35-.21-.42-.35-.42-.35-.28-.35-.21-.21-.14-.21-1.04-.14-.35-.21-.35-.28-.42-.35-.35-.48-.35-.83-.28-.28-.07-.14-.21-.35-.42-.21-.28-.28-.21-.35-.14-.42-.21-.35-.07h-.9l-.42.14-.28.07-.21-.21-.28-.21-.42-.28-.55-.14-.48-.07h-.42l-.42.14-.35.14-.55.35-.28.21-.14-.21-.35-.21-.48-.21-.28-.07h-.69l-.35.07-.48.21-.35.28-.21.14-.21-.14-.35-.14-.55-.14-.35-.07-.69.14-.35.14-.28.14-.55.55-.14.21.48,7.41h-.35l-.35.14-.21.14-.62.76-.69.83-.83.97-.97.97-1.32,1.11-1.18.97-1.25.83-1.32.76-.28.21-1.32-.28-1.45-.21-1.52-.07-1.32.07-1.18.14-.97.14-.21-.14-.07-.07-.14-.21-.07-.21v-.21l.14-.28.14-.07.21-.07h.97l.55-.07.83-.42.35-.21.55-.42.21-.28.35-.48.42-.97.07-.48v-1.11l-.21-.28-.14-.14-.21-.14-.28-.07-.28.07h-.55l-.35-.14-.28-.28-.21-.28-.28-.42-.28-.55-.28-.83.21-.28.35-.28.28-.14.21-.07.35-.07.76.42.42.28.48.42.21.21.14.21.21.48.14.42.14.35.35.14.21.07.28.07h.55l.14-.07.07-.14.07-.07-.07-.42-.14-.35-.35-.62-.35-.69v-.76l.07-.21.07-.14.07-.07.14-.07h.21l.28.14.35.42.21.28.14.28.21.55.14.69.14.62v.62l.48.69.07.14.21.07.28.07.97-.28.21-.14.35-.28.48-.28.83-.28h1.11l.21-.14.21-.21.07-.21.07-.28v-.83l-.07-.55-.07-.42-.14-.42-.14-.21-.07-.21-.14-.14-.21-.28-.28-.55-.14-.48-.14-.62-.07-.69-.07-.21-.14-.21-.55-.28-.62-.28-.14-.14-.07-.14v-.28h.55l.28-.28v-.28l.07-.35.07-.14.14-.07h.28l.14-.07.14-.28v-.21l-.14-.28-.07-.07-.07-.21v-.28l.14-.48.07-.28.07-.35v-.48l-.07-.35-.21-.55,1.94-.55.07-.28v-.28l-.07-.28-.28-.42-.28-.14.07-.21-.07-.35-.14-.28-.14-.14-.28-.14.07-.21-.07-.35-.14-.28-.14-.14-.28-.14-.14-.42-.14-.14-.28-.21-.21-.07h-.35l-.14-.42-.14-.14-.28-.21-.21-.07h-.35l-.14-.42-.14-.14-.21-.14-.35-.07-.28.07-.28.14-.14-.42-.14-.14-.21-.14-.35-.07-.28.07-.28.14-.07-.28-.07-.21-.21-.21-.21-.14-.21-.07h-.14l-.21.07v-.14l-.07-.21-.07-.14-.14-.07-.21-.07h-.14l-.21.07-.14-.28-.14-.14-.28-.14h-.28l-.35.48-.21.35-.55,1.11-.21.28-.14.21-.14.07h-.07l-.14-.07-.14-.21-.21-.42-.07-.42v-.55l.07-.48.21-.62.14-.55.07-.76v-.97l-.07-.48-.14-.55-.35-.83-.35-.69-.48-.62-.48-.48-.42-.35-.42-.28-.55-.35-.42.14-.14.14-.21.28-.07.21v.35l.14,1.04.14,1.18v1.94l-.14.14-.28.21-.28.35-.14.42v.55l-.55-.55-.42-.35-.42-.21-.55.83-.28.55-.07.48.07.35.14.28.14.55.07.48v.21l-.07.14h-.28l-.14-.07-.07-.07-.07-.14-.83-2.49-.28-.21-.21-.07h-.35l-.35.07-.28.21-.21.28-.14-.07-.28-.07h-.28l-.42.14-.42.28-.14.28-.14-.07-.21-.07h-.35l-.42.14-.28.21-.14.28-.14.35-.28-.07h-.28l-.28.07-.21.14-.21.21-.07.21-.07.28h-.42l-.35.07-.21.07-.14.14-.21.28-.07.28h-.42l-.35.07-.35.21-.28.21-.14.28-.14.35h-.28l-.28.07-.28.21-.21.28-.07.28v.28l-.28-.07-.35.07-.28.07-.21.21-.21.28-.07.21v.35h-.28l-.28.07-.28.21-.21.28-.07.28v.28h-.28l-.28.07-.28.21-.21.28-.07.28v.28l-.35.14-.28.14-.21.28-.14.28-.07.21-.07.35-.35.14-.28.14-.21.28-.14.28-.07.21-.07.35-.28.07-.21.07-.21.21-.14.21-.07.28v.28l.07.28-.28.07-.21.07-.21.21-.14.21-.07.28v.28l.07.28-.28.07-.21.07-.21.21-.14.21-.07.28v.28l.07.28-.28.14-.14.14-.14.28-.07.35.07.21-.14.07-.21.14-.28.28-.21.35-.07.42v.28l.07.42-.28.28-.14.21-.14.35-.07.28v.21l.07.35-.14.07-.21.14-.28.28-.21.35-.07.42v.28l.07.42-.35.21-.42.55-.07.35v.28l.07.28.21.28-.28.21-.21.28-.07.35v.35l.07.21.21.28-.28.21-.28.55v.35l.14.35.14.28.28.21-.28.28-1.11-1.11-.83-1.04-.83-.9-.21-.28-.07-.28v-.28l-.14-.42-.14-.48-.28-.48-.21-.28-.28-.28-.42-.35-.21-.14-.28-.07-.48-.07-.14-.07-.21-.14-.14-.21-.07-.21-.07-.42v-.62l-.07-.83-.14-.48-.14-.55-.21-.55-.28-.55-.69-.97-.35-.42-.35-.28-.62-.55-.48-.28h-1.11l-.55.07-.42.14-.69.35-.55-.07h-.76l-.48.07-.48.14-.55.14-.48.28-.35.21-.48.42-.28.28-.21.28-.21.35-.14.42-.07.55v.62l.07.48.14.21.14.07h.28l.07-.14.14-.21.28-.28.35-.21.42-.07h.28l.42.07-.14.21-.21.28-.21.42v.48l.07.28.07.14.14.14.14.07.14-.07h.28l.35.07.48.48.14.28v.55l.14.28.21.21.9.62.69.42.14.14.14.21v.14l.07.42v.48l.07.69.14.69.42.69.42.42.69.42.76.42.28.21.35.21.35.28.21.28,1.38,2.22,1.18,1.87.83,1.52.48,1.04.55,1.38.28,1.04.14.28.14.35.28.42.28.28.35.21.48.48.62.83.48.83.55,1.11.28.48.21.35.35.28.28.21.28.07.07.21.07.14.14.21.14.14.42.14v.28l.07.28.21.28.28.21.28.07h.28l-.07.28v.28l.07.28.28.42.28.14-.55,4.01-.28,2.08v.55l.14.69.14.42.14.55-.07.55-.14.55-.21.55-.21.48-.28.42-.21.48-.14.55-.07.62.07.48v4.43l-.42.48-.42.62-.28.55h-2.22l-.62.07-.35.07-.42.14-.28.14-.28.28-.28.14-.35.14-.48.14-1.38.28-.48.07-.35.21-.14.14-.14.21-.28.48-.14.35-.14.21-.21.14-.14.07-.48.07-.48.14-.28.21-.35.21-.07.42v.69l.07.28.21.48.07.14v.21l-.07.35-.14.28-.07.28v.21l.14.21.14.07h3.25l-1.25.42-1.25.48-1.18.69-1.04.76-.97.9-.9,1.04-.76,1.11-.62,1.25-.48.07-.62.21-.62.28-.48.28.97.28.62.21.55.21.62.35.69.42.62.48.62.55.62.69.48.69.69,1.04.48,1.11.48,1.04.35.97-.83-.55-.97-.48-1.11-.48-.62-.21-.69-.21-.9-.14-.83-.14h-1.32l1.25.83.69.55.76.62.83.76.76.9.76,1.04.76,1.11.76,1.38.55,1.32.35,1.25.28,1.04.21.76.14.9.14.97.05.69h-.53v1.11h9.45v-1.11h-.53v-.14s.15-.97.15-.97l.14-.9.21-.76.28-1.04.35-1.25.55-1.32.76-1.38.76-1.11.76-1.04.76-.9.83-.76.76-.62.69-.55,1.25-.83h-1.32l-.83.14-.9.14-1.04.28-.9.35-.83.42-.69.42.55-1.18.69-1.11.69-1.04.76-.9.69-.9,1.45-1.45.69-.55,1.25-.97-.48-.14-.62-.14h-1.11l-.55-1.25-.69-1.18-.83-1.04-.9-.97-1.04-.83-1.11-.76-1.18-.55-1.25-.42.9.07h1.66l1.04-.07,1.18-.21.21-.14.69-.69.21-.35.14-.35.14-.42.07-.35.07-.28.14-.21.21-.21.21-.14.69-.35.21-.21.21-.28.14-.35.42-.9.42-1.18.35-.97.21-.35.28-.35.28-.21.28-.35.28-.42.28-.69.07-.35-.07-.48-.28-.14-.28-.42-.07-.21v-.21l.07-.42.14-.42.42-.69.28-.55v-.28l-.28-.55-.07-.35v-.35l.07-.42.21-.42.28-.28.35-.28.28-.42.14-.35.07-.28.07-.48,1.25,1.94,1.45,2.08,1.59,2.15,1.8,2.15,2.15,2.42,4.15,4.15,2.01,1.73-.07,1.52-.35,3.46-.14,1.11-.07,1.73v1.04l.07,1.11.14.97.14.62.14.69.14,1.04.07,1.45v.62l-.07.69-.28.9-.28.83-.42.69-.42.62-3.6,5.54-.69.69-.62.48-.62.35-.55.14-.48.07-.42-.07h-1.04l-.48.07-.42.14-.62.28-.55.21-.28.14h-.42l-.62-.07-.48-.14-.48-.07h-.62l-.42.07-.42.14-.55.35h-.35l-.35.07-.28.07-.35.14-.28.14-.42.42-.21.28-.21.42-.07.42v.55l.14-.21.21-.21.21-.14h.28l.21.07.14.07.21.14.69.42.55.21h.42l.28-.07.55-.42.28-.14h.28l.14.07.14.14.14.07h.14l.14-.07.14-.21.21-.14.42-.14h.21l.14.07.28.28.14.21.21.14.28.14.55.07h.42l.62-.21.35-.21.28-.14.35-.07h.28l.21.07.35.21.48.21.55.07.48-.07.42-.21.42-.42.14-.42.48.28.62.28.55.21.62.14.62.07.69-.14.48-.28.28-.21.35-.35.21.21.35.28.28.14.35.14.35.07h.42l.35-.07.28-.07.55-.28.35-.21.14-.21h.55l.28.21.28.14.55.14h.55l.28-.07.28-.14.35-.28.28-.35.14-.28.07-.21.14.07.14.21.07.21v.14l-.07.21.42-.42.28-.42.14-.28v-.28l-.07-.28-.07-.35-.21-.28-.21-.21-.28-.21-.35-.21-.35-.07-.42-.07-.42-.21-.48-.14h-.21l-.28.07-.55.28-.28.35-.21.35-.07.14-.28.28-.42-.14-.35-.07-.62-.07-.62.07h-.28l-.21-.07-.83-.83v-.55l.14-.35.14-.21.42.07.42.21.69.42.42.42-.83-1.94.83-.55,1.11-.83.69-.62.69-.76.42-.55.21-.35.48-.48.62-.48.42-.28.35-.35.14-.21.14-.35v-.28l-.14-.48-.14-.55v-1.45l.14-.76.21-.76.69-1.38.55-.69.55-.55.69-.48.76-.35.42-.14.55-.14.69-.07.83.07.21-.42.35-.42.28-.28.69.97.62.76.62.62.55.42.69.48.69.35.62.21.69.28,1.52.48.83.42,1.04.55.83.48.76.48.62.55.55.69.48.76.35.9.28.9.28,1.04.35,1.66.14.9.07,1.04v.28l-.07.35-.21.35-.28.42-.35.28-.42.14-.42.07-.48.07h-.9l-.62-.07-.69-.21h-.97l-.62.07-.62.21-.55.28-.35.14-.28.07-.48.07-.42-.07-1.38-.42-.42-.07-.35.07-.48.14-.48.48-.62.69-.35.07-.28.07-.55.28-.28.21-.21.21-.28.55-.14.42v.42l.07.35.07.21.07-.28.21-.28.28-.35.28-.21.21.42.28.21.21.14.14.07.42.07h.42l.42-.14.42-.21.28-.21.14-.07h.28l.21.07.21.21.28-.21.35-.21.35-.07.42-.07.35.07.21.07.48.28.55.28.28.07.35.07h.48l.28-.14.35-.14h.55l.48.07.42.14.35.07h.42l.48-.21.62-.35.83-.55.21.21.48.42.35.21.42.21.48.07h.55l.42-.07.69-.28.28-.21.55-.55.83.83.28.14h.28l.55-.14.69-.28.42-.28.28-.21.14-.07h.28l.21.07.21.21.14.07.35.14.42.14h.21l.28-.07.55-.28.28-.28.14.21.14.35v.55l.28-.07.28-.21.21-.14.21-.21.14-.21.14-.28.14-.55v-.35l-.07-.35-.14-.28-.14-.21-.48-.48-.21-.28-.28-.14-.28-.21-.28-.14-.55-.14h-.35l-.28.07-.35.07-.21.21-.48.28-.21.35-.14.21-.69.07h-.48l-.48-.07-.83-.28-.55-.28.55-1.11.48.14.62.14h.83l-1.38-1.38-.48-1.94-.21-1.11-.14-1.11-.21-2.22-.07-1.94v-.55l-.07-.42-.21-.69-.14-.35-.14-.48-.07-.62.07-.48-.07-.14-.07-.35-.28-.35-.42-.28-.42-.07h-.28l-.42.07-.55-.42-.28-.28-.28-.42-.28-.48-.14-.48-.14-.69v-.9l.14-.76.21-.69.21-.42.55-1.32.42-1.18.28-1.04.14-.9.07-1.11.07-.97-.14-1.52-.14-.9-.14-.83-.28-1.32v-1.11l.55,1.38.55,1.11.55.97.55.69.69.83.42.48.55.48.55.42,1.38.83.83.28.76.14.55.14h.62l.76-.07.76-.14.62-.14.62-.21.9-.35,1.32-.48.97-.28.48-.07.48.07.48.14.35.14-.07-.35-.07-.21-.14-.28-.28-.35-.28-.21h.42l.55.14,1.25,1.25.28.14h.14l.42.14.35.35.14.28.07.48.07-.55v-.42l-.07-.42-.28-.83-.28-.55h.21l.42.07.55.14.21.14.28.21.21.21.14.21.21.42.07-.28.14-.48v-.69l-.07-.35-.14-.42-.14-.35-.21-.28-.42-.35-.62-.42h.69l.48.07.48.21.48.28.35.28-.28-.55-.28-.48ZM28.33,94.45l-.35-.62-.55-.97-.35-.69-.21-.35-.28-.35-.83-.83-.42-.55-.14-.28v-.42l.07-.21-.07-.21-.07-.14-.14-.14-.35-.28-.55-.35-.48-.28-.35-.21-.14-.07-.14-.21-.14-.28v-.62l.14-.21.14-.07h.14l.28.07.55.28,1.38,1.38.14.07.21.07.14-.07.07-.07v-.28l-.83-.83-.28-.35-.28-.21-.55-.28-.21-.14-.07-.14v-.35l.28-.48.21-.35.07-.21v-.14l-.28-.28-.28-.14-.21.55-.35.42-.35.28-.28.07-.21.07h-.42l-.42-.14-.35-.21-.42-.42-.21-.28-.14-.35v-.28l.07-.07h.35l.14.07.14.14v.14l.14.28.21.14.28.07.35-.07.28-.14.28-.28-.83-.83-.21-.14-.35-.14h-.55v-.55l.28-.28.14-.21.14-.35.07-.28v-.21l-.07-.35-.14-.07-.35-.14-.42-.14h-.21l-.28.07-.55.28-.28.28.07-.42v-.35l-.07-.35-.14-.35-.14-.21.35-.14.48-.14.42-.07h.35l.62.07.21-.14.42-.21.48-.21h.55l.28.07.55.21.42.28.35.28.55.69.62,1.25.35.83.14.48.07.62.07.76.07.35.14.28.28.28.28.21.55.35.69.42.42.42.28.55.07.48.14.48.07.42.14.35.28.35,1.59,1.59,1.59,1.87v1.11l-.9-1.11-1.04-1.11-.97-.97-1.04-.9-.97-.76-.9-.69.76,2.08.35,1.11.28,1.25.35,1.59.21,1.45-.48-.62Zm5.05,7.48l-.14.35-.07.28v.21l.07.35-.35-.48-.48-.62-.83-.83-.48-.62-.21-.35-.14-.42-.07-.48.14-.69-.07-.48-.21-.55-.21-.48-.21-.35-.21-.28-.07-1.18-.21-1.32-.35-1.8-.48-1.52,1.25.97,1.25,1.25.76.83.62.83v.28l.14.35.14.21-.14.21-.14.35v.42l.07.35.14.21.07.14-.14.21-.07.14-.07.21v.35l.07.21.21.28-.21.28-.07.21v.35l.07.35.21.28.28.21-.21.28-.14.55.07.28.28.42.28.14-.14.21Zm48.73,13.29l-.35-.07-.35-.14-.35-.21-.21-.28-.28-.35-1.94-3.88.21.14.35.14h.55l.97,1.38.97,1.66.83,1.66-.42-.07Zm-27.83-42.3v.28l-.07.14-.07.07-.14.07h-.42l-.35-.07-.35-.21-.28-.35-.21-.35-.07-.28v-.14l.14-.07.35-.14.42-.14h.21l.28.07.35.14.21.14-.14.07-.07.07-.07.14v.28l.28.28Zm-1.38,1.11l.83.28.14.21.07.14.07.21v.21l-.28.42-.28.14-.21.07-.28-.07-.48-.14-.42-.07-.83-.07-.28-.07-.28-.14-.21-.28-.07-.28.21-.28.35-.28.28-.14.21-.07.35-.07,1.11.28Zm24.71,31.98l-.07-.28v-.35l.48-.14.55.69.35.48.55.9.28.48.76,1.45v.14l-.14.07-.42-.07-.48-.21-.35-.21-.21-.28-.28-.35-.21-.62-.35-.76v-.07l-.48-.9Zm-2.7-.97l.14-.21,1.38.48.07.14.42.69.42.9.21.48.28.83.21.69v.07l-.07.07-.35-.07-.62-.21-.28-.21-.21-.14-.28-.35-.07-.14-.55-1.38-.07-.28h-.07l-.55-1.38Zm.35,3.12v.14l-.14.14h-.28l-.35-.07-.42-.28-.14-.28-.48-1.18-.62-1.59-.28-.83v-.28l.21.14.35.14h.55l.07.14.55,1.25.21.55.35.9.42,1.11Zm4.78-1.59l-.28-.42v-.28h.55l.21.07.28.14.35.35.28.35.62.76,1.04,1.66.48.69v.14l-.07.07h-.69l-.28-.07-.55-.28-.28-.28-1.66-2.91Zm.9-6.44l1.32.83,2.49,1.87.14.21.14.35v.28l-.07.07-.21.07-.48.07-.55-.07-.21-.07-.14-.07-.83-.83-1.04-.9-1.32-1.18-.42-.42-.35-.69.07-.14.07-.07h.14l.35.14.9.55Zm-.35-1.18l.28-.28h.28l1.38.55,3.32,1.38.14.21.14.14v.21l-.14.28-.21.14-.35.14h-.42l-.97-.55-1.52-.9-.28-.21-.55-.35-1.11-.76Zm-.97,2.28l.35.42.83.83,1.25,1.52.21.28v.42l-.07.14-.21.21-.14.07-.21-.07-.69-.42-.62-.62-.48-.55-.07-.07-1.66-2.22-.07-.21v-.21l.07-.14.21-.21.21-.07h.14l.07.07.9.83Zm2.08,4.91v-.28l.07.07.35.14.42.07h.55l3.88,3.88.28.35v.21h-.28l-.48-.07-.62-.21-.48-.21-.62-.35-.55-.48-2.49-3.12Zm4.78,2.22l-1.18-1.11-1.8-1.59-.14-.07v-.28l.07-.14.21-.14.21-.07h.28l.35.07.42.21.76.48,1.04.76,2.77,2.15.14.21.14.35.07.28v.14l-.14.28-.14.07-.35.14h-.42l-.42-.07-.55-.28-.28-.28-1.04-1.11Zm2.77-1.04l-.83-.55-.9-.62-.76-.62-1.45-1.04.42-.14.14-.14.14-.21.14-.35,3.46,1.73,1.18.69.9.62.35.35.14.21.07.28-.07.21-.07.14-.28.28-.35.14-.35.07h-.28l-.28-.07-.28-.21-1.04-.76Zm-2.84-4.22l.35-.35.14-.28.07-.21h.14l5.95,1.66.35.14.28.21.21.21.14.21.14.28.07.21v.21l-.07.21-.28.28-.21.14-.28.07h-.55l-.28-.07-.35-.14-5.81-2.77Zm.55-3.67l-.14.21-.14.14h-.28l-.55-.21-2.28-.9-.69-.28-.62-.28-.35-.21-.28-.21-.14-.14-.07-.14v-.14l.07-.07h.21l.28.07.35.07,1.59.42,2.22.62.55.28.14.14.14.42v.21Zm-3.32-4.08l-.28.14-.28.07-.42.07-1.18.07-1.25.07-2.42-.97.9-.21,1.25-.35,3.32-.62h.28l.35.14.21.14.14.14.14.28-.07.14-.14.35-.28.35-.28.21Zm.55-3.18l-.21.21-.21.14-.35.14-1.25.28-.97.28-1.04.28-1.18.21-1.52.35.07-.21.07-.14v-.28l-.07-.21-.07-.14-.07-.21,1.04-.48,1.59-.62,1.73-.62.83-.28.69-.14.55-.07h.21l.21.14.14.14.07.21v.35l-.07.42-.21.28Zm-.07-3.46l-.14.21-.14.28-.21.21-.28.14-.35.21-5.88,2.56v-.42l-.14-.35-.14-.21,5.26-3.53.35-.14.28-.07.35-.07.55.14.21.07.14.21.14.14v.62Zm-7.13,12.46l.21.14.07.14v.07l.9,1.04.48.62.83.97.55.62.07.14-.07.14h-.62l-.69-.28-.28-.21-.48-.42-.35-.48-.35-.55-.42-.69-.42-.76-.28-.48h.83Zm-.35-7.27l-.21.35-1.52-.69.9-.21.28.07.35.14.14.07.07.07v.21Zm-1.32,7.48l.69,1.04.14.28.69.97.14.28v.28l-.14.14h-.28l-.21-.07-.14-.07-.28-.21-.55-.76-.62-.97-.21-.42-.48-.9-.07-.21v-.14l.07-.14.21-.21.42.07.62,1.04Zm-1.11,1.45l.14.28v.21l-.07.21-.07.14h-.28l-.28-.28-.21-.35-.48-.76-.48-.97-.48-1.25.83.28.69,1.18.69,1.32Zm-1.94-.28v.28l-.14.07h-.21l-.21-.07-.21-.14-.14-.14-.21-.28-.07-.28-.42-1.25-.07-.14-.28-.83v-.28l.55.28.07.07.42.83.35.76.55,1.11Zm-1.11,1.11l.42.83.42,1.11.35.97.21.62-.07.14-.21.14-.28.07h-.42l-.28-.21-.28-.28-.28-.69-.14-.21-.48-1.11-.42-1.25-.14-.48.14-.14,1.45.48Zm-1.32,2.77l.21.55v.07l-.07.07-.21.14h-.35l-.35-.14-.14-.14-.21-.28-.07-.28-.07-.35-.21-.76-.35-1.04-.48-1.18v-.07l-.07-.14v-.07l.07-.07h.07l.21.07.55.21.14.14.14.21.48,1.25.35.97.35.83Zm-2.01.21v.35l-.14.07-.21-.07-.28-.07-.21-.21-.28-.42v-.14l-.21-.55-.35-1.04-.55-1.45-.07-.14v-.14l.07-.07h.07l.14.07h.07l.55.35.28.28.07.21.21.83.28.83.14.35.42.97Zm-1.94.07h-.55l-.35-.14-.21-.14-.28-.28-.83-1.94-.55-1.11.07-.14.21-.14h1.11l.83,2.22.55,1.66Zm-2.22-.55l.14.55-.14.28h-.28l-.35-.14-.21-.14-.83-1.94-.55-1.38v-.28l.07-.14.28-.14h.21l.28.28.42.76.42.9.55,1.38Zm-2.01.07l.14.48v.48l-.07.07h-.28l-.28-.28-.83-1.32-.83-1.45-.28-.55.28-.28h.55l.28.07.14.14.14.35.55,1.18.48,1.11Zm-9.69.76l.35-.28.28-.21.28-.07.83,1.11.69,1.04.62,1.04v.14l-.07.14-.28.14h-.42l-.35-.07-.28-.21-.21-.28-.55-.83-.55-.76-.55-.62.21-.28Zm-.07-2.56l-.97-1.04-.28-.55.07-.14.21-.14h.28l.28.14.35.35.48.55.55.62.14.21.14.35v.55l-.28.07h-.14l-.14-.07-.21-.14-.07-.14-.42-.62Zm2.63,2.84l-.62-.83-.14-.28.07-.28.14-.28.55-.07,1.38,2.01.83,1.11v.35l-.28.14-.28.07-.42-.14-.14-.14-1.11-1.66Zm-.28-4.01l.83.97-.14.21-.14.07-.28.07h-.28l-.28-.14-.28-.21-.35-.55-.48-.55-.42-.48-.42-.35.28-.55.35.07.48.21.35.28.21.28.55.69Zm-.55-1.8v-.28l.07-.14.07-.07.14-.07.83-.28h.28l.21.14.07.14.48.69.9,1.25v.28l-.14.21-.14.07-.28.07h-.28l-.21-.07-.21-.14-1.8-1.8Zm-1.59-8.45l-.35.14-.28.07h-.14l-.14-.07v-.55l.07-.21.21-.35.42-.21.42-.35.28-.28.07.35.07.21.14.28.28.28-1.04.69Zm-.21-2.22l-.69.42-.42.21-.42.07-.07-.21v-.42l.07-.48.28-.55.21-.21.28-.21.35-.14.07.28.21.28.28.35.28.21-.42.42Zm-2.22-1.52h-.42v-.55l.07-.28.14-.28.35-.42.35-.28.21-.14.55,1.11-.21.28-.35.28-.69.28Zm2.56-1.87l-.48.21h-.28l-.07-.14-.07-.21.07-.28.07-.21.28-.28,1.66-.83.28.83-.83.55-.62.35Zm-1.32-1.59l-1.25.55-.42.14-.28.07h-.21l-.07-.07v-.14l.07-.21.42-.62.69-.62.76-.62.48-.28.42-.28.76-.28.28.83.28.55-1.94.97Zm-1.94,1.8l-.28.21-.28.35-.21.28-.07.28-.69.42-.48.28-.48.14h-.28l-.21-.07-.28-.28-.07-.21v-.14l.07-.21.21-.28.28-.28.28-.21.62-.35.48-.21.35.14.48.14h.55Zm-2.77,3.67l.07-.21.28-.42.42-.28.35-.28.48-.28.62-.28.14.28.14.14.28.14.35.07.21-.07-.14.21-.14.35v.55l-1.94.97h-.62l-.21-.14-.14-.14-.14-.42v-.21Zm1.25,2.91l.14-.48.14-.28.14-.21.28-.35,1.66-.83.55.55v1.11l-2.22,1.11-.21.07h-.21l-.14-.07-.14-.28v-.35Zm1.25,9.21l.28-.55.55.28.28.28.9.83.48.55.28.35.28.48v.28l-.28.14-.55-.14-2.22-2.22v-.28Zm1.94,4.43l.28-.28.83,1.11,1.11,1.66.07.28.07.35v.21l-.07.21-.07.07h-.28l-.14-.07-.14-.21-.83-.83-.48-.55-.9-1.38.07-.28.28-.14.21-.14Zm1.38,4.98l.07-.14.21-.14h.83l1.66,2.22.07.21v.14l-.07.21-.07.14-.21.14h-.28l-.35-.21-.28-.28-.48-.62-.35-.42-.69-.69-.07-.21-.07-.14.07-.21Zm2.08-.9l-.07-.14v-.35l.07-.14.14-.14.14-.07h.14l.28.07.21.07.14.14.35.42.28.42.62.83.28.35.07.28v.28l-.07.28-.07.14-.14.14-.21.07-.42-.14-.21-.21-1.52-2.28Zm1.8-1.32l.35-.07.21-.07.28-.14.28-.28,1.38,2.22.55.83v.28l-.07.07-.14.07-.28.07-.28-.07-.35-.14-.21-.14-.07-.14-1.66-2.49Zm1.38-2.77l-.28-.28-.35-.55-.48-.55-.35-.42-.21-.21-.07-.35v-.21l.07-.21.07-.14.21-.14.14-.07.28.07.28.14.14.14.55.76.55.9.55,1.11-.14.21-.14.07-.28.07-.28-.14-.28-.21Zm1.04-1.73l-.28-.42-.21-.35-.21-.55v-.28l.14-.21.48-.48h.14l.14.07,1.25,2.28.14.48.14.62v.42l-.07.07h-.07l-.42-.21-.28-.28-.9-1.18Zm2.01-3.53l-.55-.28-.14-.42-.55-.97-.42-.55-.42-.48-.42-.35.28-.28h.83l.42.48.42.62.48.9.35.76-.28.55Zm-2.42-2.01l.48.62.48.83.14.35-.07.21-.14.14-.21.14-.28.07-.21-.07-.21-.14-.07-.14-.35-.55-.48-.55-.55-.62-.55-.48v-.28l.14-.21.14-.07h.83l.28.07.28.21.35.48Zm-1.38-8.51l-.69.14-.21.14-.28.14-.55.14h-.28l-.07-.21.07-.35.14-.28.42-.28.48-.28.62-.28.28.28.35.42.21.42h-.48Zm-1.45-1.66l-1.11.55-.21.07h-.14l-.21-.07-.14-.07-.07-.07-.07-.14v-.28l.21-.28.35-.28.97-.48.42-.35.07.21.07.14.14.21.14.14.42.14-.83.55Zm-1.04-1.87l-.35.21-.62.28-.28.07-.21-.07-.14-.07-.07-.07-.07-.14v-.21l.07-.21.21-.21.28-.21,1.11-.55.07.28.21.28.28.28-.48.35Zm-3.46-12.18l.35-.07h.28l1.38.28.07.35v.21l-.07.28-.14.35-.14.21-.48-.07-.55-.07-.55-.21-.62-.21-.55-.28v-.28l.14-.14.42-.14.48-.21Zm-.97,2.15l.62-.07h.55l.42.07.48.07.62.21.28.28-.14.07-.14.21-.07.21v.14l.07.21.14.21.14.07-1.11-.14-.83-.14-.55-.14-.62-.21-.55-.21-.14-.14-.07-.14.28-.28.28-.14.35-.14Zm-.62,2.49l.62-.07.76.07.48.07.28.07.35.14.35.28.21.28-.55.28-.55.14-.48.14-.42.07h-.76l-.55-.07-.62-.14-.35-.21-.07-.07-.07-.14v-.14l.14-.14.35-.21.42-.21.48-.14Zm-.76,2.56l.76-.28.9-.21,1.04-.14-.28.55-.83.55-.9.69-.76.69-.21.14-.48.21-.28.07h-.62l-.35-.14-.35-.21-.14-.14-.07-.21.07-.21.14-.21.21-.21.28-.21,1.25-.55.62-.21Zm-2.28,2.98l.48.07h.42l.21-.07-.35.28-.48.28-.55.28-.69.28-.55.14-.28-.07-.14-.07-.07-.21.14-.55.21-.35.35-.55.21-.28.21.28.35.28.55.28Zm-1.94,2.22h.55l-.28.83-.42.07-.42.21-.69.42-.42.42.07-.48.21-.62.21-.42.21-.28.42-.42.21.14.35.14Zm-1.45,2.91l.21-.35.35-.35.35-.28.42-.21.35-.21.62-.14.21.14.35.14h.55l-.28.42-.14.28-.14.42-.07.48.07.35-1.38.55-.83.28h-.28l-.28-.07-.21-.07-.35-.14.07-.35.21-.62.21-.28Zm-.21,5.4l.21.28.07.28-.55.28-.83.35-.69.28-.62.21h-.62l-.55-.14-.42-.14-.42-.28.28-.55h.83l.9-.14.83-.14.69-.28.62-.28.28.28Zm-4.36,2.63l.14-.07.35-.07,1.59-.35,2.56-.76.07.28.21.28.28.28-2.28.76-1.32.35-.55.07h-.28l-.28-.07-.42-.28-.14-.14v-.14l.07-.14Zm.48,1.8l.14-.14h.28l.42-.07.55-.07.83-.28,1.94-.83.83-.28-.83.83-.35.48-.21.35-1.38.55-.76.28h-.62l-.42-.14-.35-.35-.07-.21v-.14Zm4.64-5.4l-.21-.14-.07-.35v-.21l.07-.28.14-.28.14-.21.28-.35.48-.42.62-.42.69-.28.42-.14.55-.14v.28l.07.14.28.14h.21l-.28.55-.28,1.11-1.66.83-.35.21-.21.07h-.35l-.55-.14Zm.69,2.01l.21-.48.21-.35.21-.21.42-.28.48-.28.62-.28.83-.28h1.11l-.9.62-1.04.76-.76.69-.62.69h-.28l-.35-.14-.21-.14.07-.35Zm3.53,5.88h.55l.21.07.35.21.35.28.42.48,1.18,1.45v.28l-.28.14-.55-.14-1.66-1.66-.55-.83v-.28Zm1.73,5.81l.07-.14.42-.42.42.62.42.48.55.62.21.21.07.28v.35l-.21.35-.07.07-.14-.07-.69-.69-.62-.76-.42-.76v-.14Zm.76,3.46l.28-.14h.55l.21.07.14.14.21.35.83,1.11.42.48.14.35.07.42v.35l-.07.07-.14.07-.21-.07-.28-.07-.21-.21-1.11-1.66-.83-1.11v-.14Zm2.22,4.29h.42l.69-.28.35-.28.21-.28h.48l.42-.07.48-.21.62-.62.14-.28.07-.21.14.07.21.07h.35l.42-.14.28-.21.14-.28.14-.35.55.14h.35l1.66,2.42,1.18,1.52,1.11,1.45,2.22,2.63.21.48.28.55.21.76.21.83.07.69.07.62v.97l-.76.07-.83-.07-.9-.07-.97-.14-1.32-.42-1.18-.48-1.04-.48-.83-.55-1.04-1.11-1.11-1.25-1.11-1.32-1.18-1.52-1.59-2.22.21-.48Zm7.2-5.54l-.83-1.18-.42-.69-.14-.42v-.21h.55l.48-.14.35-.14,1.11,1.94.83,1.38-.42.07h-.35l-.35-.07-.55-.28-.28-.28Zm.83-3.05l.42-.07.42-.21.48-.28.35-.28.55,1.04.55,1.18.28.83v.48l-.14.21-.14.14-.28.14-.28-.07-.35-.07-.21-.28-1.66-2.77Zm2.49-1.11l.21-.14.14.07.21.07.28.28h.55l.42.9.42,1.04.28.83-.14.21-.14.07h-.28l-.28-.07-.28-.21-.62-1.52-.76-1.52Zm1.94-.28h.55l.35-.14.21-.14,1.66,3.88-.28.55-.28-.07-.28-.21-.28-.28-.28-.42-.35-.76-1.04-2.42Zm2.49.28l.35.14.48.14h.55l.42,1.38.35.97.07.14.42,1.11.14.28-.28.07h-.28l-.28-.07-.42-.28-.21-.42-.76-2.08-.28-.62-.28-.76Zm2.49.28l.48.14.62.14.14.35.48,1.32.42,1.32.35.9-.28.07h-.28l-.28-.07-.42-.28-.14-.28-.28-.83-.42-1.32-.42-1.45Zm2.42,1.18l-.21-.62,1.11.28.42.9.55,1.38.69,1.59-.28.07h-.28l-.28-.07-.42-.28-.21-.42-.35-1.04-.28-.55-.48-1.25Zm2.15.55l-.14-.35.35.14.48.14h.55l.83,1.66,1.04,2.15.07.07-.14.07h-.35l-.42-.14-.48-.21-.35-.28-.21-.28-.83-2.01-.42-.97Zm2.35.21l.35.14.48.14h.55l.55,1.04.55,1.18.83,1.94h-.21l-.35-.07-.42-.21-.42-.28-.21-.21-.14-.28-.21-.35-1.38-3.05Zm8.58,5.81h-.42l-.69-.28-.35-.28-.21-.28-2.08-3.53-.35-.69-.07-.21.14.07.21.14.21.07h.55l3.05,4.43v.55Zm2.22.28l-.42-.07-.28-.21-.42-.28-3.05-4.43.48.21.62.07h.28l3.32,4.71h-.55Zm4.36.83l-.07.07-.42.14-.28.07h-.28l-.55-.14-.42-.28-.42-.42-3.25-4.01-.14-.28-.21-.48v-.21h.07l.28.14.35.07.69.35.62.48.97,1.04,1.38,1.45,1.66,1.87v.14Zm5.05.55l-.07.14-.21.14-.21.07-.28.07h-.62l-.69-.14-.69-.28-.28-.21-.42-.28-.97-.9-3.88-4.15-.21-.35-.14-.35v-.21l.07-.21.14-.07h.14l.28.07,7.61,5.75.28.28.14.28v.35Zm4.71-1.11l-.14.21-.14.14-.28.21-.42.14-.42.07h-.42l-.42-.07-.83-.28-.69-.42-6.78-4.71-.14-.21-.14-.35v-.28l.07-.14h.28l9.97,4.5.21.14.21.21.07.35.07.28-.07.21Zm3.12-3.53l-.14.42-.21.35-.28.28-.42.28-.69.28h-.76l-.35-.07-.55-.21-9.41-3.88-.28-.55.55-.28,3.25.83,3.39.83,2.84.62,2.7.48.28.28.07.21v.14Zm1.94-2.84l-.07.28-.14.28-.55.42-.35.14-.42.07-.48.07-1.11-.14-10.24-1.94-.28-.35v-.21h12.46l.35.07.28.07.21.14.14.14.07.21.14.35v.42Zm.97-4.15l.07.35-.07.35-.14.21-.21.28-.21.14-.35.21-.42.14-1.38.28h-10.66l-.14-.07-.07-.07v-.21l.07-.21.14-.21.14-.07,12.18-1.66h.35l.21.07.28.21.21.28Zm-1.52-3.88h.21l.28.07.42.28.14.21.07.35v.42l-.21.35-.28.35-.35.14-.28.14-2.08.42-2.15.35-3.39.48-3.25.35.28-.42v-.42l10.31-2.98.28-.07Zm-2.01-2.77h.42l.42.07.35.21.21.28.07.21v.48l-.07.28-.14.21-.21.21-.21.14-.28.14-9.14,2.77h-.28l-.07-.07-.07-.14.07-.21.07-.14,8.86-4.43Zm-2.77-2.77l.42-.14h.48l.42.14.21.14.14.14.14.21.07.21.07.28v.21l-.07.42-.21.35-.28.28-7.2,3.88h-.28v-1.11l6.09-4.98Zm-1.94-2.22l.28-.14h.55l.28.14.28.28.14.35v.35l-.14.42-5.54,4.98h-.55l.07-.35v-.21l-.07-.28-.14-.35-.14-.21,4.98-4.98Zm-5.54,6.92l.35.35.21.35v.42l-.14.21-.14.14-.28.14-.28.07-2.77-.55-3.12-.55h-.21l.14-.21.14-.35v-.28h1.18l2.49-.07,1.59.07.35.07.21.07.28.14Zm-1.11-2.42l.28.07.21.14.21.28.14.28v.35l-.14.07-.07.14h-.14l-2.84.14h-.76l-1.45-.07.07-.21.07-.42v-.28l.14-.28.28-.14h.21l.97.07h1.18l1.11-.14h.07l.28-.07.21.07Zm2.28-4.36l-.14.21-.07.28-.42.42-.55.42-.69.42-.35.07-.42.14-1.38.14-5.68.21-.42-.07-.28-.14-.21-.14-.14-.21.07-.14.14-.14.21-.14,9.28-2.01h.42l.35.07.14.07.14.28v.28Zm2.08-4.85l.14.14.07.28v.21l-.07.35-.14.42-.21.35-.28.28-.35.28-.69.42-.83.28-7.96,2.08-.28-.07-.35-.07-.21-.21v-.28l.14-.07,9.9-4.64.28-.07.28.07.35.14.21.14Zm-.62-4.57l.14.07.21.35.14.83-.07.48-.28.69-.14.21-.28.35-.35.28-.48.28-9.14,4.57-.55-.21.14-.55,2.77-1.94,2.84-2.01,2.28-1.73,2.22-1.73.14-.07.42.14Zm-2.28-3.53l.21-.14.28-.07h.21l.14.07.42.14.28.28.14.21.14.28v.35l-.07.35-.14.42-.21.35-.28.42-.76.76-8.24,6.44-.42-.07h-.14v-.21l.14-.07.21-.21,7.82-9,.28-.28Zm-2.08-2.77l.21-.21.21-.14.35-.07.35.07.28.14.21.28.14.21v.62l-.07.35-.21.42-.28.62-.42.62-.48.62-6.51,7.41-.07.07h-.14l-.28-.28-.07-.28.07-.14,6.71-10.31Zm-2.98-1.52l.28-.42.28-.14.21-.14h.48l.35.14.21.28.21.42v.76l-.14.35-1.11,1.8-1.11,1.87-1.87,2.91-1.8,2.63-.07-.21-.14-.21-.28-.28,4.5-9.76Zm-3.25-.55l.28-.35.28-.28.42-.07h.35l.21.07.21.14.28.42.14.55v.28l-.14.28-3.88,8.72-.21.21h-.07l-.14-.07-.14-.14-.07-.21,2.49-9.55Zm-3.95.28l.07-.21.14-.21.28-.35.42-.28h.21l.21-.07.28.07.21.07.21.14.14.14.28.35.14.35.07.21v.21l-1.8,7.96-.21.21-.83-.76.21-7.82Zm-.76,8.65l.35.14.14.07.14.14.14.28v.21l-.07.28-.14.28-2.28,1.73-2.56,2.15-.07-.28-.07-.14-.14-.21-.21-.14,2.15-2.49,1.32-1.52.28-.21.21-.14.28-.07h.21l.35-.07Zm-2.08-8.93l.21-.28.42-.28h.42l.35.07.28.28.21.35.14,7.48-.35.42-.21-.28-.42-.28-.35-.14h-.28l-.48-7.06.07-.28Zm-3.6,11.35l.14-.21.55-.55.55-.62.55-.69.55-.83.21-.21.21-.14.28-.07h.35l.28.07.28.28v.28l-.07.07-3.05,3.95h-.07l-.14-.07-.14-.21-.21-.28-.28-.28-.07-.21.07-.28Zm-.14,3.12l.21.07.14.14.14.21v.28l-.14.35-.28.35-1.59.55-1.25-.62,2.56-1.32h.21Zm-1.73-1.66l.55-.21h.28l.14.07.21.07.21.28.07.14-.14.28-.07.07-3.46,1.8-.97-.28,3.18-2.22Zm-5.26,9.55l.14-.07h.14l.28.07.21.14.07.14.21.35.35.83.14.28.42,1.04v.21l-.14.28-.14.07h-.28l-.14-.21-.42-.76-.28-.69-.07-.14-.07-.28-.35-.76-.07-.21v-.28Zm-1.66-.55l.55.28.55,1.38.07.21.42.83.35.9-.14.21-.14.07h-.28l-.14-.07-.07-.07-.9-1.8-.35-.9-.21-.76.28-.28Zm-2.22,0l.21-.21.14-.07.14.07.35.21.28.28.07.14.21.76.28.76.55,1.11-.07.14-.07.07-.14.07h-.14l-.14-.07-.28-.21-.42-.76-.42-.9-.55-1.32v-.07Zm-1.8.07l.14-.07.21-.07.42.14.21.21v.07l.55,1.32.48,1.04.07.14-.07.28-.21.21-.21.07h-.21l-.21-.14-.21-.21-.42-.69-.42-.97-.21-.9-.07-.14.14-.28Zm-1.38.42l.14.07,1.45,2.91v.14l-.35.07-.28-.07-.35-.14-.21-.14-.07-.21-.48-.9-.83-1.38v-.28l.48-.28.48.21Zm3.46-29l.35-.48.14-.28.07-.35.07-.48v-.42l-.07-.42-.14-.35-.21-.55-.21-.28.62.14.76.21.76.35.9.42.83.48.62.48.62.55.42.42.14.21.07.14.07.21v.35l-.07.21-.21.28.83.62.21.28.28.35.21.48.14.48.07.42v.35l-.14.83-.28.69-.21.28-.55.42-.14.14-.14.21-.07.28v.28l.07.28.21.21.21.07.35.07.35.21.28.28.14.21.14.35.07.21-.07.21v.42l.14.42.28.35.35.35.21.28.14.28.28.69.14.42.14.55v.42l-.07.28-.14.07-.07.07h-.14l-.14-.07-.35-.35-.76-.97-.35-.55-.42-.97-.07-.42-.21.62-.14.97v.55l.07.48.28.42.28.21.28.07-.28.55-.28.21-.28.07h-.35l-.21-.07-.28-.21-.21-.28-.07-.28v-1.11l-.07-.35-.07-.48-.14-.55-.28-.55-.28-.48-.28-.35-.55-.55.14-.14.21-.35.14-.42.07-.48v-.35l-.07-.35-.21-.42v-.14l.07-.21.07-.14.14-.07.21-.07h.14l.21.07-.07-.21v-.14l.07-.21.14-.21.14-.07.14-.14.28-.21.21-.35.21-.42.07-.35v-.35l-.07-.42-.42-.42-.28-.21-.42-.21-.48-.21-.48-.07h-.69l-.55-.55-.21.28-.07.14v.14l.28.28.07.14v.35l-.07.35-.07.42v.35l.07.35.21.42.21.35.28.21.14.14-.07.28-.07.14-.14.14-.14.07-.21.07-.35-.07-.42-.14-.28-.21-.42-.42-.14-.42-.14-.48-.21-.42-.35-.35-.42-.14h-.42l-.35.07-.21.14-.14.07-.28.35-.21.35-.07.35v1.04l.21.69.14.35.21.28.28.28.28.21.69.28.35.07.35.21.55.55.28.55-.35.14-.28.14-.21.28-.14.42v.35l.07.21.07.14-.35-.28-.48-.28-.48-.14-.42-.07-.42.07-.35.07-.55.21-.28.14-.48.35-.28.42-.21.35-.14.28.07.55.28.9.14.48.55.97.35.42.35.28.21.14.28.14.83.14.35-.07.21-.07v.28l-.07.55-.14.62-.14.28-.48.48-.35.28-.42.28-.42.14h-.21l-.55-.14-.21-.14-.28-.21-.62-.62-.28-.42-.83-1.52-.83-1.94-.42-1.11-.28-1.11-.28-1.18-.14-1.18-.07-1.11v-.62l.07-.55.07-.62.42-1.25.35-.55.48-.62.55-.55.62-.48.48-.28.55-.35,2.01-1.04.83-.55.28-.21.28-.35Zm-5.47-.62l.21-.07.28-.14.28-.28.35.14.21.07.28.07h.42l.28-.07.42-.21.42.21.35.07h.35l.48-.07.42-.14.35-.21.14-.14-.21.48-.35.62-.35.42-.35.28-.69.42-2.49,1.38-.48.35-.42.35-.35.35-.48.55-.35.55-.42.69-.28.76-.14.55-.14,1.11v.97l.14,1.04.14,1.18.28,1.25.28.97.28.83.35.83.35.69.07.35v.21l-.07.14-.14.14h-.07l-.07-.07-.14-.21-.62-1.32-.48-1.18-.14.07-.14.21-.07.21v.28l.07.35.62,1.59.48,1.11.42.69.14.21.69.9.97,1.04-.07.21-.14.28-.28.35-.35.28-.21.14-.35.14-.42.07h-.21l-.21-.07-.21-.14-.14-.21-.07-.21-.07-.28-.07-.35.07-.28.07-.42.14-.35-.21-.07-.42-.21-.55-.55-.21-.28-.14-.35-.14-.28-.07-.62v-.42l.07-.28-.21-.14-.28-.28-.35-.42-.28-.55-.07-.48v-.35l.07-.55-.14-.21-.35-.69-.07-.48v-.48l.07-.42.21-.48-.14-.07-.14-.28-.21-.28-.07-.28v-.35l.07-.28.14-.35.14-.21.21-.14-.14-.21-.14-.35-.07-.48v-.28l.07-.35.21-.42.21-.35.28-.21.14-.14-.21-.21-.14-.28v-.35l.07-.28.14-.21.21-.21.21-.07.28-.07-.14-.42v-.35l.07-.21.07-.14.55-.28.21-.28.07-.28-.07-.28v-.42l.07-.14.42-.28.28-.07.14-.21v-.55l.07-.28.07-.14.14-.14.21-.07h.21l.28.07h.42l.35-.07Zm-2.28-2.15h.55l.28-.28h.28l.14.14.14.21.14.28.14.21.28.28v.28l-.14.14-.14.07-.28.07h-.28l-.14-.07-.14-.21-.62-.62-.14-.07-.07-.14v-.28Zm-1.66,1.11l.07-.14.21-.14h.21l.28.07.28.21.35.28.21.28.07.28-.28.28h-.48l-.35-.07-.21-.14-.07-.07v-.28l-.07-.21-.07-.14-.14-.07v-.14Zm-.55,1.8l.42.21.14.21.07.21v.14l-.07.21-.14.21-.14.07h-.48l-.28-.07-.35-.21-.21-.21-.07-.14v-.21l.28-.28.28-.14h.55Zm-1.94-2.35h.21l.42.28,1.04.83v.28l-.07.14-.28.14h-.21l-.35-.14-.21-.14-.28-.28-.14-.35-.07-.28-.07-.21v-.28Zm-2.63,1.25l.14-.14.62.07.76.21.48.21.35.21.55.42-.28.28-.14.28-.07.21-.07.35h-.55l-1.66-1.11-.14-.14-.14-.42.14-.42Zm-2.35.97l.97.28.69.28.55.35,1.11.76v.55l.07.35.21.48-.35.21-.21.07h-.28l-.35-.07-.21-.07-.28-.14-.35-.21-.28-.28-.48-.55-.35-.55-.21-.35-.14-.35-.14-.48v-.28Zm-1.38,1.11l.28-.07.28.07.21.07.14.14.21.35,1.04,1.38.28.28.42.28.48.28v.55h-.55l-.55-.28-.48-.28-.35-.28-.28-.28-.42-.48-.35-.55-.35-.62v-.55Zm-.83,1.38h.28l.14.07.14.14.28.35.55.55.48.42.55.42.9.55.14.07.14.21.07.21v.48l-.07.07h-.14l-1.04-.55-.76-.48-.48-.42-.42-.35-.48-.55-.21-.42-.07-.21v-.55Zm-1.11,1.66l.14-.28.14-.21h.14l.28.42.48.55.55.62.76.55.83.48.69.28.07.07v.14l-.14.55-.07.07h-.14l-.83-.35-.76-.35-.55-.35-.48-.28-.21-.14-.35-.35-.35-.42-.14-.21-.07-.28v-.55Zm-1.45,1.32l.07-.21.14.07.21.07.42.35.76.55.97.62.76.42.76.28.62.28.62.14-.28.55-.62-.07-.76-.21-1.25-.42-.55-.21-.42-.21-.55-.35-.55-.48-.28-.42-.07-.42v-.35Zm-.48,2.01l.07-.14.07-.07.14-.07.48.35.55.35.69.35.76.35,1.38.42,1.11.14-.14.21-.14.35v.28h-.48l-.69-.07-.76-.21-.83-.28-.76-.42-.62-.42-.83-.83v-.28Zm-1.11,1.38l.14-.21.14-.07.48.42.62.42.76.42.9.42.83.28.69.14.69.07.55.07-.21.28-.14.28-.28.21-.07.07h-.14l-.76-.14-.9-.21-.97-.35-.97-.42-.62-.42-.48-.42-.28-.55v-.28Zm-.83,1.66l.14-.21.14-.07,1.11.69.62.35.76.35.97.35,1.66.42.69.07.07.21v.14l-.07.21-.14.21-.14.07-.97-.14-1.52-.35-.83-.21-.76-.28-.97-.48-.42-.42-.21-.28-.14-.35v-.28Zm-1.11,1.94l.28-.42.28-.14.83.55.55.28,1.32.42,1.45.42,1.11.28-.83.83-1.45-.35-1.59-.48-1.38-.55-.21-.07-.28-.28-.07-.21v-.28Zm-.9,1.52l.07-.14.14-.07h.28l.14.07,1.04.42,1.18.42,1.45.35,1.32.21-.55.83-1.32-.21-1.45-.35-.9-.28-.76-.28-.28-.14-.28-.42-.07-.28v-.14Zm-.48,1.52l.35-.14.97.48,1.18.48,1.18.35,1.04.14.07.14-.21.21-.14.28-.07.21.07.21-.14.14-1.18-.35-1.73-.48-.48-.21-.28-.14-.35-.21-.35-.28-.21-.28.28-.55Zm-.55,2.22l.28-.28.62.28.76.28,1.66.42,1.38.14-.28.28-.21.28-.07.28-.62.07-.76-.07-.42-.07-.55-.14-.62-.28-.35-.14-.55-.42-.28-.42v-.21Zm-.28,1.66h.28l1.32.42.69.21.97.14.9.07.14.07v.14l-.14.35v.35l-.07.14-.21.07-1.11-.14-.83-.14-.76-.21-.48-.14-.21-.14-.42-.69-.07-.28v-.21Zm4.15,3.05l-.28.28-.48.14-.62.07-.69-.07-.69-.14-.42-.21-.35-.21-.21-.21-.14-.21v-.28l.14-.07.14.07.76.14.9.14h1.66l.28.55Zm-3.6,1.11l.83.21.55.07h.55l.97-.07.69-.21.55.55-.69.35-.76.21-.62.14-.62.07h-.55l-.48-.07-.42-.14-.28-.28-.14-.21-.14-.35.55-.28Zm-.48,2.49l-.07-.07v-.21l.83-.28,1.04.07,1.18-.07.55-.07.42-.14.69-.35.14.21.14.35v.28l-.55.28-.62.21-.76.21-.83.14h-.97l-.62-.14-.21-.07-.14-.07-.21-.28Zm-9.97,42.23l.48-.14.69-.07.69.07.42.07.35.14.55.35.42.35.21.21-.48.07-.62.21-.42.21-.28.21-.42.42-.35-.55-.48-.55-.48-.42-.62-.42.35-.14Zm5.47,6.51l.35.42.35.48.35.62.35.69.42,1.25.14.97-.28.07-.28.21-.28.28-.14-.48-.14-.55-.28-.55-.28-.62-.55-.83-.55.62-.55.76-.35.55-.21.55-.83-.83.14-.42.21-.55.28-.62.48-.62.9-.9.42-.28.35-.21Zm-.28-4.15l.48.07.69.21.76.28.83.55.48.42.42.48.28.42.21.35-.62-.14-.76-.14h-1.38l-.07-.48-.21-.62-.28-.48-.28-.42-.28-.28-.28-.21Zm-1.11,9.97l.28-.55.21-.28.21-.21.42-.35.28.35.28.48.21.42.07.42-.55.55-.35.42-.21.42-.07-.42-.21-.42-.28-.48-.28-.35Zm.28,2.49l-.55.83-.55,1.11-.42-1.32-.35-.69-.35-.76-.55-.97-.55-.83-.55-.69-.55-.55.42-.07h.35l.35.07.35.14.21.14.42.35.48.42.55.48.48.69.48.9.35.76Zm.28-9.14l-.83.55-.69-.55-.97-.55-.76-.35-.62-.21.35-.55.48-.55.42-.42.48-.42.76-.55.28.28.42.35.35.48.35.55.21.48.21.42.14.76-.55.28Zm-6.85-4.15l.48-.28.35-.14.48-.14h.28l.21.07.28.14.28.21.48.55.42.69-.42.35-.42.48-.35.42-.21.42h-.28l-.48.14-.35.14.07-.48v-.28l-.14-.69-.14-.28-.35-.48-.55-.55.35-.28Zm-3.67,4.71l.14-.48.21-.48.35-.62.42-.62.69-.83.69-.55.42.42.42.69.21.42.07.42-1.04.35-1.18.48-.76.42-.62.42Zm3.05,3.32l-.42-.62-.35-.42-.35-.35-.55-.48-.55-.35.9.07,1.04.21,1.11.42.83.42-.21-.28-.35-.42-.55-.48-.83-.48-.48-.14-.42-.07-.76-.07.48-.28.48-.21,1.25-.35,1.38-.28,1.04.21,1.18.35,1.25.55.97.55-.55.62-.55.76-.35.55-.21.55-.48-.14-.62-.14h-1.11l-.14.21-.14.35v.55l-.48-.28-.62-.28-.83-.28Zm1.11,1.94l.48.28.55.35.62.48.55.55.48.62.35.55.28.62.28.69.42,1.18.21.76.21.83-.28.62-.48-.9-.62-.9-.76-.97-.9-.9-.28-1.11-.35-1.04-.42-.9-.35-.83Zm4.49,14.67l-.06-.2-.28-1.18-.62-1.87-.48-1.18-1.04-2.08-.14-.21.14.42.55,1.87.28,1.18.42,1.87.22,1.38h-1.25v-.07l-.07-.97-.14-1.04-.28-1.25-.35-1.11-.42-1.18-.48-1.25-.62-1.18-.55-1.04-.62-.97-.62-.83-.62-.76-1.04-1.11.9.48,1.04.55,1.11.76,1.11.9.62.62.62.69.14.14.55.69.48.69.76,1.32.42.76.69,1.73.07.21.42,1.59.32,1.59h-1.16Zm6.87-10.59l1.04-.69.9-.48.83-.42-.55.55-.62.69-.62.83-.69.97-.69,1.11-.62,1.18-.62,1.38-.48,1.45-.07.14-.21.83-.35,1.18-.14.97-.14.9h-1.47l-.05-.27-.28-1.04-.55-1.87-.07-.21.42-1.04.97-1.8.62-.9.69-.9.21-.28.76-.83.83-.69.97-.76Zm1.59-5.54l-1.04,1.32-.97,1.59-.48.9-.76,1.52-.28.28-.62.55-.97,1.11-.42.62-.69,1.11-.62,1.04-.69,1.45-.62-1.32.69-1.94.62-1.52.48-.97.76-1.32.48-.76.55-.76.62-.69.69-.76.69-.62.69-.48.83-.55,1.04-.48.9-.35-.9,1.04Zm.9-1.87l-1.11.28-.69.28-1.11.55-.42.28.21-.48.35-.62.42-.48.42-.35-.48.07-.28.07-.35.14-.42.28-.35.35-.21.28-.14.21-.21-.62-.35-.76-.28-.48-.28-.35.9-.28,1.04-.28.9-.14h.83l.69.07.62.07.14.35.14.48.07.62-.07.48Zm-2.35-5.54l.48.21.48.28.55.35.42.35.28.35.48.76.35.62.14.42-.21-.21-.28-.21-.42-.21-.48-.21-.35-.07h-.28l-.48.07-.35-.62-.48-.76-.42-.48-.48-.42-.42-.28-.35-.21h.48l.83.14.48.14Zm-3.12-2.42l.76-.07.48.14.28.14.35.28.28.35.14.35.14.42-1.04-.28-1.18-.28-1.18-.21-1.04-.07.48-.28.62-.28.48-.14.42-.07Zm9.62-15.64l-.14.69-.14.21-.21.35-.35.48-.28.55-.55-.55-.07-.21.07-.35.07-.42-.07-.42-.07-.21-.21-.35-.28.28-.07.14v.48l.07.35v.42l-.14.42-.14.35-.28.35-.35.28-.14.14-.07.14-.07.28.07.28.28.55.28-.07.28-.21.28-.28.14-.21.21-.21.21-.14.21-.07h.14l.21.07.35.21.21.28.21.42.07.48-.48-.07h-.28l-.69.14-.28.14-.48.35-.55.55.21.14.21.21.21.35.21.42.07.28v.28l-.07.55-.14.48-.14.42-.28.48-.28.35-.21.21-.28.21-.35.35-.28.42-.55.97-.28.55-.35.62-.07.14-.14.07-.28.07h-.14l-.14-.07-.07-.14v-.14l.07-.28.28-.55.07-.28.07-.35v-.28l-.07-.14-.07-.07-.14-.07h-.14l-.28.07-.21.14-.28.55-.07.35-.14.28-.14.35-.55.55-.42.21-.42.07-.69.07h-1.04l-2.98-.07-.21-.35-.35-.48-.35-.28-.48-.28.28-.28.14-.21.07-.21.07-.42.07-.21.14-.21.28-.21.35-.21h1.38l.76-.07h.28l.69.14.48.21.48.28.35.28h.48l.28-.14.35-.14.35-.28.21-.28.28-.48.14-.42.14-.48-.55-.55-.07.35-.28.62-.21.35-.21.28-.28.21-.35.14h-.28l-.35-.28-.48-.28-.35-.14-.28-.07-.76-.07h-2.22l-.55.28-.35.14-.21.14-.14.14-.14.42-.28.55-.21.28-.35.28-.21-.28-.35-.28-.28-.14-.21-.07-.35-.07.35-.28.21-.28.28-.55.21-.35.21-.14.14-.07h.55l.55-.28.42-.14h.76l.48-.14.21-.14.69-.28.48-.14h.83l1.25.07h.42l.28-.07.83-.83.76-.83.35-.55.14-.35.07-.42.07-.62v-4.43l.07-.42.07-.21.14-.21.28-.21.28-.07.21,1.04.07,1.18v1.11l1.11-2.22.55-1.18.55-1.32.55-1.38.42-1.38.69-2.49v3.6l.14,2.01.14,1.87.28.55.28-.28.28-.21.28-.07v.48Zm1.45-16.82l.35.35.35.48.35.55.14.42.14.35.07.76v.62l-.07.62-.35,1.87-.62,2.42-.9,3.05-1.18,3.46-.07-1.59v-1.32l.07-2.08v-.83l-.14-.83-.14-1.11-.07-.42-.14-.35-.14-.28-.21-.07-.14.07-.21.14-.28.69-.35.97-.42,1.18-.55,2.01-.28.9-.28.97-.48,1.25-.35.97.83-8.86.28-2.77.07-.42.14-.69.14-.42.42-.83.35-.42.62-.62.62-.42.55-.21.42-.14-.35-.14-.48-.14h-.76l-.62.21-.42.28-.14.07.35-.35.35-.42.48-.35.55-.42.69-.28.69-.14.42-.07.69.14.28.14.55.35.55.48.48.69.35.76.28.83.14.9.04.54.03.15v.35l-.03-.5-.11-.47-.14-.35-.21-.42-.28-.42-.35-.35-.55-.42-.55-.28-.48-.07-.35-.07.35.28Zm41.19,22.64l-.14,1.32-.21,1.04-.21.76-.35.97-.42.97-.48.9-.55.9-.55.76-.62.76-1.25,1.38-1.25,1.11-1.11.9-.83.62-.62.42-1.25.69-.97.42-1.04.35-.35.21-.28.28-.35.55-.21.28-.28.28-.28.21-.28.07-.97.21-.48.14-.48.21-.55.28-.48.35-.42.42-.69.83-.28.42-.48.9-.35.83-.21.69-.14.83-.07.83v.62l.07.48.07.35v.35l-.07.42-.14.28-.14.21-.35.35-.35.21-.14.07v-.28l-.07-.21-.07-.07-.14-.28v-.21l.14-.14.14-.21.07-.14.14-.35.14-.42v-.21l-.07-.28-.28-.55-.28-.28-.14-.35-.14-.48-.07-.55v-1.8l.14-1.11.14-.9.21-.69.28-.55.28-.48.35-.35.35-.21.62-.28.69-.28.42-.21.35-.21.35-.28.35-.42.42-.69.28-.48.42-.48.62-.69.48-.42-1.25-.28-1.52-.55-.76-.35-.62-.35-1.11-.69v1.73l-.21,1.04-.14.55-.21.55-.28.62-.28.42-.28.48-.28.69-.21.62-.21.97-.14.55-.07.62v.69l.07.69.14.83.14,1.11v1.11l-.07.48-.21.35-.55.28-.28.28-.21.28-.14.28-.07.35v.76l.07.35.14.42.21.35-.83,1.04-.9,1.04-1.04,1.04-1.11,1.04-.97.9-.97.76-.07-.14-.21-.14-.21-.07h-.14l-.21.07,3.6-5.26.28-.42.28-.48.28-.62.28-.69.21-.83.07-.76v-1.18l-.28-1.18-.21-1.04-.07-.9v-.76l.07-1.18.21-1.87.42-3.32v-2.98l-.14-2.01-1.94-1.52-2.08-1.87-2.15-2.01-1.04-1.18-1.11-1.18-1.04-1.25-.97-1.18-1.8-2.35-1.52-2.28-1.32-2.08.28-.55.28-.83v.35l.28.55.28.21.42.14h.35l.21-.07.14-.07v.55l.07.42.21.42.28.35.28.21.42-.07.42-.21,1.04,1.52,1.11,1.52,1.18,1.38,1.11,1.25,1.04,1.11,1.04.97.9.62,1.11.62.62.35.69.28.69.21.76.21.83.21.76.07h1.38l1.11-.14.97-.21.07-.62v-1.66l-.07-.97-.21-1.38-.35-1.25-.35-1.04-.35-.76-1.25-1.45-1.38-1.66-1.38-1.8-1.38-1.87-.62-.9.07-.14.42.07h.35l.35-.07.55-.28.28-.28.21.07.28.07.42-.07.48-.07.21-.07.28-.14.62-.62.28.21.21.07h.35l.21-.07.14-.07.21-.14.42.21.35.07h.35l.48-.07.28-.07.35-.14.21.28.21.14.28.21.35.14.35.07h.35l.35-.07.42-.21.28.28.55.42.55.14h.42l.28-.07.42-.21.42.42.42.28.55.14h.42l.28-.07.42-.21.42.42.42.28.55.14h.42l.28-.07.42-.21,1.38,1.11,1.25,1.11.97,1.04.83.9.69.76.62.83.62.97.55,1.04.35.76.42,1.04.21.69.21.62.14.76.14,1.66-.07.76Z"/>
        <path class="cls-2" d="m207.82,80.12l-.14-.42-.14-.35-.28-.28-.21-.28-.48-.42-.42-.21-.48-.28-.48-.14-.55-.14-.42-.07h-.83l-.55.07-.62-.35-.48-.14-.55-.07h-1.11l-.48.28-.62.55-.35.28-.35.42-.69.97-.28.55-.21.55-.14.55-.14.48-.07.83v1.04l-.28.42-.14.14-.21.07-.48.07-.21.07-.28.14-.42.35-.28.28-.21.28-.28.48-.14.48-.07.42-.14.55-.21.28-.76.9-.9,1.04-1.11,1.11-.28-.28.28-.21.21-.28.07-.35v-.35l-.07-.28-.21-.28-.28-.21.21-.28.07-.21v-.35l-.07-.35-.21-.28-.28-.21.21-.28.07-.28v-.28l-.07-.35-.14-.28-.28-.28-.35-.21.14-.42v-.28l-.14-.42-.21-.35-.21-.28-.42-.21.07-.35v-.21l-.07-.28-.07-.35-.48-.48.14-.42v-.28l-.14-.42-.21-.35-.21-.28-.42-.21.07-.21-.07-.35-.14-.28-.14-.14-.28-.14.14-.28v-.28l-.14-.28-.28-.42-.55-.14.14-.28v-.28l-.14-.28-.28-.42-.55-.14.14-.28v-.28l-.14-.28-.28-.42-.55-.14v-.35l-.07-.21-.42-.55-.28-.14-.35-.14v-.35l-.07-.21-.42-.55-.28-.14-.35-.14v-.28l-.07-.28-.21-.28-.21-.21-.28-.07h-.35v-.28l-.07-.28-.21-.28-.21-.21-.28-.07h-.35v-.35l-.07-.21-.21-.28-.21-.21-.55-.14-.35.07v-.28l-.07-.28-.21-.28-.21-.21-.28-.07h-.35l-.14-.35-.14-.28-.28-.21-.35-.21-.35-.07h-.42l-.07-.28-.21-.28-.14-.14-.21-.07-.35-.07h-.42v-.28l-.28-.42-.28-.14-.28-.07h-.21l-.35.07-.07-.35-.21-.28-.28-.21-.14-.07-.21-.07h-.35l-.28.07-.14.07-.14-.28-.14-.14-.28-.14-.35-.14h-.35l-.28.07-.14.07-.21-.28-.21-.21-.42-.07h-.28l-.28.07-.28.21-.83,2.49-.07.14-.07.07-.14.07h-.28l-.07-.14v-.21l.07-.48.21-.55.07-.28.07-.35-.07-.48-.28-.55-.55-.83-.35.21-.48.35-.55.55.07-.28-.07-.28-.14-.42-.28-.35-.21-.21-.21-.14v-1.94l.14-1.18.14-1.04v-.35l-.07-.21-.21-.28-.14-.14-.14-.07-.28-.07-.48.35-.42.28-.48.35-.48.48-.42.62-.42.69-.35.83-.14.55-.07.48v.97l.14.76.07.55.21.62.07.48v.55l-.07.42-.21.42-.14.21-.14.07h-.07l-.28-.28-.21-.28-.55-1.11-.21-.35-.35-.48h-.28l-.42.28-.14.28-.14-.07h-.21l-.21.07-.21.21-.07.21v.14l-.21-.07h-.14l-.21.07-.21.14-.28.42-.07.28-.28-.14-.28-.07-.28.07-.28.14-.14.14-.14.42-.28-.14-.28-.07-.28.07-.28.14-.14.14-.14.42h-.28l-.28.07-.28.21-.07.14-.14.21-.07.21h-.28l-.28.07-.28.21-.07.14-.14.21-.07.21-.42.28-.14.28v.55l-.42.28-.14.28v.55l-.21.14-.21.21-.14.21-.07.28v.28l.07.28,1.94.55-.14.55-.07.35-.07.48.07.35.07.28.14.48v.48l-.14.07-.14.28v.21l.07.14.21.21h.28l.14.07.07.14.07.35v.28l.28.28h.55l.07.07v.07l-.14.28-.14.14-.62.28-.55.28-.14.21v.21l-.14.69-.14.62-.14.48-.42.83-.14.14-.28.42-.14.42-.07.42-.07.55v.83l.07.28.28.42.21.14h1.11l.48.14.35.14.48.28.35.28.28.14.42.14.55.14.42-.14.14-.14.42-.69.14-1.25.14-.69.21-.55.14-.28.21-.28.42-.42.21-.14h.21l.28.14v.14l.07.21.07.28-.07.48-.14.42-.21.28-.28.62-.14.35-.14.42.07.07.07.14.14.07h.55l.35-.07.14-.07.35-.14.21-.35.14-.42.21-.48.28-.42.48-.42.42-.28.76-.42.35.07.28.07.62.42.14.28-.07.42-.14.42-.35.55-.21.42-.55.55-.35.14h-.55l-.21-.07-.35.07-.14.14-.21.14-.21.28v1.11l.28.97.21.48.35.48.28.28.48.42.35.21.42.21.48.21.48.07h1.04l.28.14.14.28v.21l-.14.42-.14.07-.21.14-.97-.14-1.18-.14-1.32-.07-1.52.07-1.45.21-1.25.28-.35-.21-1.25-.76-1.25-.83-1.25-.97-1.32-1.11-.97-.97-.83-.97-.69-.83-.55-.76-.55-.28h-.42l.55-7.41-.21-.21-.28-.35-.28-.21-.55-.28-.42-.07-.35-.07-.83.21-.42.14-.21.14-.14-.14-.35-.28-.55-.21-.28-.07h-.69l-.35.07-.48.21-.28.21-.21.21-.21-.21-.55-.35-.35-.14-.42-.14h-.48l-.48.07-.55.14-.42.28-.28.21-.21.21-.21-.07-.48-.14h-.9l-.35.07-.69.35-.28.21-.28.28-.42.62-.28.07-.42.14-.48.14-.48.35-.35.35-.28.42-.21.35-.14.35-.14.69v.35l-.28.14-.35.21-.35.28-.55.83-.14.35-.14.69-.07.55.07.35-.28.21-.28.35-.35.48-.21.62-.14.55-.07.48.07.48.07.42.21.69.21.35-.28.42-.21.35-.14.35-.07.21v.55l.07.48.21.48.28.55.35.42.42.48.55.42.62.35v.83l.07.55.21.55.35.69.42.48.48.42.55.35.48.21.83.28.14.42-.76-.07-.21.07-.35.21-.28.28-5.26-5.26h-.69l-.28.07-.35.07-.28.21-.35.21-.21.28-.21.21-.28.55-.07.42-.07.21h-.21l-.42.14-.48.28-.28.14-.28.28-.28.55-.21.48-.07.42v.21l-.28.07-.62.14-.69.42-.35.35-.28.42-.21.55-.07.42v.69l-.21.14-.35.28-.42.35-.21.28-.21.35-.14.42-.07.35v.69l.14.48.07.28-.14.28-.14.35-.21.48-.07.55.14.97.21.42.14.35.42.48.21.28v.28l-.07.42v.42l.07.55.14.42.21.35.42.55.35.42.28.21.07.35.07.48.14.55.28.55.35.42.42.42.35.28.35.21.69.28.35.07.14.48.14.42.14.28.14.21.42.35.42.28.48.21.55.14h.62l.62-.07.69-.14.62-.21.28.28.35.28.48.35.55.21.76.14h.69l.62-.07.55-.21.48-.21.42-.21.35-.28.69.35.42.14.55.07.62-.07.48-.07.48-.21.42-.28.55-.48.21-.28.35.14.21.07.28.07h.28l.28-.07.42-.14.28-.21.14-.14.35.14.21.14h.62l.28-.14.42-.28.28-.28.07-.14.21.14.35.14h.55l-.97.9-.83.9-.69.83-.55.69-.69,1.11-.69,1.25-1.38,2.63-.62,1.38-.97,1.66-.62.83-.69.9-.48.35-.48.42-.48.35-.69.42-.97.42-.55.14-.62.07h-.62l-.55-.07-.62-.14-.55-.21-.48-.21-.48-.28-.9-.62-.69-.69-.55-.62-.62-.76-.28-.42-.76-1.52-.14-.55-.21-.55-.07-.55v-.35l-.07-.35-.14-.42-.28-.69-.42-.55-.42-.48-.48-.42-.42-.28-.35-.21-.83-.28-.48-.07-.76-.07.07.42.14.21.07.21.55.55.21.28v.28l.07.83.14.62.14.76-.35.07-.48-.07-.48-.14-.42-.28-.28-.21-.21-.21v1.11l.21.62.21.55.21.42.21.35-.21-.07-.35-.07h-.55l-.21.07-.35.07-.28.14-.62.62-.42.83-.07.35.35-.21.28-.07h.21l.21.07.35.21.83.55.35.14.48.14-.69.42-.48.28-.48.42-.21.28-.28.35-.35.48-.28.55.35-.28.48-.28.55-.21.42-.07h.69l-.21.14-.35.28-.42.35-.21.28-.21.35-.14.42-.07.35v.69l.14.48.07.28.21-.42.14-.21.21-.21.28-.21.28-.14.48-.14.42-.07h.21l-.28.55-.28.83v1.38l.14-.48.14-.28.14-.21.14-.14.42-.14h.21l.42-.28.35-.42.55-.55.21-.14.21-.07.35-.07h.35l-.55.55-.14.28-.07.21-.07.35.35-.14.48-.14.55-.07.48.07.42.14.48.14,1.32.48.9.35.62.21,1.38.28.76.07h.69l.55-.14.69-.14.83-.28.76-.42,1.25-.83.48-.48.42-.48.69-.83.55-.69.55-.97.62-1.11.28-.69.21-.69v1.11l-.28,1.32-.14.83-.14.9-.07,1.52v.97l.07,1.11.14.9.28,1.04.42,1.18.55,1.32.21.42.28.69.14.76v.42l-.07.48-.07.69-.21.48-.28.48-.28.42-.28.28-.55.42-.35-.07h-.35l-.42.07-.42.28-.21.35-.14.35-.07.14.07.48-.07.62-.07.48-.21.35-.14.69-.07.42-.07.55-.07,1.94-.21,2.22-.14,1.11-.21,1.11-.48,1.94-1.38,1.38h.83l.62-.14.48-.14.55,1.11-.55.28-.35.14-.48.14-.48.07h-.48l-.69-.07-.07-.21-.28-.35-.42-.28-.28-.21-.35-.07-.28-.07h-.28l-.35.07-.28.07-.28.14-.28.21-.21.14-.42.42-.28.35-.14.21-.14.28-.14.69.14.55.14.28.14.21.21.21.28.14.21.21.28.07v-.55l.14-.35.14-.21.28.28.55.28.28.07h.28l.42-.14.42-.21.28-.21.14-.07h.28l.14.07.28.21.48.28.28.14.35.14.55.14h.28l.28-.14.83-.83.21.21.42.35.28.21.28.14.35.14.42.07h.55l.48-.07.42-.21.35-.21.48-.42.21-.21.83.55,1.11.55h.42l.42-.07.35-.14.48-.07h.55l.69.28h.42l.42-.07.28-.07.97-.55.55-.14.83.14.55.42.28-.21.14-.07h.35l.14.07.21.21.42.21.42.14h.48l.35-.07.42-.21.21-.21.21-.42.28.21.28.35.21.28.07.28.07-.21.07-.35v-.42l-.14-.42-.07-.28-.21-.28-.42-.42-.55-.28-.69-.14-.55-.69-.55-.48-.42-.14-.42-.07-.35.07-.76.21-.62.21-.48.07-.48-.07-.28-.07-.35-.14-.55-.28-.62-.21-.55-.07h-1.04l-.62.21-.62.07h-.97l-.42-.07-.48-.07-.35-.14-.42-.28-.28-.42-.14-.35-.07-.35-.07-.28.14-1.04.14-.9.28-1.66.28-1.04.28-.9.35-.9.48-.76.62-.69.62-.55.69-.48.83-.48,1.04-.55.9-.42,1.52-.48.62-.28.69-.21.62-.35.69-.48.55-.42.62-.62.69-.76.62-.97.28.28.35.42.21.42.83-.07.69.07.55.14.42.14.76.35.69.48.62.55.48.69.42.69.28.69.28.76.14,1.52-.07.69-.14.55-.14.48v.28l.14.35.14.21.35.35.42.28.62.48.48.48.21.35.42.55.69.76.69.62,1.11.83.83.55-.83,1.94.48-.42.28-.21.35-.21.48-.21.35-.07.14.21.14.35.07.35-.07.21-.83.83-.21.07h-.28l-.62-.07-.55.07-.42.07-.42.14-.28-.28v-.14l-.21-.35-.35-.35-.21-.14-.35-.14-.21-.07h-.28l-.42.14-.35.14-.14.07-.35.07-.42.07-.28.21-.35.21-.21.21-.14.28-.14.35-.07.28.14.55.28.42.42.42v-.55l.28-.28.07.21.14.28.28.35.35.28.28.14.28.07h.55l.35-.07.28-.07.28-.14.21-.21h.55l.21.21.35.21.48.28.28.07.35.07h.42l.42-.07.55-.28.42-.28.14-.21.35.35.28.21.48.28.69.14.62-.07.62-.14.55-.21.69-.28.42-.28.21.42.14.21.21.21.48.21.48.07.48-.07.48-.21.42-.21.21-.07h.21l.42.07.28.14.28.21.62.21h.48l.48-.07.28-.14.21-.14.21-.21.07-.14.14-.14.14-.07h.21l.28.07.21.07.42.42h.14l.14-.07.14-.14.14-.07h.28l.28.14.55.42.35.07h.42l.55-.21.83-.55.14-.07.21-.07h.28l.21.14.21.21.14.21.07-.21-.07-.35-.07-.42-.35-.69-.21-.21-.28-.21-.55-.28-.69-.14h-.35l-.55-.35-.35-.14-.48-.07h-.62l-.48.07-.48.14-.62.07h-.35l-.35-.14-.55-.21-.62-.28-.35-.14-.55-.07h-1.04l-.42.07-.48-.07-.55-.14-.55-.35-.69-.48-.69-.69-3.6-5.54-.35-.62-.42-.69-.35-.83-.28-.9-.07-.69v-.62l.07-1.45.14-1.04.14-.69.14-.62.14-.97.14-1.11v-1.04l-.14-1.73-.07-1.11-.21-1.38-.14-2.08-.14-1.52,2.01-1.73,2.08-2.01,2.08-2.15,2.15-2.42,1.8-2.15,1.59-2.15,1.45-2.08,1.25-1.94.07.48.07.28.14.35.35.42.55.55.21.42.14.42v.35l-.14.35-.28.55.07.28.21.55.42.69.14.42.07.42v.21l-.14.42-.21.21-.28.14v.83l.28.69.28.42.55.55.28.35.21.35.35.97.48,1.18.35.9.21.35.21.28.21.21.21.14.42.21.21.14.21.21.14.21.14.28v.35l.14.42.14.35.28.35.21.28.48.42.14.14,1.18.21,1.04.07h1.66l.97-.07-1.32.42-1.18.55-1.11.76-.97.83-.97.97-.83,1.04-.69,1.18-.55,1.25h-1.11l-.62.14-.48.14,1.25.97.69.55.76.69.69.76.76.9.69.9.69,1.04.69,1.11.55,1.18-.69-.42-.83-.42-.9-.35-1.04-.28-.9-.14-.76-.14h-1.38l1.25.83.76.55.76.62.76.76.83.9.76,1.04.69,1.11.76,1.38.55,1.32.42,1.25.21,1.04.21.76.14.9.14.97v.14s-.48,0-.48,0v1.11h9.45v-1.11h-.55l.1-.69.07-.97.21-.9.14-.76.28-1.04.42-1.25.55-1.32.69-1.38.76-1.11.76-1.04.83-.9.76-.76.76-.62.76-.55,1.18-.83h-1.32l-.83.14-.9.14-.62.21-.69.21-1.11.48-.97.48-.76.55.35-.97.42-1.04.55-1.11.62-1.04.48-.69.62-.69.62-.55.69-.48.62-.42.62-.35.62-.21.55-.21.97-.28-.48-.28-.62-.28-.55-.21-.55-.07-.62-1.25-.76-1.11-.83-1.04-.97-.9-1.11-.76-1.18-.69-1.18-.48-1.32-.42h3.25l.21-.07.07-.21.07-.14v-.07l-.28-.55-.07-.35.07-.21.07-.14.14-.48.14-.55v-.42l-.14-.42-.55-.42-.55-.14-.42-.07-.21-.07-.21-.14-.07-.21-.21-.35-.21-.48-.14-.21-.21-.14-.28-.21-.55-.07-1.38-.28-.83-.28-.42-.28-.14-.14-.28-.14-.35-.14-.42-.07-.62-.07h-2.22l-.28-.55-.42-.62-.42-.48v-4.43l.07-.48-.07-.62-.14-.55-.21-.48-.21-.42-.28-.48-.21-.55-.14-.55v-.83l.07-.28.21-.42.07-.35v-.9l-.21-2.08-.62-4.01.28-.14.28-.42.14-.28-.14-.55h.35l.28-.07.21-.21.21-.28.07-.28v-.28l.28-.07.14-.07.14-.14.14-.21.14-.14v-.21l.28-.07.28-.21.35-.28.28-.35.21-.48.55-1.11.48-.83.62-.83.48-.48.35-.21.28-.28.28-.42.14-.35.14-.28.28-1.04.55-1.38.55-1.04.83-1.52,1.11-1.87,1.38-2.22.55-.55,2.08-1.25.42-.42.28-.35.14-.35.28-1.38v-.9l.07-.14.07-.21.14-.14.69-.42.9-.62.21-.21.14-.28v-.55l.14-.28.28-.28.28-.21.28-.07h.35l.14.07.21-.21.07-.14.14-.55-.21-.62-.21-.28-.21-.21.42-.07h.35l.35.07.42.21.21.28.14.21.07.14h.28l.14-.07.14-.21.14-.48v-.62l-.14-.55Zm-21.6,7.48v.21l-.07.21-.21.21-.55.42-.35.14-.62.28-.55.14-.42.07-.69.07-.69-.07-.07-.28-.21-.28-.28-.28.69-.07.76-.07.76-.21.83-.21.76-.28.62-.28.28.28Zm-.55-2.22l.28.55-.21.28-.35.28-.28.21-.35.14-.48.21-1.66.48-1.25.35-.07-.07v-.28l-.07-.21-.14-.28-.21-.21.14-.14,1.04-.14,1.11-.35,1.18-.48.97-.48.35.14Zm-16.13-13.15l-.07-.07-.14-.07.55-.28.28-.07h.21l.48.14.42.21v.14l-.07.28-.14.35-.35.35-.35.21-.35.07h-.42l-.07-.07-.14-.07-.07-.14v-.28l.14-.14.14-.07v-.07l.07-.14-.14-.28Zm.14,2.42l.07-.14.14-.21.83-.28,1.11-.28.35.07.28.07.62.42.14.28-.07.28-.21.28-.21.14-.35.07-.83.07-.35.07-.55.14-.21.07-.28-.07-.21-.14-.21-.21-.14-.42.07-.21Zm9.97,12.74l-.07.21-.14.07-.21.07-.62-.14-1.25-.55-.48-.28-.35-.28.28.07h.42l.48-.07.28-.14.21-.14.35-.28.21-.28.62.83.14.35.14.28v.28Zm.28,1.18l.21-.14.42.42.21.28.21.42.21.62.07.48-.42-.42-.28-.21-.83-.42-.42-.07-.28-.83h.55l.35-.14Zm-14.19,18.14l.55-.9.55-.76.14-.14.28-.14.28-.07.14.07.21.14.07.14.14.21v.21l-.07.35-.62.62-1.04,1.38-.35.21-.28.14-.28-.07-.28-.28.55-1.11Zm-1.38.55l-.28.28-.35.21h-.14l-.07-.07v-.42l.14-.62.14-.48,1.32-2.28.14-.07h.14l.48.48.14.21-.07.28-.21.55-.14.35-.28.42-.97,1.18Zm5.61-5.95l-.07.14-1.94,1.94-.28.07h-.28l-.28-.07-.14-.07-.14-.21v-.28l.97-1.25.42-.69.28-.28h.28l.83.28.28.14v.14l.07.14Zm4.36-14.81l-.35-.14-1.25-.55-2.01-.97.48-.97.07-.42.76.28.48.28.42.28.83.62.62.62.55.83-.07.14-.07.07h-.14l-.35-.07Zm.07,2.49l-.07.28h-.42l-.69-.28-.35-.28-.21-.28.55-1.11.28.14.28.28.35.42.14.28.14.55Zm-2.56-2.49l.21.14.07.14.14.21v.48l-.14.14h-.28l-.48-.21-.55-.35-.9-.55.28-.83,1.66.83Zm-.28,3.67l.28-.35.21-.28.07-.28.42.14.42.42.21.28.07.28.14.48-.07.42-.07.21-.35-.07-.48-.21-.35-.21-.28-.21-.48-.42.28-.21Zm-2.91,19.45l.55-1.04.69-1.04.83-1.11.28.07.28.21.35.28.21.28-.55.62-.55.76-.55.83-.21.28-.21.21-.42.07h-.35l-.28-.14-.14-.14.07-.14Zm-.69-.69l-.14.14-.14.07-.21.07h-.07l-.28-.07-.14-.07-.14-.14v-.28l.83-1.11,1.45-2.01.48.07.14.28.07.28-.07.28-.69.83-1.11,1.66Zm3.81-4.5l-.48.62-.07.14-.21.14-.14.07h-.14l-.28-.07v-.55l.14-.35.14-.21.55-.62.48-.55.42-.35.21-.14h.28l.21.14.07.14-.28.55-.9,1.04Zm0-12.6l.35.21.28.35v.76l-.07.07h-.21l-.28-.07-.55-.28-.83-.55.28-.28.14-.28.14-.21v-.35l.28.28.48.35Zm-.83,9.97l.35-.07.28.55-.83.83-.83,1.11-.28.21-.28.14h-.28l-.28-.07-.28-.28.9-.97.48-.69.21-.28.35-.28.48-.21Zm-4.36,8.24l.28.28.28.14.21.07.35.07-1.66,2.49-.07.14-.21.14-.28.14-.35.07-.28-.07-.14-.07-.07-.07v-.28l.55-.83,1.38-2.22Zm.28,3.6l.14-.28.21-.35.62-.83.28-.42.35-.42.21-.14.14-.07.28-.07h.14l.14.07.28.28v.14l-.07.21-.07.14-1.52,2.28-.21.21-.42.14-.21-.07-.14-.14-.07-.14-.07-.28v-.28Zm1.94,1.11l1.66-2.22h.83l.21.14.07.14.07.21v.14l-.07.21-1.11,1.11-.42.62-.35.28-.35.21h-.28l-.28-.28v-.55Zm2.49-3.6l-.14.21-.14.07h-.28l-.07-.07-.07-.21.07-.21v-.35l.07-.28,1.11-1.66.83-1.11.28.28.28.14.21.14.07.28-.9,1.38-.48.55-.83.83Zm1.38-5.26l-.28.07-.21.07-.21-.07-.14-.07v-.28l.35-.48.21-.35,1.66-1.66.55-.28.28.55v.28l-2.22,2.22Zm.55-12.18v-1.11l.55-.55,1.66.83.28.35.21.21.07.28.14.48v.48l-.14.14-.14.07h-.14l-.28-.07-2.22-1.11Zm2.77-1.66l-1.66-.83.07-.21-.07-.35-.14-.35-.14-.21.21.07.35-.07.28-.14.14-.14.14-.28.69.28.83.55.35.28.28.42.07.21v.42l-.07.21-.42.28h-.55l-.35-.14Zm1.11-2.49l-.42-.14-.55-.28-.69-.42-.07-.28-.21-.28-.28-.35-.28-.21h.55l.48-.14.35-.14.55.21.55.35.35.21.28.28.21.28v.35l-.07.21-.07.14-.21.14-.21.07h-.28Zm.83-4.43l-.07.21-.14.14-.35.21-.28.14h-.69l-.28-.07-.48-.21-.21-.14-.76-.69-.9-.69-.83-.55-.28-.55,1.04.14.9.21.76.28.62.21,1.25.55.35.21.21.21.14.21v.21Zm-1.94-3.18l-.14.07-.35.21-.62.14-.55.07h-.69l-.48-.07-.97-.28-.62-.28.21-.28.35-.28.35-.14.35-.07.42-.07.83-.07.55.07.48.14.48.21.35.21.07.14v.28Zm-1.11-2.77l-.21.14-.55.21-.62.21-.55.14-.83.14-1.11.14.14-.07.14-.21.07-.21v-.14l-.07-.21-.14-.21-.14-.07.28-.28.62-.21.97-.14h.55l.62.07.55.28.28.21v.21Zm-.83-2.08l-.55.28-.55.21-.62.21-.48.07-.55.07-.14-.21-.14-.35v-.83l1.38-.28h.28l.42.07.42.21.42.14.14.14.07.14-.07.14Zm-3.32,10.8l.28.21.21.21.07.21v.35l-.28.14-.21.07-.28-.07-.62-.28-.35-.21-.48-.35.28-.28.21-.28.07-.28,1.11.55Zm-1.38,1.66l.35.14.21.14.35.28.21.28.07.14-.07.14v.14l-.42.21h-.21l-.21-.07-.48-.28-.62-.28-.83-.55.28-.07.14-.07.14-.14.14-.21.14-.14v-.21l.48.35.35.21Zm-1.25,1.66l.83.55.14.28.07.35-.07.21h-.28l-.28-.07-.21-.07-.35-.14-.21-.14-.28-.07-.42-.07h-.48l.55-.83.28-.28.69.28Zm-.69,8.58l.21.07.07.21.07.14-.07.14-1.11,1.11-.83,1.11-.07.14-.21.14-.21.07-.28-.07-.21-.14-.14-.14v-.21l.07-.35.48-.83.48-.62.35-.48.35-.21.21-.07h.83Zm-2.49.55l-.35.55-.35.48-.21.48-.21.42-.55.28-.28-.55.35-.76.48-.9.42-.62.42-.48h.83l.28.28-.83.83Zm-1.73,3.25l.14-.14.21-.07h.55l.21.14.07.14-.28.55-.76,1.45-.9,1.32-.28.28h-.28v-.07l-.07-.14.07-.35.14-.48.48-1.11.48-1.18.21-.35Zm-1.04-.21l-.55,1.38-.83,1.94-.21.14-.35.14h-.28l-.07-.14v-.42l.07-.28.55-1.38.42-.9.42-.76.28-.28h.21l.28.14.14.28-.07.14Zm-2.22.83l-.83,1.94-.21.28-.28.14-.35.14h-.55l.55-1.66.83-2.22h1.11l.21.14.07.14-.55,1.11Zm-1.87-1.25l-.07.14-.55,1.45-.35,1.04-.21.55v.14l-.07.21-.42.42-.28.07-.21.07-.14-.07v-.28l.07-.07.42-.97.07-.35.28-.83.21-.83.14-.21.07-.14.21-.14.48-.35h.14l.14-.07h.07v.21Zm-1.94.07l-.07.07-.48,1.18-.07.21-.21.83-.21.76-.14.35-.07.28-.21.28-.07.14-.35.14h-.42l-.28-.28.28-.55.28-.83.42-.97.42-1.25.14-.21.14-.14.55-.21.21-.07h.07l.14.14-.07.14Zm-2.22.76l-.42,1.25-.48,1.11-.07.21-.35.69-.21.28-.35.21h-.42l-.28-.07-.21-.14v-.14l.14-.62.35-.97.48-1.11.35-.83,1.45-.48.14.14-.14.48Zm-.62-4.01l-.28.83v.14l-.42,1.25-.28.55-.42.28-.21.07h-.21l-.14-.07v-.28l.55-1.11.42-.76.42-.83v-.07l.55-.28v.28Zm-2.15,1.52l-.48.97-.42.76-.28.35-.28.28h-.28l-.07-.14-.07-.21.07-.21.07-.28.76-1.32.62-1.18.83-.28-.48,1.25Zm-5.54,7.75l.21-.69.28-.83.28-.48.35-.9.42-.69.07-.14,1.38-.48.14.21h.07l-.62,1.38-.14.28-.55,1.38-.07.14-.28.35-.21.14-.28.21-.14.07-.42.14-.35.07-.14-.07v-.07Zm-.07-2.08l-.28.76-.28.62-.21.35-.28.28-.35.21-.48.21-.42.07-.07-.07v-.14l.69-1.45.28-.48.62-.9.28-.48.55-.69.48.14v.35l-.07.28-.42.9-.07.07Zm2.84,1.18l.42-1.11.35-.9h.07l.21-.55.48-1.25.07-.14h.55l.35-.14.21-.14v.28l-.28.83-.55,1.59-.55,1.18-.14.28-.14.14-.28.14-.35.07h-.28l-.14-.14v-.14Zm1.25-7.41l-.07.21-.42.9-.28.42-.55.97-.62.76-.21.21-.42.14h-.21l-.21-.14v-.28l.21-.28.62-.97.14-.28,1.38-2.08.35-.07.28.21.07.14-.07.14Zm-2.35-6.51l-.21-.35-.07-.07v-.14l.14-.07.07-.07.35-.14.28-.07.9.21-1.45.69Zm.21,6.92l-.21.48-.48.76-.42.69-.28.55-.35.48-.48.42-.35.21-.28.14-.35.14h-.69l-.07-.14.07-.14.55-.62.83-.97.55-.62.83-1.04v-.07l.28-.28h.83Zm-8.86,2.22l.14-.35.14-.21.55-.42,2.01-1.45,1.25-.83.9-.55.42-.14h.07l.07.07.07.14-.07.14v.14l-.28.42-.42.42-1.32,1.18-.97.9-.83.83h-.07l-.14.07-.21.07-.55.07-.48-.07-.28-.14v-.28Zm-.42-1.66l-.55-.28-.14-.28.07-.21.07-.14.14-.21h.07l3.32-1.38,1.32-.55h.28l.28.28-1.04.76-.62.35-.28.21-1.52.9-.97.55h-.42Zm3.25,2.56l.21-.28,1.18-1.52,2.08-2.08.14-.07h.07l.28.07.14.21.07.14v.21l-.07.21-.76,1.11-.9,1.11-.07.07-.42.55-.62.62-.35.21-.55.28-.21-.07-.07-.07-.14-.28-.07-.28.07-.14Zm5.19-12.74l-.07.35-.07.42-5.88-2.56-.28-.21-.28-.14-.21-.21-.21-.28-.14-.42v-.21l.07-.21.07-.14.21-.21.21-.07.55-.14.28.07.35.07.28.14,5.26,3.53-.14.21Zm-7.06-.9h.28l.48.07.69.14.83.28,1.73.62,1.59.62,1.11.48-.14.21-.07.14-.07.21.07.28v.14l.14.21-1.52-.35-1.18-.21-1.11-.28-.9-.28-1.32-.28-.35-.14-.21-.14-.21-.21-.14-.28-.14-.42v-.35l.07-.21.14-.14.21-.14Zm-.28,3.53l.07-.14.14-.14.21-.14.35-.14h.28l3.39.62,1.25.35.9.21-2.49.97-1.25-.07-1.18-.07-.42-.07-.28-.07-.28-.14-.28-.21-.28-.35-.14-.35v-.28Zm.48,3.6l1.59-.42.28-.07.35-.07h.14l.07.07v.14l-.14.28-.28.21-.42.21-.62.28-.69.28-2.22.9-.62.21h-.28l-.14-.14-.14-.42.14-.42.14-.14.55-.28,2.28-.62Zm-2.98,4.71l.14.28v.07l.28.28-5.81,2.77-.28.14-.35.07h-.55l-.28-.07-.21-.14-.28-.28v-.42l.07-.21.07-.28.42-.42.28-.21.28-.14,6.02-1.66h.07l.14.21Zm-5.33,4.78l.14-.21.35-.35.97-.62,1.18-.69,2.28-1.18,1.11-.55.14.35.14.21.21.14.14.07.21.07-.42.35-1.04.69-.76.62-.9.62-.76.55-1.11.76-.28.21-.21.07h-.35l-.35-.07-.35-.14-.28-.28-.07-.14-.07-.21.07-.28Zm2.42,1.94l.14-.35.14-.21,2.77-2.15,1.04-.76.83-.48.35-.21.42-.07h.21l.21.07.21.14.07.14v.28l-.07.07-1.87,1.59-2.49,2.49-.21.14-.35.14-.35.07h-.42l-.35-.14-.14-.07-.14-.14v-.55Zm2.49,1.32l.07-.14.21-.35,3.88-3.88h.55l.48-.07.28-.14.07-.07v.28l-2.49,3.12-.55.48-.55.35-1.11.42-.55.07h-.28v-.07Zm3.74-.62l.42-.69,1.11-1.66.55-.76.28-.35.28-.28.14-.07.21-.14.21-.07h.55v.28l-.21.42-.62.97-1.11,1.94-.28.28-.21.14-.35.14-.28.07h-.62l-.07-.07v-.14Zm3.74.69h.55l.35-.14.21-.14-1.94,3.88-.21.35-.28.28-.35.21-.35.14-.28.07-.48.07.83-1.66.97-1.66.97-1.38Zm.83,1.94l.55-1.18.55-1.04h.55l.48-.14.35-.14-1.38,3.05-.14.35-.21.28-.21.21-.42.28-.42.21-.28.07h-.28l.83-1.94Zm1.73,1.04l1.04-2.15.83-1.66h.55l.48-.14.35-.14-.07.35-.42.97-.9,2.01-.21.28-.35.28-.42.21-.42.14h-.35l-.21-.07.07-.07Zm3.39-2.35l.62-1.38.35-.9,1.11-.28-.21.62-.48,1.25-.21.55-.42,1.04-.21.42-.14.14-.28.14-.28.07h-.21l-.35-.07.69-1.59Zm2.15.14l.97-2.63.07-.35.62-.14.48-.14-.42,1.45-.42,1.32-.28.83-.14.28-.14.14-.28.14-.28.07h-.21l-.35-.07.35-.9Zm2.01.35l.42-1.11.07-.14.35-.97.42-1.38h.55l.48-.14.35-.14-.28.76-.21.62-.83,2.08-.21.42-.14.14-.28.14-.28.07h-.21l-.35-.07.14-.28Zm4.01-4.43l.21.14.35.14h.55l-1.04,2.42-.35.76-.28.42-.28.28-.28.21-.28.07-.28-.55,1.66-3.88Zm.83,2.77l.42-1.04.42-.9h.55l.28-.28.42-.14.14.14-.76,1.52-.62,1.52-.28.21-.28.07h-.28l-.14-.07-.14-.21.28-.83Zm1.66,1.11l.28-.83.55-1.18.55-1.04.35.28.48.28.48.21.35.07-1.66,2.77-.21.28-.28.07-.35.07-.28-.14-.14-.14-.14-.42v-.28Zm2.77,0l1.11-1.94.35.14.48.14h.55l.07.07v.14l-.21.42-.42.69-.83,1.18-.28.28-.21.14-.35.14-.35.07h-.35l-.42-.07.83-1.38Zm1.94,3.46h.28l.55-.14.14.35.14.28.28.21.42.14h.35l.28-.07.07-.07.07.21.14.28.62.62.48.21.42.07h.48l.21.28.35.28.69.28h.42l.28.48-1.66,2.22-1.11,1.52-1.18,1.32-1.04,1.25-1.04,1.11-.9.55-1.04.48-1.18.48-1.32.42-.97.14-.9.07-.83.07-.69-.07v-1.59l.14-.69.14-.83.28-.76.21-.55.21-.48,2.22-2.63,1.11-1.45,1.18-1.52,1.73-2.42Zm6.44,1.73l-.42.14-.21-.07-.07-.07v-.35l.07-.42.21-.35.35-.48.83-1.11.28-.35.14-.14.14-.07h.55l.21.07.07.07v.14l-.83,1.11-1.11,1.66-.21.21Zm1.87-4.91l-.69.69-.14.07-.07-.07-.14-.35-.07-.14v-.21l.14-.28.14-.21.55-.62.42-.48.42-.62.28.28.21.14.07.14-.07.14-.42.76-.62.76Zm.55-4.71l-.28.07-.21.07-.21-.07-.14-.07v-.28l1.18-1.45.76-.76.55-.28h.55v.28l-.55.83-1.66,1.66Zm1.66-10.8h1.11l.83.28.62.28.48.28.42.28.21.21.21.35.21.48.07.35-.21.14-.35.14h-.28l-.62-.69-.76-.69-.97-.76-.97-.62Zm3.88.28l-.21-.07-.35-.21-1.66-.83-.14-.83-.42-.83h.21l.28-.14.14-.28-.07-.14.55.14.48.14.62.28.69.42.42.42.28.35.21.21.14.55v.21l-.07.35-.21.14-.55.14h-.35Zm.83,3.67l.55.21,1.94.83.83.28.55.07.42.07h.28l.14.07v.21l-.07.21-.35.35-.14.07-.28.07h-.55l-.83-.28-1.38-.55-.21-.35-.35-.48-.28-.35-.28-.28-.21-.14-.07-.07.28.07Zm4.43.55h-.28l-.55-.07-1.32-.35-2.28-.76.28-.28.21-.28.07-.28,2.63.76,1.52.35.35.07.14.07.07.14v.14l-.14.14-.42.28-.28.07Zm.42-2.01l-.35.14-.35.07-.28.07h-.62l-.62-.21-.69-.28-.83-.35-.55-.28.28-.55.28-.28.62.28.76.28.76.14.9.14h.83l.28.55-.42.28Zm-4.01-5.4l-.55.14h-.21l-.28-.07-.62-.21-1.38-.55.07-.35-.07-.48-.07-.42-.14-.28-.35-.42h.55l.35-.14.21-.14.62.14.42.21.35.21.42.28.28.35.21.35.21.28.21.62.07.35-.28.14Zm3.32-9.28l.21-.07h.28l.07.07.07.14v.14l-.07.28-.07.21-.21.21-.28.14-.76.28-.9.28-1.45.35-1.32.21-.55-.83,1.32-.21,1.45-.35,1.25-.42.97-.42Zm-.83-1.94l.28.14.21.21.07.21v.28l-.07.21-.07.14-.21.14-.21.07-1.38.55-1.59.48-1.45.35-.83-.83,1.11-.28,1.45-.42,1.32-.42.55-.28.48-.28.35-.28Zm-.83-1.66l.21.07.07.21.07.14-.07.14-.14.35-.21.28-.42.42-.28.14-.62.35-.83.28-.76.21-1.52.35-1.04.14-.28-.28v-.55l.76-.07.76-.21.9-.21.9-.35.76-.35.69-.35,1.04-.69Zm-1.32-1.25l.48-.42.14.07.14.21.07.07-.07.21-.07.28-.21.28-.48.42-.62.42-.9.42-.97.35-.9.21-.76.14h-.14l-.14-.07-.21-.21-.42-.55,1.25-.14.76-.14.76-.28.9-.42.76-.42.62-.42Zm-.62-1.8l.14.07.07.07.14.28-.07.14-.28.35-.48.48-.62.42-.83.42-.83.28-.76.21-.62.07h-.55v-.28l-.07-.35-.21-.21,1.18-.14.62-.21.69-.21.83-.35,1.25-.69.42-.35Zm-1.04-1.45l.42-.35.28-.07.07-.07.14.21v.35l-.21.62-.21.21-.55.48-.55.35-.42.21-.55.21-1.25.42-.69.21-.69.07-.28-.55.62-.14,1.38-.55.76-.42.97-.62.76-.55Zm-1.32-1.66l.35-.42h.14l.14.21.07.28.07.14-.07.42-.07.28-.14.21-.35.42-.35.35-.62.42-.62.35-.69.35-.9.35h-.07l-.07-.07-.21-.55v-.14l.07-.07.76-.28.76-.48.76-.55.62-.62.42-.55Zm-.97-1.38l.14-.14.14-.07h.28l.07.21-.07.35-.07.21-.21.42-.48.55-.35.35-.55.42-.76.48-.97.55h-.14l-.07-.07-.07-.35v-.14l.07-.21.14-.21.14-.07.97-.55.55-.42.97-.97.28-.35Zm-1.38-1.04l.28-.35.14-.14.14-.07.35-.07.21.07v.55l-.35.62-.35.55-.42.48-.28.28-.35.28-.42.28-.62.28h-.55v-.55l.48-.28.42-.28.28-.28,1.04-1.38Zm-2.42-.76l.48-.35.69-.28.97-.28v.28l-.07.48-.42.69-.35.55-.48.55-.28.28-.35.21-.28.14-.21.07-.35.07h-.28l-.21-.07-.35-.21.21-.48.07-.35v-.55l1.18-.76Zm-2.56-1.32l.83-.42.83-.21.55-.07.21.14.07.21v.42l-.07.21-1.87,1.25h-.55v-.35l-.14-.21-.14-.28-.28-.28.55-.42Zm-1.94-.69l1.04-.83.42-.28h.21l.07.07-.07.21v.21l-.07.28-.21.35-.28.28-.21.14-.35.14h-.14l-.21-.07-.21-.21v-.28Zm-.69,1.45l.42-.21h.62l.42.28.07.14v.21l-.07.14-.21.21-.28.21-.35.07h-.48l-.28-.28v-.55l.14-.21Zm-1.52-1.73l.35-.28.35-.21.28-.07h.14l.28.14v.28l-.21.21-.07.21v.28l-.21.21-.35.07h-.55l-.28-.28.28-.55Zm-2.22-.55l.48-.48.14-.28.07-.21.14-.14h.28l.14.07v.07l.14.14h.55l.07.07v.07l-.14.28-.07.07-.42.35-.28.28-.14.21-.14.07h-.28l-.42-.14-.14-.14v-.28Zm-5.33.69l.28.21.42.14.48.07h.42l.28-.07.42-.21.42.21.35.07h.35l.55-.14.28-.14.28.28.28.14.55.14h.42l.35-.07h.21l.14.07.14.14.07.14.07.28.07.21-.07.14v.21l.21.21.21.07.28.14.14.14.14.28v.28l-.14.28.28.55.21.07.28.14.21.21v.55l-.14.42.55.14.28.42.07.28v.35l-.14.28-.21.21.21.14.21.21.28.35.14.42.07.35v.28l-.07.48-.14.35-.14.21.21.14.14.21.14.35.07.28v.35l-.07.28-.14.28-.21.28-.14.07.21.48.07.42v.48l-.07.48-.14.42-.21.28-.14.21.14.55v.35l-.14.48-.07.28-.14.28-.35.42-.35.28-.21.14.07.28v.42l-.07.62-.07.28-.21.35-.14.28-.21.21-.42.35-.35.21-.28.07.14.35.14.42v.62l-.07.28-.28.42-.21.14-.21.07h-.21l-.42-.07-.35-.14-.21-.14-.35-.28-.21-.35-.14-.28-.14-.21.97-1.04.69-.9.21-.21.9-1.8.55-1.59.14-.35v-.28l-.28-.42-.14-.07-.48,1.18-.62,1.32-.07.21-.07.07h-.14l-.14-.14-.07-.14v-.21l.07-.35.35-.69.35-.83.28-.83.28-.97.28-1.25.21-1.18.07-1.04v-1.52l-.28-1.11-.28-.76-.35-.69-.83-1.11-.42-.35-.35-.35-.55-.35-2.49-1.38-.69-.42-.35-.28-.35-.42-.35-.62-.21-.48.21.14Zm3.12,19.17l-.28.28-.28.21-.28.14-.28.07-.21.07h-.21l-.48-.14-1.04-.83-.14-.21-.14-.28-.21-.62-.07-.55v-.28l.55.14.83-.14.35-.14.21-.14.28-.28.35-.42.35-.48.42-.97.21-.9.07-.55-.07-.28-.21-.35-.35-.42-.48-.35-.21-.14-.55-.21-.83-.14-.42.07-.48.14-.48.28-.35.28.07-.14.07-.21v-.55l-.14-.21-.21-.28-.28-.14-.35-.14.35-.55.21-.28.28-.28.42-.21.35-.07.28-.14.35-.14.35-.21.42-.55.14-.35.21-.69v-1.04l-.07-.35-.14-.35-.42-.42-.28-.14-.35-.07h-.42l-.42.14-.28.35-.28.42-.14.48-.14.42-.14.21-.55.42-.35.14-.42.07-.14-.07-.21-.07-.07-.14-.14-.14-.07-.28.21-.14.21-.21.28-.35.14-.42.07-.35v-.35l-.07-.42-.07-.35v-.35l.07-.14.21-.14.07-.14v-.28l-.28-.28-.55.55h-.62l-.48.07-.55.21-.69.42-.42.42-.07.42v.35l.07.35.21.42.28.35.35.35.14.07.14.21.07.21v.14l-.07.21.21-.07h.21l.28.14.14.14v.35l-.14.42-.14.69.14.48.14.42.14.35.14.14-.48.55-.35.35-.28.48-.42,1.11-.07.48-.07.35v1.11l-.07.28-.21.28-.21.21-.28.07h-.35l-.28-.07-.21-.21-.21-.28-.14-.28.28-.07.28-.21.21-.21.07-.21.07-.48v-.55l-.14-.97-.21-.62-.07.42-.14.48-.28.48-.35.55-.76.97-.35.35-.14.07h-.14l-.14-.14-.14-.28v-.42l.14-.55.14-.42.28-.69.21-.28.14-.28.35-.35.28-.35.14-.21v-1.04l.14-.35.21-.21.21-.28.35-.21.35-.07.28-.07.14-.21.14-.28v-.28l-.14-.28-.07-.21-.21-.14-.28-.21-.21-.21-.21-.28-.21-.35-.07-.35-.14-.42v-1.18l.14-.48.21-.48.28-.35.28-.28.48-.42.28-.21-.14-.28-.07-.21-.07-.35.07-.21.07-.14.14-.21.48-.42.55-.55.69-.48.76-.48.9-.42.83-.35.69-.21.62-.14-.42.83-.14.35-.07.42v.42l.07.48.14.35.14.28.28.48.55.55.83.55,2.01,1.04.62.35.42.28.69.48.48.55.48.62.35.55.28.62.28,1.25v1.18l-.07,1.11-.14,1.18-.21,1.18-.69,2.22-.83,1.94-.9,1.52-.28.42-.28.35Zm-.35,11.28l.21-.21.48-.21.48.28v.28l-.83,1.38-.42.9-.14.21-.21.14-.35.14-.21.07-.35-.07-.07-.14,1.38-2.77Zm-2.15-.35l.28-.28.42-.14.14.07h.07l.07.07.14.28v.14l-.28.9-.14.48-.21.48-.48.69-.14.21-.21.14h-.28l-.21-.07-.14-.21-.14-.28.07-.14.48-1.04.55-1.32Zm-2.49,1.59l.35-.76.21-.76.07-.14.14-.14.07-.14.55-.28.28.28v.07l-.55,1.32-.42.9-.42.76-.21.21-.14.07h-.21l-.07-.07-.14-.07-.07-.14.42-.69.14-.42Zm-1.73-.07l.07-.21.55-1.38.55-.28.28.28-.21.76-.35.9-.21.55-.48.97-.14.14-.07.14-.07.07-.14.07h-.28l-.07-.07-.14-.21h-.07l.42-.9.35-.83Zm-2.01.42h.07l.07-.28.42-.83.14-.35.28-.28.35-.07h.14l.07.07.07.14-.07.14-.07.21-.28.76-.21.42-.28.69-.35.76-.21.21h-.28l-.21-.21v-.14l-.07-.21.42-1.04Zm-5.12-10.94l.21-.42.42-.14h.21l.55.21,3.25,2.22h-.07l-.9.28-3.46-1.8-.14-.07-.07-.14v-.14Zm-.07,1.32l2.56,1.32-1.32.62-1.52-.55-.28-.35-.14-.35-.07-.28.14-.21.14-.14.21-.07h.28Zm-3.74-6.44h.35l.21.07.28.14.28.42.48.62.48.69.55.62.76.76v.28l-.07.21-.14.21-.35.35-.14.21-.07.07h-.14l-3.05-3.95-.07-.07v-.14l.14-.28.14-.14.35-.07Zm-2.15-7.89l.21-.35.35-.28.35-.07h.35l.28.14.21.14.28.55-.55,7.06h-.28l-.55.28-.14.14-.21.28-.42-.42.14-7.48Zm-.55,8.93l.42-.14.35.07h.14l.28.07.21.14.28.21,1.38,1.52,2.08,2.49-.21.14-.14.21-.07.14v.28l-2.63-2.15-2.22-1.73-.14-.28-.07-.28v-.21l.07-.28.14-.14.14-.07Zm-2.98-8.79l.14-.35.28-.35.14-.14.21-.14.28-.07.21-.07.28.07h.21l.35.28.35.35.14.42.21,7.82-.83.76-.14-.21-1.8-7.96v-.42Zm-3.46-.07l.07-.28.28-.42.21-.14.21-.07h.42l.35.07.35.28.28.35,2.42,9.55-.07.21-.21.21h-.14l-.21-.21-3.88-8.72-.07-.28v-.55Zm-3.12.48l.14-.42.28-.28.28-.14h.48l.28.14.21.14.21.21.07.21,4.5,9.76-.28.28-.14.42-1.87-2.63-1.87-2.91-1.11-1.87-1.04-1.8-.14-.35-.07-.35.07-.42Zm-2.77,1.94l.07-.28.07-.21.21-.28.35-.14.35-.07.28.07.21.14.21.21,6.78,10.31v.14l-.07.28-.28.28h-.14l-.07-.07-6.44-7.41-.48-.62-.42-.62-.35-.62-.14-.42-.14-.35v-.35Zm-2.08,2.98l.07-.28.48-.48.35-.14.21-.07h.21l.28.07.21.14.28.28,7.75,9,.21.21.14.07.07.14-.07.07h-.14l-.42.07-8.17-6.44-.42-.42-.42-.35-.28-.42-.21-.35-.14-.42-.07-.35.07-.35Zm-.97,3.6l.14-.42.21-.35.28-.14.21-.07.21.07,2.15,1.73,2.28,1.73,2.84,2.01,2.77,1.94.21.55-.62.21-9.07-4.57-.55-.28-.62-.62-.14-.21-.28-.69-.07-.48.07-.42Zm1.38,6.44l-.42-.21-.35-.21-.55-.55-.28-.35-.14-.42-.07-.35.07-.21.07-.28.28-.28.42-.14.28-.07.28.07,9.9,4.64.07.07.07.14v.14l-.14.07-.14.14-.35.07-.21.07-8.03-2.08-.76-.28Zm2.7,3.95l-.35-.07-.62-.42-.55-.42-.42-.42-.14-.28-.07-.21v-.42l.14-.14.14-.07.28-.07h.42l9.35,2.01.21.14.14.28-.07.21-.21.14-.35.14-.42.07-5.68-.21-1.32-.14-.48-.14Zm-.76,3.32l.14-.28.28-.28.21-.14.21-.07.28-.07.21.07h.07l1.11.14h1.25l.9-.07h.21l.28.14.14.14v.42l.07.42.07.21-1.45.07h-.69l-2.91-.14h-.07l-.21-.21-.07-.14v-.21Zm-.28,1.66l.28-.14.21-.07.35-.07,1.59-.07,2.49.07h1.18v.28l.14.35.14.21h-.21l-3.12.55-2.77.55-.28-.07-.42-.28-.14-.21v-.42l.21-.35.35-.35Zm-6.99-6.3l.14-.35.21-.28.28-.14h.55l.28.14,4.98,4.98-.14.21-.14.35v.83h-.55l-5.54-4.98-.07-.42v-.35Zm-2.42,2.56l.07-.28.07-.21.14-.21.21-.14.14-.14.42-.14h.48l.42.14,6.09,4.98v1.11h-.28l-7.2-3.88-.28-.28-.14-.35-.14-.42v-.21Zm-2.28,2.56l.07-.21.28-.28.28-.21.42-.07h.42l8.86,4.43.14.14v.21l-.07.14-.07.07h-.28l-9.14-2.77-.28-.14-.21-.14-.28-.42-.14-.28v-.48Zm-1.59,2.56l.14-.21.21-.14.28-.14.21-.07h.28l.21.07,10.31,2.98.07.42.07.21.14.21-3.25-.35-3.39-.48-2.08-.35-2.08-.42-.35-.14-.28-.14-.35-.35-.14-.35-.07-.42.07-.35Zm.07,4.64l-.21-.14-.21-.28-.14-.21v-.35l.07-.35.14-.28.28-.21.28-.07h.28l12.18,1.66.14.07.14.21.07.21v.21l-.14.14h-10.66l-.76-.14-.69-.14-.35-.14-.42-.21Zm2.01,4.01l-.42-.07-.42-.14-.28-.21-.21-.21-.21-.28-.07-.28v-.42l.14-.35.07-.21.14-.14.28-.14.21-.07.35-.07h12.46l.07.07-.07.14-.28.35-10.24,1.94-.55.07-.48.07-.48-.07Zm2.84,3.25h-.69l-.35-.14-.42-.14-.42-.28-.21-.28-.28-.35-.07-.42v-.35l.28-.28,2.77-.48,2.77-.62,3.46-.83,3.18-.83.55.28-.28.55-9.41,3.88-.48.21-.42.07Zm4.43,1.94l-.76.42-.83.28-.35.07h-.48l-.42-.07-.42-.14-.28-.21-.14-.14-.14-.21v-.48l.14-.35.14-.21.28-.14,9.97-4.5h.21l.14.28-.07.14-.14.35-.14.21-6.71,4.71Zm5.33-.28l-.97.9-.35.28-.35.21-.69.28-.69.14h-.62l-.21-.07-.28-.07-.28-.28v-.35l.14-.28.28-.28,7.61-5.75.28-.07h.14l.14.07.14.21-.07.21-.07.35-.28.35-3.88,4.15Zm3.05.28l-.07.14-.28.28-.42.28-.28.07-.35.07h-.28l-.28-.07-.42-.14-.07-.07.07-.14,1.59-1.87,1.38-1.45,1.04-1.04.55-.48.28-.14.48-.21.28-.07.28-.14h.07l.07.07v.14l-.28.48-.14.28-3.25,4.01Zm3.05-.83l-.35.28-.35.21-.42.07h-.55l3.32-4.71h.28l.62-.07.48-.21-3.05,4.43Zm2.77-.55l-.21.28-.35.28-.35.14-.28.14h-.48v-.55l3.05-4.43h.55l.28-.07.14-.14.14-.07v.21l-.42.69-2.08,3.53Zm35.3,4.85l-1.59,2.28-1.73,2.35-.97,1.18-1.11,1.25-1.04,1.18-1.11,1.18-2.15,2.01-2.08,1.87-1.94,1.52-.14,2.01v1.66l.07,1.32.07,1.11.28,2.22.21,1.87.07,1.18v.76l-.07.9-.14,1.04-.35,1.18v1.18l.14.76.14.83.28.69.28.62.28.48.28.42,3.6,5.26-.14-.07h-.21l-.21.07-.28.28-.9-.76-1.04-.9-1.11-1.04-.97-1.04-1.8-2.08.21-.35.14-.42.07-.35v-.76l-.07-.35-.14-.28-.21-.28-.28-.28-.21-.14-.35-.14-.21-.35-.07-.48v-1.11l.14-1.11.14-.83.07-.69v-.69l-.07-.62-.07-.55-.28-.97-.21-.62-.28-.69-.28-.48-.21-.42-.35-.62-.21-.55-.14-.55-.14-1.04-.07-.97v-.76l-1.04.69-.69.35-.76.35-.76.28-.69.28-1.32.28.55.42.55.69.42.48.28.48.42.69.35.42.35.28.42.21.35.21.69.28.62.28.35.21.35.35.28.48.28.55.21.69.21.9.07,1.11.07,1.32-.07.48-.07.55-.07.48-.21.35-.28.28-.28.55v.48l.07.42.14.35.07.14.21.21.07.14v.35l-.07.14-.14.07-.07.21v.28l-.14-.07-.35-.21-.35-.35-.14-.21-.14-.28-.07-.42v-.35l.07-.35.07-.48v-.62l-.07-.83-.14-.83-.21-.69-.35-.83-.42-.9-.28-.42-.35-.42-.83-.83-.48-.35-.55-.28-.48-.21-.48-.14-.97-.21-.21-.07-.35-.21-.28-.28-.21-.28-.35-.55-.28-.28-.35-.21-1.04-.35-.97-.42-1.25-.69-.55-.42-.9-.62-1.11-.9-1.25-1.11-1.25-1.38-.62-.76-.55-.76-.55-.9-.48-.9-.42-.97-.35-.97-.21-.76-.21-1.04-.14-1.32v-1.59l.14-.83.14-.76.14-.62.21-.69.42-1.04.35-.76.62-1.04.62-.97.62-.83.62-.76.83-.9,1.04-1.04,1.18-1.11,1.38-1.11.42.21.35.07h.35l.35-.07.28-.07.42-.28.28-.28.07-.14.42.21.35.07h.35l.35-.07.28-.07.42-.28.28-.28.07-.14.42.21.35.07h.35l.55-.14.35-.21.28-.21.21-.28h.07l.42.21.28.07h.35l.42-.07.28-.14.28-.21.21-.14.21-.28.35.14.35.07.42.07h.42l.28-.07.42-.21.21.14.14.07.21.07h.35l.28-.07.21-.21.35.35.35.28.42.21.48.07.42.07.35-.07.14-.07.35.28.21.14.28.14.42.07h.28l.42-.07.07.14-.62.9-1.38,1.87-1.38,1.8-1.32,1.66-1.32,1.45-.35.76-.35,1.04-.28,1.25-.28,1.38-.07.97v.9l.07.76.07.62.9.21,1.18.14h1.38l.69-.07.83-.21,1.52-.42.69-.28.62-.35,1.11-.62.9-.62,2.08-2.08,1.11-1.25,1.11-1.38,1.18-1.52,1.04-1.52.42.21.35.07.28-.21.28-.35.21-.42.14-.42v-.35l-.07-.21.14.07.28.07h.35l.21-.07.14-.07.28-.21.21-.28.07-.28v-.35l.28.83.28.55-1.25,2.08Zm3.74-2.49l-.9-3.05-.62-2.42-.42-1.87-.07-.62v-.62l.14-.76.07-.35.14-.42.35-.55.35-.48.42-.35.28-.28-.28.07-.48.07-.55.28-.28.21-.35.21-.35.35-.28.42-.14.42-.14.35-.14.62-.07.35.07-1.04.14-.9.28-.83.42-.76.42-.69.55-.48.55-.35.35-.14.28-.07.42-.07,1.04.21.69.28.55.42.48.35.42.42.28.35-.14-.07-.42-.28-.62-.21h-.76l-.48.14-.35.14.42.14.55.21.62.42.35.28.28.35.35.42.28.42.21.42.14.42.14.69v.42l.28,2.77.83,8.86-.35-.97-.48-1.25-.28-.97-.21-.9-.62-2.01-.35-1.18-.35-.97-.35-.69-.14-.14-.21-.07-.14.07-.14.28-.14.35-.14.42-.14,1.11-.14,1.66.07,2.08v1.32l-.07,1.59-1.11-3.46Zm8.17,22.15l.14-.35.28-.35.35-.28.35-.14.42-.14.76.07.42.07.48.14.62.28.48.28-1.04.07-1.18.21-1.18.28-1.04.28.14-.42Zm4.91,12.67l.48-.9.55-.69.48-.48.48-.42.42-.35.55-.28.42-.07h.28l.42.07-.48.55-.55.69-.62.83-.55.97-.35.76-.28.69-.48,1.32-.21-.55-.35-.55-.55-.83.35-.76Zm-.62-.9l-.28.83-.21-.42-.35-.42-.55-.55.28-.83.28-.48.28-.35.42.35.21.21.21.28.28.55-.28.35-.28.48Zm1.11-2.22l-.21-.55-.35-.55-.55-.76-.55-.62-.55.83-.28.62-.42,1.11-.14.48-.28-.28-.28-.21-.28-.07.21-.97.14-.62.21-.62.35-.69.35-.62.42-.48.28-.42.42.21.35.28.48.42.42.48.48.62.35.62.21.55.07.42-.83.83Zm-6.23-2.98l.42.48.42.62.14.48-.42-.28-.48-.28-.62-.28-.69-.28-1.11-.28v-1.11l.14-.48.14-.35.62-.07.76-.07h.76l.9.14,1.11.28.83.28-.28.35-.28.48-.35.76-.21.62-.07-.21-.28-.28-.28-.35-.48-.28-.28-.14-.35-.07-.48-.07.42.35Zm.42-2.84l.21-.35.35-.42.35-.48.48-.42.83-.55,1.45-.48.48-.07-.48.48-.35.42-.28.48-.14.62-.14.48h-1.38l-.76.14-.62.14Zm5.54,1.11l-.35-.28-.48-.28-.55-.28.21-.76.14-.42.21-.48.42-.55.35-.48.62-.62.83.55.83.83.48.55.35.55-.62.21-.76.35-.9.55-.76.55Zm-8.65-.69l-.28.21-.21.21.21-.42.28-.62.48-.76.69-.69.55-.35.48-.28.55-.21.48-.14.76-.14h.48l-.35.21-.42.28-.9.9-.48.76-.35.62-.42-.07h-.35l-.35.07-.48.21-.42.21Zm2.28,5.81l-.97-1.32-.97-1.04.9.35,1.04.48.9.55.62.48.69.62.76.76.62.69.55.76.48.76.69,1.32.48.97.69,1.52.35.97.28.97-.55,1.32-.76-1.45-.55-1.04-.69-1.11-.42-.62-.48-.55-.55-.55-.62-.55-.28-.28-.28-.55-.42-.97-.48-.9-1.04-1.59Zm5.95,11.63l-.55,1.87-.28,1.04-.05.27h-1.47l-.07-.9-.21-.97-.28-1.18-.28-.83v-.14l-.55-1.45-.55-1.38-.69-1.18-.69-1.11-.62-.97-.69-.83-.62-.69-.55-.55,1.8.9.97.69,1.04.76.76.69.76.83.21.28.76.9,1.11,1.8.42.9.42,1.04-.07.21Zm6.58-7.75l1.04-.76,1.04-.55.9-.48-1.04,1.11-.55.76-.62.83-.62.97-.62,1.04-.55,1.18-.55,1.25-.42,1.18-.28,1.11-.28,1.25-.21,1.04-.07.97v.07h-1.25l.22-1.38.42-1.87.28-1.18.76-2.28-.14.21-.55.97-.55,1.11-.48,1.18-.62,1.87-.28,1.18-.04.2h-1.15l.08-.55.21-1.04.48-1.59.42-1.25.35-.69.35-.76.83-1.32.97-1.38.14-.14.62-.69.62-.62,1.18-.9Zm-.97-2.91l-.35.9-.35,1.04-.35,1.11-.9.9-.69.97-.62.9-.55.9-.28-.62.21-.83.21-.76.42-1.18.35-.69.28-.62.35-.55.42-.62.62-.55.55-.48.55-.35.48-.28-.35.83Zm3.18-4.64l-.62.48-.35.35-.28.42-.48.62-.83.28-1.11.55.07-.21-.07-.35-.14-.35-.14-.21h-1.11l-.62.14-.48.14-.21-.55-.35-.55-.55-.76-.55-.62.97-.55,1.25-.55,1.25-.35.97-.21,1.38.28,1.32.35.42.21.48.28-.69.07-.48.07-.48.14-.76.48-.55.48-.42.42-.21.28.83-.42,1.11-.42,1.11-.21.83-.07-.48.35Zm-1.18-5.05l.69.55.69.83.42.62.35.62.21.48.14.48-.62-.42-.76-.42-1.18-.48-1.04-.35.28-.83.42-.69.42-.42Zm-2.7-1.66h.21l.55.14.28.14.48.28.35.28-.55.55-.28.48-.14.28-.14.35v1.11l-.35-.14-.48-.14h-.28l-.21-.42-.35-.42-.42-.48-.42-.35.48-.69.48-.55.21-.21.28-.14.28-.07Zm-1.18-1.11l.55.14.28.14-.62.42-.48.42-.83,1.11-.42-.42-.28-.21-.42-.21-.62-.21-.48-.07.28-.21.35-.35.62-.35.35-.14.35-.07.76-.07.62.07Zm-9.48-16.13l.07.21v4.85l.07.62.07.42.14.35.42.55.69.83.83.83.35.07h.35l1.25-.07h.83l.48.14.69.28.21.14.55.14h.76l.35.14.55.28h.55l.21.07.14.14.21.35.21.28.07.28.55.55-.35.07-.21.07-.28.14-.35.28-.21.28-.35-.28-.21-.28-.28-.55-.14-.42-.14-.14-.21-.14-.35-.14-.55-.28h-2.22l-.69.07-.35.07-.35.14-.48.28-.35.28h-.28l-.28-.14-.28-.21-.28-.28-.21-.35-.21-.62-.14-.35-.55.55.14.48.14.42.28.48.55.55.69.28h.42l.35-.28.48-.28.55-.21.28-.07.35-.07h.35l.69.07h1.38l.42.21.21.21.14.21.35,1.04.28.28-.48.28-.35.28-.35.48-.21.35-2.98.07h-1.04l-.69-.07-.42-.07-.42-.21-.55-.55-.14-.35-.07-.28-.14-.35-.28-.55-.21-.14-.28-.07h-.14l-.14.07-.07.07v.14l-.07.28.07.35.07.28.21.28.14.55v.14l-.07.14-.07.07h-.14l-.35-.07-.21-.21-.35-.62-.28-.55-.21-.48-.28-.48-.35-.42-.28-.35-.55-.42-.28-.35-.21-.48-.21-.42-.14-.48-.07-.55.07-.28v-.28l.21-.42.21-.35.28-.21.14-.14-.14-.21-.35-.35-.48-.35-.35-.14-.35-.07-.28-.07h-.35l-.48.07.07-.48.21-.42.28-.28.28-.21.21-.07h.21l.42.21.14.21.21.21.21.28.35.21.21.07.21-.28.14-.55-.07-.28-.07-.14-.14-.14-.35-.28-.28-.35-.14-.35-.14-.42v-.42l.14-.69-.14-.28-.28-.28-.14.35-.14.21v.83l.07.35-.07.21-.55.55-.28-.55-.28-.48-.28-.35-.07-.21-.14-.35-.07-.35v-.48l.28.07.28.21.28.28.28-.55.21-1.87.07-2.01.07-1.87-.07-1.73.69,2.49.97,2.77.55,1.32.55,1.18,1.11,2.22v-1.11l.14-1.18.14-1.04.28.07.28.21.21.21Zm.07-26.03l-.07.07-.21.28-.14.07-.21.07-.55.14h-1.04l-.83-.14-.76-.21-.62-.21-.55-.28v-.28l.21-.35.07-.21.69.35.48.14.48.07,1.18.07,1.04-.07.83.28v.21Zm-.07-1.8l-.48.48-.42.14-.48.07h-.55l-.62-.07-.62-.14-.69-.21-.76-.35.55-.55.76.21.9.07h.62l.48-.07.83-.21.55.28-.07.35Zm-4.08-1.73l.28-.55h1.66l.9-.14.76-.14.21-.07.07.07.07.14-.07.14-.07.21-.28.21-.35.21-.42.21-.69.14-.69.07-.55-.07-.55-.14-.28-.28Zm4.22-2.84l-.14.28-.21.35-.14.35-.28.14-.42.14-.83.21-.83.14-1.11.14-.14-.07-.07-.14-.14-.69-.07-.07.14-.14.97-.07.9-.14.69-.21,1.32-.42h.28l.07.07v.14Zm7.82,2.7l-.42,1.8-.14,1.32-.14,1.18-.14.28-.28.35-.21.48-.21.55v.48l.07.35v.35l-.07.48-.14.42-.21.35-.48.62-.35.42-.48.42-.48.62-.35.48.07-.35v-.21l-.07-.28-.14-.35-.14-.21.28-.14.28-.42.07-.28v-.28l-.14-.28-.21-.28.28-.21.21-.28.07-.35v-.35l-.07-.21-.21-.28.21-.28.07-.21v-.55l-.07-.14-.21-.21.14-.14.07-.21.14-.35-.07-.42-.07-.35-.21-.21.21-.21.07-.35v-.28l1.38-1.66.69-.62.62-.62,1.18-.97-.42,1.52Zm10.24-12.94l-.14.35-.07.35v.35l.07.42-.28-.28-.21-.14-.35-.14-.21-.07h-.28l-.42.14-.28.14-.21.07v.83l.14.35.14.21.28.28v.55h-.55l-.35.14-.21.14-.83.83.28.28.28.14.35.07.28-.07.21-.14.14-.14v-.14l.14-.28.21-.07h.28l.07.07.07.14-.07.14-.14.35-.14.28-.28.21-.21.21-.35.21-.35.14h-.48l-.42-.14-.42-.28-.35-.42-.21-.55-.42.28-.14.28.07.21.21.35.28.48.07.21-.14.28-.21.14-.55.28-.28.21-.55.69-.55.48v.28l.28.14.28-.14.83-.83.62-.55.21-.14.28-.14.28-.07h.21l.07.07.14.21.07.28-.07.35-.14.28-.07.21-.21.07-.35.21-.48.28-.55.35-.35.28-.07.14-.14.14v.42l.07.21-.07.21-.07.28-.48.55-.83.83-.28.35-.21.35-.83,1.66-.42.62-.48.62.28-1.45.28-1.59.35-1.25.35-1.11.69-2.08-.9.69-.97.76-.97.9-1.04.97-1.04,1.11-.9,1.11v-1.11l1.66-1.87,1.11-1.18.48-.42.21-.35.14-.35.14-.42.07-.48.14-.48.14-.42.07-.14.48-.42.62-.42.62-.35.28-.21.21-.28.14-.28.07-.35.07-.76.14-.62.14-.48.28-.83.62-1.25.55-.69.35-.28.42-.28.55-.21.28-.07h.62l.48.21.35.21.21.14.62-.07h.35l.42.07.48.14.35.14-.14.21Z"/>
      </g>
    </g>
  </g>
</svg>