<?xml version="1.0" encoding="utf-8"?>
<!-- Generator: Adobe Illustrator 27.2.0, SVG Export Plug-In . SVG Version: 6.00 Build 0)  -->
<svg version="1.1" id="Layer_2_00000132768886184400863130000002739527365583752858_"
	 xmlns="http://www.w3.org/2000/svg" xmlns:xlink="http://www.w3.org/1999/xlink" x="0px" y="0px" viewBox="0 0 146.8 146.8"
	 style="enable-background:new 0 0 146.8 146.8;" xml:space="preserve">
<style type="text/css">
	.st0{fill:#231F20;}
	.st1{fill:none;}
</style>
<g id="Layer_1-2">
	<g id="dutch_crown">
		<rect x="22.1" y="142.8" class="st0" width="103" height="4"/>
		<path id="dutch_crown-2" class="st0" d="M146.6,83.6c-0.5-2.4-1.7-4.2-2.5-5.1c-2.3-1.9-6.1-4.5-11.4-6.3c-5.8-2-10.9-2.1-14-1.9
			c-3.9-2.2-7.3-3.2-9.5-3.8c-4.6-1.2-7.2-0.9-15.9-2.5c-1.8-0.3-4.8-1-7.6-3.2c-1.2-0.9-2-1.9-2.5-2.5c0-0.1,0.7-1.3,0-2.5
			c-0.6-1.1-1.8-1.2-1.9-1.3c0.3-0.4,0.6-1.1,0.9-1.9H65.2c0.3,0.8,0.6,1.5,0.9,1.9c-0.1,0-1.3,0.2-1.9,1.3c-0.7,1.2,0,2.5,0,2.5
			c-0.5,0.7-1.4,1.6-2.5,2.5c-2.8,2.2-5.8,2.8-7.6,3.2c-8.7,1.7-11.3,1.4-15.9,2.5c-2.2,0.6-5.6,1.6-9.5,3.8
			c-3.1-0.2-8.2-0.1-14,1.9C9.3,74,5.5,76.6,3.2,78.5c-0.8,0.9-2.1,2.7-2.5,5.1c-0.7,3.5,0.7,6.4,1.3,7.6c2.3,4.8,5.8,5.1,7.6,10.2
			c0.4,1.1,0.6,2,0.6,2.5c-1.9,0.9-2.9,2.5-2.5,3.8s2,2.2,2.5,1.9c0.3-0.2,0.1-0.7,0.6-1.3c0.3-0.4,0.8-0.6,1.3-0.6
			c0.8,0,1.7,1,1.9,2.5c-1,1.4-1,3.2,0,4.4c1.1,1.4,3,1.3,3.2,1.3c0.3,0.7,0.8,2,1.9,3.2c0.9,1,1.9,1.6,2.5,1.9h-3.8
			c-1.1,0.3-1.9,1.4-1.9,2.5s0.8,2.2,1.9,2.5H21v1.3c-1.3,1.7-1.6,3.9-0.6,5.7c1,1.8,2.8,2.4,3.2,2.5v1.3c-0.8,0.3-1.3,1.1-1.3,1.9
			c0,1,0.9,1.8,1.9,1.9h99c1.1-0.1,1.9-0.9,1.9-1.9c0-0.8-0.5-1.6-1.3-1.9v-1.3c0.4-0.1,2.2-0.7,3.2-2.5c0.9-1.8,0.7-4-0.6-5.7v-1.3
			h3.2c1.1-0.3,1.9-1.4,1.9-2.5s-0.8-2.2-1.9-2.5h-3.8c0.7-0.3,1.6-0.9,2.5-1.9c1.1-1.2,1.6-2.4,1.9-3.2c0.1,0,2,0.2,3.2-1.3
			c1-1.2,1-3.1,0-4.4c0.2-1.5,1.1-2.5,1.9-2.5c0.4,0,0.9,0.3,1.3,0.6c0.5,0.6,0.3,1.1,0.6,1.3c0.6,0.3,2.2-0.6,2.5-1.9
			c0.3-1.3-0.6-2.9-2.5-3.8c0.1-0.6,0.2-1.5,0.6-2.5c1.8-5.1,5.3-5.4,7.6-10.2C146,90,147.3,87.1,146.6,83.6L146.6,83.6L146.6,83.6z
			 M111.2,103.6c0,1.9-1.6,3.5-3.5,3.5s-3.5-1.6-3.5-3.5s1.6-3.5,3.5-3.5S111.2,101.7,111.2,103.6z M73.4,96.9
			c1.9,0,3.5,1.6,3.5,3.5s-1.6,3.5-3.5,3.5s-3.5-1.6-3.5-3.5S71.4,96.9,73.4,96.9z M39.7,100.1c1.9,0,3.5,1.6,3.5,3.5
			s-1.6,3.5-3.5,3.5s-3.5-1.6-3.5-3.5S37.8,100.1,39.7,100.1z M30.5,135.7c-2.1,0-3.8-1.7-3.8-3.8c0-2.1,1.7-3.8,3.8-3.8
			s3.8,1.7,3.8,3.8C34.3,134,32.6,135.7,30.5,135.7z M35,114.7c-1.7,0.1-3.4-0.9-4.5-2.5c0.4-0.2,0.9-0.4,1.3-0.6
			c-0.4-0.8-1.1-1.3-1.9-1.3c-0.7,0-1.2,0.5-1.3,0.6c-0.1,0-1.1-0.1-1.9,0.6c-0.5,0.5-0.6,1.1-0.6,1.3H28c0.1,3.6-2.5,5.9-4.5,5.7
			c-1.4-0.1-2.6-1.5-3.2-3.2c0.2,0.2,0.7,0.5,1.3,0.6c0.9,0.2,1.6,0.1,1.9,0c0.1-0.2,0.1-0.7,0-1.3c-0.1-0.6-0.5-1.1-0.6-1.3
			c1-0.8,1.5-2,1.3-3.2c-0.3-1.4-1.6-2.5-3.2-2.5c0-0.1,0.1-1.2-0.6-1.9c-0.5-0.5-1-0.6-1.3-0.6c-0.4,0.4-0.9,0.8-1.3,1.3
			c-0.1-0.6-0.3-1.5-0.6-2.5c-0.2-0.7-0.6-1.8-1.3-3.2c-0.9-1.9-2.9-5.6-5.7-10.2c-0.4-0.8-2.1-5.1,0-8.3c0.9-1.4,2.3-2.1,4.4-3.2
			c1.8-0.9,4.6-2,8.3-2.5c0.1,2,0.5,4.4,1.3,7c1.9,6.2,5.4,10.4,7.6,12.7c-0.1,1.6,0.2,2.2,0.6,2.5c0.4,0.3,0.8,0.2,1.3,0.6
			c0.5,0.5,0.7,1.3,0.6,1.9c-0.2-0.3-0.8-1-1.9-1.3c-0.9-0.2-1.6-0.1-1.9,0c-0.1,0.3-0.2,1.1,0,1.9c0.2,0.6,0.4,1,0.6,1.3
			c-0.1,0.1-1,2,0,3.8c0.8,1.3,2.3,2.1,3.8,1.9c-0.1,0.2-0.2,0.7,0,1.3c0.3,0.7,1,1.2,1.9,1.3c0-0.1-0.2-1.1,0.6-1.9
			s1.8-0.7,1.9-0.6C39.5,112.1,37.4,114.6,35,114.7L35,114.7L35,114.7z M44.2,136.5l-4.9-4.9l4.9-4.9l4.9,4.9L44.2,136.5z
			 M57.8,135.7c-2.1,0-3.8-1.7-3.8-3.8c0-2.1,1.7-3.8,3.8-3.8s3.8,1.7,3.8,3.8C61.6,134,59.9,135.7,57.8,135.7z M61,110.9
			c-0.6-0.2-3.7-1-4.5-3.2c-0.1-0.2-0.3-0.9,0-1.3c0.3-0.4,1.1-0.4,1.9,0c0-1.3-0.9-2.4-1.9-2.5c-1-0.2-1.8,0.5-1.9,0.6
			c-0.8-0.6-1.9-0.6-2.5,0c-0.5,0.4-0.8,1.2-0.6,1.9c0.7-0.2,1.6-0.4,1.9,0c0.8,1-1.4,6.5-5.1,6.3c-2-0.1-4-1.8-4.5-3.8
			c-0.2-0.8-0.1-1.4,0-1.9c0.2,0.3,0.6,0.8,1.3,1.3c0.8,0.5,1.5,0.6,1.9,0.6c0.2-0.2,0.5-0.7,0.6-1.3c0.2-0.8,0.1-1.6,0-1.9
			c1.3-0.6,2-1.9,1.9-3.2c-0.1-1.1-0.8-2.1-1.9-2.5c0-0.1,0.3-1.6-0.6-2.5c-0.4-0.4-1.3-0.9-1.9-0.6c-0.7,0.3-0.4,1.4-1.3,1.9
			c-0.4,0.2-1.1,0.3-1.3,0c-0.1-0.2,0-0.4,0-0.6c0.3-1.1,0.5-2.8,0-3.2c-0.1-0.1-0.3-0.1-0.6,0c0.1-0.9,0.2-2.2,0-3.8
			c-0.3-2.7-1.1-3.2-1.9-6.3c-0.4-1.7-0.9-3.8-0.6-6.3c0.2-1.9,0.8-3.5,1.3-4.5c3.2,0.1,9.2-0.2,15.9-3.2c6.1-2.8,10-6.6,12.1-8.9
			c-0.5,1.2-1.2,2.9-1.9,5.1c-2,5.9-3.3,9.7-3.2,14c0.1,2.3,0.6,6.2,3.2,10.8c-0.5,1.4-0.3,2.1,0,2.5c0.3,0.5,0.8,0.6,1.3,1.3
			c0.4,0.5,0.5,0.9,0.6,1.3c-0.6,0-1.5-0.2-2.5-0.6c-0.9-0.4-1.5-0.9-1.9-1.3c-0.1,0.1-1.1,0.7-1.3,1.9c-0.1,1.1,0.5,1.8,0.6,1.9
			c-1.2,0.9-1.7,2.4-1.3,3.8c0.5,1.6,2.1,2.7,3.8,2.5c-0.1,0.1-0.4,1,0,1.9c0.3,0.7,1.1,1.2,1.9,1.3c0.1-0.4,0.4-1.2,1.3-1.9
			c0.5-0.4,0.9-0.6,1.3-0.6c0,0.5,0,1.6-0.6,2.5c-0.7,1.1-1.6,1.5-2.5,1.9S64,111.7,61,110.9L61,110.9L61,110.9z M77.3,135.7h-7.4
			c-2.1,0-3.8-1.7-3.8-3.8c0-1.1,0.4-2,1.1-2.7c0.7-0.7,1.6-1.1,2.7-1.1h7.4c1.1,0,2,0.4,2.7,1.1c0.7,0.7,1.1,1.6,1.1,2.7
			C81.2,134,79.5,135.7,77.3,135.7L77.3,135.7L77.3,135.7z M89.4,135.7c-2.1,0-3.8-1.7-3.8-3.8c0-2.1,1.7-3.8,3.8-3.8
			s3.8,1.7,3.8,3.8C93.2,134,91.5,135.7,89.4,135.7z M93.9,106.5c0.3-0.4,1.2-0.2,1.9,0c0.1-0.7-0.1-1.5-0.6-1.9
			c-0.7-0.6-1.8-0.6-2.5,0c-0.1-0.1-0.9-0.8-1.9-0.6c-1,0.2-1.9,1.2-1.9,2.5c0.8-0.4,1.6-0.4,1.9,0c0.3,0.4,0.1,1,0,1.3
			c-0.8,2.2-3.9,3-4.4,3.2c-3,0.8-5.4-0.2-6.3-0.6s-1.9-0.8-2.5-1.9c-0.6-1-0.7-2-0.6-2.5c0.3,0.1,0.8,0.3,1.3,0.6
			c0.9,0.7,1.2,1.6,1.3,1.9c0.8-0.1,1.6-0.6,1.9-1.3c0.4-0.9,0.1-1.8,0-1.9c1.8,0.1,3.3-0.9,3.8-2.5c0.4-1.4-0.1-2.9-1.3-3.8
			c0.1-0.1,0.7-0.8,0.6-1.9c-0.1-1.2-1.2-1.8-1.3-1.9c-0.4,0.4-1,0.9-1.9,1.3c-1,0.5-1.9,0.6-2.5,0.6c0.1-0.3,0.3-0.8,0.6-1.3
			c0.5-0.7,1-0.8,1.3-1.3c0.3-0.4,0.5-1.2,0-2.5c2.6-4.6,3.1-8.5,3.2-10.8c0.1-4.3-1.2-8.1-3.2-14c-0.7-2.1-1.4-3.9-1.9-5.1
			c2.1,2.3,6,6.2,12.1,8.9c6.7,3,12.7,3.3,15.9,3.2c0.5,1,1.1,2.5,1.3,4.4c0.3,2.6-0.2,4.7-0.6,6.4c-0.8,3.2-1.6,3.7-1.9,6.3
			c-0.2,1.6-0.1,2.9,0,3.8c-0.4-0.1-0.6-0.1-0.6,0c-0.5,0.4-0.3,2.1,0,3.2c0.1,0.2,0.1,0.5,0,0.6c-0.2,0.3-0.8,0.2-1.3,0
			c-0.9-0.5-0.6-1.6-1.3-1.9c-0.6-0.3-1.5,0.2-1.9,0.6c-1,1-0.7,2.4-0.6,2.5c-1.1,0.5-1.8,1.4-1.9,2.5c-0.1,1.3,0.6,2.6,1.9,3.2
			c-0.1,0.3-0.2,1.1,0,1.9c0.2,0.6,0.4,1,0.6,1.3c0.4,0,1.1-0.1,1.9-0.6c0.7-0.4,1.1-1,1.3-1.3c0.1,0.5,0.2,1.1,0,1.9
			c-0.4,2-2.4,3.8-4.4,3.8C95.2,113,93,107.5,93.9,106.5L93.9,106.5L93.9,106.5z M103.1,136.5l-4.9-4.9l4.9-4.9l4.9,4.9L103.1,136.5
			z M116.7,135.7c-2.1,0-3.8-1.7-3.8-3.8c0-2.1,1.7-3.8,3.8-3.8s3.8,1.7,3.8,3.8C120.5,134,118.8,135.7,116.7,135.7z M137.1,90.6
			c-2.8,4.6-4.8,8.2-5.7,10.2c-0.7,1.4-1.1,2.5-1.3,3.2c-0.3,1-0.5,1.9-0.6,2.5c-0.4-0.4-0.9-0.8-1.3-1.3c-0.2,0-0.8,0.2-1.3,0.6
			c-0.8,0.8-0.7,1.8-0.6,1.9c-1.6,0-2.9,1.1-3.2,2.5c-0.2,1.2,0.3,2.4,1.3,3.2c-0.2,0.2-0.5,0.6-0.6,1.3c-0.1,0.6-0.1,1,0,1.3
			c0.3,0.1,1.1,0.2,1.9,0c0.6-0.2,1-0.4,1.3-0.6c-0.6,1.7-1.8,3-3.2,3.2c-2,0.2-4.5-2.1-4.4-5.7h1.9c0-0.2-0.2-0.8-0.6-1.3
			c-0.8-0.8-1.8-0.7-1.9-0.6c-0.1-0.1-0.6-0.6-1.3-0.6c-0.8,0-1.5,0.5-1.9,1.3c0.4,0.2,0.8,0.4,1.3,0.6c-1,1.7-2.7,2.7-4.4,2.5
			c-2.4-0.2-4.6-2.6-4.4-5.7c0.1,0,1.1-0.2,1.9,0.6s0.7,1.8,0.6,1.9c0.9,0,1.6-0.6,1.9-1.3c0.2-0.6,0.1-1.1,0-1.3
			c1.6,0.2,3.1-0.6,3.8-1.9c1.1-1.8,0.1-3.7,0-3.8c0.2-0.2,0.5-0.7,0.6-1.3c0.2-0.8,0.1-1.6,0-1.9c-0.3-0.1-1.1-0.2-1.9,0
			c-1.1,0.3-1.7,1-1.9,1.3c0-0.6,0.1-1.4,0.6-1.9c0.4-0.4,0.8-0.3,1.3-0.6c0.4-0.3,0.8-1,0.6-2.5c2.3-2.3,5.7-6.5,7.6-12.7
			c0.8-2.6,1.1-5,1.3-7c3.7,0.6,6.5,1.7,8.3,2.5c2.2,1.1,3.5,1.7,4.4,3.2C139.1,85.5,137.4,89.7,137.1,90.6L137.1,90.6L137.1,90.6z
			 M82.4,30.8c-2.1,0.2-4.2,0.4-6.3,0.6c0.2-2.1,0.4-4.2,0.6-6.4h-6.2c0.2,2.1,0.4,4.2,0.6,6.4c-2.1-0.2-4.2-0.4-6.3-0.6v6.4
			c2.1-0.2,4.2-0.4,6.3-0.7c-0.2,1.9-0.4,3.8-0.6,5.7c-2.7,1.2-4.7,3.3-5.4,5.7h6v-5.7h5.1V48h5.8c-0.7-2.4-2.7-4.5-5.4-5.7
			c-0.2-1.9-0.4-3.8-0.6-5.7c2.1,0.2,4.2,0.4,6.3,0.7L82.4,30.8L82.4,30.8z"/>
	</g>
</g>
<rect y="0" class="st1" width="146.8" height="146.8"/>
</svg>
