<?xml version="1.0" encoding="utf-8"?>
<!-- Generator: Adobe Illustrator 27.2.0, SVG Export Plug-In . SVG Version: 6.00 Build 0)  -->
<svg version="1.1" id="Layer_2_00000129200933500322391010000000888839579343783573_"
	 xmlns="http://www.w3.org/2000/svg" xmlns:xlink="http://www.w3.org/1999/xlink" x="0px" y="0px" viewBox="0 0 182.8 182.8"
	 style="enable-background:new 0 0 182.8 182.8;" xml:space="preserve">
<style type="text/css">
	.st0{fill:#231F20;}
	.st1{fill:none;stroke:#231F20;stroke-width:3.15;stroke-miterlimit:10;}
	.st2{fill:none;stroke:#231F20;stroke-width:3.12;stroke-miterlimit:10;}
	.st3{fill:none;}
</style>
<g id="Layer_1-2">
	<g id="delivery">
		<path class="st0" d="M49.8,114.3h-1.1v7.2h1c2.3,0,3.5-0.7,3.5-3.7C53.2,114.8,52.1,114.3,49.8,114.3L49.8,114.3L49.8,114.3z
			 M49.8,114.3h-1.1v7.2h1c2.3,0,3.5-0.7,3.5-3.7C53.2,114.8,52.1,114.3,49.8,114.3L49.8,114.3L49.8,114.3z M49.8,114.3h-1.1v7.2h1
			c2.3,0,3.5-0.7,3.5-3.7C53.2,114.8,52.1,114.3,49.8,114.3L49.8,114.3L49.8,114.3z M49.8,114.3h-1.1v7.2h1c2.3,0,3.5-0.7,3.5-3.7
			C53.2,114.8,52.1,114.3,49.8,114.3L49.8,114.3L49.8,114.3z M49.8,114.3h-1.1v7.2h1c2.3,0,3.5-0.7,3.5-3.7
			C53.2,114.8,52.1,114.3,49.8,114.3L49.8,114.3L49.8,114.3z M111.4,114.3h-1.6v3.1h1.6c1.7,0,2.1-0.8,2.1-1.5
			C113.4,115.1,113.1,114.3,111.4,114.3z M111.4,114.3h-1.6v3.1h1.6c1.7,0,2.1-0.8,2.1-1.5C113.4,115.1,113.1,114.3,111.4,114.3z
			 M49.8,114.3h-1.1v7.2h1c2.3,0,3.5-0.7,3.5-3.7C53.2,114.8,52.1,114.3,49.8,114.3L49.8,114.3L49.8,114.3z M49.8,114.3h-1.1v7.2h1
			c2.3,0,3.5-0.7,3.5-3.7C53.2,114.8,52.1,114.3,49.8,114.3L49.8,114.3L49.8,114.3z M111.4,114.3h-1.6v3.1h1.6
			c1.7,0,2.1-0.8,2.1-1.5C113.4,115.1,113.1,114.3,111.4,114.3z M111.4,114.3h-1.6v3.1h1.6c1.7,0,2.1-0.8,2.1-1.5
			C113.4,115.1,113.1,114.3,111.4,114.3z M49.8,114.3h-1.1v7.2h1c2.3,0,3.5-0.7,3.5-3.7C53.2,114.8,52.1,114.3,49.8,114.3
			L49.8,114.3L49.8,114.3z M49.8,114.3h-1.1v7.2h1c2.3,0,3.5-0.7,3.5-3.7C53.2,114.8,52.1,114.3,49.8,114.3L49.8,114.3L49.8,114.3z
			 M60.1,91.4l-1.7,5.2h3.4C61.8,96.6,60.1,91.4,60.1,91.4z M111.4,114.3h-1.6v3.1h1.6c1.7,0,2.1-0.8,2.1-1.5
			C113.4,115.1,113.1,114.3,111.4,114.3z M111.4,114.3h-1.6v3.1h1.6c1.7,0,2.1-0.8,2.1-1.5C113.4,115.1,113.1,114.3,111.4,114.3z
			 M60.1,91.4l-1.7,5.2h3.4C61.8,96.6,60.1,91.4,60.1,91.4z M49.8,114.3h-1.1v7.2h1c2.3,0,3.5-0.7,3.5-3.7
			C53.2,114.8,52.1,114.3,49.8,114.3L49.8,114.3L49.8,114.3z M49.8,114.3h-1.1v7.2h1c2.3,0,3.5-0.7,3.5-3.7
			C53.2,114.8,52.1,114.3,49.8,114.3L49.8,114.3L49.8,114.3z M60.1,91.4l-1.7,5.2h3.4C61.8,96.6,60.1,91.4,60.1,91.4z M111.4,114.3
			h-1.6v3.1h1.6c1.7,0,2.1-0.8,2.1-1.5C113.4,115.1,113.1,114.3,111.4,114.3z M111.4,114.3h-1.6v3.1h1.6c1.7,0,2.1-0.8,2.1-1.5
			C113.4,115.1,113.1,114.3,111.4,114.3z M60.1,91.4l-1.7,5.2h3.4C61.8,96.6,60.1,91.4,60.1,91.4z M49.8,114.3h-1.1v7.2h1
			c2.3,0,3.5-0.7,3.5-3.7C53.2,114.8,52.1,114.3,49.8,114.3L49.8,114.3L49.8,114.3z M131.4,73.8H1.9c-1.1,0-1.9,0.9-1.9,1.9v76.8
			h17.7c3.8-4.5,9.6-7.3,16-7.3s12.1,2.8,16,7.3h77.3c1.8-2.1,4-3.8,6.5-5.1V75.7C133.4,74.6,132.5,73.8,131.4,73.8L131.4,73.8
			L131.4,73.8z M45.6,88.7h8.8v2.5h-5.7V94h5.3v2.4h-5.3v4.6h-3.1C45.6,101,45.6,88.7,45.6,88.7z M27.8,89.1l0.3,0.4l0.3,0.4h0.5
			l0-0.4h0.5l0-0.5H30l0.1-0.6h1l0.1,0.6h0.5l0,0.5h0.5V90h0.5l0.3-0.4l0.3-0.4l0.2,0.1l-0.3,0.3L33,90l-0.2,0.3l-0.2,0.4l-0.2,0.4
			l-0.1,0.4v1.6h-3.8v-1.6l-0.1-0.4l-0.1-0.4l-0.1-0.4L28,90l-0.2-0.4l-0.2-0.3C27.6,89.3,27.8,89.1,27.8,89.1z M39.1,113.4l0,0.2
			l0,0.1l-0.1,0.2l-0.1,0.2l-0.1,0.1l-0.2,0.2l-0.2,0.2l-0.3,0.2l-0.3,0.2l-1.3-1.8l-4.5-1.7l-0.1,0.1l-0.5,0.2l-0.3,0.1l-0.2,0.1
			l-1,3.8h0.2l0.2,0.1l0.2,0l0.2,0.1l0.4,0.2l0.1,0.1l0.1,0.2l0.1,0.2l0.2,0.3l0.1,0.3l0.1,0.5l0,0.2h-4.8v-5.6l-2.3,0h-0.6
			l-0.9,3.4h0.2l0.2,0.1l0.2,0l0.2,0.1l0.4,0.2l0.1,0.1l0.1,0.2l0.1,0.2l0.2,0.3l0.1,0.3l0.1,0.5l0,0.2h-4.8v-5.3l-0.3,0.2l-0.2,0.2
			l-0.2,0.2l-2.3,2.5l0.3,0.1l0.2,0l0.4,0.2l0.1,0.1l0.1,0.1l0.2,0.3l0.1,0.2l0.1,0.2l0.1,0.2l0,0.2l0,0.2v0.3h-5.8l3.8-8.2l0.2-0.6
			l0.3-0.5l0.1-0.2l-2.4,1.4l-5.4,3.2l-0.2,0.1l-0.2,0.1l-0.2,0.1l-0.2,0.1H8.8l-0.2,0l-0.4-0.1l-0.2-0.1l-0.2-0.1l-0.2-0.1
			l-0.2-0.2l-0.2-0.2L7,112.6l-0.2-0.4l-0.1-0.2l-0.1-0.2l-0.1-0.2V111l0-0.2l0.1-0.2l0.1-0.2l0.1-0.2l0.1-0.2l0.1-0.2l0.2-0.2
			l0.2-0.2l0.2-0.2l0.2-0.1l0.6-0.4v-0.2l0-0.2l0-0.2L8.3,108l-0.1-0.1L8,107.7l-0.2-0.1l-0.2,0H7.7l0.4-0.2l0.1-0.1l0.2-0.1h0.1
			l0.1,0l0.1,0l0.1,0.1l0.1,0.1l0.1,0.1l-0.1-0.3v-0.3l0.1-0.3l0.1-0.2l0.2,0l0.2,0.1l0.2,0.1l0.4,0.2l0.1,0.1l0.1,0.2l0.1,0.2
			l1-0.6l0.1-0.1l0.1,0h0.1l0.1,0l0.1,0.1l0.1,0.1l0.1,0.1l0.1,0.2l-4.5,2.6L8,109.8l-0.1,0.1l-0.3,0.4l-0.1,0.1l-0.1,0.3L7.4,111
			v0.2l0.1,0.3l0,0.2l0.2,0.3l0.1,0.1l0.1,0.2l0.1,0.1l0.1,0.1l0.1,0.1l0.1,0.1l0.1,0.1l0.2,0l0.3,0.1h0.2l0.2,0l0.1,0l0.2,0
			l0.1-0.1l0.1-0.1l6.5-3.8l3.3-1.9l1.2-0.7h0l0,0l-4-2.4l-0.2-0.1l-0.3-0.2l-0.2-0.2l-0.2-0.2l-0.4-0.4l-0.2-0.2l-0.2-0.2l-0.2-0.2
			l-0.2-0.2l-0.1-0.3l-0.2-0.5l-0.1-0.3l-0.1-0.3l0-0.6l0-0.5l0-0.2l0.1-0.2l0.1-0.3l0.1-0.2l0.1-0.2l0.1-0.2l0.3-0.4l0.3-0.4
			l0.4-0.4l0.4-0.3l0.1-0.1l0.1-0.1l0,0l0.1-0.1l0.4-0.2l0.2-0.1l0.2-0.1l0.2-0.1l0,0l0.2,0l0,0l0.1,0h0l0.2-0.1l0.5-0.1h0.1l0.3,0
			l0.1,0h0.1l0.3,0h0.2l0.1,0h4.3L23.9,95l-0.3,0.2l-0.2,0.2l-0.2,0.2l-0.3,0.2L22.6,96l-0.2,0.3l-0.2,0.3L22,96.9l-0.1,0.3
			l-0.1,0.3l0,0.3V98l0,0.1v0.1l0,0.3l0,0.1l0.1,0.2l0,0.2l0.1,0.2l0,0.1l0,0.1l0.1,0.1l0.1,0.1l0.4,0.4l0.1,0.1l0.2,0.1l0.4,0.3
			l2,1.2l1.9,1.2l2.2-7.8l0.1,0l0.1,0.1l0.1,0.1l0.1,0.1l0.1,0.1l0.1,0.1l0.1,0.2l0.1,0.2l0,0.2v0.2l0,0.2l0,0.2h1.4l0.3,0l0.3,0
			l0.2,0l0.2,0.1l0.5,0.2l0.2,0.2l0.2,0.2l0.2,0.2L34,98l0.1,0.2l0.1,0.3l0.1,0.2l0.1,0.6v1.3l-0.4-0.2l-0.2-0.1l-0.1,0h-0.9l-0.2,0
			l-0.1,0l-0.1,0.1l0,0.1l0,0.1l0,0.1v0.1l0,0.2l0,0.1l0.1,0.2l0.1,0.2l1.2,1.8l0.3,0.5l0.2,0.3l0.2,0.7l0.1,0.4l0.1,0.4l0,0.4v0.8
			l0,0.3l0,0.3l-0.1,0.3l-0.1,0.3l-0.1,0.3l-0.1,0.2l3.2,1.9l0,0l0.1,0.1l0.2,0.1l0.2,0.2l0.1,0.1l0.2,0.2l0.8,1.3l0.1,0.2l0,0.2
			l0,0.2v0.2C39.2,113.5,39.1,113.4,39.1,113.4z M50.2,124.1h-4.7v-12.3h4.9c3.8,0,5.8,2.2,5.8,6.1S54.1,124.1,50.2,124.1z M57,101
			h-3.3l4.3-12.3h3.9l4.3,12.3h-3.3l-0.7-2.1h-4.7C57.7,98.9,57,101,57,101z M67.2,114.3h-5.8v2.3h5.2v2.4h-5.2v2.5h5.8v2.5h-8.9
			v-12.3h8.9C67.2,111.7,67.2,114.3,67.2,114.3z M76.4,124.1h-7.2v-12.3h3.1l0,9.8h4.1L76.4,124.1L76.4,124.1L76.4,124.1z
			 M72.3,101.1c-3.8,0-5.2-1.7-5.2-4.5h3.1c0.1,1.2,0.6,2.1,2.3,2.1c1.6,0,2-0.7,2-1.2c0-2.5-7.2-0.5-7.2-5.2c0-1.9,1.1-3.7,5-3.7
			s5,1.8,5,4.3h-3.1c-0.1-1-0.4-1.9-2.1-1.9c-1.4,0-1.8,0.6-1.8,1.1c0,2.2,7.1,0.4,7.1,5.2C77.5,99,76.6,101.1,72.3,101.1
			L72.3,101.1L72.3,101.1z M81.1,124.1h-3.1v-12.3h3.1V124.1z M78.2,91.2v-2.5h9.3v2.5h-3.1v9.8h-3.1v-9.8H78.2
			C78.2,91.2,78.2,91.2,78.2,91.2z M90.3,124.1h-3.9l-4.3-12.3h3.3l3,9.6l3.1-9.6h3.3C94.7,111.7,90.3,124.1,90.3,124.1z
			 M104.7,114.3h-5.8v2.3h5.2v2.4h-5.2v2.5h5.8v2.5h-8.9v-12.3h8.9C104.7,111.7,104.7,114.3,104.7,114.3z M113.3,124.1l-3.5-4.7v4.7
			h-3.1v-12.3h4.7c4.7,0,5.2,2.5,5.2,4.1c0,1.4-0.5,3.5-3.4,3.7l3.9,4.5L113.3,124.1L113.3,124.1z M124.6,120.3v3.8h-3.2v-3.8
			l-4.4-8.6h3.3l2.7,5.9l2.9-5.9h3.3L124.6,120.3L124.6,120.3L124.6,120.3z M111.4,114.3h-1.6v3.1h1.6c1.7,0,2.1-0.8,2.1-1.5
			C113.5,115.1,113.1,114.3,111.4,114.3z M58.4,96.6h3.4l-1.7-5.2C60.1,91.4,58.4,96.6,58.4,96.6z M49.8,114.3h-1.1v7.2h1
			c2.3,0,3.5-0.7,3.5-3.7C53.2,114.8,52.1,114.3,49.8,114.3L49.8,114.3L49.8,114.3z M49.8,114.3h-1.1v7.2h1c2.3,0,3.5-0.7,3.5-3.7
			C53.2,114.8,52.1,114.3,49.8,114.3L49.8,114.3L49.8,114.3z M60.1,91.4l-1.7,5.2h3.4C61.8,96.6,60.1,91.4,60.1,91.4z M111.4,114.3
			h-1.6v3.1h1.6c1.7,0,2.1-0.8,2.1-1.5C113.5,115.1,113.1,114.3,111.4,114.3z M111.4,114.3h-1.6v3.1h1.6c1.7,0,2.1-0.8,2.1-1.5
			C113.5,115.1,113.1,114.3,111.4,114.3z M60.1,91.4l-1.7,5.2h3.4C61.8,96.6,60.1,91.4,60.1,91.4z M49.8,114.3h-1.1v7.2h1
			c2.3,0,3.5-0.7,3.5-3.7C53.2,114.8,52.1,114.3,49.8,114.3L49.8,114.3L49.8,114.3z M49.8,114.3h-1.1v7.2h1c2.3,0,3.5-0.7,3.5-3.7
			C53.2,114.8,52.1,114.3,49.8,114.3L49.8,114.3L49.8,114.3z M111.4,114.3h-1.6v3.1h1.6c1.7,0,2.1-0.8,2.1-1.5
			C113.5,115.1,113.1,114.3,111.4,114.3z M111.4,114.3h-1.6v3.1h1.6c1.7,0,2.1-0.8,2.1-1.5C113.5,115.1,113.1,114.3,111.4,114.3z
			 M49.8,114.3h-1.1v7.2h1c2.3,0,3.5-0.7,3.5-3.7C53.2,114.8,52.1,114.3,49.8,114.3L49.8,114.3L49.8,114.3z M49.8,114.3h-1.1v7.2h1
			c2.3,0,3.5-0.7,3.5-3.7C53.2,114.8,52.1,114.3,49.8,114.3L49.8,114.3L49.8,114.3z M111.4,114.3h-1.6v3.1h1.6
			c1.7,0,2.1-0.8,2.1-1.5C113.5,115.1,113.1,114.3,111.4,114.3z M111.4,114.3h-1.6v3.1h1.6c1.7,0,2.1-0.8,2.1-1.5
			C113.5,115.1,113.1,114.3,111.4,114.3z M49.8,114.3h-1.1v7.2h1c2.3,0,3.5-0.7,3.5-3.7C53.2,114.8,52.1,114.3,49.8,114.3
			L49.8,114.3L49.8,114.3z M49.8,114.3h-1.1v7.2h1c2.3,0,3.5-0.7,3.5-3.7C53.2,114.8,52.1,114.3,49.8,114.3L49.8,114.3L49.8,114.3z
			 M49.8,114.3h-1.1v7.2h1c2.3,0,3.5-0.7,3.5-3.7C53.2,114.8,52.1,114.3,49.8,114.3L49.8,114.3L49.8,114.3z M49.8,114.3h-1.1v7.2h1
			c2.3,0,3.5-0.7,3.5-3.7C53.2,114.8,52.1,114.3,49.8,114.3L49.8,114.3L49.8,114.3z M49.8,114.3h-1.1v7.2h1c2.3,0,3.5-0.7,3.5-3.7
			C53.2,114.8,52.1,114.3,49.8,114.3L49.8,114.3L49.8,114.3z M49.8,114.3h-1.1v7.2h1c2.3,0,3.5-0.7,3.5-3.7
			C53.2,114.8,52.1,114.3,49.8,114.3L49.8,114.3L49.8,114.3z M49.8,114.3h-1.1v7.2h1c2.3,0,3.5-0.7,3.5-3.7
			C53.2,114.8,52.1,114.3,49.8,114.3L49.8,114.3L49.8,114.3z"/>
		<path class="st0" d="M3.1,155.7h12.3c-1.8,3.1-2.8,6.7-2.8,10.5H3.1V155.7z"/>
		<path class="st0" d="M124.7,155.7c-1.8,3.1-2.8,6.7-2.8,10.5H54.6c0-3.8-1-7.4-2.8-10.5H124.7z"/>
		<rect x="3.1" y="165.2" class="st0" width="3.2" height="6.3"/>
		<rect x="0" y="163.1" class="st0" width="4.2" height="6.3"/>
		<path class="st0" d="M181,146.3c-0.5-5.6-0.9-11.2-1.4-16.8c-2.5-6.7-4.9-13.3-7.4-20h4.2c0-1.7-0.7-3.3-1.9-4.4
			c-1.1-1.1-2.7-1.8-4.4-1.8h-0.3c-0.5-1.3-1.7-2.1-3.1-2.1h-30.2v45.1c2-0.6,4.1-1,6.3-1c0.7,0,1.4,0,2.1,0.1v-40h21l6.7,22.1
			c0.2,0.7,0.4,1.4,0.6,2.1v26.3h8.4c-0.1-0.7-0.1-1.4-0.2-2.1h1.2v-7.4H181L181,146.3L181,146.3z M161.6,156.8
			c1.4,2.8,2.2,6.1,2.2,9.4c0,0.7,0,1.4-0.1,2.1h19c-0.3-3.8-0.6-7.7-0.9-11.6H161.6L161.6,156.8L161.6,156.8z M172.3,129.3
			c-8.8-1.3-17.5-2.6-26.3-3.9v20c6.4,1,11.9,4.8,15,10.3h11.2V129.3L172.3,129.3L172.3,129.3z"/>
		<path class="st0" d="M136.5,96.9h20c-0.9-2.3-3-6.6-7.4-10.5c-4.9-4.3-10.1-5.8-12.6-6.3L136.5,96.9L136.5,96.9L136.5,96.9z"/>
		<path class="st0" d="M33.6,150.5c-8.7,0-15.8,7.1-15.8,15.8S24.9,182,33.6,182s15.8-7.1,15.8-15.8S42.3,150.5,33.6,150.5z
			 M33.6,175.7c-5.2,0-9.5-4.2-9.5-9.4s4.2-9.4,9.5-9.4s9.5,4.2,9.5,9.4S38.8,175.7,33.6,175.7z"/>
		<circle class="st1" cx="33.6" cy="166.2" r="5.2"/>
		<path class="st0" d="M142.6,151c-8.6,0-15.5,7.1-15.5,15.8c0,8.7,6.9,15.8,15.5,15.8s15.5-7.1,15.5-15.8S151.1,151,142.6,151z
			 M142.6,176.2c-5.1,0-9.3-4.2-9.3-9.4s4.2-9.4,9.3-9.4s9.3,4.2,9.3,9.4C151.9,172,147.7,176.2,142.6,176.2z"/>
		<ellipse class="st2" cx="142.6" cy="166.7" rx="5.2" ry="5.2"/>
	</g>
</g>
<rect y="0" class="st3" width="182.8" height="182.8"/>
</svg>
