<?xml version="1.0" encoding="utf-8"?>
<!-- Generator: Adobe Illustrator 27.2.0, SVG Export Plug-In . SVG Version: 6.00 Build 0)  -->
<svg version="1.1" id="Layer_1" xmlns="http://www.w3.org/2000/svg" xmlns:xlink="http://www.w3.org/1999/xlink" x="0px" y="0px"
	 viewBox="0 0 432 464" style="enable-background:new 0 0 432 464;" xml:space="preserve">
<style type="text/css">
	.st0{opacity:0.5;}
	.st1{fill:#FFFFFF;}
	.st2{stroke:#000000;stroke-width:8;stroke-miterlimit:10;}
	.st3{fill:none;stroke:#000000;stroke-width:15;stroke-miterlimit:10;}
</style>
<g>
	<path d="M179,338v-47.5c2.7-1,5.9-1.5,9.9-1.5c0,0,0.1,0,0.1,0c0.5,0,0.9,0,1.4,0h17.8c-0.6,1-1,1.9-1.3,2.7l-0.5,0.5l0,1.1
		l-7.6,30.7h6.9c5,0.5,8.3,3.3,10.2,5.6c2,2.5,3.4,5.5,3.8,8.4H179z"/>
	<path d="M189.1,293c0.4,0,0.8,0,1.2,0l0.1,0h0.1h11.7l-6.2,25.1l-2.5,9.9h10.2h1.6c3.6,0.4,6,2.5,7.3,4.2c0.5,0.6,0.9,1.2,1.3,1.8
		H183v-40.5c1.7-0.3,3.6-0.5,5.9-0.5C188.9,293,189,293,189.1,293 M188.9,285c-5,0-9.7,0.7-13.9,3v54h48.8c1-9-6-21-18-22h-2
		l6.5-26.2c0,0,0,0,0,0c1.2-3.8,4.4-7.9,11.7-8.8h-31.5C190,285,189.4,285,188.9,285L188.9,285z"/>
</g>
<path d="M173.4,231.1l-93.9,63.8c-11.1,7.5-26.1,4.8-33.8-6.1c-7.9-11.2-4.7-27,6.7-34.7l6.1-4.2l0.1-0.7c0.4-4.7-3-8.8-7.7-9.3
	l-0.3,0l3.3-2.2c3.8-2.6,8.8-1.7,11.5,1.8c-1.1-3.8-1-7.7,0.4-11c5,0,10.2,2.5,13.8,7.1l10-6.8c1.8-1.2,4-1.6,6-1.2
	c2,0.4,3.9,1.5,5.1,3.4L56.4,261c-7.5,5.1-9.5,15.2-4.5,22.7c5,7.7,15.8,9.6,23.5,4.4l93.5-63.5L173.4,231.1z"/>
<g>
	<path d="M186,224.6l57,34.9V277h-52.3c-0.7,0-1.3,0-1.8,0c-7.2,0-12.9,1.3-17.7,4c-2.6,1.5-5,3.4-7.1,5.6l-25.6,28L126.1,328h18.2
		c2.2,0,4.5,1.1,6.3,3c0.8,0.9,1.5,1.9,2.1,3h-37.1l33.6-71.5c0.9-1.7,1.6-3.2,2.2-4.7c0.9-2,1.7-3.8,2.7-5.5c1-1.8,2.1-3.5,3.2-5.1
		c0.9-1.3,1.7-2.4,2.5-3.3l0,0l0,0c1.6-2,3.4-4,5.4-5.9l0,0l0,0c0.4-0.4,0.9-0.8,1.4-1.3l0,0l0,0c1.7-1.6,3.5-3.1,5.4-4.4l0,0l0,0
		c0.3-0.2,0.5-0.4,0.7-0.6C176.9,228.8,181.4,226.5,186,224.6 M186.9,215.7c-7,2.5-13.5,5.7-18.9,9.3c-0.2,0.1-0.3,0.2-0.4,0.3
		c0,0,0.1,0,0.1,0c0,0,0,0.1-0.4,0.4c-2.1,1.5-4.1,3.2-6.1,5c-0.6,0.5-1.1,1-1.6,1.6c-2.2,2.1-4.2,4.3-6,6.7c-1,1.2-1.9,2.5-2.9,3.8
		c-1.3,1.8-2.5,3.8-3.6,5.8c-1.9,3.3-3.1,6.6-5.1,10.6l-39,83h59.4c0-7.5-2.5-13-6-16.6c-3.5-3.6-8-5.4-12.1-5.4l25.6-28
		c1.6-1.7,3.3-3,5.1-4c4.2-2.3,8.9-3,13.9-3c0.6,0,1.1,0,1.7,0H251v-28v-2L186.9,215.7L186.9,215.7z"/>
</g>
<g>
	<path d="M264.4,115.2c3.7,1.3,2.7,6.5,2.3,8.1l-2.5,9.9h10.2h14.3c5.2,0,9,1.7,11.7,5.2c2.6,3.3,4,8.2,4.3,14.2c-0.5,0-0.9,0-1.4,0
		c-0.8,0-1.5,0-2.1,0c-3.4,0-13.6,0-15.5,12.4c-1,6.1,2.4,11.1,4.2,13.7c0.1,0.2,0.2,0.3,0.3,0.5l12.3,18.7l0.3,0.5l0.6,1
		c4.8,8,7.4,17.2,7.4,26.6c0,7.7-1.7,15-4.9,21.9c-3.5,7.5-8.9,14.1-15.6,19c-2,1.5-4.1,2.8-6.2,4l8-32.5l0.1-0.4l0.1-0.4
		c0.1-1,1.2-10-4-19.1c-4.7-8.2-11.9-12.6-13.4-13.5l-29.5-17.9L264.4,115.2 M258.7,105.4L236.2,191l0,0L271,212
		c0,0,6.5,3.5,10.5,10.5s3,14,3,14l-11.6,47.2c8.3-1.9,15.9-5.5,22.4-10.4c7.6-5.7,13.8-13.3,18-22c3.6-7.7,5.7-16.3,5.7-25.3
		c0-11.2-3.1-21.8-8.6-30.7l0,0l-1.1-1.7l-12.3-18.7c-1.3-2-3.9-5.3-3.4-8.6c0.8-5,3.3-5.6,7.6-5.6c1.3,0,2.8,0.1,4.5,0.1
		c1,0,5.1,2,7.1,3v-9.1c0-17-8-29.4-24.1-29.4h-14.3c2-8.1-0.6-15.8-8.4-17.9L258.7,105.4L258.7,105.4z"/>
</g>
<g class="st0">
	<path class="st1" d="M264,285L264,285l-0.6,0C263.6,285,263.8,285,264,285z"/>
	<path d="M264,285c-0.2,0-0.4,0-0.6,0L264,285L264,285L264,285z"/>
</g>
<path class="st2" d="M352.7,305.8l-12.3-16.1l-0.6-0.2l-44.4-16.3c7.6-5.7,13.8-13.3,18-22l10.9,6.6l20.3,11.5l1.8,1l0.7,0.4
	c1.1,0.7,2,1.6,2.9,2.6c0.5,0.6,1,1.2,1.4,1.9l8.1,13.3C362.7,293.9,359.7,301.7,352.7,305.8z"/>
<g>
	<path d="M170.9,113c0.1,0,0.1,0,0.2,0h17.4c-6.1,7-9.2,14.8-9.2,23.1c0,0.4,0,0.8,0,1.2c0,0.4,0,0.8,0.1,1.2c0,0.2,0,0.3,0,0.4
		c0,0.4,0.1,0.8,0.1,1.3c0.1,1.2,0.4,2.5,0.7,3.8l0,0l0,0l0,0.2c0.1,0.3,0.1,0.6,0.2,0.9c0.2,0.9,0.5,1.7,0.8,2.5
		c0.3,0.8,0.6,1.6,1,2.4c0.6,1.2,1.1,2.3,1.7,3.4c0.2,0.4,0.4,0.8,0.7,1.1c0.3,0.4,0.5,0.8,0.7,1.1c0.4,0.5,0.7,1,1,1.4
		c0.4,0.5,0.8,1,1.2,1.5c0.5,0.5,0.9,1,1.2,1.4c0.3,0.3,0.6,0.7,1,1c0.2,0.2,0.4,0.4,0.6,0.6c0.3,0.3,0.5,0.5,0.8,0.8
		c0.4,0.4,0.8,0.8,1.3,1.2c0.4,0.3,0.8,0.6,1.1,0.9c0.8,0.6,1.5,1.1,2.1,1.6l0.3,0.2l0.3,0.2l4.4,2.7l20.1,12.3l49.8,30.4
		c8.2,5,13.2,12.4,13.8,20.3c0.1,1.7,0.1,3.4-0.2,5l-0.7,2.9l-19.3,78l-2.5,9.9H272h1.6c3.6,0.4,6,2.5,7.3,4.2
		c0.5,0.6,0.9,1.2,1.3,1.8h-31.1v-74.5V255l-3.8-2.3L143,189.1l-3.1-1.9c-12.6-7.9-19.9-19.9-19.9-32.7c0-11.5,6-22.5,16.4-30.3l0,0
		l0,0c0.3-0.2,0.7-0.5,1-0.7c0.2-0.1,0.4-0.3,0.6-0.4l0.6-0.4c0,0,0,0,0.1,0l0.2-0.1l0.2-0.1c0.4-0.2,0.8-0.5,1.2-0.8
		c1-0.6,2-1.2,3-1.7l0.2-0.1l0.1-0.1c0,0,0,0,0.1,0c0.2-0.1,0.3-0.2,0.5-0.2l0.1,0l0.1,0c0.5-0.2,0.8-0.4,1.1-0.6l0,0l0,0
		c0.6-0.3,1.2-0.6,1.8-0.8l0,0l0,0c0.5-0.2,1-0.5,1.6-0.7c0.1,0,0.2-0.1,0.3-0.1l0,0l0,0c0.4-0.2,0.9-0.3,1.4-0.5l0.1,0l0.4-0.1
		c0.4-0.1,0.7-0.2,1-0.4l0.5-0.1l0.4-0.2l0.8-0.2c0.2-0.1,0.5-0.1,0.7-0.2l0,0l0,0c1.4-0.4,2.9-0.7,4.5-1c0.3-0.1,0.6-0.1,0.9-0.2
		c0.7-0.1,1.4-0.2,2.1-0.3l0.1,0l0.1,0c0.2,0,0.4,0,0.5-0.1l0.4,0l1-0.1h0c0.8-0.1,1.6-0.1,2.3-0.2h0h0c0.7,0,1.4-0.1,2.1-0.1l0.8,0
		l0.6,0h0h0C170.5,113,170.7,113,170.9,113 M214,105h-42.9c-0.3,0-0.7,0-1,0c-0.5,0-0.9,0-1.4,0c-0.8,0-1.6,0.1-2.4,0.1
		c-0.9,0-1.8,0.1-2.7,0.2c-0.4,0-0.8,0.1-1.1,0.1c-0.4,0-0.8,0.1-1.2,0.2c-0.9,0.1-1.8,0.2-2.6,0.4c-0.3,0.1-0.7,0.1-1,0.2
		c-1.7,0.3-3.4,0.7-5,1.2c-0.8,0.2-1.5,0.4-2.3,0.7c0,0-0.1,0-0.1,0c-0.6,0.2-1.1,0.4-1.7,0.5c-0.1,0-0.2,0-0.2,0.1
		c-0.7,0.2-1.3,0.5-2,0.7c-0.1,0-0.2,0.1-0.2,0.1c-0.7,0.3-1.4,0.5-2,0.8c-0.7,0.3-1.4,0.6-2,0.9c-0.5,0.2-1,0.5-1.6,0.8
		c-0.2,0.1-0.5,0.2-0.7,0.4c-0.1,0-0.2,0.1-0.3,0.2c-1.2,0.6-2.4,1.3-3.5,2c-0.5,0.3-1,0.6-1.5,0.9c-0.2,0.1-0.4,0.2-0.5,0.3
		c-0.4,0.3-0.8,0.6-1.2,0.8c-0.4,0.3-0.8,0.6-1.2,0.9c-12,9-19.5,22.1-19.5,36.7c0,16.2,9.3,30.5,23.6,39.5l0,0l2.1,1.3l105.4,64.2
		V342H292c1-9-6-21-18-22h-2l19.3-78.1l0.7-3.2c0.4-2.4,0.5-4.8,0.3-7.2c-0.8-10.1-6.8-20-17.6-26.5L225,174.6l-20.1-12.3l-4.4-2.7
		c-0.6-0.5-1.2-0.9-1.8-1.4c-0.3-0.2-0.6-0.5-0.9-0.8c-0.4-0.3-0.7-0.6-1-0.9c-0.3-0.2-0.5-0.5-0.8-0.7c-0.1-0.1-0.2-0.2-0.3-0.4
		c-0.3-0.3-0.6-0.6-0.8-0.9c-0.3-0.4-0.7-0.8-1-1.1c-0.3-0.4-0.6-0.8-0.9-1.2c-0.3-0.4-0.6-0.8-0.8-1.2c-0.2-0.3-0.4-0.6-0.5-0.8
		c-0.2-0.3-0.4-0.6-0.5-0.9c-0.5-0.9-1-1.7-1.4-2.6c-0.3-0.6-0.5-1.2-0.7-1.8c-0.2-0.6-0.5-1.3-0.7-2c-0.1-0.3-0.1-0.6-0.2-0.9
		c-0.2-1-0.4-2-0.5-3c0-0.2-0.1-0.5-0.1-0.7c0-0.2,0-0.4,0-0.5c0-0.2,0-0.5,0-0.7c0-0.4,0-0.7,0-1c0-9.8,5.9-17.9,14.1-24.2
		C204,110,206,108,214,105L214,105z"/>
</g>
<path d="M257.9,80.3h37.1c0,0.5,0,0.9,0,1.4V89H258v-7.3C258,81.2,258,80.8,257.9,80.3z"/>
<path d="M307,49.2c-1.9,2.1-3.6,4.4-5.1,7c-2.8,4.7-4.8,10.3-5.9,16.3h-39c-1.1-6-3.1-11.6-5.9-16.3c-1.5-2.6-3.2-5-5.1-7l2.4-1.4
	c2.2,2.5,4.2,5.3,6,8.4h5.4L260,52h5l0.4-4.8h5.5l0.6-6.3h10l0.6,6.3h5.5L288,52h5l0.2,4.2h5.4c1.8-3.2,3.8-5.9,6-8.4L307,49.2z"/>
<g>
	<g>
		<path d="M37.8,393.8h6.3V408h0.2L57,393.8h7L53,406L65.9,425h-7l-9.6-14.7l-5.1,5.6v9.1h-6.3L37.8,393.8L37.8,393.8z"/>
		<path d="M79.4,409.3c0-10.1,6.4-16.1,15.7-16.1c9.3,0,15.7,6,15.7,16.1c0,10.1-6.4,16.3-15.7,16.3
			C85.8,425.6,79.4,419.4,79.4,409.3z M104.3,409.3c0-7-3.6-11.3-9.2-11.3s-9.2,4.2-9.2,11.3s3.6,11.5,9.2,11.5
			C100.7,420.8,104.3,416.3,104.3,409.3z"/>
		<path d="M128.7,411.3v-17.6h6.3v18c0,6.8,2.9,9,7.2,9c4.4,0,7.4-2.2,7.4-9v-18h6.1v17.6c0,10.3-5.2,14.3-13.5,14.3
			C134,425.6,128.7,421.6,128.7,411.3z"/>
		<path d="M173.6,409.5c0-10.2,7.3-16.3,16.3-16.3c4.5,0,8,1.9,10.3,4l-3.4,3.6c-1.8-1.6-4-2.7-6.8-2.7c-5.8,0-10,4.3-10,11.3
			c0,7.1,3.8,11.5,9.8,11.5c3.2,0,5.6-1.3,7.6-3.2l3.4,3.5c-2.9,3-6.6,4.5-11.2,4.5C180.7,425.6,173.6,419.8,173.6,409.5z"/>
		<path d="M217.8,393.8h6.3v12.6h14.4v-12.6h6.3V425h-6.3v-13.9h-14.4V425h-6.3V393.8z"/>
		<path d="M264.8,393.8h6.3V425h-6.3V393.8z"/>
		<path d="M291,393.8h6.5l11.1,17.6l3.7,6.7h0.2c-0.3-3.2-0.8-7.2-0.8-10.7v-13.6h6V425h-6.5l-11.1-17.6l-3.7-6.7h-0.2
			c0.3,3.3,0.8,7.1,0.8,10.6V425h-6V393.8z"/>
		<path d="M337.7,393.8h6.5l11.1,17.6l3.7,6.7h0.2c-0.3-3.2-0.8-7.2-0.8-10.7v-13.6h6V425h-6.5l-11.1-17.6l-3.7-6.7h-0.2
			c0.3,3.3,0.8,7.1,0.8,10.6V425h-6V393.8z"/>
		<path d="M384.3,393.8h6.3V425h-6.3V393.8z"/>
	</g>
</g>
<g>
	<path d="M405.1,15c6.5,0,11.9,5.3,11.9,11.9v410.3c0,6.5-5.3,11.9-11.9,11.9H26.9c-6.5,0-11.9-5.3-11.9-11.9V26.9
		C15,20.3,20.3,15,26.9,15H405.1 M405.1,0H26.9C12,0,0,12,0,26.9v410.3C0,452,12,464,26.9,464h378.3c14.8,0,26.9-12,26.9-26.9V26.9
		C432,12,420,0,405.1,0L405.1,0z"/>
</g>
<line class="st3" x1="0" y1="363.5" x2="432" y2="363.5"/>
</svg>
