<?xml version="1.0" encoding="utf-8"?>
<!-- Generator: Adobe Illustrator 27.2.0, SVG Export Plug-In . SVG Version: 6.00 Build 0)  -->
<svg version="1.1" id="Layer_2_00000046341298867099333010000008746288428220653746_"
	 xmlns="http://www.w3.org/2000/svg" xmlns:xlink="http://www.w3.org/1999/xlink" x="0px" y="0px" viewBox="0 0 128.7 128.7"
	 style="enable-background:new 0 0 128.7 128.7;" xml:space="preserve">
<style type="text/css">
	.st0{fill:#231F20;}
	.st1{fill:none;}
</style>
<g id="Layer_1-2">
	<g>
		<path class="st0" d="M120.8,32.9c-1.1,0.1-1.9,1-2.1,2.1v12.1h-2.2c0.1-1.4,0.1-5.5-2.7-9.3c-4.7-6.3-13-5.7-13.5-5.7
			c-0.2,0-0.5,0-0.7,0.1v-1.5h2.8c0.4,0,0.7-0.3,0.7-0.7s-0.3-0.7-0.7-0.7h-0.7v-7.1h0.7c0.4,0,0.7-0.3,0.7-0.7
			c0-0.4-0.3-0.7-0.7-0.7h-2.8v-2.8h-1.4v2.9h-2.8c-0.4,0-0.7,0.3-0.7,0.7c0,0.4,0.3,0.7,0.7,0.7h0.7v7.1h-0.7
			c-0.4,0-0.7,0.3-0.7,0.7s0.3,0.7,0.7,0.7h2.8v1.6c-9.3,1-18.8,1.9-28.5,2.6c-5.3,0.4-10.6,0.8-15.8,1.1c-3.5,0.2-5.2,0.3-5.6,0.3
			c-5.9,0.1-16.8,0.3-25.6-6.4c-1.2-0.9-3-2.5-5-5H17v-2.9h1.4v-3.6h-2.1v-2.1c0-0.4-0.3-0.7-0.7-0.7s-0.7,0.3-0.7,0.7v2.1h-2.1v3.6
			h1.4v2.9h-1.4v28.2c0.6-0.3,1.4-0.5,2.1-0.5c2.8,0,5,2.2,5,5s-2.2,5-5,5c-0.8,0-1.5-0.2-2.1-0.5v3.3h-2.2v8H15v14.1
			c0.6,0.9,1.3,1.9,2,2.8V74.2h5c-0.1-2-0.2-7.7,3.5-13.5c3.4-5.3,8.1-7.7,10-8.5h27c3.8,0.1,8.2,0.8,12.8,2.8
			c3,1.3,6.1,2.7,8.5,5.7c3.3,4.1,3.5,8.8,3.6,12.1c0.3,11.2-5.7,19.9-8.5,23.5h38.4c-3.2-3.6-4.8-7-5.7-9.2
			c-0.5-1.3-3.6-9.8-0.7-19.2c1-3.2,1.9-3.9,3.6-9.2c1.1-3.5,1.8-6.5,2.1-8.5h2.1v12.8c0.2,1.1,1.1,2,2.1,2.1
			c1.3,0.2,2.6-0.7,2.8-2.1V35C123.4,33.6,122.1,32.7,120.8,32.9L120.8,32.9L120.8,32.9z M29.8,45c-2.4,0-4.3-1.9-4.3-4.3
			s1.9-4.3,4.3-4.3s4.3,1.9,4.3,4.3S32.1,45,29.8,45z M101.3,54.9c-4.9,0-8.9-4-8.9-8.9s4-8.9,8.9-8.9s8.9,4,8.9,8.9
			S106.2,54.9,101.3,54.9z"/>
		<path class="st0" d="M2,103.3v25.6h3.2c1.3-5.7,6.4-10,12.5-10H113c6.1,0,11.2,4.3,12.5,10h3.2v-25.6H2z M82.1,116.1H48.6
			c-2.5,0-4.6-2.1-4.6-4.6c0-1.3,0.5-2.4,1.3-3.3c0.8-0.8,2-1.3,3.3-1.3H82c1.3,0,2.4,0.5,3.3,1.3c0.8,0.8,1.3,2,1.3,3.3
			C86.7,114.1,84.6,116.1,82.1,116.1C82,116.1,82,116.1,82.1,116.1z"/>
		<circle class="st0" cx="14.8" cy="57.8" r="3.6"/>
		<circle class="st0" cx="29.8" cy="40.7" r="2.8"/>
		<path class="st0" d="M128.7,48.5c0,2-1.6,3.6-3.6,3.6V45C127.1,45,128.7,46.6,128.7,48.5z"/>
		<rect y="98.3" class="st0" width="125.9" height="2.1"/>
	</g>
</g>
<rect y="0" class="st1" width="128.7" height="128.7"/>
</svg>
