<?xml version="1.0" encoding="UTF-8"?>
<svg id="Layer_2" data-name="Layer 2" xmlns="http://www.w3.org/2000/svg" viewBox="0 0 223.69 223.69">
  <defs>
    <style>
      .cls-1 {
        fill: #f5eceb;
        stroke: #231f20;
        stroke-miterlimit: 10;
      }

      .cls-2 {
        fill: #254675;
      }
    </style>
  </defs>
  <g id="Layer_1-2" data-name="Layer 1">
    <g>
      <circle class="cls-1" cx="111.85" cy="111.85" r="111.35"/>
      <g id="atusa_-_hoodie" data-name="atusa - hoodie">
        <path class="cls-2" d="m139.53,150.98c.19.12.43.25.7.36.25.1.47.17.67.22,1.21.12,2.64.18,4.23.07.36-.02.7-.05,1.04-.09-.2.34-.39.66-.57.97-.34.03-.69.06-1.05.08-1.09.07-2.09.06-3.01.02-.14-.01-.26.09-.27.23-.01.14.09.26.23.27.8.15,1.82.26,2.99.23.22,0,.44-.02.65-.04-.13.23-.26.46-.39.68-.27.02-.54.05-.82.07-.6.05-1.19.09-1.76.12,0,0-.51.09-.52.21-.01.09.09.2.23.27.51.08,1.09.13,1.75.13.22,0,.43,0,.63-.01-.17.26-.35.52-.55.77-.18-.01-.57-.04-1.14-.09-.33-.03-.36-.04-.5-.04-.33,0-.66,0-.77.19-.02.04-.05.12-.02.25.23.27.69.29,1.23.34.2.02.41.02.63.01-.21.24-.44.47-.7.72-.2-.02-.36-.02-.48-.02-.38,0-.67.01-.77.19-.04.08-.04.17-.02.25.22.22.44.53.44.89,0,.25-.11.45-.04.5.12.09.6-.36.67-.42,1.55-1.46,2.52-2.92,2.52-2.92.72-1.08,1.32-2.04,1.81-2.83.84-1.31,1.64-2.24,2.23-2.85.34-.36,1.36-1.4,2.19-2.35,0,0,.74-.86,1.14-1.76,0,0,.04-.09.07-.16,0,0,.07-.15.07-.16h0c.47-1.09.85-2.24,1.07-3.48h0s.02-.08.02-.11c.13-.78.21-1.6.21-2.46,0-.06,0-.12,0-.17,0-.18,0-.36-.02-.54-.02-.33-.04-.65-.08-.96h0s0-.06,0-.08c0,0,0,0,0,0-.04-.38-.1-.74-.16-1.08h0c-.01-.07-.03-.13-.04-.19-.09-.44-.2-.85-.3-1.22-.07-.26-.19-.61-.26-.83-.11.1-.25.26-.29.48-.02.11,0,.16-.02.25-.03.11-.12.26-.39.4.02.15.02.16.04.32.21.06.43.05.59-.02.14.13.18.24.18.34,0,.15-.09.26-.18.38-.18.04-.38.06-.61.06-.19,0-.35-.01-.5-.04-.04.01-.2.07-.27.23-.01.02-.06.15-.02.25.12.28.9.17,1.25.09.03,0,.07-.01.09-.02.06.09.13.16.14.29,0,.14-.06.32-.34.55-.1.02-.21.03-.33.04-.22.01-.41,0-.58-.02-.16-.02-.32-.06-.48-.12-.13-.05-.3-.09-.31.03,0,.07-.05.34-.03.4.05.16.56.28.9.27.3-.05.59-.1.88-.15.07.05.15.13.19.24.05.14,0,.26-.04.5t0,0c-.26.08-.53.14-.83.18-.77.1-1.42,0-1.93-.15-.15-.03-.27.11-.27.23-.01.09.04.2.11.26.55.15,1.25.25,2.06.16.3-.03.59-.09.86-.17.07.06.18.18.2.25.06.26-.7.64-.8.69-.02.01-.04.02-.06.03-.28.07-.57.12-.88.15-.9.09-1.67-.02-2.27-.17-.18-.03-.31.11-.32.23-.01.09.05.2.13.26.65.16,1.47.27,2.42.18.36-.03.7-.09,1.02-.16.32.08.38.22.4.27.07.21-.14.52-.55.83-.54.12-1.15.21-1.81.25-1.21.07-2.39-.02-3.2-.19-.24-.04-.38-.03-.5-.04-1-.08-2.54.31-.08,1,.88.18,2.23.33,3.5.26.88-.04,1.85-.15,2.54-.31-.16.5-.29.38-.51.79-.88.19-1.93.35-3.13.39-1.47.05-2.74-.1-3.74-.28-.29-.04-1.11-.03-1.24-.04-.5-.04-2.04.35.43,1.04,1.06.3,2.95.38,4.5.34,1.03-.03,1.72-.18,2.54-.31-.24.35-.79.57-1.08.93-1.07.13-2.26.22-3.54.24-2.08.02-3.93-.16-5.51-.42-.48.1-1.04.24-1.04.43,0,.38,2.41.66,2.97.73,1.52.18,3.74.31,6.54,0l-.54.46c-.36.31-.72.62-1.08.93-1.14.16-2.51.26-4.04.2-2.2-.09-4.05-.49-5.47-.92-.27-.02-.52.19-.54.46s.19.52.46.54c1.22.42,2.81.84,4.7,1.04,1.76.19,3.3.13,4.52,0-.09.07-.17.16-.25.27-.01.02-.02.03-.03.05-.22.34-.44.68-.65,1.01-.54.04-1.1.06-1.69.06-1.64,0-3.12-.16-4.41-.39-.33.17-.67.33-1,.5Z"/>
        <path class="cls-2" d="m110.31,157.94c.05-.29.09-.71,0-1.21-.12-.68-.35-.7-.4-1.21-.1-.95.6-1.77.8-2.01.15-.18.3-.31.4-.4-.2.89-.12,1.55,0,2.01.17.66.43.93.4,1.61-.03.55-.22.89-.4,1.21-.21.36-.33.4-.4.4-.16,0-.31-.16-.4-.4Z"/>
        <path class="cls-2" d="m71.75,101.2c-.03-.07-.07-.16-.08-.28-.03-.24.04-.43.08-.53,0,0,.12-.24.4-.4,6.62-3.73,15.26-2.81,15.26-2.81,2.25.24,3.73.41,5.62,1.21,2.86,1.2,4.62,2.58,5.62,3.62,2.08,2.14,3.3,4.77,4.02,6.43.08.26.29.79.8,1.21.05.04,1.24.97,2.01.4.42-.31.56-.96.4-1.61-.32-.89-.81-2.02-1.61-3.21-.54-.82-1.11-1.5-1.63-2.05-.47-.49-.82-1.09-1.07-1.72-.03-.08-.07-.16-.1-.24,0,0-.61-1.33-2.01-2.41-4.91-3.8-10.62-4.38-13.66-4.42-4.75-.06-8.74,1.14-11.65,2.41-.45.08-.68.25-.8.4-.13.15-.19.32-.4.4-.02,0-.28.11-.4,0-.19-.17-.02-.83.4-1.21.15-.14.22-.13.8-.4.4-.19.56-.28.8-.4,0,0,.79-.39,2.01-.8,6.77-2.28,14.06-.8,14.06-.8,2.51.51,6.83,1.39,10.85,4.82,0,0,2.92,2.5,5.22,7.63.32.72.8,1.93.4,3.21-.09.29-.37,1.17-1.21,1.61-.96.49-2.13.14-2.81-.4-.19-.15-.32-.31-.4-.4-.6-.7-.76-1.44-.8-1.61-.35-1.4-2.92-4.84-3.21-5.22-2.95-3.86-9.55-5.07-10.44-5.22-5.38-.93-9.9.53-13.26,1.61-1.35.43-2.45.88-3.21,1.21Z"/>
        <path class="cls-2" d="m60.5,130.22c-.11.08-.26.21-.4.4-.23.31-.32.63-.4,1.21-.15,1.05-.22,1.58,0,2.01.21.42.54.63.8.8.21.14,1.23.77,2.41.4.18-.06.77-.25,1.21-.8.12-.15.24-.35.4-.8.13-.38.29-.93.37-1.64.02-.19-.17-.33-.34-.26-.21.09-.35.2-.43.29-.09.1-.2.34-.4.8-.19.44-.24.58-.4.8-.14.19-.23.32-.4.4-.28.14-.56.06-.8,0-.37-.1-.94-.25-1.21-.8-.26-.54-.05-1.1,0-1.21.03-.06.31-.67,0-1.21-.12-.21-.29-.33-.4-.4Z"/>
        <path class="cls-2" d="m128.82,34.63h0c.2,0,.37.16.37.37v25.37c0,.2-.16.37-.37.37h0c-.46,0-.84-.38-.84-.84v-24.43c0-.46.38-.84.84-.84Z" transform="translate(3.95 -9.54) rotate(4.31)"/>
        <path class="cls-2" d="m125.68,29.81h0c.2,0,.37.16.37.37v23.41c0,.2-.16.37-.37.37h0c-.46,0-.84-.38-.84-.84v-22.47c0-.46.38-.84.84-.84Z" transform="translate(3.51 -9.32) rotate(4.31)"/>
        <path class="cls-2" d="m101.6,35.84h0c.2,0,.37.16.37.37v6.89c0,.2-.16.37-.37.37h0c-.46,0-.84-.38-.84-.84v-5.95c0-.46.38-.84.84-.84Z" transform="translate(2.14 -5.09) rotate(2.91)"/>
        <path class="cls-2" d="m98.35,40.66h0c.2,0,.37.16.37.37v8.1c0,.2-.16.37-.37.37h0c-.46,0-.84-.38-.84-.84v-7.16c0-.46.38-.84.84-.84Z" transform="translate(2.41 -4.92) rotate(2.91)"/>
        <path class="cls-2" d="m95.46,34.64h0c.2,0,.37.16.37.37v11.33c0,.2-.16.37-.37.37h0c-.46,0-.84-.38-.84-.84v-10.39c0-.46.38-.84.84-.84Z" transform="translate(2.19 -4.78) rotate(2.91)"/>
        <path class="cls-2" d="m92.62,36.24h0c.2,0,.37.16.37.37v12.51c0,.2-.16.37-.37.37h0c-.46,0-.84-.38-.84-.84v-11.57c0-.46.38-.84.84-.84Z" transform="translate(2.29 -4.63) rotate(2.91)"/>
        <path class="cls-2" d="m109.5,151.11c-.27.13-.53.27-.8.4-.67-.35-1.22-.41-1.61-.4-.5.01-.8.15-1.21,0-.41-.16-.65-.51-.8-.8-.1-.04-.2-.08-.32-.13,0,0,0,0,0,0-.35-.12-.78-.23-1.28-.27-.3-.02-.57-.02-.8,0h-5.22c-.04-.16-.08-.46,0-.8.05-.22.13-.58.4-.8.43-.35.87-.01,1.61-.4.15-.08.4-.21.4-.4s-.23-.34-.4-.4c-.12-.04-.2-.04-.8,0-.31.02-.35.02-.4,0-.29-.1-.51-.53-.4-.8.14-.35.81-.43,1.21-.4.18.02.27.05.4,0,.3-.12.52-.56.4-.8-.1-.2-.35-.11-.8-.4-.2-.13-.35-.22-.4-.4-.09-.29.11-.68.4-.8.31-.13.5.13.8,0,.3-.13.49-.54.4-.8-.02-.08-.06-.1-.4-.4-.38-.33-.4-.36-.4-.4-.04-.29.57-.74,1.21-.8.45-.04.71.13.8,0,.1-.16-.17-.56-.4-.8-.24-.25-.41-.28-.4-.4.01-.25.76-.39.8-.4.35-.08.64-.04.8,0,.08.04.28.16.4.4.19.38.02.75,0,.8-.53.94-1.07,1.88-1.61,2.81-.27.52-.73,1.63-.4,2.81,0,.01,0,.02.01.04,0,.02.01.04.02.06.06.2.14.41.25.63.02.05.04.09.06.14.03.06.06.12.09.18.31.62.81,1.33,1.48,1.63.15.07.32.12.49.14.12.02.26.02.4,0,.09-.12.22-.27.4-.4.08-.06.62-.36,1.21-.4.42-.03.48.06.8,0,.38-.08.42-.29.8-.4.17-.05.51-.14.8,0,.38.19.31.61.8,1.21.17.21.23.22.4.4.28.29.61.78.8,1.61Z"/>
        <path class="cls-2" d="m110.87,161.56c.18.03.47,0,.47,0v-1.61c.53-.46,1.64-1.29,3.31-1.61,1.26-.24,2.32-.08,2.84,0,2.15.34,2.48,1.15,4.25,1.21,1.07.03,1.89-.24,2.36-.4,1.93-.65,2.95-1.9,3.31-2.41.07.3.26,1.36-.47,2.41-.46.67-1.08,1.03-1.42,1.21.13.02.29.02.47,0,.48-.06.81-.29.95-.4-.02.19-.12,1.04-.95,1.61-.35.24-.7.35-.95.4.12.1.44.34.95.4.78.09,1.34-.34,1.42-.4v.02s0,.34,0,.38c0,.17-.34.53-.95.8-.56.25-.92.25-.95.4-.01.08.07.21.47.4.01.08.03.31,0,.4-.04.14-.25.3-.95.4-.04,0-.77.02-.95.4-.06.13-.03.25,0,.4.04.17.14.48.47.8-.28.26-.65.65-.95,1.21-.35.65-.44,1.23-.47,1.61h.95c.14.08.25.14.39.22.35.73.69,1.46,1.03,2.19-.25.06-.78.15-1.42,0-.5-.12-.87-.34-1.12-.53-.19-.15-.26-.38-.18-.59l.05-.13c-.31-.36-.35-.41-.65-.76h-.47c-.38,0-.41.02-.47,0-.17-.04-.36-.21-.47-.8-.02-.19-.13-1.01-.95-1.61-1.2-.87-2.77-.42-2.84-.4-1.36.29-3.32.56-5.67.4-2.56-.17-4.37-.78-5.67-1.21-1.14-.38-2.57-.94-3.78-2.01-.17-.15-1.13-1-.95-1.21.07-.08.29-.04.47,0,1.45.83,5.58,2.96,11.35,2.81,4.58-.12,7.92-1.61,9.46-2.41-1.31-.06-2.74-.18-4.25-.4-.83-.12-1.62-.25-2.36-.4-.47.13-.95.27-1.42.4-.78.03-1.95.08-2.73.11-.91-.19-1.9-.37-2.94-.51-1.73-.24-3.31-.36-4.73-.4-.56.03-.94-.2-.95-.4,0-.15.2-.31.47-.4,1.96-.25,4.01-.39,6.15-.4h.28c-.07-.12-.17-.26-.28-.4-.15-.18-.44-.53-.95-.8-.33-.13-.78-.28-1.32-.35-.02,0-.04,0-.06,0-.17-.02-.34-.04-.52-.04-1.31-.03-2.09.45-3.31.8-.86.25-2.1.49-3.78.4-.87.21-1.24.54-1.42.8-.22.33-.15.57-.47.8-.26.18-.43.13-.95.4-.28.15-.47.25-.47.4,0,.18.27.34.47.4.39.12.61-.04.95,0,.26.04.6.2.95.8-1.42,0-3.15.13-4.73,0v-1.21c0-.8-.24-1.3-.47-1.61-.15-.2-.37-.43-.47-.8-.09-.33-.05-.61,0-.8.36-.43,1.35-1.5,2.84-1.61.15-.01.31-.01.47,0,.32.13.63.27.95.4,1.61.71,2.9.82,3.78.8.48-.01,1.27-.14,2.84-.4,2.06-.34,2.5-.51,3.31-.4,1.12.15,1.93.55,2.36.8.78.52.95.92.95,1.21,0,.11-.03.22,0,.4,0,.07.03.13.05.19,0,0,0,.02.01.03,0,.03.02.06.03.09.1.21.24.37.37.49h0Z"/>
        <path class="cls-2" d="m193.82,110.61c.08-.63.12-1.46,0-2.41-.15-1.19-.5-2.15-.8-2.81.08-.75.12-2.08-.4-3.61-.45-1.33-1.14-2.27-1.61-2.81.02-.66-.03-1.67-.4-2.82-.44-1.35-1.14-2.28-1.61-2.81-.01-.48-.11-1.95-1.2-3.21-.56-.65-1.18-1.01-1.61-1.2-.21-.25-.48-.53-.8-.8-.44-.37-.86-.62-1.21-.8-.05-.46-.24-1.68-1.2-2.81-.89-1.06-1.96-1.46-2.41-1.61-.25-.53-.84-1.56-2.01-2.41-1.31-.95-2.63-1.15-3.21-1.2-.27-.38-.91-1.13-2.01-1.61-.83-.36-1.57-.41-2.01-.41-.08-.25-.45-1.35-1.61-2.01-1.08-.62-2.14-.45-2.41-.4-.4-.42-1.19-1.14-2.41-1.61-.99-.37-1.87-.42-2.41-.4-.19-.24-.45-.53-.8-.8-.6-.47-1.2-.69-1.61-.8.3-5.21.7-10.56,1.2-16.07.47-5.09,1.01-10.05,1.61-14.86-.09-.31-.22-.57-.4-.8-.33-.43-.54-.39-.8-.8-.19-.32-.15-.47-.4-.8-.15-.2-.26-.28-.4-.4-.51-.48-.49-.9-1.2-2.01-.12-.19-.22-.33-.4-.4-.21-.08-.31.03-.8,0-.25-.01-.29-.04-.4,0-.1.04-.2.16-.4.4-.2.24-.3.36-.4.4-.15.06-.28.02-.4,0-.53-.08-1.03.28-1.2.4-.52.38-.46.75-.8.8-.27.05-.53-.17-.8-.4-.51-.42-.46-.7-.8-.8-.1-.03-.1,0-.8,0-.35,0-.36.02-.4,0-.22-.09-.34-.6,0-2.41,0-.1.01-.24,0-.4-.02-.14-.06-.63-.4-1.2-.22-.36-.42-.71-.8-.8-.19-.05-.35-.01-.4,0-.96.2-3.52-.15-4.82-.4-.66-.13-1.13-.25-1.61,0-.21.11-.26.2-.8.8-.65.72-.98,1.08-1.2,1.2-.39.22-.44.1-1.61.4-.63.17-.94.25-1.2.4-.48.28-.75.62-1.2,1.2-.28.36-.38.69-.8,1.2-.07.09-.2.24-.4.4-.17.14-.43.35-.8.4-.18.03-.32.02-.4,0-1.22-.16-1.84-.24-2.01-.4-.32-.3-.35-.74-.4-1.61-.05-.69.08-.72,0-1.2-.03-.17-.17-.95-.8-1.61-.24-.25-.56-.43-1.2-.8-.83-.48-1.06-.5-1.2-.8-.2-.43.11-.7,0-1.2-.14-.61-.76-.96-1.2-1.2-1.82-.98-5.03-1.17-5.63-1.2-.31-.02-.97,0-1.61.4-.43.28-.68.63-.8.8-.53.76-.37,1.19-.8,1.61-.2.19-.54.4-1.2.4-.27-.05-.69-.09-1.2,0-.12.02-1.64.32-2.41,1.61-.46.78-.3,1.32-.8,1.61-.39.23-.87.12-1.2,0-3.28-.54-6.91-.97-10.85-1.2-4.54-.27-8.72-.22-12.45,0-.31-.15-.67-.4-.8-.8-.15-.43.1-.59,0-1.2-.1-.59-.36-.61-.4-1.2-.03-.38.07-.46,0-.8-.06-.26-.13-.31-.4-.8-.45-.81-.5-1.12-.8-1.2-.16-.04-.16.03-.4,0-.05,0-.48-.07-.8-.4-.24-.24-.13-.33-.4-.8-.18-.32-.41-.7-.8-.8-.13-.04-.21-.02-.4,0,0,0-.17.02-1.21,0-1.34-.02-2.41-.4-2.41-.4-.79-.28-1.17-.61-1.61-.4-.17.08-.24.19-.4.4-.07.08-.45.45-1.2,1.2l-.4.4c-.4.51-.43,1.14-.4,1.61.09.25.32,1.05,0,2.01-.27.82-.78,1.25-1.2,1.61-.47.4-.69.42-.8.4-.39-.04-.72-.43-.8-.8-.04-.16-.02-.29,0-.4.17-1.09.47-1.47.4-2.01-.06-.4-.29-.67-.4-.8-1.05-1.23-3.67-.5-4.02-.4-.62.17-1.71.58-2.81,1.61-.08.29-.2.72-.4,1.2-.3.7-.45,1.04-.8,1.2-.37.17-.5-.08-1.2,0-.2.02-.72.08-1.21.4-.38.25-.33.38-.8.8-.24.22-.56.42-1.2.8-.86.53-1,.56-1.2.8-.27.35-.33.71-.4,1.2-.28,1.97-.42,2.95-.4,3.22.08,1.02.31,1.07.4,2.41.05.61.08,1.08,0,1.61-.21,1.37-1.17,2.34-1.61,2.81-.17.18-.31.31-.4.4-.28,4.41-.43,9.11-.4,14.06.03,4.06.17,7.95.4,11.65-.36.19-.78.45-1.2.8-.83.7-1.33,1.47-1.61,2.01-.47,0-1.63.05-2.81.8-1.3.83-1.84,1.99-2.01,2.41-.58.17-1.49.5-2.41,1.21-1.11.85-1.72,1.84-2.01,2.41-.72.18-1.97.59-3.22,1.61-1.05.86-1.67,1.8-2.01,2.41-.46.11-2.03.51-3.21,2.01-1.04,1.32-1.18,2.71-1.2,3.21-.47.19-1.88.83-2.81,2.41-.81,1.37-.83,2.69-.8,3.21-.39.38-1.24,1.33-1.61,2.82-.31,1.24-.13,2.28,0,2.81-.35.48-1.07,1.61-1.2,3.21-.11,1.27.19,2.27.4,2.81-.28.49-.76,1.48-.8,2.81-.04,1.06.21,1.91.4,2.41-.22.5-.68,1.7-.4,3.21.11.61.31,1.11.51,1.51.1,1.14.29,2.66.46,3.44.22.97.51,1.79.79,2.43-.11.48-.36,1.73.06,3.15.31,1.07.85,1.75,1.15,2.07-.02.62.02,1.65.43,2.79.26.73.58,1.27.86,1.65-.02.6.02,1.63.42,2.79.35.99.82,1.67,1.15,2.07,0,.57.05,1.87.72,3.21.6,1.2,1.41,1.84,1.82,2.13-.03.44-.08,1.86.72,3.21.64,1.08,1.49,1.57,1.85,1.74.12.81.52,2.77,1.94,4.5,1.17,1.43,2.48,2.01,3.14,2.25.13.41.34,1.01.65,1.7.62,1.4,1.13,2.56,2.23,3.47.43.36,1.2.9,2.41,1.2.08.48.28,1.23.8,2.01.94,1.39,2.29,1.88,2.77,2.03.1.05.19.09.29.13.09.04.18.08.27.12.2.42.72,1.45,1.82,2.12.96.6,1.87.62,2.28.6.33.4.83.91,1.56,1.32,1.83,1.03,3.71.65,4.27.52.5.21,1.69.62,3.21.4,1.41-.21,2.38-.87,2.81-1.2.26.16.67.34,1.2.4.61.06,1.15-.08,1.57-.27,0,.18,0,.35,0,.52.29-.16.58-.3.88-.43,0,.11-.01.22-.02.34,0,.14,0,.39.01.64.05.37.09.73.1,1.11.03.66-.02,1.31-.13,1.93,0,.77.01,1.43.02,1.94.05,2.65.15,3.77,0,5.62-.1,1.21-.27,2.19-.39,2.82-.17.4-.34.95-.39,1.61-.03.33-.02.61,0,.8.02.27.09.88.39,1.61.21.51.26.41.39.8.18.52.14.83.39,1.2.13.2.29.33.39.4.69.8,1.74,1.95,3.12,3.21,2.56,2.33,6.48,5.9,12.12,7.23,2.87.67,6.14.76,7.82.81.29,0,1.23.03,2.74,0,1.4-.03,4.71-.13,10.16-.81,5.33-.66,5.73-1.02,10.16-1.61,3.48-.46,4.17-.43,8.99-.8.26-.02.47-.04.78,0,.66.08.89.32,1.56.4.07.01.38.05.78,0,.81-.08,1.02-.38,1.56-.4.53-.02.91.25,1.17.4.15.09,1.53.6,4.3,1.61,1.2.44,2.98.88,5.47.8.53-.39,1.27-1.03,1.96-2.01.63-.91.98-1.79,1.17-2.41-.13-3.06-.26-5.76-.39-8.03-.06-1.12-.12-2.01-.39-3.21-.33-1.44-.62-1.77-1.56-4.42-.99-2.78-1.13-3.68-1.17-4.02-.12-.87-.13-1.66-.09-2.31,0-.09-.01-.18-.02-.27-.06-1.12.02-2.19.17-3.19.35.02.7.03,1.05.04.79.07,1.74.1,2.81,0,.91-.08,1.72-.23,2.41-.4.37.18,1.44.64,2.81.4,1.29-.22,2.11-.92,2.41-1.2.28.1,1.27.42,2.41,0,.9-.33,1.41-.94,1.61-1.2.44.04,1.38.07,2.41-.4.81-.37,1.33-.88,1.61-1.2.84-.39,1.8-.91,2.81-1.61.78-.54,1.45-1.09,2.01-1.61.41-.13.99-.36,1.61-.8.57-.42.96-.87,1.2-1.2.58-.26,1.29-.64,2.01-1.2,1.24-.98,1.99-2.07,2.41-2.82.53-.26,1.55-.85,2.41-2.01.83-1.12,1.1-2.23,1.2-2.81.66-.45,1.6-1.22,2.41-2.41,1.21-1.77,1.52-3.51,1.61-4.42.69-.7,1.69-1.89,2.41-3.61.52-1.25.72-2.38.8-3.21.76-.78,2.11-2.39,2.81-4.82.47-1.63.48-3.06.4-4.02.16-.39.33-.94.4-1.61.05-.46.04-.87,0-1.2.28-.53.63-1.35.8-2.41.16-1,.09-1.84,0-2.41.36-.52,1.03-1.64,1.2-3.21.16-1.47-.19-2.64-.4-3.22.27-.44.69-1.28.8-2.41.13-1.3-.2-2.31-.4-2.81Zm-25.3-24.5c.31.5.22.64.4.8.27.25.82.29,1.2,0,0,0,.02-.02.07-.09h0c.24-.21.51-.47.78-.78.37-.44.62-.86.8-1.21.08-.12-.27-.36-.4-.8-.11-.34-.04-.62,0-.8.21-1.13-.02-3.15-.4-3.21-.04,0-.15,0-.4.4-.15.24-1.43,2.25-.4,3.61.02.03.04.05.07.08.11.16.26.4.34.72.07.28.14.56,0,.81-.17.3-.55.4-.8.4-.07,0-.13-.02-.19-.03h0c-.08-.07-.16-.16-.25-.3-.34-.53-.39-1.07-.4-1.2-.13-1.47,0-2.41,0-2.41.07-.91.28-2.03.8-3.21.13-.29.26-.56.4-.8.1,0,.24-.01.4,0,0,0,.86.04,1.61.4,1.02.49,1.88,2.05,2.01,3.61.03.3.03.64.01.99-.12.94-.43,1.64-.77,2.15-.02.03-.04.06-.06.09-.18.25-.33.41-.46.56-.14.17-.24.32-.29.57-.2.93.67,1.84,1.2,2.41.15.16,2,2.11,2.81,1.61.58-.36.56-1.89,0-2.41-.17-.17-.38-.45-.4-.8-.03-.45.28-.57.4-1.2.07-.38-.04-.32,0-1.21.02-.41.05-.54,0-.8-.05-.23-.19-.79-.4-.8-.34-.02-.95,1.42-.8,2.82.11.95.54,1.65.8,2.01.09.26.33,1.42,0,1.61-.36.21-1.32-.88-1.57-1.16h0c-.26-.8-.51-1.89-.48-3.18.04-1.62.48-2.88.8-3.61.17-.34.34-.67.5-1.01.13-.07.23-.12.36-.19.3.05.7.17,1.15.39,0,0,1.21.61,2.01,2.01.92,1.6.48,4.71-1.61,7.63.59.26.98.58,1.2.8.3.29.64.63.8,1.2.15.52.06.97,0,1.2.14.27.27.54.4.8.05-.37.08-.93,0-1.61-.09-.77-.29-1.25-.4-1.61-.38-1.21-.21-2.3,0-3.61.25-1.56.77-2.79,1.2-3.61.43.22,1.04.59,1.61,1.2.8.87,1.21,1.88,1.42,2.8-.32.1-.49.25-.58.35-.36.38-.38.96-.4,1.61v.15c-.05.7-.42,1.06-.8,1.06s-.76-1.33-.4-3.61c-.13.13-.27.27-.4.4-.36.77-.75,1.97-.4,3.21.09.32.32,1.12.8,1.2.33.06.62-.23.8-.4.68-.66.79-1.98.8-2.41.09-.1.23-.24.4-.4.16-.15.25-.22.32-.29.08.67.06,1.22.05,1.56-.02.61-.1,1.44-.4,2.41-.09.1-.22.24-.4.4-.49.46-.68.54-.8.8-.09.21-.08.4,0,.8.14.75.21,1.12.4,1.61.12.28.21.6.28.94-.24-.28-.7-.73-1.04-.61-.1.04-.24.14-.4.8-.24.98-.12,1.47-.25,1.98-.03.14-.08.28-.16.43-.23.45-.63.84-.78.81,0,0-.01,0-.02,0,0,0-.01,0-.02-.02-.1-.09-.07-.56.42-1.99v-.8c-.22.16-.53.41-.8.8-.51.74-.89,1.98-.4,2.41.32.28.9.14,1.2,0,.39-.18.6-.49.8-.8.15-.22.15-.28.4-.8.56-1.14.71-1.2.8-1.2.09,0,.23.06.4.4.01.3,0,.6-.04.88,0,.06-.02.11-.02.16,0,0,0,0,0,0-.22.7-.84,2.2-2.34,2.97-.43.22-.84.34-1.2.4-.28-.03-.66-.12-.8-.4-.13-.25.04-.44,0-.8-.07-.6-.62-.75-.8-1.2-.15-.36-.09-.95.8-2.01.11-.09.25-.23.4-.4.21-.24.67-.79.8-1.61.04-.21.08-.47,0-.8-.09-.39-.28-.66-.4-.8-.69-.25-1.07-.08-1.2,0-.4.23-.61.73-.8,1.2-.2.47-.24.79-.4.8-.28-.03-.56-1.05-.4-2.01.03-.18.21-1.32.8-2.01.08-.09.34-.38.4-.8.03-.17.02-.31,0-.4-.39.25-2.3,1.55-2.41,3.61-.01.13,0,.27,0,.4h0s0,.06,0,.09c0,.03,0,.06,0,.09.01.08.02.15.03.22h0c.01.11.03.2.05.29,0,.02.01.04.02.06.01.06.03.12.04.17.02.07.04.15.06.21.17.57.45,1.03.76,1.21.03.02.07.04.1.05.02,0,.03,0,.04.01.04.01.08.02.11.02.32.03.59-.21.8-.4.51-.44,1-1.34.8-2.01-.02-.07-.11-.3,0-.4.09-.09.28-.06.4,0,.46.22.44,1.13.41,1.48,0,.07-.01.11-.01.13-.06.55-.25.95-.4,1.2-.37.32-.63.6-.8.8-.36.42-.48.68-.8.8-.21.09-.43.08-.61.05,0,0-.02,0-.03-.01h0c-.06-.01-.12-.03-.17-.04-.12-.02-.19-.02-.8,0-.68.02-.72.02-.8,0-.23-.06-.53-.25-.8-.8h0c.1-.15.26-.16.37-.33.16-.24.07-.56,0-.8-.12-.42-.28-.5-.4-.81-.15-.38-.09-.72,0-1.2.05-.24.34-1.67,1.2-2.81.06-.07.28-.37.4-.8.13-.47.03-.73,0-.8-.05-.11-.13-.23-.21-.31-.06-.07-.11-.12-.16-.17-.37-.38-1.07-.69-1.61-.4-.18.1-.3.24-.37.36-.02.01-.02.03-.02.05-.02.02-.03.04-.04.07-.17.38-.75,1.62-1.17,1.53-.29-.06-.48-.69-.4-1.2.05-.32.2-.56.31-.7.06-.08.1-.16.1-.26.02-.2.02-.42,0-.65-.05-.58-.19-1.06-.33-1.43-.05-.12-.04-.25.02-.36.11-.21.21-.42.31-.62-.02-.02-.42-.22-.8,0-.24.14-.4.39-.41.67,0,.09.03.17.07.24.17.27.34.64.34,1.1,0,.19-.04.42-.4,1.2-.6,1.28-.97,1.55-.8,2.01.09.26.28.4.4.8.11.36.1.7.05.98-.02.15.02.3.13.4h0c.14.15.35.18.53.1.45-.23,1.15-.67,1.71-1.47.47-.68.67-1.38.75-1.91h0s.04-.06.05-.1c.19-.37.8,0,.8,0,0,0,.4.23.4.4-.03.24-.14,1.13-.8,2.01-.05.07-.11.14-.18.22-.05.05-.1.1-.15.15-.08.09-.18.18-.28.27-.01,0-.02.01-.03.02-.06.05-.11.1-.16.14-.28.25-.52.44-.86.87-.39.48-.65.91-.8,1.2-.15.31-.3.39-.4.4-.24.03-.36-.3-.8-.4-.12-.03-.26-.06-.4,0-.1.04-.2.16-.4.4-.26.31-.3.37-.4.41-.15.06-.24,0-.4,0-.34,0-.65.22-.8.4-.29.34-.08.6-.4,1.2-.1.18-.23.4-.4.4-.2,0-.34-.28-.4-.4-.16-.32-.27-.85,0-1.2.17-.24.4-.25.4-.4,0-.1-.1-.14-.4-.41-.26-.22-.38-.32-.4-.4-.06-.25.26-.4.4-.8.12-.36.03-.68,0-.8-.12-.45-.33-.46-.4-.8-.09-.42.15-.79.4-1.2.26-.42.46-.73.8-.8.32-.07.5.14.8,0,.04-.02.2-.09.4-.4.29-.45.25-.74.4-1.2.18-.55.4-.7.6-1.07.34-.49.44-1.02.25-1.41-.04-.06-.16-.3-.4-.4-.2-.09-.32-.03-.8,0-.27.02-.54,0-.8,0h-.8c-.05.14-.44,1.24-.8,1.2-.28-.04-.39-.74-.4-.8-.12-.74.23-1.36.4-1.61v-.8c-.28.16-1.28.78-1.61,2.01-.07.25-.44,1.65.41,2.41.04.03.56.5,1.2.4.68-.1,1.11-1.05,1.36-1.82.06-.07.15-.14.25-.19.24-.13.66-.21.8,0,.06.09.05.2.03.29-.19.36-.32.63-.47.98-.1.24-.78,1.74-2.01,2.01-.25.06-.54.14-.8,0-.38-.2-.38-.68-.81-.8-.14-.04-.27-.02-.4,0-.38.07-.52.27-.8.4-.35.17-.85.19-1.2,0-.26-.14-.19-.27-.8-1.2-.29-.45-.4-.56-.4-.8,0-.45.37-.77.4-.8.16-.13.26-.14,1.2-.4.49-.14.72-.2.8-.4.06-.14.02-.26,0-.4-.05-.42.15-.76.4-1.2.58-.99,1.88-1.55,2.01-1.61.1-.03.25-.06.4,0,.22.08.31.28.4.4.14.2.46.4,1.2.4.09-.03.24-.06.4,0,.14.05.25.16.4.4Zm12.07,22.3c.02.59-.27,1.12-.42,1.4-.3.56-.87.91-2.01,1.61-.4.25-.59.34-.8.4-.33.11-.99.32-1.61,0-.51-.26-.93-.85-.8-1.2.05-.15.15-.12.4-.4.18-.2.48-.53.4-.8-.06-.2-.27-.18-.4-.4-.16-.26-.07-.57,0-.8.01-.03.02-.06.03-.09.02-.05.03-.1.05-.14,0,0,0,0,0,0,.06-.15.14-.28.22-.4.17-.19.38-.28.55-.24.25.05.38.35.4.4-.05.33-.03.6,0,.8.33-.1.69-.16.8,0,.08.1-.02.23,0,.4.05.52,1.07,1.11,1.61.8.27-.16.36-.6.4-.8.08-.34.04-.63,0-.8-.05.1-.18.28-.4.4-.26.14-.67.18-.8,0-.07-.1-.04-.24,0-.4.11-.45.32-.47.4-.8.1-.4-.16-.55,0-.8.12-.2.31-.18.4-.4.01-.03.02-.05.02-.07,0-.02.01-.04.02-.06.01-.06.01-.12,0-.16,0-.02,0-.04,0-.05,0-.03-.02-.05-.03-.07,0-.02-.02-.03-.03-.04-.3-.43-1.59-.25-2.38.04-.27.09-.52.19-.8.4-.05.04-.09.07-.13.1-.16.15-.3.31-.68.7-.09.1-.18.18-.25.25-.04.05-.09.11-.14.16-.01.02-.03.04-.05.06-.13.13-.77.79-1.61.8-.82.02-1.42-.6-1.61-.8-.17-.13-.44-.31-.8-.4-.9-.23-1.68.21-2.01.4-1.07.62-1.49,1.66-1.61,2.01-.03.2-.1.96.4,1.61.51.67,1.29.76,1.61.8,1.96.25,3.5-1.85,3.61-2.01.14-.21.31-.44.4-.4.13.05.04.61,0,.8-.21.96-1.15,2.02-2.41,2.41-.1.03-2.26.66-3.61-.8-.91-.99-.82-2.24-.8-2.41.16-1.78,1.87-3.27,3.61-3.21.97.03,1.68.53,2.01.8.79.28,1.29.21,1.61,0,.16-.11.15-.17.4-.4.52-.49.77-.45,1.2-.8.13-.11.61-.52.8-1.2.15-.53.16-1.16,0-1.2-.13-.04-.35.32-.4.4-.33.54-.16.85-.4,1.2-.27.39-.89.6-1.2.4-.39-.24-.38-1.12,0-1.61.41-.52,1.08-.38,1.2-.8.08-.28-.13-.65-.4-.8-.28-.16-.59-.07-.8,0-.58.18-1.47.74-1.61,1.61-.16.95.67,1.76.4,2.01-.12.11-.34.03-.4,0-.6-.22-.92-1.22-.8-2.01.14-.91.88-1.66,1.61-2.01.62-.3,1.25-.32,1.65-.48.38-.05.9-.09,1.53-.05.15.01.31.03.48.05.46.08.82.91.8,1.61,0,.55-.24.96-.4,1.2.14.14.27.27.4.4.16.13.43.3.8.4.54.15.99.06,1.2,0-.01.03-.02.05-.04.08.7-.09,1.34.25,1.61.8.27.56.04,1.11,0,1.2,0,.01,0,.03,0,.03-.12.24-.27.38-.36.7,0,.02-.01.05-.02.07-.03.14-.04.26-.03.38,0,.08.01.16.03.24Zm-4.84,15.86c-.2-.2-.41-.26-.4-.4,0-.22.46-.48.8-.4.51.12.79.99.8,1.61.03,1.36-1.24,2.81-2.81,3.21-.91.24-2.39.21-3.21-.8-1-1.23-.35-3.1.4-4.02,0,0,.69-.85,2.01-1.2.11-.03.25-.06.4,0,.28.1.39.37.4.4.02.04.11.29,0,.4-.1.1-.32.02-.4,0-.56-.15-1.63.59-2.01,1.61-.24.65-.32,1.74.4,2.41.73.68,1.78.45,2.01.4.96-.21,1.99-1.03,2.01-2.01,0-.15.01-.79-.4-1.2Zm-20.04,38.08c.11.35.74.52,1.2.4.34-.09.35-.27.8-.4.22-.06.51-.14.8,0,.07.04.36.17.4.4.02.1.02.31-1.2,1.2-1.1.81-1.39.85-1.61.8-.11-.02-.31-.09-.4,0-.01.02-.03.03-.03.05-.12,0-.25-.03-.38-.05-.55-.1-.68-.25-1.2-.4-.37-.1-1.21-.34-2.01,0-.23.1-.42.23-.58.37,0,0,0,0-.01.01-.07.04-.14.08-.26.1-.47.08-.9-.17-1.2-.4-.04-.11-.07-.26,0-.4.13-.3.54-.36.8-.4.59-.1.74.09,1.2,0,.43-.09.71-.33.8-.4.52-.45.43-.93.8-1.61.41-.73,1.04-1.11,1.2-1.2.82-.49,1.24-.21,2.41-.8.2-.1.65-.35.8-.8.03-.09.1-.28,0-.4-.15-.2-.62-.06-.8,0-.41.12-.49.26-.8.4-.77.34-1.55.02-1.61,0-.29-.12-.86-.45-.8-.8.03-.2.25-.33.4-.41.39-.2,1.13-.53,2.41-.8.1-.03.26-.06.4,0,.15.06.2.17.4.4.2.24.3.35.4.4.3.15.47-.08.8,0,.14.04.27.15.46.37.07.24.38,1.44-.42,2.37-.57.67-1.35.78-1.58.8,0,0-.01,0-.02,0-.11-.02-.22-.04-.42,0-.17.04-.5.12-.8.4-.11.11-.5.48-.4.8Zm-.04-9.97c-.12-.09-.31-.04-.4,0-.13-.06-.37-.19-.4-.4-.07-.41.71-.76.8-.8.39-.18,1.25-.42,1.61,0,.3.35.09.95,0,1.2-.28.82-.92,1.26-2.01,2.01-.69.47-.78.43-.8.4-.09-.08.15-.5.4-.8.38-.45.63-.43.8-.8.12-.26.19-.67,0-.8Zm4.42-28.92c.06.07.3.37.4.8.04.15.04.28,0,.4-.07.19-.25.38-.4.4-.42.06-1.03-1.02-1.2-2.01-.17-.99.13-1.86.4-2.41.12.12.34.39.4.8.03.16.02.29,0,.4-.02.87.2,1.34.4,1.61Zm10.04-23.3c.07-.38.27-.63.4-.8.41-.52.95-.73,1.2-.8.07.62.1,1.68-.4,2.81-.24.55-.53,1.2-1.2,1.61-1.19.71-2.61.09-2.81,0-.21-.14-.44-.33-.4-.4.03-.08.28-.02.4,0,.76.13,1.85-.15,2.41-.8.1-.12.34-.4.4-.8.05-.34-.06-.47,0-.8Zm-2.81,5.22c.36-.08.63-.26.8-.4.02.11.03.25,0,.4-.09.38-.43.59-.8.8-1.02.57-1.25.52-1.61.8-.3.23-.66.68-.8,1.61-.14.13-.27.27-.41.4-.13-.27-.27-.53-.4-.8-.03-.19-.05-.47,0-.8.04-.29.16-1.12.81-1.61.6-.45,1.42-.41,1.61-.4.28.01.48.07.8,0Zm4.02,14.86c-.22-.22-.73-.03-.8,0-.36.13-.45.34-.8.4-.17.03-.32.02-.4,0,.06-.12.74-1.53,2.01-1.61.13-.01.87-.06,1.2.4.45.62-.22,1.71-.4,2.01-.39.63-.89,1.01-1.2,1.2-.08-.29-.08-.56,0-.8.1-.34.28-.41.4-.8.06-.19.19-.61,0-.8Zm-.8,12.85c.09-.11.73-1.02.4-1.61-.29-.52-1.21-.52-1.2-.8,0-.1.12-.09.4-.4.21-.23.24-.34.4-.4.17-.07.34-.02.4,0,.46.14.72.79.8,1.2.24,1.19-.66,2.24-.8,2.41-.66.77-1.81,1.46-2.81,1.2-.36-.09-.82-.33-.8-.4.01-.04.22-.02.4,0,.28,0,1.95,0,2.81-1.2Zm-3.21-18.88c-.13.23-.7.11-1.2,0-.67-.14-.77-.32-.8-.4-.08-.18-.02-.37,0-.4.1-.28.36-.39.4-.4.54-.22,1.15.35,1.2.4.18.18.52.59.4.8Zm-3.62,16.87c-.22-.13-.48.17-.8,0-.21-.11-.2-.28-.4-.4-.2-.12-.46-.12-.8,0-.16.04-.37.07-.4,0-.04-.09.29-.33.4-.4.76-.53,1.55-1.08,2.41-.8.55.17,1.03.64,1.21,1.2.32,1.01-.43,1.95-.81,2.41-.56.69-1.22,1.04-1.61,1.2-.02-.09-.03-.24,0-.4.1-.56.52-.71.8-1.2.34-.61.3-1.44,0-1.61Zm0-36.55c-.46.37-1.52,1.26-2.01,2.41-.39.92-.46,2.13,0,2.41.22.13.58.08.8,0,.32-.12.44-.34.8-.4.15-.03.34-.09.4,0,.08.1-.08.33-.4.8-.2.29-.28.37-.4.4-.17.04-.24-.06-.4,0-.21.07-.21.27-.4.4-.28.19-.7.04-.8,0-.48-.18-.7-.62-.8-.8-.58-1.12-.09-2.56,0-2.82.79-2.19,3.16-3.05,3.61-3.21.17-.04.37-.07.4,0,.08.14-.52.58-.8.8Zm-2.41,53.83c.5-.41.9-.82,1.2-1.2-.12-.02-.26-.02-.4,0-.68.09-1.08.64-1.2.8h-.4c-.03-.09-.06-.25,0-.4.06-.17.18-.27.4-.4,1.29-.73,1.38-.77,1.61-.8.41-.06.64-.14.8,0,.33.28.05,1.08,0,1.2-.16.44-.32.51-.8,1.2-.58.84-.49.95-.8,1.2-.48.38-1.04.39-1.61.4-.42.01-1.15-.03-2.01-.4.81-.21,2.02-.64,3.21-1.61Zm-2.01,7.63c.59-.76,1.17-1.06,1.61-1.2.4-.12.75-.12,1.2-.4.4-.24.65-.56.8-.8-.15-.31-.29-.39-.4-.4-.24-.03-.38.32-.8.4-.16.04-.3.02-.4,0,0-.05-.01-.11-.02-.18,0-.09.01-.16.02-.23,0,0,.06-.41.4-.8.36-.42,1.58-.82,3.22-.8-.14.58-.45,1.52-1.21,2.41-1.62,1.89-3.97,2-4.42,2.01Zm5.22-7.63c-.55-.71.23-2.1.41-2.41.16-.28,1.14-1.96,3.21-2.41.85-.18,1.57-.1,2.01,0-.08.14-.2.33-.4.4-.19.07-.36.01-.4,0-.5-.14-1.51.17-2.01.4-1.33.6-1.85,1.87-2.01,2.41-.12.39-.11.63,0,.8.24.41.93.41,1.2.4,1.36-.02,2.41-1.14,2.81-1.61.08-.28.05-.37,0-.4-.1-.07-.28.09-.8.4-.57.34-.74.39-.8.4-.32.08-.61.05-.8,0,.2-.77.53-1.08.8-1.2.38-.18.75-.07,1.2-.4.23-.18.23-.28.4-.4.25-.18.7-.31,1.61,0-.23.67-.86,2.2-2.41,3.21-.33.21-1.71,1.11-3.21.8-.55-.11-.73-.3-.81-.4Zm4.82-8.03c-.4.09-.63.23-.8.4-.32.31-.38.7-.4.8-.12.48-.9,1.16-4.02,2.01.46-.14,1.31-.48,2.05-1.28.37-.4.61-.81.76-1.13-.15.07-1.59.75-2.82,0-.39-.24-.64-.56-.8-.8.82.06,1.51.04,2.01,0,0,0,1.64-.13,2.81-.8.12-.07.3-.19.4-.4.14-.3.04-.6,0-.8-.12-.58.14-1.09.4-1.61.69-1.39,2.43-1.95,3.61-2.01.17,0,.31,0,.4,0h.4c.02.06.06.22,0,.4-.07.21-.24.35-.4.4-.19.06-.36.02-.4,0-.52-.13-1.44.34-2.01.8-.86.72-1.1,1.61-1.2,2.01-.13.46-.09.66,0,.8.26.44,1.01.41,1.2.4,1.65-.06,2.68-1.79,2.81-2.01.27-.46.48-.82.4-1.2-.02-.07-.06-.22,0-.4.07-.2.25-.42.4-.4.25.04.4.7.4,1.2.01.97-.56,1.7-.8,2.01-.16.2-1.32,1.66-2.81,1.61-.45-.02-.9-.17-1.61,0Zm4.42-14.06c-.03-.1-.06-.25,0-.4.09-.23.29-.2.4-.4.14-.26-.12-.46,0-.8.06-.18.21-.37.4-.4.35-.07.79.41.8.8.02.49-.61,1.03-1.61,1.2Zm.4-8.84c-.59.26-.56.35-.8.41-.98.21-2.13-1.09-2.41-2.01-.06-.18-.15-.5,0-.8.11-.23.31-.44.4-.4.11.05-.06.39,0,.8.07.52.43.97.8,1.2.71.45,1.53.17,2.01,0,.25-.09,1.04-.39,1.61-1.2.21-.3.33-.59.4-.8-.11.04-.29.09-.4,0-.16-.12-.09-.43,0-.8.1-.42.16-.7.4-.8.18-.08.37-.01.4,0,.23.09.35.3.4.4.19.36.36,1.16,0,2.01-.03.06-.51,1.18-1.61,1.61-.35.14-.6.14-1.2.4Zm-.4-3.21c.05-.28.14-.73.4-.8.29-.08.76.34.8.8.03.3-.1.69-.4.8-.18.08-.36.02-.4,0-.2-.07-.35-.23-.4-.4-.02-.06-.05-.17,0-.4Zm-2.81-4.82c.02.06-.1.1-.4.4-.28.28-.28.34-.4.4-.26.14-.54.07-.8,0-.18-.05-.49-.15-.8-.4-.08-.26-.05-.36,0-.4.06-.06.16-.02.4,0h.4c.72,0,1.56-.15,1.61,0Zm-6.83-25.71s.02-.07.03-.11c0,.02.01.03.01.04.2-.07.49-.2.81-.4.4-.26.7-.56.94-.86.36-.46.56-.9.66-1.14.15-.46.33-1.14.4-2.01-.14.14-.27.27-.4.4-.46.72-.68.84-.8.8-.29-.09-.39-1.17,0-2.01.15-.33.28-.42.4-.8.14-.47.18-1.13,0-1.2-.29-.11-1.35,1.22-1.61,2.81-.02.19-.04.37-.06.54,0,.04,0,.08,0,.12-.11,1.25-.04,1.85.06,2.15.03.07.1.28,0,.4-.13.17-.52.09-.8,0,0,0,0,.02,0,.02-.15-.12-.31-.22-.45-.35-.48-.47-.44-1.2-.4-2.01.02-.35.14-2.16,1.2-3.62.13-.18.33-.42.4-.8.13-.62-.15-1.21-.4-1.61.26-.02.93-.02,1.61.4.87.54,1.14,1.4,1.2,1.61.24.16.54.42.8.8,1.04,1.57.13,3.7,0,4.02-.66,1.62-2.38,3.34-4.02,4.02-.28.11-.81.29-1.2.8-.58.77-.2,1.44-.8,2.01-.38.36-1.05.58-1.57.41v-.08c-.1-.08-1.2-.66-1.2-1.61,0-.54.23-.95.36-1.14,0,0,0,0,0,.01.01.06.13.94.8,1.2.38.15.73.03.8,0,.75-.26,1.21-1.4,1.2-2.81-.39.29-.64.58-.8.8-.14.21-.24.4-.4.4-.17,0-.31-.21-.4-.4-.11-.92.22-1.72.8-2.01.44-.22.91-.08,1.2,0,.91.25,1.43.93,1.61,1.2Zm-2.41-10.04c1.49,1.97.31,4.88,0,5.63-1.32,3.23-4.45,4.64-5.69,5.1h0c-.23-.44-.47-.82-.69-1.16-.01,0-.03,0-.04,0,1.27-.23,2.13-.89,2.4-1.12-.11,0-1.26-.06-1.61-.8-.1-.22-.19-.62,0-.8.12-.12.3-.11.8,0,.84.17,1.14.32,1.61.4.28.04.68.08,1.2,0,.02-.06.06-.22,0-.4-.1-.29-.37-.39-.4-.4-.29-.08-1.28-.37-1.61-1.2-.05-.14-.11-.43,0-1.2.2-1.38.96-1.89,1.2-3.22.07-.36.12-.9,0-1.61.11.02.25.03.4,0,.41-.06.69-.29.8-.4.46.2,1.11.55,1.61,1.2Zm-14.62,43.69l-.75,1.16c-.75,1.16-1.72,2.16-2.87,2.93-.12.08-.25.16-.38.24-.13.08-.26.16-.4.24-.01,0-.02.01-.03.02-.2.11-.41.23-.63.33-4.34,2.13-10.69,1.35-11.43,1.25-1.8-.4-2.64-1.01-3.08-1.53-.22-.26-.46-.64-1.07-1.32-.17-.19-.31-.33-.4-.43,0,0,0,0,0,0-.22-.23-.28-.29-.31-.44-.15-.76.91-1.61,1.5-2.02.08-.05.15-.1.2-.13.08-.05.14-.09.15-.09.97-.6,1.94-1.71,1.94-1.71,1.39-1.59,5.88-1.96,6.53-2.01.37-.03,1.82-.12,3.65.14.29.04.98.15,1.87.37,1.59.4,2.52.8,3.51,1.51.5.35,1.66,1.17,2.01,1.51Zm-.63-1.18s.02-.02.03-.03v.06s-.02-.03-.03-.03Zm-2.38-3.46c-1.77-.78-4.29-1.64-7.38-1.49-2.45.12-3.82.47-5.36,1.07-2.47.96-4.2,2.32-4.66,2.71-.02.02-.04.03-.06.05-.81.67-1.41,1.34-1.8,1.83-.02-.28-.02-.71.13-1.2.13-.45.31-.79.46-1.01h0s0-.01,0-.02c.41-.41.87-.81,1.38-1.2,1.63-1.29,3.3-2.1,4.78-2.64.03-.01.05-.02.08-.03.07-.03.14-.05.22-.07.1-.04.21-.07.31-.1.11-.04.22-.07.33-.1.06-.02.11-.03.17-.05,1-.27,2.13-.46,3.36-.53,3.49-.17,6.22.83,7.7,1.52.17.23.31.52.36.87.02.13.02.26,0,.38Zm-17.12-9.27c-1.27,1.42-3.02,2.42-4.05,4.03-.07.12-.36.59-.88.72-.32.08-.62-.01-.8-.09-.09-.56-.13-1.45.24-2.39.36-.92.95-1.47,1.41-1.88,2.61-2.37,3.92-3.56,4.01-3.63,1.92-1.4,4.56-3.32,8.52-4.38,1.9-.51,3.26-.6,4.91-.71,1.3-.09,3.95-.17,5.55.97.17.12.82.58.72.88-.07.21-.49.34-.84.32-.22-.01-.37-.09-.4-.04-.04.06.16.26.34.42.12.01.23.02.4.04.5.03,1.04.08,1.63.19.45.08.86.18,1.26.3.89.25,1.64.57,2.25.87l.4.04c.57.05.66.05.8.08.21.05.47.16.76.48.18.18.35.34.51.48.35.34.65.62.91.84.55.49.92.79,1.17.95.1.07.38.24.36.44,0,.08-.06.15-.13.2-.11.1-.27.15-.31.17-.49.17-.98-.03-1.2-.13-.13-.05-.24-.11-.34-.17-.25-.15-.4-.29-.42-.31-.67-.62-1.9-1.21-3.43-1.96-.54-.26-1.07-.47-1.58-.63-1.18-.38-2.26-.53-3.14-.66-1.24-.18-2.38-.23-3.44-.19-1.87.05-3.43.35-4.67.58-1.76.34-3.54.68-5.19,1.18-2.13.64-4.03,1.53-5.33,3Zm30.33-35.39c-.13.27-.27.53-.4.8-.08.03-.24.07-.4,0-.27-.11-.44-.43-.4-.8-.06-2.33-.07-4.74,0-7.23.17-6.53.77-12.58,1.61-18.08.05-.11.3-.67.8-.8.09-.02.24-.06.4,0,.27.09.38.35.4.4-.13.53-.27,1.07-.4,1.61-.5,3.64-.92,7.52-1.2,11.65-.3,4.4-.42,8.56-.4,12.45Zm2.81-24.9c.18-1.04.64-2.21,1.2-2.41.07-.03.29-.1.4,0,.14.11.04.37,0,.8-.03.35-.02.63,0,.8-.43,3.95-.84,7.97-1.2,12.05-.48,5.33-.88,10.55-1.2,15.67-.01.04-.12.31-.4.4-.19.06-.34.02-.4,0-.11-.12-.34-.39-.4-.8-.03-.16-.02-.29,0-.4.89-13.8,1.68-24.13,2.01-26.11Zm-6.02,10.44c.25-3.24.52-6.46.8-9.64.02-.65.22-1,.4-1.2.13-.15.23-.19.4-.4.16-.2.4-.48.4-.8,0-.52-.51-.81-.4-1.2.05-.17.18-.26.4-.4,1.34-.88,1.93-1.13,2.01-1.61.01-.05,0-.16,0-.4-.01-.58-.06-.66,0-.81.12-.28.53-.5.8-.4.44.16.46,1.11.4,1.61-.06.52-.24.9-.4,1.2-.87,1.67-1.51,2.03-2.01,3.21-.15.34-.33.88-.4,1.61-.31,2.48-.57,5.02-.8,7.63-.47,5.44-.72,10.65-.79,15.6-.38.04-.47,1.11-.78.8-.21-.21-.11-.3-.4-.8-.21-.36-.35-.5-.4-.8-.03-.17-.02-.31,0-.4v-1.61s-.03,0-.04,0c.24-3.68.51-7.41.8-11.18Zm-.4-11.24c.16.33.04.68,0,.8-.15.47-.29,1.5-.4,3.61-.27,5.36-.53,10.71-.8,16.07.03.48-.21.8-.4.8-.15,0-.8-.4-.8-.8.13-4.42.67-8.44.8-12.86.13-2.28.27-4.55.4-6.83.06-.2.17-.5.4-.8.14-.18.28-.31.4-.4.12.07.3.19.4.4Zm-2.01-5.23c.16-.04.31-.02.4,0,.47.09.7.29.8.41.3.32.14.53.4,1.61.02.08.06.23,0,.4-.08.22-.29.34-.4.4-.26.19-.54.45-.8.8-.82,1.1-.83,2.33-.8,2.81-.14,1.87-.28,3.74-.4,5.62-.29,4.18-.56,8.33-.8,12.45-.1.24-.25.4-.4.4-.07,0-.2-.04-.4-.4-.14-.25-.32-.64-.4-1.2.13-2.67.26-5.35.4-8.04.13-2.42.26-4.83.4-7.23.07-.79.04-1.29,0-1.61-.01-.08-.03-.22,0-.4.06-.39.28-.57.4-.8.12-.22.2-.59,0-1.2-.02-.2-.03-.47,0-.8.09-1.12.49-1.87.8-2.41.28-.49.5-.73.8-.81Zm-3.21-4.42c0-.08.04-.61.4-.8.47-.25,1.08.3,1.2.4.73.64.78,1.64.8,2.01.05.79-.18,1.4-.4,2.01-.28.77-.52,1.05-.8,1.61-.4.79-.54,1.61-.8,3.21-.16.93-.32,2.15-.4,3.61-.27,6.81-.52,13.62-.79,20.43-.14.13-.86.66-1.58-.42-.02-.02-.02-.03-.04-.04.08-5.42.32-11.14.8-17.16.41-5.2.96-10.16,1.61-14.86Zm-2.01,2.41v.8c-.03,6.24-.71,10.86-.8,12.45-.3,4.85-.56,9.68-.8,14.46-.02.04-.12.31-.41.4-.18.06-.34.02-.4,0-.4-.4-.4-.8-.4-1.2.06-3.75.18-7.65.4-11.65.29-5.17.7-10.13,1.21-14.86.07-.2.19-.49.4-.8.16-.24.27-.41.4-.4.26.02.39.76.4.8Zm-3.22-2.01c.03-.18.1-.41.4-.8.34-.45.51-.67.8-.8.13-.06.74-.34,1.21,0,.36.26.4.72.4.8-.03.14-.18.8-.8,1.2-.59.38-1.37.38-2.01,0-.01-.09-.02-.24,0-.4Zm-.8,3.21c.2-.36.42-.76.8-.8.26-.03.49.12.64.24.1.09.16.22.14.36-.5,4.12-.9,8.48-1.18,13.06-.26,4.33-.38,8.47-.4,12.41,0,.03,0,.06,0,.09-.05.2-.15.5-.4.76-.15.16-.46.49-.8.4-.24-.07-.36-.32-.4-.4v-2.01c.02-2.09.08-4.71.2-7.76.11-2.57.08-1.98.21-4.29.21-3.6.48-7.08.8-10.44.01-.79.25-1.33.4-1.61Zm-4.42,0c.05-.16.18-.14.4-.4.27-.31.27-.54.4-.8.3-.55.98-.74,1.2-.8,1.04-.28,1.89.32,2.01.4-.36.49-.63.91-.8,1.2-.39.67-.45.92-.8,1.2-.13.11-.6.49-1.2.41-.72-.1-1.32-.83-1.2-1.21Zm2.79,4.22c-.31,3.04-.58,6.18-.78,9.44-.2,3.13-.33,6.16-.4,9.1,0,.09-.02.19-.05.28-.34,1.2-.59,1.47-.76,1.47-.12,0-.22-.15-.4-.4-.15-.22-.25-.42-.32-.59-.06-.14-.08-.28-.08-.42.02-3.23.14-6.65.4-10.24.21-2.8.48-5.48.8-8.03.1-.4.27-.65.4-.8.13-.15.18-.16.4-.4.27-.29.31-.41.4-.4.1,0,.21.12.34.56.04.15.06.3.04.44Zm-6,7.03c.29-3.19.71-6.14,1.2-8.83.04-.08.15-.32.4-.4.13-.05.26-.04.4,0,.76.19,1.2.8,1.2.8.35.48.4.98.4,1.2-.5,3.1-.92,6.46-1.2,10.04-.3,3.71-.41,7.21-.4,10.45-.25.36-.75.42-.8.4-.11-.05.14-.55,0-1.2-.04-.17-.12-.52-.4-.8-.28-.28-.54-.26-.8-.4-.31-.17-.4-.8-.4-1.61-.02-2.95.09-6.17.4-9.64Zm-2.01-9.64c.03-.08.12-.32.33-.4.11-.05.21-.03.32,0,.13.03.4.1.65.4.07.08.24.31.31.69.02.08.02.15,0,.23-.24,2.31-.45,4.68-.63,7.12-.31,4.03-.52,7.91-.65,11.65.02.38-.12.7-.33.8,0,0-.17.08-.32,0-.25-.14-.4-.62-.33-1.21v-2.01c.04-.37-.11-.7-.32-.8l-.47-.18c-.12-.15-.18-.34-.17-.54.11-2.67.31-5.52.63-8.52.28-2.56.6-4.97.97-7.23Zm-73.91,10.04c.02-.79.06-1.53.4-2.41.5-1.29,1.09-1.41,1.61-2.81.42-1.14.42-2.1.4-2.41-.03-.91-.24-.88-.4-2.01,0,0-.26-1.85.4-4.02.08-.26.18-.53.4-.8.35-.42.56-.32,1.2-.8.54-.41.7-.71,1.2-.8.19-.04.29-.05.41,0,.42.21.58,1.25.4,2.01-.03.13-.08.27,0,.4.12.23.44.18.8.4.2.13.32.29.4.4.13-.13.27-.27.4-.4.24-2.31.81-3.91,1.2-4.82.2-.47.52-1.12,1.2-1.61.56-.4,1.52-.77,2.01-.4.16.12.24.35.4.8.26.73.15.96.4,1.2.26.26.49.14.8.4.27.24.36.56.4.8.28,1.2.57,1.54.8,1.61,0,0,.5.15.8.4.02.02.01,0,.4.4l.4.4c.13.14.27.26.4.4.29.31.32.41.4.4.2,0,.44-.32.4-.8,0-1.93.2-2.6.4-2.81l.4-.4c.27-.27.4-.4.4-.4.38-.42.26-1.3,0-3.21-.02-.14-.03-.25,0-.4.08-.36.33-.44.4-.8.04-.19-.03-.18,0-.4.06-.45.35-.75.4-.8.3-.3.64-.37.8-.4.32-.06.44.03,1.2,0,.25-.01.29-.02.4,0,.36.05.65.25.8.4.29.29.28.59.4,1.2.22,1.05.34,1.66.8,2.01.11.08.67.51,1.2.4.09-.02.24-.06.41,0,.2.07.33.26.4.4.26.39.63,1.08.8,2.01.16.85.08,1.56,0,2.01.07.16.3.64.8.8.31.11.6.04.8,0,.51-.11.66-.34,1.2-.4.2-.02.34,0,.4,0,.99.08,11.39-.03,14.06,0,3.27.04,8.07.42,14.46,2.01.26.1.98.33,1.61,0,.14-.07.35-.18.4-.4.1-.38-.37-.77-.4-.8-.32-.26-.51-.15-.8-.4-.03-.02-.4-.35-.4-.8,0-.65.78-1.07,1.2-1.2.18-.06.53-.17.8,0,.2.12.18.27.4.4.26.16.67.2.8,0,.1-.14.02-.35,0-.4-.09-.25-.36-1.08,0-2.01.41-1.05,1.34-1.48,1.61-1.61.87-.4,1.66-.27,3.22,0,1.9.33,2.55.88,2.81,1.2.19.24.37.47.4.8.03.33-.12.53,0,.8.1.23.31.35.4.4.43.25,1.98,1.14,2.41,2.41.07.19.3.89,0,1.2-.12.13-.32.19-.4.4-.08.2-.01.38,0,.4.09.34-.5,8.19-2.01,26.11.13.02.25.04.38.06.15.07.31.16.47.27.76.53,1.08,1.26,1.2,1.61.06.3.17.73.4,1.2.31.63.6.84.8,1.21.42.74.2,1.6,0,2.41-.53,2.09-2.02,3.16-3.21,4.02-.44.32-.87.55-1.2.4-.28-.13-.49-.52-.4-.8.06-.23.29-.35.4-.4,0,0,.74-.4,1.61-1.2.96-.9.71-2.71.4-3.61-.15-.44-.32-.93-.8-1.2-.7-.4-1.5-.06-1.61,0-1.08.49-1.68,2-1.2,2.81.12.2.28.33.4.4.16-.18.37-.45.4-.8.02-.19-.03-.25,0-.4.06-.38.45-.72.8-.8.64-.16,1.41.51,1.61,1.2.29,1.05-.72,2.29-1.61,2.41-.46.06-.73-.2-1.2,0-.28.11-.35.26-.8.8-.9,1.07-1.23,1.2-1.2,1.61,0,.07.02.08.18.38,0,0,.09.11.23.43.07.16.12.41,0,.8-.19-.03-.47-.05-.8,0-1.12.16-1.81.96-2.01,1.2-.15.18-.28.36-.38.53-.37-.29-.78-.72-.83-1.34-.04-.52.22-.95.38-1.16h0c.85-.84,1.03-1.02,1.23-1.24.36-.41.82-1.05,1.2-2.01-.06-.2-.17-.5-.4-.8-.18-.23-.34-.36-.4-.4-.5-.45-.16-2.13.4-3.21,1.22-2.36,4.08-3.06,4.82-3.22-1.29-.32-2.21-.18-2.81,0-.6.19-.98.45-1.61.4-.76-.06-.78-.68-1.61-.8-.87-.13-1.57.38-1.61.4-.19.14-.32.3-.4.4-.51-.42-1.17-.86-2.01-1.2-2.82-1.16-5.51-.33-6.43,0-.51.17-1.2.4-1.2.4h-2.38c-3.63-.86-5.07-.74-5.66-.4-.11.07-.71.45-1.61.8-.44.13-.87.34-1.61.4-.34.03-.62.02-.8,0,.32.23,1.36,1.04,1.61,2.41.15.8,0,1.65-.4,2.41-.14.21-.39.54-.8.8-.77.48-2,.66-2.81,0-.64-.52-.76-1.35-.8-1.6.05-.54.24-.93.8-1.21.51-.26.74.24.8.4.15.35-.53.62-.4.8.19.28,1.2.21,1.61-.4.34-.52.03-1.16,0-1.2-.39-.77-1.54-1.05-2.41-.81-1.15.32-1.73,1.71-1.61,2.82.18,1.63,1.88,2.52,2.01,2.41.26.16.51.27.8.4,1.18.53,2.1.73,2.41.8.68.18,1.59.62,2.65,1.76.06.08.12.17.16.25.21.36.54.93.4,1.61,0,.04-.08.41-.33.75-.03.02-.05.04-.07.05-.81.52-1.67.44-2.01.4-.81-.09-1.15-.41-2.01-.8-.49-.23-1.17-.49-2.05-.67-.27-.35-.53-.66-.76-.93-1.05-1.22-1.67-1.7-2.41-2.01-.95-.41-1.85-.44-2.41-.4.38-.36,1.3-1.3,1.61-2.81.17-.84.09-1.55,0-2.01-.02-.1-.04-.24,0-.4.11-.44.57-.66.8-.81.38-.23.84-.67,1.2-1.61-.76-.03-1.56-.03-2.41,0-.17.01-.34.02-.5.03-.43-.16-.94-.31-1.51-.43-.86-.17-2.12-.41-3.61,0-1.24.34-2.15,1-2.74,1.53-.03.03-.06.06-.08.08-.04-.02-.06-.03-.1-.05-.87-.4-1.56-.54-2.11-.54-.41,0-.74.08-1,.18-.56.22-.84.55-2.01,1.21-.39.22-.75.4-1.05.54,0,0-.02,0-.02.01-.48.17-.84.43-1.23.6-.26-.14-.56-.27-.91-.35-1.54-.4-2.84.21-3.21.4-.33.17-.33.22-1.61,1.2-.68.33-1.23.4-1.61.4-.71.01-1.31.02-1.81.04-1.02.04-1.68.12-2.21.36-.9.4-.89.76-2.01,1.2-.04.02-.07.03-.11.04-.12,0-.24.02-.34.03-.62.08-.9.19-1.2,0-.43-.27-.27-.77-.8-1.2-.32-.26-.43-.13-.8-.4-.55-.4-.74-1-.8-1.2-.23-.73-.08-1.36,0-1.61-.08-8.97-.05-15.59,0-17.67Zm14.89,119.59c-.1.07-.21.13-.33.19-.24.12-.53.22-.86.25-.06,0-.13,0-.18,0-.74.02-1.26-.7-1.43-.81-.4.4-.8,1.2-2.81,1.61s-2.81-.4-3.21-.8c-.81.4-1.61.8-2.82.4,0,0-1.28-.48-1.97-1.61-.1-.15-.17-.3-.17-.3-.05-.1-.08-.18-.11-.24-.35.08-1.3.25-2.32-.2-1.61-.7-2.06-2.32-2.11-2.54-.47-.12-1.34-.4-2.16-1.13-1.18-1.05-1.51-2.34-1.61-2.81-.54-.14-1.74-.52-2.81-1.61-1.2-1.21-1.55-2.58-1.65-3.11.29-.82.73-1.22,1.05-1.43.03-.02.05-.03.08-.05.25-.07.35-.33.37-.36-.79-.66-1.64-1.5-2.45-2.58-.21-.28-.41-.56-.59-.84-.04-.21,0-.33.04-.39.1-.17.34-.23.67-.19.28.04.61.15.98.33.2.11.35.14.46.13.09,0,.15-.03.2-.07.17-.11.2-.31.4-.75.03-.06.05-.1.07-.15-.14.03-.3.04-.46.04-.27,0-.5-.04-.72-.11-.01,0-.02.02-.03.02,0-.01-.01-.02-.01-.03-.12-.04-.23-.09-.33-.15-.17-.03-.33-.06-.47-.12-.09.13-.18.25-.3.36-.35.33-.84.54-1.47.54h0v.05c0,.63.39,1.05.56,1.23.52.56.93.41,1.25.89.23.36.26.82.23,1.2-.03.12-.12.47-.4.76-.02.01-.04.04-.07.06-.67-.24-1.96-.82-3.12-2.23-1.42-1.72-1.82-3.66-1.94-4.47.01-.04.02-.07.04-.1.09-.18.27-.18.7-.33.35-.13.53-.19.69-.33.16-.14.2-.23.29-.31.01-.02.03-.03.04-.05.05-.07.1-.13.15-.19.03-.03.05-.05.07-.07.04-.05.09-.09.13-.12.02-.02.03-.03.04-.04.07-.06.14-.11.22-.15.08-.05.17-.1.26-.13h0c.2-.08.42-.13.67-.15-.15-.31-.37-.65-.65-1.07-.26-.38-.45-.66-.64-.87-.18-.19-.35-.33-.58-.42-.4-.16-.76-.14-.99-.09l-.04.39c.25.11.46.3.61.53.09.14.16.3.21.46t0,.01c.04.14.06.28.06.42h0c0,.08,0,.16-.02.24-.08.51-.39.83-.59.98-.03.03-.06.04-.08.06l-.02.02s-.04.03-.06.04c-.01.01-.02.01-.03.02-.69.42-1.73.1-2.52-.91,0,0,0,0,0,0-.58-1.23-.54-2.42-.51-2.82-.38-.26-1.01-.78-1.53-1.71-.73-1.34-.74-2.69-.72-3.21-.33-.4-.81-1.08-1.15-2.07-.41-1.16-.44-2.19-.42-2.8-.28-.52-.58-1.2-.83-2.04-.18-.62-.3-1.2-.38-1.72-.04-.25-.06-.48-.08-.68-.26-.33-.62-.87-.86-1.65-.43-1.41-.18-2.67-.06-3.16-.34-.56-.83-1.53-1.08-2.85-.01-.04-.02-.08-.02-.13-.1-.68-.31-1.87.1-2.7-.13-.18-.36-.73-.48-.98-.17-.35-.31-.75-.4-1.23-.24-1.38.23-2.44.4-2.81-.18-.43-.4-1.13-.4-2.01,0-1.36.53-2.36.8-2.81-.21-.54-.51-1.54-.4-2.81.14-1.61.85-2.73,1.2-3.21-.13-.53-.31-1.57,0-2.81.37-1.49,1.21-2.43,1.61-2.82-.04-.44-.09-1.82.8-3.21.83-1.29,1.98-1.83,2.41-2.01.12-.63.41-1.72,1.2-2.81,1.13-1.55,2.6-2.18,3.21-2.41.26-.53.85-1.55,2.01-2.41,1.12-.83,2.23-1.1,2.82-1.2.36-.62.98-1.55,2.01-2.41,1.07-.9,2.12-1.37,2.81-1.61.09-.28.56-1.66,2.01-2.41,1.04-.54,2.03-.45,2.41-.4.4-.72.85-1.25,1.2-1.61.64-.63,1.22-.98,1.61-1.2,1.14-.66,1.77-1.03,2.41-.8.48.17.97.67,1.2,1.2.13.3.16.55.4.8.26.26.58.36.8.4.14-.13.27-.27.4-.4v-.03l.04-.05c-.07-.28-.14-.71,0-1.2.22-.78.87-1.49,1.61-1.61.41-.07.46.12.8,0,.53-.18.65-.7,1.2-.8.16-.04.31-.02.4,0,.49.16.65.89.8,1.61.15.71.68,3.26-.4,4.02-.21.15-.65.35-.8.8-.03.09-.1.28,0,.4.13.17.49.09.8,0,.45-.13,1.13-.35,2.01-.8.1.09.25.22.4.4.52.62.57,1.16.8,1.61.2.39.62.86,1.61,1.2.01,0,.01.01.02.01.03.01.05.03.07.03.03.02.07.04.1.06.02.01.04.02.06.03.19.12.45.33.56.68.23.7-.29,1.46-.8,1.61-.32.1-.45-.11-.8,0-.24.07-.46.24-.8.8-.6.96-.43,1.21-.8,1.61-.55.58-1.6.77-2.01.4-.23-.21-.12-.47-.4-1.2-.14-.35-.29-.62-.4-.8-.54.4-1.07.8-1.61,1.2.13.07.31.2.4.4.09.22.02.37,0,.8-.04.6.08.59,0,.8-.16.43-.54.36-.8.81-.18.31-.28.82,0,1.2-.15.19-.58.09-.8,0-.5-.2-.64-.56-1.21-1.2-.12-.14-.27-.31-.46-.49,0,0,0-.01-.01-.01-.21-.28-.87-1.02-1.94-1.11-.79-.06-1.39.27-1.61.4-.64.28-.93.86-.8,1.21.14.37.78.55,1.2.4.26-.1.38-.3.8-.4.3-.08.38-.02.4,0,.18.13.18.54,0,.8-.23.33-.79.46-1.2.4-.12-.02-.24-.05-.4,0-.18.06-.41.21-.4.4,0,.22.32.36.4.4.38.17.68.07,1.2,0,.08-.01.81-.1,1.61,0,.66.08.99.12,1.2.4.23.3.28.82,0,1.2-.28.38-.74.4-.8.4-.3.42-.44.82-.4,1.2.05.5.36.7.4,1.2-.58.24-1.16.47-1.75.7-.08-.23-.16-.47-.26-.7-.24-.62-.52-1.15-.8-1.61-.15-.23-.41-.55-.8-.8-.39-.25-.52-.18-.8-.4-.49-.39-.39-.82-.8-1.2-.2-.19-.55-.4-1.2-.4.11.18.26.45.4.8.23.54.25.82.4,1.2.13.32.36.75.8,1.2-1.19-.12-1.94.14-2.41.4-.31.17-.69.46-1.2.4-.36-.05-.63-.24-.8-.4-.13.27-.27.53-.4.8.22.32.34.61.4.8.11.33.35,1.06,0,1.61-.07.1-.09.11-.4.4-.47.33-.74.54-1.2.8-.34.19-.62.32-.8.4-.4.23-.87.23-1.2,0-.42-.29-.5-.84-.4-1.2.11-.42.42-.48.4-.8-.03-.38-.46-.52-.4-.8.05-.2.28-.17.4-.4.19-.35-.1-.9-.4-1.2-.31-.31-.67-.38-.8-.4-.16.4-.32.95-.4,1.61-.08.64-.06,1.19,0,1.61.85,1.07.92,1.46.8,1.61-.15.19-.61.07-.8,0-.54-.2-.76-.7-.8-.8h-.8c-.02.09-.03.24,0,.4.1.58.56.8.8,1.2.13.22.23.55.14,1.07-.02.1-.06.21-.11.32-.35.72-1.13,1-1.51,1h-.54c-.27-.4-.53-.79-.79-1.18-.15.15-.41.43-.4.8,0,.27.13.46.4.8.97,1.26,1.14,1.24,1.2,1.61.12.69,0,1.2,0,1.2-.03.09-.07.25,0,.4.09.22.27.21.4.4.15.22.15.55,0,.8-.16.28-.47.43-.8.4.13.14.27.27.4.4h1.61c.13-.13.27-.27.4-.4-.16-.98-.5-1.4-.8-1.61-.15-.1-.35-.19-.4-.4-.07-.25.12-.52.33-.72.15-.09.37-.24.5-.5.28-.52,0-1.02,0-1.51,0-.4.18-.94.99-1.62.06-.03.12-.05.19-.07.17-.04.31-.07.4,0,.16.12.07.41,0,1.2-.06.62-.02.75,0,.8.13.44.54.68.8.8.02-.33.1-.79.4-1.2.34-.47.5-.1.8-.4.26-.26.08-.72-.02-1.21-.05-.26-.08-.54.02-.8.04-.17.11-.51.4-.8.27-.27.56-.34.8-.4.2-.05.39-.07.56-.07h0c.25,0,.47.03.64.07.36-.05.59-.24.8-.4.15-.12.66-.53.8-1.2.06-.26-.01-.25,0-.8.01-.66.02-1.43.4-1.61.07-.04.19-.07.4,0,.31.07,1.58.34,2.81-.4.02-.01.03-.02.04-.03.12.12.25.26.36.43.13.18.3.43.4.8.14.5.07.94,0,1.2-.13.67-.27,1.34-.4,2.01.35.04.62.03.8,0,.16-.02.27-.05.4,0,.21.07.33.25.4.4-.15.3-.4.67-.8.8-.43.15-.72-.07-1.2,0-.32.05-.74.23-1.2.8.18.31.44.88.4,1.61-.02.36-.05.87-.4,1.2-.32.3-.62.19-1.2.4-.23.09-.51.22-.8.44-.22.17-.52.1-.66-.14-.2-.34-.5-.74-.95-1.11-.62-.51-1.25-.71-1.61-.8,1.66,2.05,2.33,4.26,1.61,5.62-.46.87-1.2,1.21-1.2,1.21-.9.4-1.79.09-2.01,0,.13.11,1.13.98,2.52.84-.02.04-.05.08-.08.12-.25.33-.52.5-.84.65-.44.2-.84.32-1.2.4-.22.07-.5.19-.8.4-.4.27-.65.58-.8.8-.07.35-.3,1.37-1.2,2.01-.1.07-1.32.91-2.01.4-.28-.21-.37-.56-.4-.8-.33-.04-.64.13-.8.4-.22.39-.02.78,0,.8.16.11.66.51.8,1.2.09.46,0,.95-.22,1.34-.02.04-.05.08-.08.12-.04.05-.07.1-.11.15,0,.01-.02.02-.02.03-.13.16-.28.31-.46.45-.05.04-.14.11-.25.18,0,0,0,.01-.01.01-.33.22-.87.51-1.24.31-.49-.27-.65-1.37-.5-2.01.02-.09.08-.29,0-.5-.11-.29-.38-.44-.5-.5-.62-.33-1.34-.07-1.51,0,.02.14.03.31,0,.5-.08.51-.36.86-.5,1,.34-.17.67-.34,1-.5.05.02.38.15.5.5.02.06.09.27,0,.5-.1.28-.33.32-.5.5-.51.53-.1,1.74,0,2.01.21.61.4.63.5,1,.12.42.08,1.05-.6,2,0,.01,0,.02-.02.02-.18.2-.42.39-.72.51-.48.2-.85.12-1.61.4-.35.14-.63.29-.8.4,0,.75.21,1.06.4,1.2.12.09.32.18.4.4.06.16.03.31,0,.4-.22.87-.52,1.25-.4,1.61.04.11.14.26.4.4.51-.3,1.06-.7,1.61-1.21.15-.13.28-.27.4-.4-.08-.19-.21-.47-.4-.8-.25-.43-.39-.54-.4-.8-.02-.29.14-.63.4-.8.55.12,1.37.06,1.61,0,.85-.2,1.63-.83,2.01-1.61.2-.42.16-.61.4-.8.42-.35,1.15-.26,1.61,0,.1.06.18.12.26.2.06.07.1.14.14.21.18.31.42.9.4,1.61-.02.46-.14.64,0,.8.27.33,1.3.21,1.61-.4.17-.32.05-.69,0-.8-.02-.05-.03-.1-.04-.16-.02-.04-.03-.08-.04-.13-.03-.07-.05-.13-.08-.21-.09-.22-.2-.46-.36-.71-.04-.06-.08-.12-.12-.18-.04-.06-.08-.11-.13-.17-.01-.02-.03-.05-.05-.07-.3-.37-.77-.96-1.61-1.2-.69-.2-1.82-.24-2.41.4-.47.52-.26,1.08-.67,1.5-.05-.08-.09-.17-.13-.3-.16-.51-.05-.99,0-1.2.13-.53.36-.79.42-.99.72-.84,1.86-1.1,2.02-1.14.48-.1.9-.09,1.22-.05.1.05.2.1.36.17.43.19.77.34,1.2.4.23.03.53.05.82.01.35-.05.66-.16.78-.39,0-.01,0-.01.01-.02.03-.1.04-.19.03-.26,0-.03,0-.05,0-.07,0-.03-.02-.06-.02-.08-.79-.39-.8-.73-.8-.8.01-.53,1.15-1.1,2.01-.8.35.13.8.45.8.8,0,.28-.28.38-.4.8-.1.31-.06.6,0,.8,1.57-.52,2.31-1.89,2.01-2.81-.27-.81-1.32-1.16-2.01-1.2-1.25-.08-2.08.84-2.41,1.2-.22.24-.63.69-.79,1.2h-.01s-.08,0-.4,0c-.29,0-.96-.02-1.2-.4-.17-.26-.08-.61,0-.8,1.79-2.22,3.71-3.44,4.82-3.61,1.07-.18,1.61,0,1.61,0,.59.19.86.54,1.2.4.3-.12.5-.54.4-.8-.09-.22-.33-.2-.4-.4-.11-.32.33-.74.4-.8.36-.34.97-.62,1.2-.4.19.17.07.61,0,.8-.13.34-.34.45-.4.8-.03.17-.02.31,0,.4.19.03.48.06.8,0,.64-.12,1.53-.55,1.61-1.2.02-.16-.12-.51-.4-1.2-.28-.69-.34-.76-.4-.8-.14-.25-.3-.35-.4-.4-.49-.25-1.26-.05-1.61.4-.04.05-.03.1,0,.16-.18.09-.3.18-.44.27h0c-.14,0-.27,0-.37-.02-.15-.03-.37-.16-.4-.4-.03-.24.24-.37.91-.94.57-.38.99-.9,1.1-1.47.1-.53.02-1.69,0-2.01-.02-.23-.03-.29,0-.4.17-.76,1.36-1.37,2.41-1.2.14.02,1.42.23,1.61,1.2.11.58-.21,1.22-.8,1.61.14.27.27.54.4.8-.14.24-.3.35-.4.41-.45.24-1.09.08-1.61-.41.14.27.27.54.4.81.08.03.61.23.8.8.13.36.04.68,0,.8-.23,1.21-.14,1.55,0,1.61.1.04.22-.07.4,0,.29.1.39.37.4.4,0,.14-.03,1.61-1.2,2.41-.13.09-1.12.74-2.01.4-.41-.16-.47-.4-.8-.4-.54,0-1.06.62-1.2,1.2-.1.39-.02.71,0,.8.1.39.27.48.4.8.19.47.07.92,0,1.2-.22.85-.87,1.35-1.2,1.61-1.63,1.24-3.95.88-4.42.8.91.67,1.38,1.76,1.2,2.81-.22,1.3-1.38,2.33-2.81,2.41-.34.13-1.08.45-1.61,1.2-.2.29-.32.56-.4.8h0c-.04.17-.03.3,0,.41.11.49.54.54.8,1.2.08.19.3.77,0,1.2-.24.34-.68.39-.8.4.16.13.62.45,1.2.4,0,0,.02,0,.04-.01.12-.03.44-.11.77-.33,0,0,.01,0,.02,0s.02-.01.02-.02t.01,0c.27-.18.56-.45.75-.84.31-.61.39-1.48,0-2.01-.06-.07-.06-.06-.8-.81-.17-.17-.31-.31-.4-.4.51-.11,1.05-.24,1.61-.4.76-.22,1.48-.45,2.13-.7.1-.03.19-.06.28-.1,1.1-.46,1.74-1.22,2.01-1.61-.07-.13-.63-1.33,0-2.41.24-.42.58-.67.8-.8.23.07.78.26,1.2.8.23.3.35.6.4.8.01,0,.02.01.03.01-.03.02-.05.04-.07.07-.05.07-.02.11,0,.4v1.61c-.11.07-1.05.61-1.2,1.2-.02.08-.06.24,0,.4.08.21.25.27.4.4.15.13.33.36.4.8-.03.01-.12.05-.25.07-.16,0-.34-.05-.51-.15-.21-.12-.33-.29-.4-.4-.09-.02-.24-.03-.4,0-.58.1-.8.56-1.2.81-.13.08-.29.14-.5.16h0c-.33-.13-.6-.16-.7-.16-.18-.04-.38-.06-.4,0,.02.02.04.05.06.08.12.17.26.41.34.72.04.16.07.31.07.45h0c.02.35-.04.63-.07.76-.11.46-.28.66-.36.89h0c-.04.1-.06.19-.05.31.02.36.24.63.4.8.07.04.87.43,1.61,0,.61-.35.87-1.07.8-1.61-.05-.36-.22-.43-.4-1.2-.08-.33-.11-.56,0-.8.03-.06.17-.38.4-.4.33-.04.63.5.8.8.05.09.11.21.17.34,0,.02.01.04.02.05.09.26.15.56.17.88.1,1.65-1.06,2.69-1.2,2.81h1.2s.68.04,1.2.4c.45.32.62.75.8,1.2.32.81.22,1.15.4,2.01.12.52.29,1.29.8,2.01.14.19.28.35.43.5-.13.08-.26.16-.39.23-.28.16-.55.29-.8.4-.53.18-1.21.34-2.01.4-.44.04-.85.03-1.2,0-.08-.03-.61-.23-.8-.8-.13-.37-.04-.69,0-.8.31-2.27-.18-4.17-1.2-4.82-.08-.06-.35-.27-.8-.4-.8-.25-1.56-.1-2.01,0-.31.07-.73.18-1.2.4-.1.1-.34.37-.4.8-.03.17-.02.33.02.47,0,.02,0,.04.01.06.08.28.23.43.36.66l.02.02c.33.59.09.82.4,1.2.17.21.51.47.8.4.56-.15,1.03-1.6.4-2.41-.06-.07-.11-.13-.18-.18.22-.14.56-.28.98-.23.11.02.21.04.29.08t.01,0c.11.04.2.09.27.14.31.36.56.82.63,1.39.02.17.03.34.01.51h0c-.1,1.34-1.19,2.47-2.02,2.71-.17.05-.6.15-1.2.4-.13.02-.3.07-.5.17-.13.08-.24.16-.31.23v.4c.2.07.49.19.8.4.37.26,1.14.77,1.2,1.61.04.54-.23.97-.4,1.2.52.1.93.06,1.2,0,.34-.07.69-.14.8-.4.07-.15.03-.3,0-.4-.6-1.19-1.21-2.13-1.7-2.68.03-.05.06-.09.1-.14.4-.51.91-.67,1.2-.8.2.02.41.04.65.08h.02c.4.07.86.17,1.34.32.82.27,1.5.62,2.01.94.33.25.59.48.8.67,1.18,1.1,1.5,1.98,1.61,2.41.12.45.09.66,0,.8-.22.39-.84.53-1.61.4.05.12.38.99,1.2,1.2.62.16,1.13-.13,1.61-.4.46-.26,1.06-.6,1.2-1.2.14-.59-.21-1.14-.7-1.85-.17-.62-.07-1.26.3-1.76.34-.45.8-.65,1.15-.73,0,0,.02,0,.02,0,1.02.28,1.87.11,2.41,0,.91-.19,1.59-.55,2.01-.81.08.08.41.38.4.81-.01.33-.22.58-.4.8-.23.27-.3.22-.4.4-.27.44-.07,1.02,0,1.2.17.5.38.49.4.8.05.6-.64,1.09-.81,1.2-.24.17-.64.46-1.2.4-.74-.08-1.15-.72-1.2-.8-.06-.02-.22-.06-.4,0-.28.1-.39.37-.4.4.44.07.72.32.8.4.32.32.39.68.4.8.02.03.02.05.04.07-.02.24-.1.66-.4,1.06-.32.44-.74.65-1,.74-.09.04-.16.06-.2.06-.21.1-.33.29-.4.41.44,1.53.48,2.14.4,2.41-.01.04-.06.21,0,.4.06.17.2.34.4.4.33.1.67-.15.8-.4.13-.24.08-.48,0-.8-.17-.72-.5-.92-.4-1.2.1-.26.48-.45.8-.4.8.11,1.12,1.63,1.2,2.01.12.56.23,1.04,0,1.61-.31.77-1,1.11-1.2,1.2.62.07,2.09.14,3.22-.8.15-.13.28-.26.4-.4-.54-1.34-1.07-2.68-1.61-4.02-.04-.12,0-.41,0-.41,0-.4,1.93-1.17,2.01-1.2-.1,0-.24.02-.4.04.49-.4.68-.92.76-1.17.1.5.23,1.04.4,1.61.13.43.26.83.4,1.2-.37.85-.41,1.59-.4,2.01.01.55.02,1.09.4,1.61.39.54.95.73,1.2.8.13.27.27.54.4.8.29,1.01.67,2.09,1.2,3.21.13.28.27.55.4.8-.02.04-.12.31-.4.4-.19.06-.34.02-.4,0-.04.34-.03.6,0,.8.03.21.06.32,0,.4-.1.14-.39.11-.67.04-.04-.05-.07-.08-.09-.11-.31-.15-.72-.31-1.2-.4-.84-.17-1.56-.09-2.01,0-.31.04-.65.14-.8.4-.23.39.19.79,0,1.2-.17.37-.73.6-1.15.58h0c-.23-.16-.41-.33-.45-.58-.05-.31.15-.52,0-.8-.13-.25-.42-.34-.4-.4.02-.05.22.03.4,0,.42-.07.82-.67.8-1.2-.02-.43-.28-.7-.8-1.2-.34-.33-.86-.78-1.61-1.2v.4c.11.09.26.21.4.4.29.37.67,1.09.4,1.61-.1.2-.21.18-.4.4-.07.01-.91.13-1.2-.4-.18-.33-.04-.71,0-.8-.27.13-.53.27-.8.4,0,.3,0,.6-.01.89,0,0-.01.02-.02.03.1.28.14.59.14.89.15.05.31.11.45.2.15.12.3.24.45.35.28.28.47.61.58.99,0,.02,0,.04.01.06,1.33.86,2.74,1.26,4.26,1.65.04,0,.07-.01.11-.02.74-.36,1.06-.26,1.27-.62.32-.56-.26-1.12,0-1.61.11-.2.35-.38.91-.45.1.02.2.03.3.05.03,0,.05.01.07.02h0c.88.2,2.03.82,2.33,1.99.05.17.07.33.07.48.06.25.08.54-.05.73-.02.03-.04.06-.06.08-.13.13-.32.18-.4.4-.02.03-.08.22,0,.4.1.2.31.22.8.4.42.16.63.24.8.4.11.11.32.34.4.8.17.03.52.12.8.4.26.26.34.55.4.8.16.61.03.96,0,2.01,0,.22.01.72.03,1.09Zm71.97,18.69c.05.24-.28.57-.78.8-3.54.5-7.33.92-11.33,1.2-4.14.29-8.06.41-11.73.4-.06,0-.42-.15-.78,0-.08.03-.39.17-.39.4,0,.17.16.34.39.4,3.97-.01,9.71-.13,14.07-.4,3.24-.21,4.8-.48,7.82-.8.41-.06.94-.08,1.57,0,.33.04,1.54.14,1.56.4.03.31-1.54.7-1.95.8-1.47.37-5,.92-14.46.8-1.29.15-1.56.3-1.56.4,0,.17.73.34,1.17.4.84.13,1.5.01,1.57,0,1.41-.24,2.69.13,7.42,0,3.12-.09,4.82-.31,5.47-.4.97-.14,1.78-.29,2.34-.4.48-.1.74-.1.78,0,.06.12-.21.39-.78.8-1.46.35-3.16.65-5.08.8-2.05.17-3.9.13-5.47,0-.58.07-1.15.19-1.17.4-.02.15.21.29.39.4.42.26.87.38,1.17.4.75.06,4.56-.23,9.77-.8h1.17c.05.03.39.18.39.4,0,.18-.21.31-.39.4-1.33.69-3.13.8-3.13.8-.75.05-1.82.16-3.13.4-.23.04-.39.22-.39.4,0,.28.36.39.39.4.2.06.36.01.39,0,.37-.11,2.64-.41,5.87-.8.09.01.64.05.78.4,0,0,.07.18,0,.4-.21.61-3.07.51-4.69.4-.36-.04-.68.14-.78.4-.06.16-.03.32,0,.4.16.14.43.33.78.4.51.1.78-.12,1.17,0,.21.07.51.25.78.8-.27.26-.66.56-1.17.8-.21.1-1.08.49-2.35.4-1.69-.11-2.56-.97-3.91-1.61-1.07-.51-2.71-1-5.08-.8-.2.04-.47.08-.78,0-.44-.1-.73-.36-.78-.4-1.17-.96-6.25-.4-6.25-.4-3.23.36-4.84.54-6.25.8-2.28.44-3.67.84-5.08,1.2-1.31.34-6.12,1.57-10.94,2.01-3.63.34-6.93.64-10.94-.4-4.44-1.14-7.36-3.31-9.38-4.82-2.63-1.97-7.2-5.39-7.03-8.83.1-2.05.39-3.61.39-3.61.2-.65.42-1.62.39-2.82-.03-.99-.21-1.82-.39-2.41-.1-1.15-.13-2.51,0-4.02.08-1.03.22-1.97.39-2.81.03-.18.09-.35.14-.49.09.25.21.52.29.82.26.93.36,1.23.39,2.41.02.76,0,1.61.39,3.21.35,1.45.41,3.24.39,5.22-.01,1.82-.18,3.44-.39,4.82-.03.08-.06.24,0,.4.07.22.27.36.39.4.56.2,1.67-.82,1.56-1.61-.02-.14-.14-.36-.39-.8-.27-.49-.38-.57-.39-.8-.02-.3.13-.31.39-.4.35-.12.56,0,1.17,0,.26,0,.65-.11.78-.4.01-.02.12-.26,0-.4-.14-.19-.6-.11-1.17,0-.12.02-.24.05-.39,0-.15-.05-.39-.19-.39-.4s.23-.36.39-.4c.09-.03.12,0,.39,0,0,0,.16,0,.39,0,.44,0,1.22-.48,1.17-.8-.05-.29-.73-.39-.78-.4-.39-.06-.48.07-.78,0-.43-.11-.84-.52-.78-.8.06-.26.52-.35.78-.4.81-.16,1.13.17,1.95,0,.13-.03.76-.15.78-.4.02-.2-.35-.38-.39-.4-.22-.11-.52-.18-1.95,0-.14.02-.25.03-.39,0-.38-.09-.79-.44-.78-.8.02-.45.66-.79,1.17-.8.48-.01.54.28,1.17.4.61.11,1.39,0,1.57-.4.06-.13.04-.28,0-.4-.1-.27-.42-.44-.78-.4-.75.08-1.33-.03-1.56,0-.13.01-.26.02-.4,0t.01,0c-.04-.17-.08-.46,0-.8.03-.12.11-.5.39-.8.28-.3.64-.41.95-.44.43.44.88.87,1.36,1.31,5.76,5.33,11.34,7.79,12.9,8.44,7.15,3,13.61,3.34,17.59,3.21,2.06.35,4.28.63,6.64.8,5.15.37,9.76.11,13.68-.4,2.43-.23,4.91-.5,7.42-.8,1.05-.13,2.09-.26,3.13-.4.25-.06.67-.11,1.17,0,.29.07.72.16.78.4Zm-5.48-8.04c1.03-.22,1.95-.51,2.74-.8h.78c.13.14.26.27.39.4-.26.27-.52.54-.78.8-.98.29-2.02.56-3.13.8-1.82.4-3.52.65-5.08.8.39-.27.78-.53,1.17-.8.39-.27.78-.53,1.17-.8.81-.06,1.73-.18,2.74-.4Zm-1.17-1.2c.27-.27.52-.53.78-.8l1.17-1.2h1.17c.37-.04.68.14.78.4.07.2.01.38,0,.4-.08.24-.3.36-.39.4-.39.21-1.71.52-3.52.8Zm-1.56,4.42c2.06-.3,3.9-.74,5.47-1.21.06-.03.65-.31,1.17,0,.2.12.32.29.39.41-.13.13-.27.27-.39.4-.16-.06-.29-.06-.39,0-.2.09-.2.31-.39.4-.11.05-.24.05-.39,0-1.84.48-3.94.9-6.25,1.2-2.59.33-4.95.43-7.03.4.61-.21,1.27-.48,1.95-.8.28-.14.53-.27.78-.4,1.52-.02,3.22-.14,5.08-.4Zm-5.47,3.21c4.28-.25,8.09-.87,11.33-1.61.18-.04.46-.07.78,0,.22.04.72.14.78.4.06.23-.26.58-.78.8-3.42.67-7.22,1.24-11.33,1.61-4.54.41-8.73.49-12.51.4.98-.29,2.03-.68,3.13-1.2.27-.14.53-.27.78-.4,2.37.14,4.99.16,7.82,0Zm14.54-19.59c-1,1.51-1.39,2.18-2.01,3.01-1.51,2.01-2.1,2.87-2.86,3.71h0c-.05.08-.11.14-.17.2-.28.32-.57.63-.87.94-.35.37-.7.73-1.06,1.09l-.15.19-1.56,1.61c-1.66,1.47-3.12,2.68-4.3,3.61,0,0-3.19,2.54-7.39,4.01-.02,0-.03.01-.04.02-.32.11-.78.22-1.17,0-.21-.12-.33-.29-.39-.4.13-.14.26-.27.39-.4.57-.18,1.24-.44,1.95-.8.99-.52,1.77-1.1,2.34-1.61h-1.17c-1.95.98-4.45,2.02-7.43,2.82-2.4.63-4.6.96-6.49,1.13h-.12c-.75-.02-1.69-.12-2.73-.4-1.01-.27-1.87-.65-2.56-1.03,4.11.32,8.81-.58,8.81-.58.75-.15,1.37-.28,1.78-.37.12-.02.22-.07.32-.13.36-.25,1.31-.91,1.79-1.49.02-.02.03-.04.05-.06.08-.1.26-.38.37-.77.08-.26.05-.35,0-.4-.07-.08-.23-.07-.39,0-1.92.77-4.42,1.57-7.42,2.01-3.78.56-7.02.35-9.38,0-.21,0-.39.18-.39.4,0,.2.28.35.39.4.55.29,1.19.5,1.88.66h.01c.93.71,2.54,1.73,4.76,2.15,1.47.29,2.74.23,3.69.1h.03c.05-.01.1-.02.15-.03.13-.03.28-.07.44-.09.23-.04.48-.03.73.09.11.05.39.18.39.4,0,.16-.16.33-.39.4-.66.13-1.59.29-2.74.4-8.65.88-15.46-2.11-18.76-3.61-2.87-1.3-8.62-4.25-14.77-12.18-.52-.67-1.04-1.37-1.56-2.11,0,0-.14-.19-.27-.38-.62-.88-2.21-3.21-3.01-4.52-1.85-3.01-3.65-7.27-3.95-7.98-.57-1.62-1.11-3.31-1.63-5.07-1.55-5.29-2.57-10.28-3.21-14.86-.14-.27-.27-.53-.4-.8-.14.12-.27.25-.4.4-.38.42-.63.85-.8,1.2-.28.29-.95.9-2.01,1.2-1.1.31-2.02.11-2.41,0-.06-.21-.17-.5-.4-.8-.17-.21-.33-.34-.4-.4-.54-.44-1.08-.97-1.2-1.2-.21-.38-.19-.59-.4-2.81-.08-.79-.13-1.33-.4-2.01-.15-.36-.25-.52-.4-.8-.79-1.52-.8-3-.8-4.02,0-.58.05-1.13.4-1.61.11-.15.16-.17.4-.4.62-.6,1.03-.99,1.16-1.31.03.01.06.02.08.03.33-.11.7.08.8.4.05.15.04.3-.02.43,0,.01,0,.02-.01.02,0,.02-.01.03-.02.04-.05.12-.15.22-.27.28-.01,0-.02.01-.03.02,0,0-.01,0-.01.01t-.01,0c-.13.09-.26.18-.45.41-.63.79-.84,2.04-.4,2.41.23.19.65.18.8,0,.14-.17,0-.38,0-.81,0-.63.33-1.09.4-1.2.1-.14.57-.8,1.2-.8.52,0,.64.43,1.2.4.06,0,.55-.04.8-.4.3-.42.08-1.01,0-1.2-.16-.44-.35-.44-.4-.8-.05-.4.14-.7,0-.8-.09-.07-.2.05-.4,0-.2-.05-.42-.25-.4-.4.04-.23.66-.48,1.2-.4.12.02.25.06.4,0,.17-.06.35-.21.4-.4.06-.24-.08-.46-.24-.63-.09-.28-.15-.6-.17-.97,0-.19,0-.32,0-.4,0-.06,0-.13,0-.2.22-.21.36-.52.4-.61.38-.82.13-1.67,0-2.01-.08-.15-.2-.33-.4-.4-.34-.13-.62.14-.8,0-.16-.13-.14-.52,0-.8.27-.52.78-.37,1.2-.8.16-.16.35-.45.4-2.41.02-.66.02-1.21,0-1.61-.13.13-.27.27-.4.4.08.36-.11.7-.4.8-.34.12-.68-.16-.8-.4-.22-.5.34-1.13.4-1.2.07-.08.18-.19.4-.4.36-.35.38-.34.4-.4.15-.33-.23-.64-.4-1.2-.08-.27-.13-.67,0-1.21-.05-.26-.16-.56-.4-.8-.2-.2-.34-.22-.4-.4-.09-.27.08-.68.4-.8.18-.06.33-.02.4,0-.05-.71-.06-1.52,0-2.41.07-1.06.22-2.01.4-2.81-.27.27-.53.54-.8.8.04.58-.1,1.09-.4,1.2-.44.17-1.22-.54-1.2-1.2.01-.34.22-.59.4-.8.31-.36.67-.56,1.2-.8.41-.19.6-.18.8-.4.27-.28.32-.61.4-1.2.08-.51.12-.85.09-1.18.59-.52.73-.92.72-1.23,0-.2-.08-.44,0-.8.03-.13.07-.25.11-.35.01-.03.03-.05.03-.07h0c.11-.03.2-.06.28-.1,0,0,0,0,.01,0,.13-.08.26-.18.37-.29.74-.77.43-1.92.4-2.01-.02-.06-.04-.12-.06-.17.02-.08.04-.15.06-.23.06-.19.16-.49.4-.8.17-.22.34-.36.4-.4.42-.11,1.02-.33,1.61-.8.83-.69.75-1.21,1.61-2.01.49-.45.45-.22,2.01-1.2,1.4-.88,1.41-1.05,2.01-1.2.6-.15.96-.07,1.61-.4.33-.17.76-.4.8-.8.05-.41-.33-.74-.4-.8-.8-.67-1.61-1.34-2.41-2.01-.1-.09-.24-.22-.4-.4-.39-.44-.55-.82-.8-1.2,0,0-.32-.55-.8-1.2-.68-.93-1.17-1.11-1.61-1.61-.08-.09-.16-.2-.24-.32-.06-.16-.12-.32-.16-.49-.02-.05-.03-.1-.04-.17-.02-.08-.04-.16-.06-.26,0-.05-.02-.11-.02-.16-.08-.46-.09-1.1.12-1.82.12-.44.43-1.28,1.2-2.01.07-.07.15-.14.22-.19.8-.67,1.66-.84,2.6-1.02.35-.08.68-.11,1.02-.04.01.02.03.04.05.06.87.69,1.38,1.73,1.34,2.79-.01.19-.03.37-.07.55-.2-.54-.6-.85-.73-.95-.64-.48-1.35-.42-1.61-.4-.2.02-1.46.12-2.01,1.2-.11.21-.17.42-.2.61,0,.01,0,.02,0,.02v.02c-.1.69.15,1.26.2,1.37.37.6,1.03.76,1.2.8-.03-.05-.44-.83,0-1.61.39-.68,1.12-.79,1.2-.8l1.2,1.2c-.18.21-.33.35-.4.41-.17.08-.38.21-.4.4-.04.34.55.66.8.8,0,0,.71.4,2.81,2.01.63.48,1.42,1.31,2.01,2.81.03.09.06.24,0,.4-.06.16-.18.28-.4.4-.57.32-.88.17-1.2.4-.15.12-.33.33-.4.8.1,0,.23.01.4,0,.99-.04,1.25-.32,2.01-.4.88-.09,1.03.25,1.61,0,.16-.07.68-.31.8-.8.12-.44-.15-.87-.4-1.2-.85-1.14-1.95-1.72-3.61-2.81-1.28-.84-2.11-1.47-2.01-2.01.09-.47.4-.8.4-.8.18-.2.31-.22.4-.4.09-.17.1-.36,0-.8-.14-.62-.31-.92-.4-1.2-.17-.51-.13-1.18,0-1.61.17-.53.64-1.02,1.61-2.01,1.2-.94,1.55-1.12,2.01-1.21.42-.08.81.06,1.16.26,0,0,0,0,0,0,.44.34.69.69.84.95.84,1.44.5,3.48-.8,5.22-.54-.42-.91-.71-1.2-1.2-.25-.43-.32-.8-.4-1.2-.03-.13-.05-.25-.07-.36-.03-.23-.03-.39.07-.45.18-.12.59.17.8.4.28.29.37.62.4.8.12-.12.35-.4.4-.8.08-.55-.22-.96-.4-1.2-.17-.23-.6-.82-1.2-.8-.38.01-.65.25-.8.4-.27.34-.64.91-.76,1.65,0,.02,0,.02,0,.04-.03.22-.04.42-.04.57.03.93.47,1.77,1.06,2.39.41.43.88.76,1.35.97.66.3.6.03,2.01.4,1.18.32,2.33.64,3.22,1.61.44.49.71,1.02.79,1.18,0,.01.02.02.02.04.1.31.27.86,0,1.19-.18.23-.39.14-.8.4-.46.3-.4.52-.8.8-.59.41-1.19.26-1.21.4-.01.14.57.4,1.21.4.73,0,.79-.33,1.61-.4.73-.07.96.18,1.61,0,.28-.08.61-.17.8-.4.64-.79-.54-3.05-2.01-4.42-.96-.89-2.01-1.36-2.81-1.61-.2-.06-.51-.17-.81-.4-.02-.02-.03-.03-.05-.04-.21-.18-.26-.48-.11-.72.2-.31.42-.73.56-1.25.29-1.04-.04-1.69,0-2.41.04-.81.51-1.92,2.41-3.22.8-.35,1.46-.39,1.61-.4.29-.02.96,0,1.61.4.45.28.69.63.8.8.77,1.15.89,3.01,0,4.42-.1.16-.25.37-.47.59-.5-.18-.68-.4-.73-.59-.05-.16,0-.28,0-1.2.14-.88-.49-1.68-1.2-2.01-.09-.04-.89-.4-1.61,0-1,.55-.95,2.07-.8,2.81.16.78.56,1.33.8,1.61.25-.32.5-.76.4-1.2-.09-.37-.35-.44-.4-.8-.07-.48.27-1.14.8-1.2.33-.04.64.17.8.4.24.34.25.81,0,1.2-.1.1-.34.37-.4.8-.1.67.34,1.14.4,1.2.14.14.27.27.4.4h0c.24.24.57.36.9.32.54-.07,1.19-.08,1.9.08,2.83.6,4.19,3.17,4.42,3.61-.04.3-.13.68-.4.8-.16.07-.32.02-.4,0-.68-.18-1.05.31-2.01.4-.97.1-1.33-.34-2.01,0-.13.07-.38.19-.4.4-.05.36.57.74.8.8.79.22,1.9.43,3.21.4,1.08-.02,2.03-.19,2.81-.4h0c.33-.18.71-.35,1.13-.51.27-.11.56-.21.87-.3.85-.25,1.64-.36,2.33-.4.48-.03.92-.02,1.29,0h2.82c-.2-.13-.53-.37-.8-.8-.32-.5-.37-.97-.4-1.2-.25-1.59-1.65-2.9-2.41-3.61-.2-.19-.44-.4-.75-.63-.36-.27-.4-.81-.07-1.12.34-.33.69-.8.81-1.46.2-1.03-.28-1.83-.4-2.01-.07-.22-.13-.53,0-.81.12-.24.34-.36.4-.4.2-.08.48-.22.8-.4.63-.36.9-.61,1.2-.8.62-.38,1.24-.39,2.01-.4,1.34-.02,2.52.43,3.31.82.56.38.96.94,1.11,1.6.35,1.57-1.02,2.67-1.2,2.81-.72.56-2.14,1.15-3.21.4-.88-.61-1.29-1.95-.8-2.81.06-.11.46-.81,1.2-.81.49,0,.95.32,1.2.81-.1-.83-.59-1.49-1.2-1.61-.72-.14-1.31.49-1.61.8-.14.14-.81.89-.81,2.01,0,1.22.83,2.03,1.21,2.41.9.88,1.94,1.13,2.41,1.2.17.07,1.22.49,1.61,1.61.25.74.07,1.38,0,1.61-.42,1.39-1.81,1.93-2.01,2.01.47.41.91.66,1.2.8,0,0,1.45.72,3.61.4.31-.05.69-.13.8-.4.07-.15.03-.31,0-.4-.15-.37-.34-.92-.4-1.61-.02-.2-.23-2.95,1.61-4.42.88-.71,2.3-1.17,2.41-1.2.17-.06.48-.15.8-.4.48-.38.72-.89.8-1.2.36-1.24-.34-2.95-1.61-3.22-.69-.14-1.52.17-2.01.8-.51.68-.43,1.45-.4,1.61.03-.17.12-.51.4-.8.37-.39,1.01-.63,1.61-.4.06.02.6.24.8.8.29.78-.33,1.53-.4,1.61-.43.5-.85.41-2.01.8-.85.28-2.02.67-2.81,1.61-.48.56-.7,1.17-.8,1.61-.22-.33-.6-.81-1.2-1.2-.29-.19-.57-.32-.8-.4.38-.23,2.1-1.29,2.41-3.21.07-.44.06-.85,0-1.2-.08-.21-.37-1.05,0-2.01.43-1.12,1.44-1.54,1.61-1.61.27-.13.68-.3,1.2-.4,2-.39,3.62.56,4.02.8,1.04.64,1.67,1.46,2.01,2.01.9,1.57.83,3.12.8,3.62-.03.52-.22,2.7-2.01,4.42-1.05,1.02-2.2,1.44-2.81,1.61-.13.05-1.28.47-1.61,1.61-.15.51-.07.96,0,1.2.93.07,2.01.09,3.21,0,.04,0,.07,0,.1-.01h.01c.74,0,1.66,0,2.71.01,1.59.02,4.82.09,4.82,0,.75.01,1.84.09,3.21.4.2-.06.5-.17.8-.4.45-.35.61-.78.8-1.2,0,0,.74-1.62,2.01-2.81.25-.24.51-.44.8-.4.41.05.57.54.8.8.37.42,1.25.71,3.61,0-.08-.22-.14-.53,0-.8.1-.18.23-.27.4-.4.94-.32,1.41-1.23,1.61-1.61.14-.26.34-.65.4-1.2.13-1.02-.28-1.79-.4-2.01-.27-.5-.6-1.1-1.2-1.2-.74-.14-1.39.56-1.61.8-.82.88-.82,2.04-.8,2.41.11-.08.26-.21.4-.4.28-.38.21-.62.4-.8.28-.26.85-.19,1.2,0,.68.35,1.03,1.32.8,2.01-.19.57-.8,1.01-1.61,1.61-.01,0-.03.03-.06.04t-.02.02c-.26.17-1.02.59-1.93.35-.71-.2-1.11-.69-1.2-.8-.24-.31-.35-.61-.4-.8-.2-1.51.32-3.68.4-4.02.06-.22.33-1.07,1.2-1.61.68-.42,1.36-.42,1.61-.4h.4c.58.02,1.48.04,2.41.4.22.09.42.2.8.41.5.8,1.57,2.78,1.2,5.22-.22,1.48-1.61,3.61-1.61,3.61-.8,1.22-2.27,3.11-4.82,4.82.41.12,1,.22,1.61,0,.32-.12.66-.33,1.61-1.61,1.04-1.4,1.21-1.91,2.01-2.41.55-.35.94-.4,1.2-.4.58,0,1.01.27,1.2.4h.4c.65.19,1.18.09,1.61,0,.19-.04,2.24-.5,3.21-2.41.1-.2.18-.4.24-.57.16-.33.24-.67.17-1.03-.18-.83-1.16-1.47-2.41-1.61.24.32.71,1.02.8,2.01-.03.2-.2,1.34-1.2,2.01-.18.12-1.25.4-2.01.4-.9,0-1.15-.76-1.2-1.76v-.07c0-3.11,2.46-5.13,2.82-5.41.32-.27.61-.36.8-.4.84-.18,1.77.31,2.41,1.2.44.61,1.23,1.91,1.2,3.61-.02.99-.31,1.85-.8,2.81-1.65,3.16-4.63,5.72-6.03,6.83h2.01c.51-.46,1.05-.99,1.61-1.61.63-.7,1.16-1.38,1.61-2.01.18-.19.46-.4.8-.4.4,0,.69.3.8.4.85.78,2.75.82,4.02.4.46-.15,1.89-.62,2.41-2.01.04-.11.61-1.7-.4-2.81-.13-.15-.69-.8-1.61-.8-.13,0-1.08.01-1.61.8-.39.59-.39,1.38,0,2.01-.08-.69.25-1.34.8-1.61.35-.17.83-.22,1.2,0,.71.42.76,1.64.4,2.41-.53,1.15-2.12,1.72-3.21,1.2-.83-.39-1.11-1.3-1.2-1.61-.73-2.33,1.38-4.58,1.61-4.82.05-.05.11-.11.17-.17.11-.11.22-.2.32-.29.09-.07.18-.15.27-.22t.01,0c.07-.06.15-.11.23-.16.32-.21.67-.37,1.01-.37.8,0,2.01,2.01,2.41,2.41.01,0,.02,0,.03,0,.16.24.28.4.34.48,1.03,1.48.13,4.42,0,4.82-1.08,3.38-4.15,5.09-5.11,5.57-.02.01-.04.02-.05.03,0,.03.02.06.03.09.6,1.42,1.18,3.12,1.63,5.06-.95-.66-2.34-1.43-4.13-1.91-2-.54-3.72-.51-4.82-.4-.02.06-.06.22,0,.4.1.29.37.39.41.4,2.07-.25,3.58.13,4.42.4.76.25,2.19.73,3.21,1.61.22.19.51.47.97.7.08.11.18.24.26.35.05.23.08.47.12.69-.07-.03-.13-.06-.19-.09-.36-.19-.62-.43-.72-.52-.06-.06-.13-.11-.19-.17-.54-.46-1.42-1.07-2.62-1.44-2.01-.62-3.73-.21-4.42,0,0,0-.4.4,0,.4h1.61c.16,0,.34.01.54.03,0,0,.01,0,.02,0h.01c2.35.42,3.57,1.05,4.25,1.58.15.12.57.45,1.2.8.21.12.42.22.62.31.08.6.13,1.17.16,1.71.02.08.02.16.02.23-.01.24-.05.47-.09.71-.02.15-.02.3,0,.44.03.16.07.31.11.47.03.13.05.26.07.39h0c.12.19.16.4.15.61,0,0,0,0,0,0,.27.21.3.63.11.9-.07.17-.32.29-.38.32-.47.22-.97.08-1.2,0-.19-.06-.35-.14-.48-.2,0,0-.01.02-.02.02-.33-.17-.67-.34-1.03-.49-.99-.45-2.09-.86-3.3-1.2-.94-.26-3.86-1.01-7.77-.79-1.1.06-2.27.2-3.5.45-3.3.66-5.78,1.87-7.73,3.02-.62.36-1.18.72-1.71,1.05-.1.07-.19.13-.29.19,0,0-2.77,1.79-5.81,5.47-.14.18-.52.65-.81,1.36-.07.17-.14.36-.19.56-.06.21-.11.45-.14.7-.05.35-.07.72-.05,1.08-.18.02-.35.03-.52.05-1.11.12-1.47.31-1.61.4-.4.25-.65.57-.8.8.93.1,2.09.15,3.31,0,.08.1.16.18.27.24-.04.14-.08.27-.14.4-.49.1-.79.1-1.39.1-1.03,0-2.09-.06-3.1-.28-.12.08-.24.15-.36.22,0,0-.01.01-.02.01s0,0,0,.01c.07-.04.13-.06.17-.09.05-.04.09-.06.1-.06-.02.01-.05.03-.1.06-.08.07-.17.18-.21.34-.06.18-.16.37-.27.56.06.01.12.02.18.04.27.05.67,0,1.2,0,.4,0,.42.26.4.4-.03.25-.79.37-1.2.4-.48.04-.73.03-1.03.02-.12.27-.23.53-.34.81,1.06.09,2.34.12,3.77-.02.28-.03.54-.06.8-.1h.02c-.04.07-.08.15-.12.23-.09.19-.19.41-.3.65-.14.01-.27.02-.4.02-2.44.07-3.66.1-4.02,0-.01,0-.03-.01-.05-.02-.11.28-.21.55-.31.83.25.12.61.25,1.16.39,1.14.04,2.1.03,2.81,0,0,0,.12,0,.32-.02-.04.13-.09.25-.13.38-.19.15-.39.29-.57.44-1.34.09-2.56.08-3.63,0-.05-.02-.19-.05-.35-.01-.06.21-.12.42-.18.63.18.07.47.14.93.19.94.07,2.02.09,3.21,0,.08-.01.16-.01.24-.02-.1.39-.18.79-.24,1.21-.15,0-.28.01-.41.01-2.35.02-3.52.03-3.61,0-.04-.01-.21-.06-.4,0-.02,0-.03.01-.04.02.02.21.04.41.07.62.24.06.6.12,1.17.17.67.06,1.63.1,2.81,0,.12-.02.23-.04.34-.05-.02.33-.01.66.02.97-.38.04-.76.06-1.16.08-1.08.05-2.07.04-2.98,0,0,0,0,0,0,.02.03.29.05.58.07.87.51.11,1.24.12,2.5.05,0,0,.69-.04,1.67-.15.06.37.14.72.22,1.05-1.7.33-3.19.23-4.28.09.02.22.02.43.03.64,1.18.19,2.68.29,4.38.05.03,0,.06,0,.08-.01.12.43.24.82.32,1.15-.45,0-.84-.02-1.18,0-1.1.06-1.95-.05-3.2-.26-.22-.04-.41.15-.37.36.05.23.09.46.1.66.39.05.82.1,1.3.13.73.05,1.31.05,1.79.04,0,0,.67-.01,1.76-.13.18.55.36.99.48,1.46-.4.01-.78.02-1.15.02-1.57,0-2.96-.11-4.15-.27,0,.34,0,.67-.02,1,1.36.19,2.98.31,4.82.26.21,0,.41-.02.62-.03v.04c0,.17.1.56.15,1.2-2.14.12-4.06.02-5.68-.16-.02.24-.04.47-.05.7.1.04.2.07.33.08,1.5.17,3.26.26,5.22.16.07,0,.14-.01.21-.02,0,.32-.01.68-.05,1.08-1.96.08-3.75.05-5.35-.04-.11-.02-.25-.02-.4,0-.02,0-.03.01-.04.01-.01.24-.03.47-.03.71.99.14,2.09.25,3.28.29.84.03,1.65.03,2.41,0-.06.35-.09.68-.11.99-2.06.12-3.95.1-5.62.02,0,.26,0,.52,0,.78.78.1,1.62.16,2.51.2,1.09.04,2.12.03,3.08-.04.01.42.05.78.08,1.06-2.06.12-3.95.1-5.62.02.02.27.04.54.07.81.75.08,1.55.14,2.4.18,1.14.04,2.2.03,3.19-.04-.03.44-.08.8-.09,1.2-.23.01-.46.02-.7.03-1.66.05-3.13-.08-4.39-.27-.03.01-.06.02-.09.02,0,.01-.02.02-.03.02-.01.02-.02.04-.02.06,0,0,.01.02,0,.04,0,.07,0,.14,0,.21,0,.02,0,.04,0,.05.01.04.02.07.03.11,0,.04.02.08.04.12,0,.02.02.04.03.06,0,0,0,.02.01.04.01.02.02.03.03.04.02.04.03.07.05.1.02.03.04.05.05.08.44.09.88.14,1.32.14.79,0,1.96,0,3.38,0,0,0,.12,0,.32-.01.04.31.09.67.18,1.1-.4.04-.83.07-1.27.08-1.24.04-2.36-.05-3.31-.19,0,0-.02,0-.02,0-.07,0-.13,0-.19,0h0s-.06.02-.08.02h0s0,0-.01,0c0,.01-.03.03-.04.04,0,0-.01.01-.01.02-.02.02-.03.05-.04.07h0s-.01.02-.01.03c0,.02,0,.04,0,.06h0c.02.07.03.14.04.2.03.08.06.15.09.23.02.05.05.1.07.14.02.03.04.06.06.09h0s0,.01.01.02c.55.09,1.12.09,1.4.11,0,0,1.77.16,3.55.06.08.28.17.6.27.94-.72.1-1.44.17-2.02.19-1.3.02-2.11.04-2.62-.04h0v.02s0,.02-.01.04c0,.03,0,.07,0,.1s0,.07.01.09c.05.12.11.24.16.36.01.02.03.04.05.06,0,0,0,.02.02.03.02.02.04.04.06.06.03.01.07.02.09.04,0,0,.02,0,.02,0,.04.01.07.03.1.04.85.08,1.84.12,2.95.04.44-.03.85-.07,1.25-.13.09-.02.18,0,.25.03.1.28.2.58.31.9.02-.03.03-.03.05-.01,0,.05.01.1.02.14-.64.07-1.34.12-2.07.15-.83.04-1.61.04-2.33.02-.02.02-.03.04-.05.05-.01.05-.02.09-.04.13.06.14.11.27.16.41.01.02.02.04.02.06.02.03.05.06.07.09.02.02.04.04.06.05,0,.01.02.02.02.02.02.02.04.03.07.04,0,0,0,0,.01.01.08.02.17.03.25.04.59.05,1.34.06,2.17-.02.47-.05.89-.11,1.28-.18.28-.05.55.12.63.39.02.06.03.12.05.18.07.23.13.4.18.54-1.35.27-2.33.3-3.04.26-.14,0-.62-.03-1.06-.06-.02.03-.05.06-.08.08-.07.05-.16.08-.24.11,0,.06.02.13.02.2t0,0c.03.06.06.11.09.16.02.02.04.05.05.07,0,0,.01.01.02.03,0,0,.02.02.02.03.06.08.14.15.21.22,1.01.15,1.85.13,2.46.08.2-.02.4-.05.62-.09.73-.14,1.43.33,1.58,1.06,0,.02,0,.04.01.06h0c-.63.08-1.29.13-1.98.17-.65.04-1.26.05-1.85.04-.13.04-.26.08-.38.1-.09.04-.19.06-.28.08-.09.02-.17.04-.25.06h0s-.03.02-.03.03c-.02.02-.04.04-.06.06,0,0-.04.05-.05.06,0,0,0,0-.01.01-.02.03-.03.06-.05.08v.02s.04.13.05.17h0s.03.07.05.1h0s.04.03.06.04c.71.03,1.67.04,2.8-.02.08,0,.65-.04,1.35-.1.48-.04.83.42.68.86-.02.18-.16.32-.34.34-.07,0-.15.02-.22.02-.36.03-.72.06-1.07.08-.29.02-.57.03-.84.04-.94.03-1.83.01-2.65-.04l-.08.02h0s-.06.03-.09.04c-.02,0-.03.02-.04.02l-.09.09s-.03.07-.04.11c0,.02.01.05.02.07,0,.08.01.16.02.24.02.04.04.08.05.13.03.02.06.03.08.05.7.07,1.42.11,2.16.12-.16.27-.55.21-1,.49-.11.07-.21.15-.29.24h-1.63s-.31.12-.4.4c-.05.16.05.23,0,.4-.06.2-.24.35-.4.4-.17.06-.31.02-.4,0-.12-.03-.77-.17-1.2,0-.64.25-.8,1.16-.8,1.2.13.13.27.27.4.4.1-.12.23-.27.4-.4.3-.24.6-.35.8-.4.53-.14,1.07-.27,1.61-.4.1-.02.24-.03.4,0,.37.06.63.26.8.4.22.18.32.31.4.4.14.14.36.29.72.36.23.05.52.07.89.05.22-.08.23-.15.8-.4.22-.1.48-.2.8-.4.23-.15.35-.25.4-.4.06-.16.03-.32,0-.4-.51-.1-1.48-.22-2.41,0-.31.06-.39.03-.4,0-.01-.03.01-.08.4-.4.06-.05.11-.09.14-.12l.47-.42s0-.24,0-.5c0-.21.04-.38.07-.49.82-.01,1.66-.05,2.51-.1.12-.01.25-.02.37-.03.18-.09.36-.25.46-.36.2-.2.32-.44.39-.68.15-.45.13-.92.09-1.26-.03-.23-.06-.39-.08-.47-.02-.1-.05-.21-.09-.32-.17-.54-.44-1.15-.66-1.62-.12-.25-.23-.46-.29-.6-.02-.04-.04-.07-.05-.1-.02-.06-.05-.12-.05-.12,0,0-.06-.15-.12-.29-.07-.2-.14-.47-.19-.73-.05-.24-.09-.46-.12-.61-.02-.09-.03-.15-.03-.17,0-.05-.03-.14-.03-.26v-.05c0-.3.02-.54.02-.73.02-.43.05-.61.05-.61.02-.09.03-.18.04-.26.05-.25.11-.44.15-.59,0,0,.05-.16.13-.4.09-.26.24-.63.42-.98.05-.09.11-.19.11-.19,0,0,0-.02.02-.02.08-.14.17-.31.3-.5.07-.1.19-.28.38-.49.01-.01.02-.02.03-.03.07-.07.19-.21.36-.35.64-.55,1.04-.56,1.22-.83.03-.05.15-.23.31-.23.04,0,.12-.03.2-.08,0,0,0,0,.01,0,.32-.17.89-.63,1.22-1.21h0c.07-.11.17-.27.27-.48.37-.78.39-1.46.4-3.21v-1.61c0-.57.2-1.35.8-2.01.42-.46.9-.69,1.2-.8l-.09-.09c1.8.44,3.87.72,6.15.65.72-.02,1.79-.09,3.04-.3,1.83-.29,4.04-.87,6.08-2,.9-.5,1.7-1.07,2.17-1.43-.02.15-.04.3-.06.46-.06.46-.13.96-.18,1.35-.86.75-2.13,1.64-3.83,2.24-.35.13-.69.23-1.02.32-.59.17-1.2.29-1.79.41-1.01.21-2.06.32-3.1.38-.03.03-.07.06-.1.09-.02.04-.03.07-.04.1,0,.02,0,.04-.01.06.17.26.48.48.62.53,2.37.86,7.59-1.23,9.16-2.7-.29.52-.73,1.2-1.4,1.87-1.33,1.08-4.65,2.28-7.48,2.06-.27-.02-.54-.05-.8-.08.05.15.15.36.36.55.28.26.61.35.84.37.78.05,1.71.04,2.76-.11,1.36-.19,2.48-.54,3.32-.87.07-.04.13-.07.19-.1.03-.02.07-.04.1-.06,1.36-.8,2.03-1.7,2.4-2.39.47-.87.36-1.27.95-2.95,0-.02.02-.03.02-.05.06-.16.12-.34.2-.52.49-1.28.92-2.1,1.04-2.32.26-.48.51-.92.76-1.3.12-.19.24-.37.35-.53.59-1.11,1.24-2.6,1.67-4.41.1-.42.18-.82.25-1.21.25-1.49.29-2.8.25-3.81-.65.78-2.06,2.24-4.02,2.51-.78.11-1.71.03-2,0-1.41-.83-4-2.09-7.45-2.38-.87-.07-1.67-.09-2.41-.05-1.38.07-2.57.31-3.7.64-.33.1-.64.2-.92.29.56-.65.94-1.34,1.25-1.98.11-.23.22-.45.31-.67.18-.39.3-.7.39-.96.18-.54.23-.87.33-1.21.08-.28.18-.55.41-.95.89-1.53,2.2-2.37,2.95-2.81.04-.01.09-.02.13-.04,0,0,6.64-1.75,8.91-.31.11.08.38.24.36.44-.03.22-.18.32-.4.29-.8-.08-2.58-.59-2.8-.28-.05.07-.08.18-.04.4.36.44,1.56.56,1.96.6.8.09,1.68.46,2.21.58.2.04.31.06.55.11.35.27.37.38.36.44-.02.18-.28.3-.39.34-.49-.2-1.03-.38-1.61-.54-1.38-.38-2.71-.54-2.8-.29.12.21.23.39.35.55v.02c.09.08.17.14.22.19.06.06.12.1.15.13l5.48,1.77c.18-.27.4-.23.44-.36.14-.06.34-.17.44-.36.14-.26.01-.47.08-.8.06-.3.24-.52.36-.65.18.03.34.02.47,0,0,0,.01-.01.02-.01.67-.3,1.44-.22,1.98.22.49.39.62.93.66,1.18,0,.05.01.08.02.1.3.35.57.46.76.48.3.04.47-.1.78-.19.13-.04.27-.07.46-.09.15-.02.44-.03.77.08.6.9.66,2.87.17,5.34-.1.27-.23.51-.36.74.32.36.42.75.46.9.04.15.09.34,0,.4-.13.1-.49-.15-.8-.4-.06-.02-.13-.05-.2-.07-.02.03-.04.06-.06.08-.07.27-.14.53-.23.78.03,0,.05,0,.09.01.09.02.91.17,1.2.8.12.24.2.66,0,.8-.13.1-.32.04-.4,0-.46-.19-.87-.31-1.25-.4-.07.27-.15.54-.26.81.94.07,1.3.23,1.51.39.17.13.31.28.4.4v1.2s-.12.31-.4.4c-.19.06-.34.02-.4,0-.82-.26-1.52-.4-2.12-.49-.15.28-.28.57-.41.87.15,0,.31,0,.52.03.31.04,1.66.21,2.41,1.2.3.4.58,1.02.4,1.2-.09.08-.27.05-.4,0-1.13-.39-2.1-.64-2.81-.8-.2-.05-.42-.1-.65-.14-.08.28-.16.57-.22.86,1.1.01,2.42.19,3.28.88.22.18.96.77.8,1.2-.04.11-.17.32-.4.4-.18.06-.34.02-.4,0-.33-.12-.73-.26-1.2-.4-.89-.27-1.67-.43-2.35-.52-.04.33-.07.65-.09.97.68.09,1.58.29,2.43.75.75.41,1.07.8,1.2,1.2.05.15.16.48,0,.8-.11.23-.31.35-.4.4-.87-.39-1.95-.79-3.21-1.1.02.21.04.42.07.63.13.03.24.05.33.07.7.17,1.68.49,2.81,1.2.28.57.23,1.06,0,1.2-.04.03-.16.09-.4,0-.56-.27-1.38-.59-2.4-.8.08.28.16.56.26.83.35.13.67.26.94.37.93.39,1.11.62,1.2.8.14.28.12.55.4.8.17.15.33.2.4.4.07.19.02.36,0,.4-.07.21-.24.32-.34.38t-.02,0c0,.61.01,1.23.03,1.85-.04,5.22-.71,14.91-5.33,24.71-1.13,2.41-2.33,4.88-3.84,7.39Zm46.45-50.8c-.21,1.11-.94,1.79-1.2,2.01.22.31.88,1.35.8,2.82-.08,1.45-.84,2.41-1.14,2.75-.01,0-.02,0-.02-.01-.07.12-.2.28-.4.4-.26.15-.53.17-.74.14.24-1.27-.35-2.68-.46-2.95-.13.1-.27.23-.4.4-.35.47-.4.98-.4,1.2.14.2.29.47.4.8.2.62.17,1.18.11,1.59-.01.04-.02.09-.03.13-.02.08-.03.15-.05.22-.02.03-.02.06-.03.08.38-.02.96-.11,1.61-.4.15-.06.28-.14.4-.21-.03,2.22-.4,2.9-.8,3.02-.34.1-.69-.2-1.2,0-.3.11-.52.34-.67.57,0,.01-.02.02-.02.03-.2.23-.26.55-.52.61-.19.04-.4-.11-.8-.4-.25-.18-.37-.27-.4-.4-.07-.27.22-.44.4-.8.25-.52,0-.87,0-1.61,0-.38.07-.92.4-1.61-.44.08-.68.26-.8.4-.17.18-.19.33-.4.8-.28.61-.32.54-.4.8-.16.46-.02.61,0,1.61.01.86-.1.86,0,1.2.14.51.42.69.8,1.2.25.34.56.86.8,1.61h.4c.15-.27.34-.68.4-1.2.04-.36-.02-.54,0-.8.01-.22.06-.49.22-.8.01-.03.02-.05.04-.08,0-.01.01-.02.02-.03.32-.49.66-.76.93-.7.16.04.29.18.4.4,0,0,0,.01,0,.02.1.19.17.37.22.54.02.04.03.07.04.11h0c.02.07.04.13.05.18.04.13.05.28.05.43,0,.95-.7,1.53-.8,1.61.15.83.37,2.69-.4,4.82-.09.24-.18.46-.28.68-.21.46-.45.87-.69,1.23-.18.29-.4.59-.67.9-.07.08-.14.16-.22.24,0,0-.02.02-.02.03-.16.16-.32.32-.5.47-.56.47-1.1.8-1.58,1.02l-.07-.14c-.12-.15-.32-.42-.4-.8-.08-.33-.04-.59,0-.81.09-.58.28-.74.4-1.2.07-.27.12-.67,0-1.2h-.4c-.12.4-.34,1-.81,1.61-.04.05-.08.1-.12.14-.65-.81-.94-1.68-.78-2.31.01-.04.03-.08.04-.12,0,0,.01-.01.01-.02,0-.02.02-.05.03-.07.02-.04.04-.08.06-.11.02-.03.04-.06.06-.09,0-.01.02-.02.03-.03.01-.02.02-.03.03-.04.01-.02.03-.04.05-.05.25-.23.51-.25.64-.6.12-.32-.05-.39,0-.8.09-.71.64-.86.81-1.61.06-.26.06-.52,0-.8-.2.41-.57,1.03-1.21,1.61-.44.39-.86.64-1.2.8.05.29.08.71,0,1.2-.08.53-.26.94-.4,1.2.02.05.13.31.4.4,0,0,.02.01.03.01.04.46.14,1,.38,1.6.17.42.35.71.4.8.72,1.21,1.08,3.9.8,6.43-.01.11-.02.22-.04.33-.08.51-.2,1.06-.4,1.7,0,0,0,0,0,.02-.18.67-.4,1.38-.68,2.11-.04.11-.08.23-.13.34-.3.77-.65,1.56-1.2,1.61-.38.04-.69-.29-.8-.4-.59-.6-.5-1.5-.43-1.86h0c.03-.08.05-.15.07-.22.02-.18.02-.46,0-.8-.07-1.02-.35-1.52-.4-2.01-.01-.12-.02-.25,0-.4h0c.04-.3.16-.65.42-1.06.02-.04.05-.08.08-.12.27-.42.56-.7.71-.84-.09-.02-.23-.03-.4,0-.4.07-.52.3-.8.4-.41.15-.99-.06-1.2-.4-.07-.12-.23-.47.4-1.61.36-.63.96-1.52,2.01-2.41-.28,0-.92.02-1.61.4-.71.4-1.07.96-1.2,1.2-.04-.16-.08-.45,0-.8.09-.4.3-.67.4-.8h-1.61c-.13.27-.27.54-.4.8.19.38.58,1.28.4,2.41-.08.51-.25.92-.4,1.2.24.07.82.26,1.2.8.31.43.4.89.4,1.2,0,.25-.21.71-.43,1.08h0c-.14.23-.27.42-.38.53.14.04.54.16.95.48h0c.23.19.46.41.65.73.21.33.31.65.36.93.03.14.04.27.05.38,0,.01,0,.02,0,.02.01.06.02.11,0,.17h0c0,.07-.02.12-.05.18-.1.24-.31.35-.4.4-.32.2-.75.61-1.2,1.61.18.18.45.38.8.4.22.02.3-.05.4,0,.29.16.19.99,0,1.61-.13.44-.66,1.93-2.01,2.41-.39.14-1.01.26-1.2,0-.1-.13-.03-.3,0-.8.02-.34.01-.62,0-.8-.02-.04-.13-.32-.4-.4-.29-.09-.63.08-.8.4-.11.38-.27.64-.4.8-.47.58-1.07.68-1.2,1.2-.04.16-.02.31,0,.4.26.24.53.38.8.4.17.02.24-.02.4,0,.07.01.59.07.8.4.17.29.06.64,0,.81-.38,1.14-2.48,1.89-2.81,2.01-.16.3-.62,1.09-1.61,1.61-.86.45-1.67.43-2.01.4-.08-.07-.4-.37-.4-.8,0-.35.21-.59.4-.8.18-.2.38-.37,1.2-.8.31-.16.53-.28.7-.37.01,0,.02-.01.03-.01.39-.18.76-.35.92-.5.45-.41.41-.74.4-1.2-.01-.42-.32-.72-.4-.8-.36-.29-.52-.77-.4-1.2.17-.61.77-.79.8-.8-.14-.14-.43-.39-.8-.4-.46-.01-.8.35-1.2.8-.23.25-.54.64-.8,1.2.04.07.42.72,1.2.8.03.09.05.25,0,.4-.14.4-.62.4-1.2.8-.06.05-.12.09-.16.12-.24.12-.34.33-.55.59-.03.03-.07.07-.1.1-.27.24-.56.45-.88.63,0,0-.02,0-.02.01-.29.12-.55.18-.74.24-.74.22-1.87.88-3.62,2.81v.4c.2.06.5.17.8.4.18.14.31.28.4.4-.24.26-.38.53-.4.8-.02.17.02.23,0,.4,0,0-.04.38-.4.8-.36.42-1.41.8-2.81.8-.15.22-.65.89-1.61,1.2-.25.09-1.05.32-2.01,0-.3.29-1.12.98-2.41,1.2-1.38.24-2.44-.23-2.81-.4-.8.18-1.75.33-2.81.4-.89.06-1.7.05-2.41,0,.02-.37.14-1.5.8-2.41.3-.41.64-.68.8-.8.34-.26.54-.41.8-.4.32.01.35.23.8.4.14.05.72.27,1.2,0,.23-.13.34-.31.4-.4.02-.03.04-.06.07-.09.24-.27.72-.55,1.74-.67.25-.06.47-.1.65-.12h.04c.35-.05.89-.11,1.57,0,.06.01.11.02.18.03.09.02.19.04.3.07t.02,0c.09.02.19.05.3.08.11.04.22.08.33.12.05.02.1.04.14.06.05.03.1.05.15.08.19.1.39.22.59.37.25.18.45.38.6.54.04.06.09.11.12.15.04.04.06.08.09.11h.4c.09-.1.22-.25.4-.4.47-.41.79-.51,1.2-.81.19-.13.42-.33.67-.63.08-.1.06-.25-.05-.32-.24-.18-.45-.24-.62-.26-.39-.04-.69.16-.8,0-.08-.11-.06-.28,0-.4.13-.24.4-.25.8-.4.13-.05.79-.3,1.2-.8.3-.36.14-.44.4-.8.54-.72,1.38-.57,1.61-1.2.02-.04.11-.29,0-.4-.09-.09-.28-.03-.4,0-.34-.03-.78-.13-1.2-.4-.62-.4-1.2-1.15-1.24-1.97.06-1.05,1.22-1.84,2-2.37.34-.23.88-.55,1.61-.8.07-.02.27-.09.41,0,.2.14.17.56,0,.8-.15.2-.33.21-.81.4-.15.06-.55.23-.8.4-.54.38-.96,1.2-.8,2.01.03.14.17.86.8,1.2.71.38,1.59.06,2.01-.4.28-.31.38-.7.4-.8.04-.19.07-.33,0-.4-.1-.1-.38-.09-1.21.4-.27.08-.37.05-.4,0-.14-.2.65-1.11,1.61-1.61.46-.24.89-.35,1.2-.4.12-.04.31-.09.4,0,.15.15-.13.48,0,.8.13.34.64.53.8.4.07-.06.06-.16,0-.8-.06-.6-.06-.69,0-.8.13-.24.37-.22.8-.4.59-.25,1.28-.79,1.2-1.2-.05-.24-.35-.38-.4-.4-.31-.14-.6-.04-.8,0-.85.19-1.9-.05-2.01-.4-.07-.21.25-.29.4-.8.08-.27.02-.36,0-1.2-.02-.48-.02-.72,0-.8.19-.73,1.02-1.12,1.2-1.2.61-.29.77-.09,1.2-.4.07-.05.13-.11.19-.16,1.13-.67,1.6-.81,1.79-.76.04,0,.06.03.08.05.11.12-.08.36,0,.8,0,.03,0,.06.02.08.02.08.04.15.07.22-.28,0-.58.03-.89.1-1.1.26-1.77.93-2.01,1.2-.04.06-.92,1.31-.4,2.01.33.45,1.05.41,1.2.4,1.47-.08,2.32-1.82,2.41-2.01-.1-.03-.25-.06-.4,0-.22.08-.32.28-.4.4-.15.2-.46.4-1.2.4,0-.68.21-1.02.4-1.2.02-.02.04-.04.06-.05.03-.03.06-.05.09-.07,0-.01.02-.02.02-.02.57-.42,1.26-.52,1.84-.27.48.22.72.63.8.8-.02.16-.09.47-.4.8-.27.27-.54.53-.8.8v.4c.08.04.28.16.4.4.11.21.1.42.07.57-.02.1.08.18.18.15.32-.11.64-.21.96-.32-.04-.16-.08-.46,0-.8.09-.4.29-.68.4-.8l2.41-2.41h-.4c-.98.49-1.91.05-2.01,0-.18-.1-.32-.22-.43-.35h0c-.12-.15-.2-.31-.25-.48-.16-.48-.12-.98-.12-1.14.02-.07.05-.13.07-.19.01-.03.02-.05.04-.07.03-.07.07-.13.11-.19.03-.06.06-.11.1-.16.03-.04.05-.08.08-.11.02-.03.04-.07.07-.09.13-.19.25-.33.36-.44.2-.21.39-.37.57-.51.5-.39.9-.58,1.03-1.1.09-.32.03-.64,0-.8-.05-.25-.13-.7-.4-.8-.06.02-.26.1-.4,0-.2-.14-.14-.55,0-.8.12-.22.29-.31.4-.4.25-.2.48-.62.4-1.61-.13-.13-.27-.27-.4-.4-.18.18-.46.46-.8.8-.4.39-.55.54-.8.8-.77.84-.8,1.1-.8,1.2-.01.32.15.7.4.8.05.02.08.02.4,0,.59-.04.69-.04.8,0,0,0,.05.3,0,.8-.02.2-.08.38-.17.54-.27.18-.31.43-.67.74-.38.32-.98.59-1.2.4-.18-.15-.07-.54,0-.8.13-.5.43-.58.4-.8-.05-.41-.92-.35-1.2-.8-.44-.71.77-2.33,1.61-3.21,1.15-1.22,2.48-2,3.21-3.22.26-.43.4-.8.4-.8.28-.71.21-1.05.4-1.61.12-.31.33-.74.8-1.2.21-.14.44-.33.4-.4-.03-.07-.25-.03-.4,0-.56.11-.74.29-1.2.4-.24.06-.69.18-.8,0-.11-.17.14-.56.4-.8.3-.27.49-.23.8-.4.97-.51,1.18-1.84,1.2-2.01.05-.27.08-.51,0-.8-.21-.79-1.03-1.13-1.2-1.2-.1-.01-.24-.03-.4,0-.16.03-.63.12-1.2.8-.49.59-1.11,1.68-.8,2.01.17.19.59.09.8,0,.33-.14.45-.38.8-.8.38-.45.49-.69.8-.8.08-.03.28-.1.4,0,.2.15.06.61,0,.8-.28.96-1.38,1.92-2.01,2.41-.17.07-.71.25-1.2,0-.75-.37-.79-1.43-.8-1.61-.01-.3.04-.6.13-.89.42-.72,1.13-1.58,2.32-1.99.27-.1,1.3-.84,2.41-.4.19.07.7.28,1.1.66.14.41.21.87.11,1.35-.15.66-.53.89-.4,1.2.26.65,2.34.83,2.81,0,.26-.45.02-1.16,0-1.2-.16-.46-.39-.5-.4-.8-.02-.48.53-.64.8-1.2.16-.32.26-.82,0-1.61-1.4,1-2.76,1.28-3.21.8-.29-.31-.39-1.1-.4-1.2-.03-.19-.03-.35-.02-.5,0,0,0-.02,0-.02,0-.07,0-.13.02-.19v-.02s0-.05,0-.08c-.02-.63-.29-.92-.03-1.54.2-.48.46-.54.8-1.2.25-.48.36-.92.4-1.2-.45.55-.88.94-1.2,1.2-.67.54-1.07.86-1.61.8-.09-.01-.52-.07-.8-.4-.25-.3-.14-.52-.4-.8-.23-.25-.43-.2-.8-.4-.32-.18-.7-.41-.8-.8-.04-.15-.03-.28,0-.4.27-1.35,1.2-2.41,1.2-2.41,1.13-1.3,2.41-2.26,3.21-2.82.04-.02.32-.12.4-.4.09-.28-.07-.63-.4-.8-.08-.04-.28-.16-.4-.4-.14-.28-.11-.59,0-.8.08-.17.16-.18.4-.4.36-.33.8-.73.8-1.2,0-.17-.06-.25,0-.4.08-.22.28-.33.4-.4.2-.13.35-.29.46-.46.18.13.3.26.38.39.03.04.06.09.08.13-.62.82-1.19,1.81-.88,2.28.18.36.54.97,1.2,1.2.24.08.68.18.8,0,.1-.14-.07-.36,0-.4.07-.05.32.14.4.4.06.17.03.32,0,.4.01.01.02.02.03.03-.14.19-.29.3-.43.37-.22.11-.48.14-.8.4-.19.16-.22.25-.4.4-.22.19-.49.32-.8.4.05.32.07.61.06.86,0,.3-.03.55-.06.75,0,.07-.07.44-.25.93l-.29.14c-.15.08-.24.24-.23.41.02.37-.15.73-.45.93-.43.25-.93.1-1.15.02-.02,0-.04-.02-.05-.02-.07-.03-.43-.22-.4-.4.03-.17.38-.17.8-.4.19-.11.58-.36.8-.8.02-.04.45-.9,0-1.61-.13-.2-.29-.33-.4-.4-.55.37-1.34,1-2.01,2.01-.39.59-.64,1.15-.8,1.61.07.15.19.34.4.4.19.07.24-.05.52.03.32.09.58.34.66.66.08.28-.04.33.03.52.07.21.26.33.4.4.05-.02.1-.04.16-.07.1-.05.21-.1.32-.17.12-.07.24-.15.37-.24.26-.19.52-.42.76-.73.02-.02.03-.03.04-.05.03-.04.06-.08.09-.12.03-.03.05-.07.08-.1.04-.07.08-.13.12-.2.07-.13.14-.25.19-.37.15-.32.24-.59.3-.78.05-.15.14-.47.4-.8.17-.21.27-.26.4-.4.34.93.09,1.75,0,2.01.14.14.27.27.4.4.04-.02.36-.18.77-.19.25-.02.55.03.83.19.63.36.77,1.04.8,1.2-.03.26-.01.42,0,1.2-.08.02-.23.04-.4,0-.6-.11-.75-.66-1.2-.8-.1-.03-.24-.05-.42,0-.21.05-.46.16-.79.41-.09.1-1.1,1.24-1.2,2.01-.03.21,0,.4,0,.4.02.08.09.61.4.81.47.29,1.61,0,1.61-.81,0-.1.02-.08,0-.8,0-.54-.02-.93-.02-1.2,0,0,.02,0,.02,0,.27-.06.54.17.8.4.47.42.48.66.8.8.17.08.43.12.8,0,.09-.3.22-.57.4-.8.31-.39.51-.39.81-.8.21-.29.32-.6.4-.8.17-.45.19-.73.4-.8.14-.05.22.06.4,0,.24-.07.36-.33.4-.4.21-.44-.04-.76,0-1.2.02-.31.18-.73.8-1.2.1-.65.05-.79,0-.8-.17-.05-.5,1.12-1.2,1.2-.18.03-.22-.05-.4,0-.37.1-.52.43-.8.8-.62.2-.99.12-1.21,0-.24-.13-.41-.34-.8-.4-.06,0-.18-.03-.4,0-.26,0-.65.18-.8,0-.04-.05-.03-.11,0-.4.08-.63.07-.74,0-.8-.12-.11-.34.07-.4,0-.14-.15.74-.99,1.2-2.01.25-.54.35-1.07.39-1.52v-.02c.02-.17.02-.33.02-.47-.03-.22-.08-.67-.4-.8-.18-.08-.36-.02-.4,0-.28.1-.39.37-.4.4-.37.15-.69.15-.8,0-.02-.04-.07-.12,0-.4.11-.41.29-.57.4-.8.02-.04.04-.07.05-.1.02-.06.04-.12.04-.18,0-.02,0-.04,0-.06.02-.25-.07-.49-.09-.87-.01-.37.05-.92.4-1.61-.06.07-.36.38-.7.8-.03-.12-.06-.26-.1-.4,0,0-.3-1.22,0-1.61.05-.06.1-.11.1-.11.07-.07.11-.08.17-.14.03-.03.06-.06.1-.11,0,.01,0,.01,0,.02.11-.07.27-.2.4-.4.46-.7.14-1.64,0-2.01-.07-.21-.19-.49-.4-.8.18-.15.3-.29.4-.4,1.19-1.38,1.2-3.37,1.2-4.82,0-.39-.02-.46,0-.8.03-.56.06-1.44.4-2.41.24-.67.4-.77.4-1.2,0-.51-.22-.93-.4-1.2-.03-.1-.06-.25,0-.4.09-.25.34-.36.4-.4.25-.15.42-.75,0-2.81-.09-.59.09-1.07.4-1.2.17-.07.34-.02.41,0,.64.19.79,1.15.8,1.2.34.19,1.09.66,1.61,1.61.68,1.26.47,2.47.4,2.81.19.02.62.09.8.4.14.24.07.51,0,.8-.28,1.12-.41,1.68-.4,2.01.01.84.52,1.64.8,1.61.21-.03.36-.51.4-.8.03-.17.01-.31,0-.4-.21.07-.33.04-.4,0-.34-.19-.34-.99,0-2.01.12-.24.26-.4.4-.4.45.02.87,1.76.8,3.22-.08,1.39-.59,2.47-.99,3.14-.11.02-.14.02-.25.04-.24-.21-.5-.49-.73-.84-.62-.92-.72-1.86-.8-2.81-.03-.27-.04-.49-.04-.68v-.02c0-.55.07-.9.04-1.71-.04-1.16-.23-2.13-.4-2.81l-.4.4c-.24.79-.4.8-.4.8-.19.01-.36-.65-.4-.8-.08-.32-.16-.76-.14-1.32h0v-.05s0-.02,0-.02c.02-.31.06-.65.14-1.02-.15.13-.28.26-.4.4-.63.73-.95,1.61-.81,2.41.07.36.29,1.05.81,1.61.14.15.21.19.4.4.02.03.5.56.8,1.2.25.53.26.88.3,1.35-.04.05-.08.09-.12.13,0,0,0,0,0,0-.06.05-.12.1-.18.13-.22.13-.26.07-1.2.4-.31.11-.55.21-.81.4-.18.15-.32.3-.4.4.14.71.08,1.25,0,1.61-.14.7-.39.92-.4,1.61,0,.31,0,.96.4,1.2.33.2.74.03.81,0,.52-.22.7-.83.8-1.2.18-.66.09-1.24,0-1.61-.14.14-.27.27-.4.4.01.38-.15.69-.4.8-.03.02-.27.12-.41,0-.19-.16-.05-.62,0-.8.02-.06.03-.13.05-.19,0-.01,0-.02,0-.03.38-1.59.81-2.07,1.15-2.19.09-.03.44-.12.8-.4.05-.04.1-.08.14-.12.13.16.27.38.39.64.07.15.13.31.17.49.03.09.05.18.06.28.04.31.03.58,0,.8.11.07.27.19.44.36,0,.09.01.22,0,.37-.06.64-.34,1.09-.4,1.2-.06.12-.12.27-.2.44,0,0,0,.01,0,.02-.5,1.13-1.35,3.26-1,3.96.06.12.2.4.4.4.18,0,.34-.23.4-.4.07-.2.02-.3,0-.8,0,0,0-.08,0-.4,0-.44.13-1.31.4-2.41.18-.23.4-.4.4-.4.13-.11.45-.36.75-.39,0,.03.01.05.01.07.12.02.49.09.8.4.02.02.04.04.07.07.08.1.2.26.28.48.03.08.05.16.06.25-.07.29-.05.38,0,.4.08.04.3-.17.4-.4.14-.33.04-.66,0-.8-.06-.2-.42-1.57,0-2.81.12-.34.19-.78.4-.8.33-.04.69.9.8,1.2.31.8.63,2.11.4,4.02-.09-.03-.24-.06-.4,0-.23.08-.34.29-.4.4-.34.63-.04,1.88,0,2.01.13.13.27.27.4.4-.11-.53-.06-.95,0-1.2.04-.19.17-.78.4-.8.1-.01.22.08.4.4.65,1.16.45,2.5.4,2.81-.1.55-.15.88-.4,1.2-.26.33-.48.36-.8.8-.14.19-.32.44-.4.8-.12.52.1.72,0,1.2-.06.26-.17.5-.35.73h-.39c.02-.33.01-.64,0-.92-.15-.06-.08-.03-.22-.08-.34.34-.67.67-1,1-.08.03-.24.07-.4,0-.21-.09-.36-.31-.4-.59v-.05h0v-.06c.03-1.43.22-2.54.4-3.32.18-.8.36-1.24.4-2.01.07-1.22-.19-2.21-.4-2.82-.04,2.35-.22,3.62-.47,4.28-.03.07-.05.13-.08.18,0,0,0,.02-.02.03-.19.44-.48.78-.8.96-.21.13-.43.19-.65.18-.12-.01-.45-.05-.8-.4-.25-.25-.58-.65-.8-1.2-.53-1.29-.13-2.47,0-2.81-.17.04-.77.21-1.21.8-.36.5-.4,1.01-.4,1.2.16.11.66.5.8,1.2.08.33.04.62,0,.8.18.11.45.26.81.4.59.25.87.26,1.2.4.24.11.54.29.84.66.07.25.19.41.29.71-.34.14-.73.34-1.13.64-.24.14-1.22.75-1.61,2.01-.28.91-.1,1.69,0,2.01.27.13.54.27.81.4.01-.08.02-.16.04-.25.03-.14.06-.28.1-.44,0-.02,0-.03.01-.04.17-.61.47-1.37,1.05-2.08.26-.33.54-.59.8-.8.06.02.22.06.4,0,.14.02.5.1.8.4.3.3.39.66.4.91.02.15,0,.26,0,.29-.02,1.32-.06,2.4,0,2.41,0,0,.02-.02.03-.04.1-.07.24-.19.38-.36.28-.36.25-.63.4-1.2,0,0,.25-.95.74-1.56.07-.09.27-.32.47-.45.01-.01.03-.02.05-.03.08-.06.2-.15.32-.3l.05-.07c.19-.27.26-.79.35-1.13.14-.49.2-.71.4-.8.18-.08.36-.02.4,0,.27.11.44.43.4.8.06.3.09.72,0,1.2Z"/>
        <path class="cls-2" d="m103.04,119.01c-.3-.23-.78-.21-1.2.03-.39.29-.78.56-1.17.84-1.09.78-8.52,4.86-16.72,2.1-3.65-1.22-6.19-3.34-7.73-4.94-.03-.02-.05-.06-.07-.08-.02-.03-.04-.06-.05-.1-.02-.05-.03-.1-.05-.15-.01-.04-.01-.08,0-.13,0-.16.06-.31.19-.44.38-.38.88-.81,1.52-1.21.64-.39,1.13-.58,1.97-.86,2.49-.81,4.36-.93,4.77-.94,1.79-.09,3.11.12,4,.28,0,0,1.52.26,3.23,1.11.54.27,1.13.61,1.23,1.17.06.33-.1.5.02.8.18.47.79.64,1.22.77.98.28,1.3,0,2.01.34.26.13.79.39.82.78.07.77-1.72,1.94-2.75,1.69-.13-.04-.48-.14-.8.03-.2.11-.32.28-.39.41.82.13,2.11.23,3.6-.11.88-.19,1.62-.49,2.18-.78.12-.06.22-.16.28-.29.42-.83.8-1.03,1.07-1.05.24,0,.5.12.8-.02,0,0,0,0,.07-.06.21-.17.3-.44.21-.69-.09-.26-.19-.54-.33-.86-.07-.14-.38-.89-.84-1.58-1.1-1.67-2.66-2.6-2.88-2.72-.81-.47-1.65-.79-3.23-1.11-2.9-.59-5.18-.59-7.61-.58-.59,0-3.22.03-5.97.58-.38.08-.93.2-1.59.45-.09.04-.2.08-.31.13.04-.28.13-.6.29-.93.1-.21.21-.4.33-.57.5-.12.96-.22,1.24-.28,2.4-.51,4.63-.59,5.98-.58,0,0,.65-.29.78-.43-.8-.16-2.15-.27-3.21-.31-.88-.03-1.68,0-2.39.07.11-.17.24-.31.39-.42.64-.43,1.34-.02,1.99-.46.15-.11.28-.24.39-.42-1.91-.05-3.39.25-4.38.54-.42.12-.9.27-3.51,1.38-.59.11-1.59.21-2.44,0-.75-.18-1.29-.51-1.62-.75-.44-.42-.89-.84-1.33-1.26-.11-.11-.3-.02-.28.14.15,2.09.5,5.84,3.04,8.71.21.25.45.74.83,1.18.92,1.64,3.23,2.9,5.32,4.26,7.06,4.6,15.52,1.76,18.71.39-.27.53-.73,1.24-1.46,1.9-.34.31-.67.54-.98.72h0c-.55.21-1.14.4-1.78.56-2.4.63-4.5.67-5.98.58-.26-.02-.74.17-.79.42-.05.33.68.71.83.78,1.3.18,3.27.29,5.59-.17,1.16-.23,2.2-.57,3.09-.94.02,0,.04-.02.06-.02.04-.02.08-.03.11-.05.06-.03.13-.06.19-.08.01,0,.03-.01.05-.02.08-.03.16-.07.24-.11.07-.04.15-.07.22-.1.99-.5,1.85-.94,1.95-1.67.04-.31-.09-.4-.02-.8.03-.17.13-.59.76-1.22.24-.24.63-.58,1.2-.9.62-.1.92-.1,1.15-.37.35-.4.44-1.25-.05-1.61Z"/>
      </g>
    </g>
  </g>
</svg>