<?xml version="1.0" encoding="UTF-8"?>
<svg id="Layer_2" data-name="Layer 2" xmlns="http://www.w3.org/2000/svg" viewBox="0 0 223.69 223.69">
  <defs>
    <style>
      .cls-1 {
        fill: #0b7550;
      }

      .cls-2 {
        fill: #e5a3b0;
        stroke: #231f20;
        stroke-miterlimit: 10;
      }
    </style>
  </defs>
  <g id="Layer_1-2" data-name="Layer 1">
    <g>
      <circle class="cls-2" cx="111.85" cy="111.85" r="111.35"/>
      <g>
        <path class="cls-1" d="m128.17,107.99c.26-.2.57-.41.57-.41.46-.32.79-.49.88-.55,1.67-1.09.43-3.31,1.93-5.32.3-.4.57-.64.96-.96,2.64-2.23,6.46-2.75,7.74-2.9,5.38-.66,9.63.77,11.6,1.45,1.02.35,1.85.71,2.42.96.58.51,1.31,1.32,1.45,2.42.2,1.44-.81,1.91-.96,3.39-.24,2.29,2.01,3.08,2.42,5.8.18,1.15-.2,2.23-.96,4.35-3.24,9.01-3.32,8.85-3.39,9.67-.26,3.37.97,3.16.97,8.7,0,3.38-.34,5.34-.49,7.25-1.19,15.13-7.25,24.17-7.25,24.17-1.84,2.81-5.2,9.03-12.56,13.53-9.22,5.65-15.95,6.28-21.75,6.28-1.91,0-4.15-.2-6.68-.74-.07.76-.15,1.52-.24,2.28,6.71,1.36,12.33.89,15.62.4,3.41,1.61,6.28,2.44,8.22,2.9,5.94,1.42,9.39.81,13.53,3.38,1.88,1.16,3.14,2.5,3.87,3.39-.16.2-.63.74-1.45.96-.65.18-1.2.07-1.45,0-.03,0-.06-.01-.09-.03.49.65.8,1.4.93,2.17.99.25,1.87.49,2.54.76.55.02,1.57-.24,2.9-.96,1.44-.79,2.16-1.94,2.42-2.42-.06-.63-.11-1.65,0-2.9.24-2.55,1-3.6.97-5.8-.01-.67-.09-1.68-.49-2.9-1.09-2.29-2.26-5.4-2.9-9.18-.36-2.15-.49-4.1-.49-5.8.36-.1.84-.18,1.36-.12-.05-.69.03-1.4.22-2.06-.43-.11-.81-.19-1.09-.23-.03-.54.03-1.29.49-1.94.3-.43.57-.51.96-.96.69-.78.59-1.32.96-1.93.88-1.45,2.66-.57,3.87-1.94.99-1.11.24-2.17,1.45-3.39.25-.24.98-.97,1.94-.96,1.46.02,2.29,1.75,2.9,1.45.18-.09.15-.27.48-1.45.24-.82.36-1.23.49-1.45.16-.25.73-1.01,2.9-.96l.96.96c.11.01.88.09,1.45-.48.36-.37.46-.8.49-.97-.17-.16-.86-.82-.97-1.93-.09-1,.34-1.72.49-1.94.76-.23,1.81-.65,2.9-1.45,1.61-1.17,2.48-2.57,2.9-3.38-.22-.42-.53-.93-.97-1.45-.33-.4-.66-.72-.96-.96.08-.24.23-.59.49-.97.67-.99,1.5-1.28,2.42-1.93.53-.37,1.23-.97,1.94-1.94.32-1.13.64-2.25.96-3.38-2.08-.63-3.47-1.61-3.39-2.42.05-.5.65-.9,1.45-1.45.76-.51,1.46-.8,1.94-.97.19-.53.43-1.36.48-2.42.07-1.32-.24-1.59,0-2.42.34-1.17,1.11-1.23,1.45-2.42.09-.31.12-.59,0-1.94-.3-3.41-.66-3.31-.48-4.35.19-1.1.67-1.69.48-2.89-.1-.69-.32-.89-.48-.97-.51-.24-1.28.35-1.45.49-.66.51-.65.93-.96.96-.55.06-1.42-1.15-1.45-2.42-.03-1.13.62-1.46.96-2.9.26-1.09.13-1.94,0-2.9-.38-2.73-1.48-2.83-1.45-4.83.01-1.18.4-1.8,0-2.9-.25-.67-.65-1.15-.96-1.45-.13.53-.4,1.16-.97,1.45-.97.49-1.99-.47-2.89,0-.38.2-.81.67-.97,1.94-.03.09-.28.74-.96.96-.44.15-.82.05-.96,0-.17-.7-.3-1.74,0-2.9.18-.67.38-.92.48-1.45.15-.73.09-1.83-.96-3.38-.34.18-.84.37-1.45.48-.8.15-1.48.09-1.93,0-1.4-1.33-3.47-3-6.29-4.34-4.55-2.19-8.75-2.46-11.11-2.42.06.26.2.61.48.97.69.84,1.7.94,1.94.96,1.51.28,3.56.81,5.8,1.94,1.86.93,3.31,2,4.35,2.89.49.39.67,1,.49,1.45-.25.61-1.15.94-1.94.49-2.23-1.46-7.23-4.27-14.01-4.35-11.62-.14-19.07,7.83-20.3,9.18-.5.85-1.05,1.98-1.45,3.39-.62,2.17-.6,4.08-.49,5.32-.53.07-1.19.2-1.93.49-.44.17-.82.36-1.17.55-.92.53-1.64,1.34-2.08,2.3-.8,1.67-1.1,2.46-1.59,4.88-.43,2.13-.8,4.16-.48,5.8.22,1.18.73,1.67.96,3.39.03.25.18,1.4,0,2.9-.34,2.81-.42,2.61-.49,4.35-.06,1.53-.24,2.23,1.45,5.8,1.15,2.42,2.25,4.2,2.42,5.8.12,1.17-.32,2.93-2.06,5.72-.12.2.04.44.27.41.41-.06.88-.05,1.32.15.77.37.84,1.06,1.44,1.45.53.34,1.49.48,3.39-.49-.15-.13-2.52-2.42-1.94-3.38.24-.4.92-.45,1.45-.49,1.62-.1,2.25.74,3.39.49.38-.09.42-.32.96-.96-1.01-1.28-1.76-3.27-1.93-5.8-.38-5.46,4.59-8.14,4.34-13.05-.06-1.3-.51-2.96-1.97-4.86.67.3,1.72.2,2.55.45,0,0,3.94.41,8.6-.07,9.18-.97,13.33-6.3,14.3-8.72.26-.73.51-1.67.65-2.76.11-.92.12-1.73.08-2.42h0c-.56.45-1.36.95-2.37,1.35-.78.3-1.53.47-2.21.55-.99.11-1.82.06-2.37,0-2.43-.78-5.37-.87-8.76-.58-3.95.34-8.34,1.64-10.1,3.13-.08-.1,1.6.7,1.52.6-.08-.11-1.85-2.99-2.28-4.57,0,0,0,0,0-.01-.27-1-.03-2.07.59-2.89.38-.5.87-1.08,1.29-1.42Zm-.93,12.53c.33-.52.54-.84,1.25-1.62,1.42-1.56,4.38-2.91,6.96-3.55,4.76-1.19,9.17.31,11.5,1.49,1.02.51,1.71.99,1.96,1.17.03.02.05.03.06.05-.66.9-3.86,4.79-10.41,5.7-7.48,1.05-10.75-1.77-11.89-2.43.07-.13.36-.52.55-.81Z"/>
        <path class="cls-1" d="m144.56,198.36c-.65.18-1.2.07-1.45,0-3.36-.95-7.99-1.89-13.53-1.93-5.07-.04-9.35.67-12.57,1.45-3.29,1.03-10.63,1.93-13.53,1.93-3.61,0-8.5-.25-14.02-2.9-5.3-2.54-8.7-6.19-10.63-8.7.3-3.17.6-6.34.9-9.51.04-.44.29-.84.68-1.06.44-.24,1.04-.49,1.8-.55,1.17-.1,2.06.3,2.42.48,2.96,2.5,8.29,6.37,15.95,8.7,8.55,2.61,15.86,2.04,19.82,1.45.21.1.4.18.6.27-.24-1.05-.22-2.16.14-3.2-3.5.83-6.58.99-9.44.99-4.38,0-10.53-1.08-17.88-4.83-7.81-3.98-12.12-8.99-14.5-12.08-5.99-7.79-8.04-15.39-9.18-19.82-1.35-5.22-1.8-9.75-1.93-13.05-.18-.38-.48-.91-.97-1.45-.39-.43-1.01-1.12-1.45-.97-.26.09-.29.4-.48.97-.22.62-.61,1.78-1.45,2.42-.11.08-.91.67-1.93.48-.13-.02-1.09-.22-1.45-.97-.22-.45-.06-.78,0-1.45.12-1.36-.31-2.46-.48-2.9-.52-1.33-1.08-1.2-1.45-2.42-.13-.41-.43-1.39,0-2.42.58-1.4,2.06-1.84,2.42-1.93.84-.22,1.56-.09,1.93,0,.63-1.26,1.48-3.25,1.93-5.8.5-2.84.16-4.38,0-9.67-.09-3.08-.15-5.07,0-7.73.28-4.83.44-7.31,1.93-10.15.29-.57,1.49-2.76,3.87-4.83,0,0,2.36-2.07,5.8-3.38,4.02-1.54,12.98-4.3,30.45-4.35h.97c3.62-.35,7.67-.56,12.08-.48,4.62.08,8.84.45,12.57.97.32-.16.64-.32.97-.48,0-.15,0-1.9,1.45-2.9,1.13-.78,2.66-.78,3.87,0,.13-.15.38-.48.48-.97.09-.42.04-.77,0-.97-.25.08-.83.24-1.45,0-1.15-.44-1.39-2.01-1.45-2.42-.3-1.92.97-4.31,2.52-5.69-1.6-.11-3.19.03-4.7-.51-.12,0-.24-.01-.36-.02.23.26.44.55.61.9.93,1.94-.24,4.03-.97,5.32-1.41,2.52-3.62,3.78-4.83,4.35-1.7-.36-2.25-.96-2.42-1.45-.33-.96.73-1.62.48-2.9-.24-1.23-1.37-1.33-1.45-2.42-.07-.94.72-1.71,1.45-2.42,1.08-1.05,2.32-1.62,3.38-1.93-1.52-.68-2.64-.65-3.38-.48-.82.18-1.12.5-1.93.48-1.05-.03-1.53-.59-2.42-.97-.77-.32-1.99-.56-3.87,0,.6.38,2.09,1.42,2.9,3.38.23.56.74,1.83.48,3.38-.43,2.6-2.82,5.1-4.83,4.83-.75-.1-1.7-.62-1.93-1.45-.16-.57-.04-1.48.48-1.93.21-.18.48-.28.48-.48,0-.26-.43-.46-.48-.48-1.12-.52-2.89.57-3.87,1.45-.21.19-.38.36-.48.48-.16.64-.32,1.29-.48,1.93-2.15,1.04-3.25.87-3.87.48-.29-.18-.32-.31-1.45-1.45-1.3-1.31-1.31-1.19-1.45-1.45-.77-1.34.2-3.3.97-4.83.38-.75.98-1.79,1.93-2.9-.58-.74-1.08-.93-1.45-.97-.66-.06-.87.38-1.93.48-.67.07-.79-.09-1.45,0-.63.08-1.13.3-1.45.48.14.33.34.83.48,1.45.21.9.51,2.21,0,3.38-.54,1.23-1.49,1.25-1.45,1.93.06.91,1.76.93,2.42,2.42.04.1.48,1.16,0,1.93-.6.97-2.32,1.01-3.38.48-1.15-.57-.89-1.47-2.42-2.42-.68-.42-1.06-.44-1.45-.97-.62-.83-.49-1.86-.48-1.93.17-1.29,1.22-1.51,1.93-2.9.29-.58.61-1.5.48-2.9-.71-.22-1.7-.45-2.9-.48-1.44-.03-2.61.24-3.38.48.09.34.23.86.48,1.45.47,1.11.75,1.19.97,1.93.32,1.08.07,2.13,0,2.42-.23.89-.61,1.23-.48,1.93.07.4.26.66.48.97.85,1.17,1.86,1.27,1.93,1.93.02.2-.03.52-.48.97-1.56.55-2.65.49-3.38,0-.74-.49-.51-1.02-1.45-1.93-1-.98-1.65-.75-2.9-1.93-.58-.56-.98-.93-.97-1.45.01-.75.86-1,1.45-1.93.35-.55.68-1.44.48-2.9-1.18-1.02-1.94-1.1-2.42-.97-.54.15-.71.57-1.45.97-.72.39-1.44.47-1.93.48l.48.48c.83.82.87.86.97.97.42.51.61,1.31.48,1.93-.26,1.27-1.75,1.28-1.93,2.42-.12.75.42,1.55.97,1.93.65.45,1.13.19,1.93.48.57.21,1.3.7,1.93,1.93-.47.31-1.12.68-1.93.97-.95.33-1.8.45-2.42.48-.33-1.06-1-2.54-2.42-3.38-1.69-1-3.63-.61-3.87-1.45-.16-.58.71-1,.97-2.42.11-.59.06-1.11,0-1.45-.38-.19-1.26-.58-2.42-.48-1.64.14-2.65,1.18-2.9,1.45.47.45,1.02,1.14.97,1.93-.04.64-.43.85-.48,1.45-.09.91.63,1.93,1.45,2.42,1.78,1.05,3.74-.62,4.83.48.32.32.62.93.48,1.45-.15.58-.75.73-.97,1.45-.11.38-.06.73,0,.97-.58.09-1.23.24-1.93.48-1.22.42-2.19.97-2.9,1.45-.31-.05-.71-.16-.97-.48-.44-.54-.13-1.21-.48-1.45-.41-.28-1.26.34-1.45.48-.29.21-1.41,1.09-1.45,2.42-.03.9.48,1.01.48,1.93,0,1.06-.65,2.28-1.45,2.42-.37.06-.53-.15-1.93-.97-1.04-.6-1.57-.91-1.93-.97-.41-.06-1.44-.09-2.9,1.45.32.64.64,1.29.97,1.93.42.11,1.09.36,1.45.97.71,1.18-.17,3.05-1.45,3.87-.97.62-2.01.54-2.42.48-.16.18-.41.51-.48.97-.27,1.61,2.03,2.47,1.93,4.35-.03.64-.34,1.42-.97,1.93-.35.29-.73.42-.97.48-.05.11-.3.74,0,1.45.28.65.85.91.97.97.95.71.97,1.81.97,1.93,0,1.18-.87,1.86-.97,1.93-.44.12-.93.28-1.45.48-.75.3-1.4.64-1.93.97.26.73.57,1.91.48,3.38-.05,1-.27,1.82-.48,2.42-1.07.62-1.64,1.78-1.45,2.9.22,1.25,1.31,1.86,1.45,1.93h1.45c.2.29.48.81.48,1.45,0,2.01-2.73,2.6-2.9,4.35-.16,1.7,2.64,1.89,3.38,4.83.56,2.2-.33,3.1.48,5.32.71,1.93,2.4,4.07,3.87,3.87.9-.13,1.55-1.25,2.42-.97.46.15.74.61.97.97.11.17.5.83.48,1.45-.05,1.49-2.45,1.91-2.42,2.9.04,1.17,3.46,1.21,3.87,2.9.33,1.36-1.58,2.57-.97,3.87.2.42.59.7.97.97.87.61,1.27.4,1.93.97.47.4.69.87.97,1.45.33.69.45,1.27.48,1.45.27,1.4-.26,1.59,0,2.42.37,1.16,1.55,1.17,1.93,2.42.18.58.09,1.13,0,1.45-1.66,1.67-2.97,1.97-3.87,1.93-2.12-.09-2.71-2.09-5.8-3.38-2.68-1.12-3.13.01-4.83-.97-3.35-1.94-1.6-6.98-5.32-8.7-2.09-.96-3.43-.07-4.83-1.45-2.33-2.3-.45-5.8-2.9-8.22-1.76-1.74-3.48-.65-4.83-2.42-1.69-2.2.59-4.37-.97-7.25-1.36-2.51-3.75-2.03-4.83-4.83-.3-.78-.36-1.81-.48-3.87-.16-2.69.21-3.53-.48-4.83-.65-1.23-1.22-1.16-1.93-2.42-1.55-2.71-.59-5.94-.48-6.28.11-.35.72-1.53,1.93-3.87.59-1.15,1.13-2.13.97-3.38-.09-.7-.3-.76-.48-1.45-.65-2.45,1.14-4.91,1.45-5.32.26-.34,1.24-1.61,2.9-2.42.85-.41,1.29-.42,1.93-.97.79-.67,1.05-1.44,1.45-2.42.86-2.08,1.29-3.13,1.93-3.87,1.43-1.65,3.9-2.45,5.32-2.9.46-.14,1.18-.36,1.93-.97.86-.7,1.22-1.49,1.45-1.93,1.08-2.04,2.96-3.27,3.87-3.87,2.37-1.55,4.77-1.83,5.8-1.93,1.18-.12,2.18-.07,2.9,0,.13-.6.28-1.25.48-1.93.15-.51.31-1,.48-1.45-.21-.01-1.82-.14-2.9-.48-.42-.13-.71-.28-.97-.48-.23-.17-.39-.36-.48-.48-.39-3.56-.72-7.26-.97-11.12-.3-4.71-.45-9.23-.48-13.53l1.45-1.45v-10.63c.31-.29.8-.67,1.45-.97,1-.45,1.9-.5,2.42-.48.81-1.29,1.61-2.58,2.42-3.87.86-.5,1.99-1.05,3.38-1.45.89-.26,1.71-.4,2.42-.48.16,1.45.32,2.9.48,4.35.97-.16,1.93-.32,2.9-.48-.16-1.45-.32-2.9-.48-4.35.33-.6,1.27-2.1,2.9-2.42.49-.1.91-.04,1.45,0,1.45.12,2.6.57,3.38.97.16.81.32,1.61.48,2.42h2.9c.32,2.09.64,4.19.97,6.28,4.19-.59,9.07-1.01,14.5-.97,4.84.03,9.22.43,13.05.97l1.45-2.9h1.93c.25-.59.56-1.24.97-1.93.32-.55.65-1.03.97-1.45.8-.23,1.78-.42,2.9-.48.52-.03,1.01-.02,1.45,0,0,.13,0,.26,0,.39.43-.17.89-.3,1.36-.36.28-.13.57-.25.87-.34.53-.16,1.04-.34,1.58-.48-.13-.21-.26-.43-.42-.66-1.09-.25-2.39-.44-3.87-.48-2.81-.08-5.14.45-6.77.97-.63.58-1.28,1.22-1.93,1.93-.92,1-1.73,1.98-2.42,2.9-3.44-.29-7.16-.47-11.12-.48-4.33-.01-8.37.17-12.08.48-.1-.89-.26-1.86-.48-2.9-.28-1.26-.61-2.39-.97-3.38-1.29-.66-2.91-1.37-4.83-1.93-1.81-.53-3.46-.82-4.83-.97-.65.12-1.13.32-1.45.48-1.36.68-2.41,1.93-2.42,1.93-1.13-.02-2.63.07-4.35.48-1.6.39-2.9.95-3.87,1.45-1.13,1.61-2.26,3.22-3.38,4.83-.58.04-1.72.21-2.9.97-1.03.66-1.63,1.46-1.93,1.93v10.15c-.81.97-1.61,1.93-2.42,2.9.21,5,.53,10.16.97,15.47.29,3.46.61,6.84.97,10.15.03.11.07.29,0,.48-.1.29-.37.43-.48.48-1.67.85-3.38,1.45-3.38,1.45-1.85.65-3,1.98-3.38,2.42-1.01,1.17-.84,1.66-1.93,2.9-.42.47-.88.89-2.42,1.93-3.61,2.45-4.31,2.33-5.8,3.87-.69.71-1.5,1.56-1.93,2.9-.31.96-.1,1.16-.48,1.93-.52,1.04-1.4,1.67-2.42,2.42-.84.61-.9.52-1.45.97-1.02.83-1.55,1.74-1.93,2.42-.62,1.09-1.58,2.76-1.45,4.83.09,1.48.64,1.66.48,2.9-.14,1.13-.7,1.68-1.45,2.9-.35.57-1.45,2.44-1.93,4.35-.79,3.19.32,5.9.48,6.28.7,1.63,2.08,1.72,2.42,3.38.1.5.18,1.41,0,2.42-.17.96-.42,1.13-.48,1.93-.06.83.14,1.45.48,2.42.36,1.04.69,1.98,1.45,2.9,1.14,1.39,1.99,1.21,2.9,2.42.81,1.07.9,2.38.97,2.9.11.89,0,1.22,0,1.93,0,.15.08,3.24,1.93,4.83,1.6,1.37,3.09.43,4.35,1.93.34.42.55,1.08.97,2.42.71,2.29.63,3.04.97,3.87.45,1.14,1.72,2.51,5.32,3.38.43.14,1.01.41,1.45.97.32.41.43.8.48.97,0,0,.31,1.03,1.45,3.38.8,1.64,2.73,3.78,4.83,3.87.82.03,1.3-.26,2.42,0,1.16.27,1.8.85,1.93.97.58.53.78,1.08.97,1.45.76,1.53,2.29,2.32,3.38,2.9,2.42,1.27,4.8,1.1,5.8.97.64.48,1.29.97,1.93,1.45.08,2.11.09,4.37,0,6.77-.09,2.4-.26,4.66-.48,6.77.55,1.41,1.45,3.31,2.9,5.32,4.15,5.74,9.71,8.01,11.6,8.7,1.87.68,3.34.93,6.28,1.45,3.95.69,7.29.9,9.67.97,1.46-.2,3.64-.52,6.28-.97,10.59-1.78,11.12-2.17,15.95-2.42,2.16-.11,7.31-.21,13.53,1.45,2.1.56,4.07.95,5.32,1.45.53.02,1.51-.23,2.8-.91-1.44-.63-2.8-1.4-4.07-2.27-.19.11-.4.22-.66.29Z"/>
        <path class="cls-1" d="m124.93,27.24c.27,0,.54,0,.78.02-.16,8.54-.32,17.08-.48,25.62,0,.11-.08.87.48,1.45.12.12.73.7,1.45.48.57-.17.97-.76.97-1.45.01-7.15.05-12.33,0-13.53,0-.15-.05-1.12.48-1.93.16-.25.32-.39.48-.48.48-.28,1.06-.21,1.45,0,.71.38.86,1.28.97,1.93.1.61.05,1.12,0,1.45-.24,4.2-.41,8.56-.48,13.05-.06,3.64-.06,7.19,0,10.63.44.1,2.53.62,3.38,2.42.33.7.39,1.41.3,2.1.64.37,1.24.79,1.8,1.25.74-2.63,3.35-5.24,5.15-4.81,1.78.43,2.69,3.79,2.42,6.28-.23,2.16-1.35,3.66-1.93,4.35v.97c1.01-.77,2.57-2.17,3.87-4.35,1.25-2.11,1.73-4.08,1.93-5.32.48.31,1.13.67,1.93.97.73.27,1.4.41,1.93.48.11,1.18.15,3.09-.48,5.32-.64,2.26-1.7,3.89-2.42,4.83h.97c1.37-1.04,2.05-2.1,2.42-2.9.55-1.2.56-2.15,1.45-3.38.5-.69,1.05-1.16,1.45-1.45.64.16,1.29.32,1.93.48.13.1.32.25.48.48.51.72.32,1.42.48,1.93.17.54.83,1.14,2.9,1.45.17.31.39.81.48,1.45.08.56.02.92,0,1.3.98-1.28,2.19-2.37,3.55-3.24.05-.39.13-.77.22-1.15-.66-.36-1.57-.78-2.81-1.26.32-11.44.64-22.88.97-34.32-.19-.57-.69-1.82-1.93-2.9-1.14-.98-2.32-1.32-2.9-1.45-.48.32-1.12.68-1.93.97-1.16.41-2.19.49-2.9.48-.34-.29-.79-.77-.97-1.45-.14-.54-.02-.89,0-1.45.02-.56-.04-1.38-.48-2.42-.83-.2-1.8-.39-2.9-.48-1.29-.12-2.43-.08-3.38,0-.25.45-.57.94-.97,1.45-.66.84-1.35,1.47-1.93,1.93h-2.9c-.13.09-.32.25-.48.48-.47.7-.18,1.32-.48,1.93-.3.6-.99.82-1.45.97-1.32.42-3.1.14-3.87-.97-.21-.3-.3-.68-.48-1.45-.37-1.57-.07-1.93-.48-2.42-.55-.64-1.31-.26-1.93-.97-.39-.44-.4-.93-.48-1.45-.13-.84-.48-2-1.45-3.38-1.09-.25-2.39-.44-3.87-.48-.08,0-.16,0-.25,0,0,.64,0,1.28-.06,1.92Z"/>
        <path class="cls-1" d="m193.87,115.71c.14-.75.4-1.27.48-1.45.81-1.7.55-4.22.48-4.83-.32-3.13-2.12-5.39-2.9-6.28-.16-.2-.39-.53-.48-.97-.11-.48-.02-.87,0-.97.2-1.02-.42-3.09-.97-4.35-.99-2.25-2.52-3.66-3.38-4.35-.14-.09-.35-.24-.48-.48-.32-.58-.06-1.27,0-1.45.46-1.49-1.81-4.35-3.38-5.8-1.93-1.77-4.01-2.55-5.32-2.9-.37-.78-1.34-2.55-3.38-3.87-2.48-1.6-4.98-1.51-5.8-1.45-.24-.08-.59-.23-.97-.48-.58-.4-.89-.86-.97-.97-.37-.52-1.39-1.25-4.04-2.29-.28.31-.57.61-.87.89-.02.08-.03.17-.06.25-.18.66-.42,1.29-.7,1.9.14.3.28.7.35,1.18.09.64,0,1.01,0,1.45,0,.57.17,1.39.97,2.42.3-.29.73-.76.97-1.45.32-.93.05-1.59.48-1.93.37-.3.94-.14,1.45,0,.34.09,1.94.58,2.42,1.93.22.63.02.92,0,1.93-.02,1.09.19,2.07.48,2.9.26-.18.64-.49.97-.97.62-.9.44-1.54.97-1.93.54-.41,1.4-.27,1.93,0,1.16.58,1.6,2.2,1.45,3.38-.12.95-.57,1.18-.48,1.93.1.88.84,1.53,1.45,1.93h.48c.13-.19.33-.52.48-.97.43-1.25,0-2,.48-2.9.14-.26.4-.63.97-.97.47.03,1.18.13,1.93.48,2.2,1.04,3.36,3.58,3.38,5.8.02,2.59-1.5,4.36-1.93,4.83.6.76,1.31,1.91,1.45,3.38.14,1.56-.46,2.32-.48,3.87-.01,1.04.23,2.53,1.45,4.35-.08-.62-.13-1.45,0-2.42.11-.77.29-1.43.48-1.93.64-.48,1.29-.97,1.93-1.45.16-.97.32-1.93.48-2.9.1-.21.26-.43.48-.48.76-.18,1.76,1.61,1.93,1.93,1.01,1.84.1,2.8.97,4.35.63,1.13,1.17.85,1.93,1.93,1.56,2.24.61,5.4.48,5.8-.78,2.46-2.01,2.04-2.9,4.83-.29.9-.48,1.97-1.45,2.9-.58.57-1.01.65-1.45.97-.84.6-1.65,1.96-1.45,5.32,1-.15,2.15-.52,2.9-1.45.98-1.22.51-2.47,1.45-3.87.47-.7,1.31-1.45,2.9-1.93.45,1.98.25,3.42,0,4.35-.47,1.75-1.31,2.41-1.93,4.35-.51,1.59-.53,2.98-.48,3.87-.81.32-1.61.64-2.42.97-.16-.48-.32-.97-.48-1.45-.4.15-.96.44-1.45.97-.56.61-.72,1.24-.97,1.93-.25.71-.69,1.72-1.45,2.9,1.61.27,2.44-.08,2.9-.48.68-.59.64-1.35,1.45-1.93.63-.46,1.38-.51,1.93-.48.14.09.34.24.48.48.76,1.32-1.59,2.97-2.42,6.28-.57,2.27.28,2.55-.48,4.35-.86,2.03-1.99,1.85-2.9,3.87-.99,2.2.06,3.08-.97,4.83-.91,1.55-1.9,1.16-3.87,2.9-2.48,2.2-1.7,3.54-3.87,5.32-2.2,1.8-3.16.56-5.8,2.42-2.52,1.77-2.58,3.55-4.83,4.35-1.65.58-1.9-.42-3.87,0-3.15.67-3.85,3.29-5.8,2.9-.9-.18-1.04-.8-2.9-1.45-.8-.28-1.48-.42-1.93-.48,0-.17,0-.36.01-.56-.26.14-.22.1,0,0,0-.03,0-.05,0-.08-.48.21-.96.39-1.45.54.08.53.14,1.06.17,1.61,0,.19,0,.38,0,.56l.77.6c0-.08,0-.17,0-.25.49-.14,1.2-.25,1.93,0,.74.25.87.64,1.45.97,1.39.78,3.31-.04,4.35-.48,1.7-.72,1.72-1.32,2.9-1.45,1.28-.14,1.52.53,2.9.48,1.45-.04,2.52-.83,3.38-1.45,1.61-1.17,1.58-1.91,2.9-2.9,1.27-.95,1.7-.5,3.87-1.45.87-.39,2.42-1.08,3.87-2.42,1.7-1.57,1.21-2.23,2.9-4.35,2.17-2.72,3.36-2.03,4.83-4.35,1.31-2.05.37-2.6,1.93-5.32,1.03-1.8,1.8-2.18,2.42-3.87.56-1.53-.3-2.57.48-3.87.44-.73.78-.66,1.45-1.45,1.22-1.44,1.39-3.19,1.45-3.87.27-2.79-1.17-3.52-.48-5.32.41-1.08.96-.91,1.93-2.42,1.15-1.79,1.36-3.57,1.45-4.35.29-2.72-.52-4.84-.97-5.8-.08-.44-.14-1.13,0-1.93Z"/>
        <path class="cls-1" d="m179.85,147.13c.35.2,1.94-1.11,2.42-2.9.55-2.09-.67-3.92-.97-4.35-.28.08-1.29.42-1.93,1.45-.15.24-.63,1.01-.48,1.93.14.89.72.95.97,1.93.28,1.09-.24,1.8,0,1.93Z"/>
        <path class="cls-1" d="m73.51,101.2c-.4-.63.25-1.6.48-1.93.06-.08.4-.59.97-.97,3.62-2.41,8.22-2.9,8.22-2.9,3.23-.35,6.28-.67,10.15.48,5.95,1.78,9.34,5.71,10.63,7.25,2.23,2.66,3.47,5.32,4.16,7.21.2.54.21,1.14-.05,1.66-.16.34-.42.62-.73.8-.89.5-2.22.15-2.9-.97-.44-1.15-3.58-9.1-12.08-12.08-6.71-2.36-12.75-.22-14.5.48-1.01.41-1.84.84-2.48,1.2-.41.23-.89.3-1.33.15-.21-.07-.41-.19-.54-.39Z"/>
        <path class="cls-1" d="m101.06,150.03c-.1-.3-.28-.89,0-1.45.36-.74,1.26-.93,1.45-.97.5.79,1.01,1.43,1.45,1.93.88.99,1.39,1.54,1.93,1.45.55-.09.63-.75,1.45-.97.41-.11.75-.04.97,0,1.52.3,2.33,2.21,2.42,2.42-.17.27-.47.66-.97.97-.17.11-.81.48-1.93.48-2.2,0-5.98-1.43-6.77-3.87Z"/>
        <path class="cls-1" d="m96.74,166.95c-.27-.14-2.02-1.11-2.26-2.9-.03-.26-.27-2,1.13-2.9.62-.4,1.31-.47,1.7-.48,1.19.5,2.96,1.06,5.09.97,2.67-.12,3.34-1.16,5.65-.97,2.53.22,2.89,1.57,5.09,1.45,1.93-.11,1.98-1.16,3.96-1.45,2.8-.4,4.01,1.53,6.78,1.45,1.23-.03,2.99-.47,5.09-2.42.4,1.2.32,2.15,0,2.9-.46,1.12-1.17,1.18-1.7,2.42-.6,1.41.12,1.78-.57,2.9-.59.95-1.31,1-1.7,1.93-.3.73-.17,1.43,0,1.93.38.16.75.32,1.13.48v.97c-.23-.04-.64-.09-1.13,0-.57.11-.95.35-1.13.48-.38-.16-.75-.32-1.13-.48-.72-.57-1.55-1.36-2.26-2.42-.22-.33-.41-.66-.57-.97h-.57c-1.32.34-3.52.75-6.22.48-4.03-.41-6.77-2.1-7.92-2.9-.02-.02-.31-.5,0-.97.23-.33.67-.53,1.13-.48,1.23.54,3.62,1.4,6.78,1.45,3.48.05,6.09-.9,7.35-1.45-.02-.14-.12-.58-.57-.97-.12-.1-.51-.41-1.13-.48h-7.92c-2.79,0-2.73,0-2.83,0-1.68-.17-2.4-.55-5.09-.97-1.09-.17-1.64-.21-2.26,0-1.18.4-1.65,1.36-1.7,1.45-.44.93-.08,1.75,0,1.93-.57-.32-1.13-.64-1.7-.97-.19.32-.38.64-.57.97Z"/>
        <path class="cls-1" d="m140.21,162.32c.05-.79,0-1.3-.2-2.54-.12-.75-.12-.68-.36-1.86-.05-.23-.1-.56-.11-.96-.05-1.3.33-2.33.62-2.99.99-2.25,2.47-3.85,2.47-3.85,1.32-1.43,3.01-3.93,4.51-8.63.07-.24.21-.63.53-1.03.15-.19.44-.51.89-.75.45,2.08,1.94,3.74,1.14,8.11-.31,1.66-.93,3.26-1.83,4.69-1.2,1.92-3.34,3.66-4.36,5.06-2.11,2.9-3.28,7.24-3.66,7.12-.14-.04.09-.66.37-2.37Z"/>
        <path class="cls-1" d="m105.87,120.54c-.38-.36-.9-.08-1.6-.48-.53-.3-.74-.76-1.06-1.45-.2-.42-.44-1.07-.53-1.93-.4-.52-1.08-1.27-2.13-1.93-.83-.52-1.57-.8-2.13-.97-2.97-.9-5.55-1.28-7.44-1.45-4.24-.38-7.46.09-9.04.38h-.01c-1.69.06-3.72,0-5.98-.33-1.79-.27-3.38-.65-4.74-1.07.27.81.64,1.74,1.15,2.73.53,1.04,1.1,1.92,1.63,2.64.92,1.15,5.53,6.65,13.81,7.73,5.18.68,9.3-.7,11.16-1.45-.05.57-.25,1.57-1.06,2.42-.23.24-1.03,1.01-3.72,1.45-1.28.21-3.31.39-5.84,0-.02.13-.03.29,0,.48.08.49.38.83.53.97.89.24,2.17.49,3.72.48.62,0,4.6-.07,7.97-2.42.84-.58,1.24-1.03,3.19-2.42.88-.63,1.62-1.12,2.13-1.45.44-1.21.26-1.7,0-1.93Zm-7.97.97c-1.51.58-5.55,1.89-10.62.97-5.68-1.04-9.05-4.24-10.09-5.32.67-.57,1.73-1.33,3.19-1.93,1.08-.45,2.46-.83,4.78-.97,3.6-.21,6.93.31,9.57.97.83.3,1.32.69,1.6.97.81.81.8,1.56,1.6,2.9.4.67.81,1.16,1.06,1.45-.36.32-.72.64-1.07.97Z"/>
      </g>
    </g>
  </g>
</svg>